G04 Layer: TopLayer*
G04 EasyEDA v6.4.25, 2021-12-06T02:48:24+01:00*
G04 3d30912b60d9496eba34c91f18b07311,db93e8822c7348a7aec6f6efa12e507d,10*
G04 Gerber Generator version 0.2*
G04 Scale: 100 percent, Rotated: No, Reflected: No *
G04 Dimensions in millimeters *
G04 leading zeros omitted , absolute positions ,4 integer and 5 decimal *
%FSLAX45Y45*%
%MOMM*%

%ADD10C,0.2540*%
%ADD11C,0.3500*%
%ADD12C,0.6096*%
%ADD13R,1.3000X0.3000*%
%ADD14R,1.6000X2.0000*%

%LPD*%
G36*
X101244Y-2590088D02*
G01*
X88747Y-2589123D01*
X78486Y-2586786D01*
X68630Y-2582976D01*
X59385Y-2577846D01*
X51003Y-2571445D01*
X43637Y-2563876D01*
X37388Y-2555392D01*
X32410Y-2546096D01*
X28803Y-2536139D01*
X26670Y-2525826D01*
X25908Y-2514752D01*
X25908Y-101244D01*
X26873Y-88747D01*
X29209Y-78486D01*
X33020Y-68630D01*
X38150Y-59385D01*
X44551Y-51003D01*
X52120Y-43637D01*
X60604Y-37388D01*
X69951Y-32410D01*
X79857Y-28803D01*
X90170Y-26670D01*
X101244Y-25908D01*
X3424732Y-25908D01*
X3437229Y-26873D01*
X3447542Y-29209D01*
X3457397Y-33020D01*
X3466592Y-38150D01*
X3474974Y-44551D01*
X3482390Y-52120D01*
X3488639Y-60604D01*
X3493617Y-69951D01*
X3497173Y-79857D01*
X3499307Y-90170D01*
X3500069Y-101244D01*
X3500069Y-2514752D01*
X3499104Y-2527249D01*
X3496767Y-2537561D01*
X3493008Y-2547366D01*
X3487826Y-2556611D01*
X3481425Y-2564993D01*
X3473907Y-2572359D01*
X3465372Y-2578608D01*
X3456076Y-2583586D01*
X3446170Y-2587193D01*
X3435807Y-2589326D01*
X3424732Y-2590088D01*
G37*

%LPC*%
G36*
X2958439Y-2166112D02*
G01*
X2991510Y-2166112D01*
X2997860Y-2165400D01*
X3003296Y-2163521D01*
X3008223Y-2160422D01*
X3012287Y-2156307D01*
X3015386Y-2151430D01*
X3017316Y-2145944D01*
X3018028Y-2139645D01*
X3018028Y-2096566D01*
X2958439Y-2096566D01*
G37*
G36*
X2832658Y-2166112D02*
G01*
X2865729Y-2166112D01*
X2865729Y-2096566D01*
X2806192Y-2096566D01*
X2806192Y-2139645D01*
X2806903Y-2145944D01*
X2808833Y-2151430D01*
X2811881Y-2156307D01*
X2815996Y-2160422D01*
X2820873Y-2163521D01*
X2826359Y-2165400D01*
G37*
G36*
X2489200Y-2062937D02*
G01*
X2499004Y-2062073D01*
X2508453Y-2059533D01*
X2517394Y-2055418D01*
X2525420Y-2049780D01*
X2532380Y-2042820D01*
X2538018Y-2034793D01*
X2542133Y-2025853D01*
X2544673Y-2016404D01*
X2545537Y-2006600D01*
X2544673Y-1996795D01*
X2542133Y-1987346D01*
X2538018Y-1978406D01*
X2532380Y-1970379D01*
X2530805Y-1968804D01*
X2528570Y-1965502D01*
X2527808Y-1961591D01*
X2527808Y-1810918D01*
X2528570Y-1807006D01*
X2530805Y-1803704D01*
X2533700Y-1800809D01*
X2537460Y-1798421D01*
X2541879Y-1797862D01*
X2546146Y-1799285D01*
X2549347Y-1802384D01*
X2550922Y-1806549D01*
X2559405Y-1806549D01*
X2562199Y-1806956D01*
X2565755Y-1808683D01*
X2571191Y-1810613D01*
X2577541Y-1811324D01*
X2706319Y-1811324D01*
X2713126Y-1810461D01*
X2718155Y-1808683D01*
X2721711Y-1806956D01*
X2724505Y-1806549D01*
X2732836Y-1806549D01*
X2732125Y-1799640D01*
X2731262Y-1795424D01*
X2732125Y-1791157D01*
X2732836Y-1784857D01*
X2732836Y-1756003D01*
X2732125Y-1749653D01*
X2731262Y-1745437D01*
X2732125Y-1741170D01*
X2732836Y-1734820D01*
X2732836Y-1705965D01*
X2732125Y-1699666D01*
X2731262Y-1695399D01*
X2732125Y-1691182D01*
X2732836Y-1684274D01*
X2724505Y-1684274D01*
X2721711Y-1683867D01*
X2718155Y-1682140D01*
X2712720Y-1680210D01*
X2706370Y-1679498D01*
X2577592Y-1679498D01*
X2570784Y-1680362D01*
X2568244Y-1681225D01*
X2564892Y-1681835D01*
X2559964Y-1681835D01*
X2551938Y-1682597D01*
X2545588Y-1684324D01*
X2538069Y-1688338D01*
X2531821Y-1693468D01*
X2462276Y-1763064D01*
X2457145Y-1769262D01*
X2453589Y-1775968D01*
X2451404Y-1783181D01*
X2450592Y-1791207D01*
X2450592Y-1961591D01*
X2449830Y-1965502D01*
X2447594Y-1968804D01*
X2446020Y-1970379D01*
X2440381Y-1978406D01*
X2436266Y-1987346D01*
X2433726Y-1996795D01*
X2432862Y-2006600D01*
X2433726Y-2016404D01*
X2436266Y-2025853D01*
X2440381Y-2034793D01*
X2446020Y-2042820D01*
X2452979Y-2049780D01*
X2461006Y-2055418D01*
X2469946Y-2059533D01*
X2479395Y-2062073D01*
G37*
G36*
X2806192Y-1983892D02*
G01*
X2865729Y-1983892D01*
X2865729Y-1914296D01*
X2832658Y-1914296D01*
X2826359Y-1915007D01*
X2820873Y-1916938D01*
X2815996Y-1920036D01*
X2811881Y-1924100D01*
X2808833Y-1929028D01*
X2806903Y-1934464D01*
X2806192Y-1940763D01*
G37*
G36*
X2958439Y-1983892D02*
G01*
X3018028Y-1983892D01*
X3018028Y-1940763D01*
X3017316Y-1934464D01*
X3015386Y-1929028D01*
X3012287Y-1924100D01*
X3008223Y-1920036D01*
X3003296Y-1916938D01*
X2997860Y-1915007D01*
X2991510Y-1914296D01*
X2958439Y-1914296D01*
G37*
G36*
X2577541Y-1911350D02*
G01*
X2603093Y-1911350D01*
X2603093Y-1884273D01*
X2551023Y-1884273D01*
X2551734Y-1891182D01*
X2553665Y-1896618D01*
X2556764Y-1901545D01*
X2560828Y-1905609D01*
X2565755Y-1908708D01*
X2571191Y-1910638D01*
G37*
G36*
X2680817Y-1911350D02*
G01*
X2706370Y-1911350D01*
X2712720Y-1910638D01*
X2718155Y-1908708D01*
X2723083Y-1905609D01*
X2727147Y-1901545D01*
X2730246Y-1896618D01*
X2732125Y-1891182D01*
X2732836Y-1884273D01*
X2680817Y-1884273D01*
G37*
G36*
X2551023Y-1856587D02*
G01*
X2603093Y-1856587D01*
X2603093Y-1834235D01*
X2551023Y-1834235D01*
X2551734Y-1841144D01*
X2552649Y-1845411D01*
X2551734Y-1849678D01*
G37*
G36*
X2680817Y-1856587D02*
G01*
X2732836Y-1856587D01*
X2732125Y-1849678D01*
X2731262Y-1845411D01*
X2732125Y-1841144D01*
X2732836Y-1834235D01*
X2680817Y-1834235D01*
G37*
G36*
X2551023Y-1656588D02*
G01*
X2603093Y-1656588D01*
X2603093Y-1634236D01*
X2551023Y-1634236D01*
X2551734Y-1641144D01*
X2552649Y-1645412D01*
X2551734Y-1649679D01*
G37*
G36*
X2680817Y-1656588D02*
G01*
X2732836Y-1656588D01*
X2732125Y-1649679D01*
X2731262Y-1645412D01*
X2732125Y-1641144D01*
X2732836Y-1634236D01*
X2680817Y-1634236D01*
G37*
G36*
X2680817Y-1606550D02*
G01*
X2732836Y-1606550D01*
X2732125Y-1599641D01*
X2731262Y-1595424D01*
X2732125Y-1591157D01*
X2732836Y-1584248D01*
X2680817Y-1584248D01*
G37*
G36*
X2551023Y-1606550D02*
G01*
X2603093Y-1606550D01*
X2603093Y-1584248D01*
X2551023Y-1584248D01*
X2551734Y-1591157D01*
X2552649Y-1595424D01*
X2551734Y-1599641D01*
G37*
G36*
X2680817Y-1556562D02*
G01*
X2732836Y-1556562D01*
X2732125Y-1549654D01*
X2731262Y-1545437D01*
X2732125Y-1541170D01*
X2732836Y-1534261D01*
X2680817Y-1534261D01*
G37*
G36*
X2551023Y-1556562D02*
G01*
X2603093Y-1556562D01*
X2603093Y-1534261D01*
X2551023Y-1534261D01*
X2551734Y-1541170D01*
X2552649Y-1545437D01*
X2551734Y-1549654D01*
G37*
G36*
X812800Y-1539443D02*
G01*
X822604Y-1538579D01*
X832053Y-1536039D01*
X840994Y-1531924D01*
X849020Y-1526286D01*
X855980Y-1519326D01*
X861618Y-1511300D01*
X865733Y-1502359D01*
X868273Y-1492910D01*
X869137Y-1483106D01*
X868273Y-1473301D01*
X865733Y-1463852D01*
X861618Y-1454912D01*
X855980Y-1446885D01*
X849020Y-1439926D01*
X840994Y-1434287D01*
X831850Y-1430070D01*
X828802Y-1427835D01*
X826719Y-1424584D01*
X826008Y-1420876D01*
X826008Y-616508D01*
X826769Y-612597D01*
X829005Y-609295D01*
X830580Y-607720D01*
X836218Y-599694D01*
X840333Y-590753D01*
X842873Y-581304D01*
X843737Y-571500D01*
X842873Y-561695D01*
X840333Y-552246D01*
X836218Y-543306D01*
X830580Y-535279D01*
X823620Y-528320D01*
X815594Y-522681D01*
X806653Y-518566D01*
X797204Y-516026D01*
X787400Y-515162D01*
X777595Y-516026D01*
X768146Y-518566D01*
X759206Y-522681D01*
X751179Y-528320D01*
X744220Y-535279D01*
X738581Y-543306D01*
X734466Y-552246D01*
X731926Y-561695D01*
X731062Y-571500D01*
X731926Y-581304D01*
X734466Y-590753D01*
X738581Y-599694D01*
X744220Y-607720D01*
X745794Y-609295D01*
X748030Y-612597D01*
X748792Y-616508D01*
X748792Y-1457198D01*
X749604Y-1465224D01*
X751789Y-1472438D01*
X755294Y-1478991D01*
X756412Y-1482902D01*
X757326Y-1492910D01*
X759866Y-1502359D01*
X763981Y-1511300D01*
X769620Y-1519326D01*
X776579Y-1526286D01*
X784606Y-1531924D01*
X793546Y-1536039D01*
X802995Y-1538579D01*
G37*
G36*
X2551023Y-1506575D02*
G01*
X2603093Y-1506575D01*
X2603093Y-1484274D01*
X2551023Y-1484274D01*
X2551734Y-1491183D01*
X2552649Y-1495399D01*
X2551734Y-1499666D01*
G37*
G36*
X2680817Y-1506575D02*
G01*
X2732836Y-1506575D01*
X2732125Y-1499666D01*
X2731262Y-1495399D01*
X2732125Y-1491183D01*
X2732836Y-1484274D01*
X2680817Y-1484274D01*
G37*
G36*
X1346200Y-1504137D02*
G01*
X1356004Y-1503273D01*
X1365453Y-1500733D01*
X1374394Y-1496618D01*
X1382420Y-1490980D01*
X1389380Y-1484020D01*
X1395018Y-1475994D01*
X1399133Y-1467053D01*
X1401673Y-1457604D01*
X1402537Y-1447800D01*
X1401673Y-1437995D01*
X1399133Y-1428546D01*
X1395018Y-1419606D01*
X1389380Y-1411579D01*
X1387805Y-1410004D01*
X1385570Y-1406702D01*
X1384808Y-1402791D01*
X1384808Y-1366418D01*
X1385570Y-1362506D01*
X1387805Y-1359204D01*
X1425244Y-1321714D01*
X1428699Y-1319479D01*
X1432763Y-1318768D01*
X1436725Y-1319682D01*
X1440027Y-1322171D01*
X1442110Y-1325727D01*
X1442567Y-1329791D01*
X1442262Y-1333500D01*
X1443126Y-1343304D01*
X1445666Y-1352753D01*
X1449781Y-1361694D01*
X1455420Y-1369720D01*
X1462379Y-1376680D01*
X1470406Y-1382318D01*
X1479346Y-1386433D01*
X1488795Y-1388973D01*
X1498600Y-1389837D01*
X1508404Y-1388973D01*
X1517853Y-1386433D01*
X1526794Y-1382318D01*
X1534820Y-1376680D01*
X1536395Y-1375105D01*
X1539697Y-1372870D01*
X1543608Y-1372108D01*
X1560931Y-1372108D01*
X1564538Y-1372768D01*
X1567688Y-1374698D01*
X1569974Y-1377645D01*
X1571040Y-1381201D01*
X1570736Y-1384909D01*
X1570126Y-1387195D01*
X1569262Y-1397000D01*
X1570126Y-1406804D01*
X1572666Y-1416253D01*
X1576781Y-1425194D01*
X1582420Y-1433220D01*
X1589379Y-1440180D01*
X1597406Y-1445818D01*
X1606346Y-1449933D01*
X1615795Y-1452473D01*
X1625600Y-1453337D01*
X1635404Y-1452473D01*
X1644853Y-1449933D01*
X1653793Y-1445818D01*
X1661820Y-1440180D01*
X1663395Y-1438605D01*
X1666697Y-1436370D01*
X1670608Y-1435608D01*
X2374392Y-1435608D01*
X2382418Y-1434795D01*
X2389632Y-1432610D01*
X2396337Y-1429054D01*
X2402535Y-1423924D01*
X2514498Y-1312011D01*
X2517800Y-1309776D01*
X2521712Y-1309014D01*
X2564892Y-1309014D01*
X2568244Y-1309573D01*
X2571191Y-1310640D01*
X2577541Y-1311351D01*
X2706319Y-1311351D01*
X2713126Y-1310487D01*
X2718155Y-1308709D01*
X2721711Y-1306931D01*
X2724505Y-1306576D01*
X2732836Y-1306576D01*
X2732125Y-1299667D01*
X2731262Y-1295400D01*
X2732125Y-1291183D01*
X2732836Y-1284833D01*
X2732836Y-1255979D01*
X2732125Y-1249680D01*
X2731262Y-1245412D01*
X2732125Y-1241145D01*
X2732836Y-1234236D01*
X2724454Y-1234236D01*
X2721660Y-1233881D01*
X2718155Y-1232154D01*
X2712059Y-1230020D01*
X2708503Y-1227886D01*
X2706116Y-1224483D01*
X2705303Y-1220419D01*
X2706116Y-1216355D01*
X2708503Y-1212951D01*
X2712059Y-1210818D01*
X2718155Y-1208684D01*
X2721711Y-1206957D01*
X2724505Y-1206550D01*
X2732836Y-1206550D01*
X2732125Y-1199642D01*
X2731262Y-1195425D01*
X2732125Y-1191158D01*
X2732836Y-1184859D01*
X2732836Y-1156004D01*
X2732125Y-1149654D01*
X2731262Y-1145438D01*
X2732125Y-1141171D01*
X2732836Y-1134821D01*
X2732836Y-1105966D01*
X2732125Y-1099667D01*
X2731262Y-1095400D01*
X2732125Y-1091184D01*
X2732836Y-1084275D01*
X2724505Y-1084275D01*
X2721711Y-1083868D01*
X2718155Y-1082141D01*
X2712059Y-1080008D01*
X2708503Y-1077874D01*
X2706116Y-1074470D01*
X2705303Y-1070406D01*
X2706116Y-1066342D01*
X2708503Y-1062939D01*
X2712059Y-1060805D01*
X2718155Y-1058672D01*
X2721660Y-1056944D01*
X2724454Y-1056589D01*
X2732836Y-1056589D01*
X2732125Y-1049680D01*
X2731262Y-1045413D01*
X2732125Y-1041146D01*
X2732836Y-1034846D01*
X2732836Y-1005992D01*
X2732125Y-999642D01*
X2731262Y-995426D01*
X2732125Y-991158D01*
X2732836Y-984859D01*
X2732836Y-956005D01*
X2732125Y-949655D01*
X2731262Y-945438D01*
X2732125Y-941171D01*
X2732836Y-934821D01*
X2732836Y-919175D01*
X2733649Y-915263D01*
X2735834Y-912012D01*
X2739136Y-909777D01*
X2742996Y-909015D01*
X2857398Y-909015D01*
X2861310Y-909777D01*
X2864612Y-912012D01*
X2872079Y-919480D01*
X2880106Y-925118D01*
X2889046Y-929233D01*
X2898495Y-931773D01*
X2908300Y-932637D01*
X2918104Y-931773D01*
X2927553Y-929233D01*
X2936494Y-925118D01*
X2944520Y-919480D01*
X2951480Y-912520D01*
X2957118Y-904494D01*
X2961233Y-895553D01*
X2963773Y-886104D01*
X2964637Y-876300D01*
X2963773Y-866495D01*
X2961233Y-857046D01*
X2957118Y-848106D01*
X2951480Y-840079D01*
X2944520Y-833119D01*
X2936494Y-827481D01*
X2927553Y-823366D01*
X2918104Y-820826D01*
X2908300Y-819962D01*
X2898495Y-820826D01*
X2889046Y-823366D01*
X2880106Y-827481D01*
X2876600Y-829970D01*
X2873857Y-831342D01*
X2870758Y-831799D01*
X2718917Y-831799D01*
X2715564Y-831240D01*
X2712720Y-830224D01*
X2706370Y-829513D01*
X2577592Y-829513D01*
X2570784Y-830376D01*
X2562250Y-833882D01*
X2559405Y-834237D01*
X2551023Y-834237D01*
X2551734Y-841146D01*
X2552649Y-845413D01*
X2551734Y-849680D01*
X2551023Y-855980D01*
X2551023Y-884834D01*
X2551734Y-891184D01*
X2552649Y-895400D01*
X2551734Y-899668D01*
X2551023Y-905967D01*
X2551023Y-916838D01*
X2550261Y-920750D01*
X2548077Y-924001D01*
X2544775Y-926236D01*
X2540863Y-926998D01*
X1453642Y-927049D01*
X1445361Y-928217D01*
X1437792Y-930757D01*
X1430782Y-934618D01*
X1424279Y-940053D01*
X1254404Y-1109929D01*
X1251508Y-1111961D01*
X1238046Y-1115466D01*
X1229106Y-1119581D01*
X1221079Y-1125220D01*
X1214120Y-1132179D01*
X1208481Y-1140206D01*
X1204366Y-1149146D01*
X1201826Y-1158595D01*
X1200962Y-1168400D01*
X1201826Y-1178204D01*
X1204366Y-1187653D01*
X1208481Y-1196594D01*
X1214120Y-1204620D01*
X1221079Y-1211580D01*
X1229106Y-1217218D01*
X1238046Y-1221333D01*
X1247495Y-1223873D01*
X1257300Y-1224737D01*
X1267104Y-1223873D01*
X1276553Y-1221333D01*
X1285494Y-1217218D01*
X1293520Y-1211580D01*
X1300480Y-1204620D01*
X1306118Y-1196594D01*
X1310233Y-1187653D01*
X1313738Y-1174191D01*
X1315770Y-1171295D01*
X1470304Y-1016812D01*
X1473606Y-1014577D01*
X1477467Y-1013815D01*
X1599438Y-1013815D01*
X1603349Y-1014577D01*
X1606651Y-1016812D01*
X1608836Y-1020114D01*
X1609598Y-1023975D01*
X1608836Y-1027887D01*
X1606651Y-1031138D01*
X1319276Y-1318564D01*
X1314145Y-1324762D01*
X1310589Y-1331468D01*
X1308404Y-1338681D01*
X1307592Y-1346708D01*
X1307592Y-1402791D01*
X1306830Y-1406702D01*
X1304594Y-1410004D01*
X1303020Y-1411579D01*
X1297381Y-1419606D01*
X1293266Y-1428546D01*
X1290726Y-1437995D01*
X1289862Y-1447800D01*
X1290726Y-1457604D01*
X1293266Y-1467053D01*
X1297381Y-1475994D01*
X1303020Y-1484020D01*
X1309979Y-1490980D01*
X1318006Y-1496618D01*
X1326946Y-1500733D01*
X1336395Y-1503273D01*
G37*
G36*
X2680817Y-1456588D02*
G01*
X2732836Y-1456588D01*
X2732125Y-1449679D01*
X2731262Y-1445412D01*
X2732125Y-1441145D01*
X2732836Y-1434236D01*
X2680817Y-1434236D01*
G37*
G36*
X2551023Y-1456588D02*
G01*
X2603093Y-1456588D01*
X2603093Y-1434236D01*
X2551023Y-1434236D01*
X2551734Y-1441145D01*
X2552649Y-1445412D01*
X2551734Y-1449679D01*
G37*
G36*
X2680817Y-1406550D02*
G01*
X2732836Y-1406550D01*
X2732125Y-1399641D01*
X2731262Y-1395425D01*
X2732125Y-1391158D01*
X2732836Y-1384249D01*
X2680817Y-1384249D01*
G37*
G36*
X2551023Y-1406550D02*
G01*
X2603093Y-1406550D01*
X2603093Y-1384249D01*
X2551023Y-1384249D01*
X2551734Y-1391158D01*
X2552649Y-1395425D01*
X2551734Y-1399641D01*
G37*
G36*
X2680817Y-1356563D02*
G01*
X2732836Y-1356563D01*
X2732125Y-1349654D01*
X2731262Y-1345438D01*
X2732125Y-1341170D01*
X2732836Y-1334262D01*
X2680817Y-1334262D01*
G37*
G36*
X2551023Y-1356563D02*
G01*
X2603093Y-1356563D01*
X2603093Y-1334262D01*
X2551023Y-1334262D01*
X2551734Y-1341170D01*
X2552649Y-1345438D01*
X2551734Y-1349654D01*
G37*
G36*
X2551023Y-806551D02*
G01*
X2603093Y-806551D01*
X2603093Y-784250D01*
X2551023Y-784250D01*
X2551734Y-791159D01*
X2552649Y-795426D01*
X2551734Y-799642D01*
G37*
G36*
X2680817Y-806551D02*
G01*
X2732836Y-806551D01*
X2732125Y-799642D01*
X2731262Y-795426D01*
X2732125Y-791159D01*
X2732836Y-784250D01*
X2680817Y-784250D01*
G37*
G36*
X2577541Y-761339D02*
G01*
X2706319Y-761339D01*
X2713126Y-760476D01*
X2721660Y-756970D01*
X2724454Y-756564D01*
X2732836Y-756564D01*
X2732125Y-749655D01*
X2731262Y-745439D01*
X2732125Y-741172D01*
X2732836Y-734822D01*
X2732836Y-705967D01*
X2732125Y-699668D01*
X2730246Y-694182D01*
X2727147Y-689305D01*
X2723083Y-685190D01*
X2718155Y-682142D01*
X2712720Y-680212D01*
X2706776Y-679551D01*
X2703017Y-678383D01*
X2700020Y-675894D01*
X2698191Y-672439D01*
X2697784Y-668578D01*
X2697937Y-666496D01*
X2697073Y-656691D01*
X2694533Y-647242D01*
X2690418Y-638302D01*
X2684780Y-630275D01*
X2677820Y-623316D01*
X2669794Y-617677D01*
X2660853Y-613562D01*
X2651404Y-611022D01*
X2641600Y-610158D01*
X2631795Y-611022D01*
X2622346Y-613562D01*
X2613406Y-617677D01*
X2605379Y-623316D01*
X2598420Y-630275D01*
X2592781Y-638302D01*
X2588666Y-647242D01*
X2586126Y-656691D01*
X2585262Y-666496D01*
X2585415Y-668629D01*
X2585008Y-672541D01*
X2583180Y-675944D01*
X2580182Y-678434D01*
X2576474Y-679602D01*
X2571191Y-680212D01*
X2565755Y-682142D01*
X2560828Y-685190D01*
X2556764Y-689305D01*
X2553665Y-694182D01*
X2551734Y-699668D01*
X2551023Y-705967D01*
X2551023Y-734822D01*
X2551734Y-741172D01*
X2552649Y-745439D01*
X2551734Y-749655D01*
X2551023Y-756564D01*
X2559405Y-756564D01*
X2562250Y-756970D01*
X2565755Y-758698D01*
X2571191Y-760628D01*
G37*
G36*
X2958439Y-676097D02*
G01*
X2991510Y-676097D01*
X2997860Y-675386D01*
X3003296Y-673506D01*
X3008223Y-670407D01*
X3012287Y-666292D01*
X3015386Y-661416D01*
X3017316Y-655929D01*
X3018028Y-649630D01*
X3018028Y-606552D01*
X2958439Y-606552D01*
G37*
G36*
X2832658Y-676097D02*
G01*
X2865729Y-676097D01*
X2865729Y-606552D01*
X2806192Y-606552D01*
X2806192Y-649630D01*
X2806903Y-655929D01*
X2808833Y-661416D01*
X2811881Y-666292D01*
X2815996Y-670407D01*
X2820873Y-673506D01*
X2826359Y-675386D01*
G37*
G36*
X2806192Y-493877D02*
G01*
X2865729Y-493877D01*
X2865729Y-424281D01*
X2832658Y-424281D01*
X2826359Y-424992D01*
X2820873Y-426923D01*
X2815996Y-430022D01*
X2811881Y-434085D01*
X2808833Y-439013D01*
X2806903Y-444449D01*
X2806192Y-450748D01*
G37*
G36*
X2958439Y-493877D02*
G01*
X3018028Y-493877D01*
X3018028Y-450748D01*
X3017316Y-444449D01*
X3015386Y-439013D01*
X3012287Y-434085D01*
X3008223Y-430022D01*
X3003296Y-426923D01*
X2997860Y-424992D01*
X2991510Y-424281D01*
X2958439Y-424281D01*
G37*

%LPD*%
G36*
X1543608Y-1294892D02*
G01*
X1539697Y-1294130D01*
X1536395Y-1291894D01*
X1534820Y-1290320D01*
X1526794Y-1284681D01*
X1517853Y-1280566D01*
X1508404Y-1278026D01*
X1498600Y-1277162D01*
X1494891Y-1277467D01*
X1490827Y-1277010D01*
X1487271Y-1274927D01*
X1484782Y-1271625D01*
X1483868Y-1267663D01*
X1484579Y-1263599D01*
X1486814Y-1260144D01*
X1684985Y-1062024D01*
X1688287Y-1059789D01*
X1692198Y-1059027D01*
X2564942Y-1059027D01*
X2568346Y-1059586D01*
X2571800Y-1060805D01*
X2575356Y-1062939D01*
X2577744Y-1066342D01*
X2578608Y-1070406D01*
X2577744Y-1074470D01*
X2575356Y-1077874D01*
X2571800Y-1080008D01*
X2568244Y-1081227D01*
X2564892Y-1081836D01*
X2334463Y-1081836D01*
X2326436Y-1082598D01*
X2319223Y-1084783D01*
X2312568Y-1088339D01*
X2306320Y-1093470D01*
X2107895Y-1291894D01*
X2104593Y-1294130D01*
X2100681Y-1294892D01*
G37*

%LPD*%
G36*
X2175154Y-1358392D02*
G01*
X2171242Y-1357630D01*
X2167940Y-1355394D01*
X2165756Y-1352143D01*
X2164994Y-1348232D01*
X2165756Y-1344320D01*
X2167940Y-1341069D01*
X2316683Y-1192276D01*
X2320239Y-1189990D01*
X2324404Y-1189329D01*
X2328519Y-1190396D01*
X2331770Y-1193088D01*
X2333701Y-1196848D01*
X2334666Y-1200353D01*
X2338781Y-1209294D01*
X2344420Y-1217320D01*
X2351379Y-1224280D01*
X2359406Y-1229918D01*
X2368346Y-1234033D01*
X2377795Y-1236573D01*
X2387600Y-1237437D01*
X2397404Y-1236573D01*
X2406853Y-1234033D01*
X2415794Y-1229918D01*
X2423820Y-1224280D01*
X2430780Y-1217320D01*
X2433523Y-1213358D01*
X2435809Y-1211021D01*
X2438654Y-1209548D01*
X2441854Y-1209040D01*
X2564892Y-1209040D01*
X2568244Y-1209598D01*
X2571800Y-1210818D01*
X2575356Y-1212951D01*
X2577744Y-1216355D01*
X2578608Y-1220419D01*
X2577744Y-1224483D01*
X2575356Y-1227886D01*
X2571800Y-1230020D01*
X2568295Y-1231239D01*
X2564942Y-1231798D01*
X2502001Y-1231798D01*
X2493975Y-1232611D01*
X2486710Y-1234795D01*
X2480056Y-1238351D01*
X2473858Y-1243482D01*
X2361895Y-1355394D01*
X2358593Y-1357630D01*
X2354681Y-1358392D01*
G37*

%LPD*%
D11*
X2641960Y-970409D02*
G01*
X1455290Y-970409D01*
X1257300Y-1168400D01*
D10*
X3073400Y-1346200D02*
G01*
X3073400Y-1074709D01*
X3086100Y-1062009D01*
X3060700Y-1714500D02*
G01*
X3060700Y-1536700D01*
X3048000Y-1524000D01*
X3048000Y-1524000D02*
G01*
X3048000Y-1371600D01*
X3073400Y-1346200D01*
X2912084Y-2040204D02*
G01*
X2912084Y-2015515D01*
X3048000Y-1879600D01*
X2171700Y-1778000D02*
G01*
X1905000Y-1778000D01*
X1422400Y-2260600D01*
X2209800Y-533400D02*
G01*
X2226614Y-550214D01*
X2912084Y-550214D01*
X1397000Y-292100D02*
G01*
X2806700Y-292100D01*
X2912084Y-397484D01*
X2912084Y-550214D01*
X2781300Y-1028700D02*
G01*
X3052790Y-1028700D01*
X3086100Y-1062009D01*
X2781300Y-1257300D02*
G01*
X2781300Y-1028700D01*
X2781300Y-1257300D02*
G01*
X2781300Y-1536700D01*
X2781300Y-1257300D02*
G01*
X2984500Y-1257300D01*
X3073400Y-1346200D01*
X2781300Y-1536700D02*
G01*
X3035300Y-1536700D01*
X3048000Y-1524000D01*
X3073400Y-1346200D02*
G01*
X2971800Y-1346200D01*
X2781300Y-1536700D01*
X3048000Y-1879600D02*
G01*
X3048000Y-1727200D01*
X3060700Y-1714500D01*
X2781300Y-1790700D02*
G01*
X2959100Y-1790700D01*
X3048000Y-1879600D01*
X2781300Y-1790700D02*
G01*
X2912084Y-1921484D01*
X2912084Y-2040204D01*
X1422400Y-2260600D02*
G01*
X2552700Y-2260600D01*
X2654300Y-2159000D01*
X177800Y-1130300D02*
G01*
X177800Y-1778000D01*
X660400Y-2260600D01*
X1422400Y-2260600D01*
X1397000Y-292100D02*
G01*
X317500Y-292100D01*
X177800Y-431800D01*
X177800Y-1130300D01*
X2641600Y-666495D02*
G01*
X2641854Y-720344D01*
X2912084Y-550214D02*
G01*
X2912084Y-631215D01*
X2772892Y-770407D01*
X2641955Y-770407D01*
X2641955Y-820420D02*
G01*
X2641955Y-770407D01*
X2641955Y-1820418D02*
G01*
X2641955Y-1870405D01*
X2641960Y-1870402D02*
G01*
X2654300Y-1882744D01*
X2654300Y-2159000D01*
X787400Y-571500D02*
G01*
X787400Y-1457705D01*
X812800Y-1483105D01*
X2387600Y-1181100D02*
G01*
X2398290Y-1170409D01*
X2641960Y-1170409D01*
X2641955Y-1720418D02*
G01*
X2559481Y-1720418D01*
X2489200Y-1790700D01*
X2489200Y-2006600D01*
X2912109Y-2040128D02*
G01*
X2793238Y-2159000D01*
X2654300Y-2159000D01*
X1498600Y-1333500D02*
G01*
X2120894Y-1333500D01*
X2333972Y-1120421D01*
X2641960Y-1120421D01*
X1625600Y-1397000D02*
G01*
X2374900Y-1397000D01*
X2501491Y-1270408D01*
X2641960Y-1270408D01*
X1346200Y-1447800D02*
G01*
X1346200Y-1346200D01*
X1671980Y-1020419D01*
X2641955Y-1020419D01*
X2641955Y-870407D02*
G01*
X2902407Y-870407D01*
X2908300Y-876300D01*
X2912084Y-550214D02*
G01*
X2912084Y-587984D01*
X3086100Y-762000D01*
X3086100Y-1062009D01*
X2641955Y-920419D02*
G01*
X2641955Y-970406D01*
X2641955Y-870407D02*
G01*
X2641955Y-920419D01*
X2641854Y-1070355D02*
G01*
X2746756Y-1070355D01*
X2794000Y-1117600D01*
X2794000Y-1181100D01*
X2754629Y-1220470D01*
X2641854Y-1220470D01*
X2641955Y-1220419D02*
G01*
X2744419Y-1220419D01*
X2781300Y-1257300D01*
X2781300Y-1295400D01*
X2756281Y-1320419D01*
X2641955Y-1320419D01*
X2641955Y-1320419D02*
G01*
X2641955Y-1370406D01*
X2641955Y-1370406D02*
G01*
X2641955Y-1420418D01*
X2641955Y-1420418D02*
G01*
X2641955Y-1470405D01*
X2641955Y-1470405D02*
G01*
X2641955Y-1520418D01*
X2641955Y-1520418D02*
G01*
X2641955Y-1570405D01*
X2641955Y-1570405D02*
G01*
X2641955Y-1620418D01*
X2641955Y-1620418D02*
G01*
X2641955Y-1670405D01*
X2641854Y-1620520D02*
G01*
X2647188Y-1625600D01*
X2730500Y-1625600D01*
X2781300Y-1676400D01*
X2781300Y-1765300D01*
X2726181Y-1820418D01*
X2641854Y-1820418D01*
D13*
G01*
X2641955Y-720420D03*
G01*
X2641955Y-770407D03*
G01*
X2641955Y-820420D03*
G01*
X2641955Y-870407D03*
G01*
X2641955Y-920419D03*
G01*
X2641955Y-970406D03*
G01*
X2641955Y-1020419D03*
G01*
X2641955Y-1070406D03*
G01*
X2641955Y-1120419D03*
G01*
X2641955Y-1170406D03*
G01*
X2641955Y-1220419D03*
G01*
X2641955Y-1270406D03*
G01*
X2641955Y-1320419D03*
G01*
X2641955Y-1370406D03*
G01*
X2641955Y-1420418D03*
G01*
X2641955Y-1470405D03*
G01*
X2641955Y-1520418D03*
G01*
X2641955Y-1570405D03*
G01*
X2641955Y-1620418D03*
G01*
X2641955Y-1670405D03*
G01*
X2641955Y-1720418D03*
G01*
X2641955Y-1770405D03*
G01*
X2641955Y-1820418D03*
G01*
X2641955Y-1870405D03*
D14*
G01*
X2912084Y-2040204D03*
G01*
X2912084Y-550214D03*
D12*
G01*
X2641600Y-666495D03*
G01*
X812800Y-1483105D03*
G01*
X787400Y-571500D03*
G01*
X1257300Y-1168400D03*
G01*
X2387600Y-1181100D03*
G01*
X1498600Y-1333500D03*
G01*
X1625600Y-1397000D03*
G01*
X1346200Y-1447800D03*
G01*
X2654300Y-2159000D03*
G01*
X2489200Y-2006600D03*
G01*
X2908300Y-876300D03*
G01*
X1422400Y-2260600D03*
G01*
X2781300Y-1790700D03*
G01*
X2781300Y-1257300D03*
G01*
X2781300Y-1028700D03*
G01*
X2781300Y-1536700D03*
G01*
X3073400Y-1346200D03*
G01*
X3086100Y-1061999D03*
G01*
X3060700Y-1714500D03*
G01*
X3048000Y-1524000D03*
G01*
X3048000Y-1879600D03*
G01*
X1828800Y-1092200D03*
G01*
X2095500Y-1092200D03*
G01*
X1803400Y-1257300D03*
G01*
X2070100Y-1257300D03*
G01*
X177800Y-1130300D03*
G01*
X1397000Y-292100D03*
G01*
X2209800Y-533400D03*
G01*
X2171700Y-1778000D03*
M02*
