G04 Layer: BottomSolderMaskLayer*
G04 EasyEDA v6.4.25, 2021-12-06T02:48:24+01:00*
G04 3d30912b60d9496eba34c91f18b07311,db93e8822c7348a7aec6f6efa12e507d,10*
G04 Gerber Generator version 0.2*
G04 Scale: 100 percent, Rotated: No, Reflected: No *
G04 Dimensions in millimeters *
G04 leading zeros omitted , absolute positions ,4 integer and 5 decimal *
%FSLAX45Y45*%
%MOMM*%

%ADD10C,0.0001*%

%LPD*%
G36*
X1060957Y-1153160D02*
G01*
X1060957Y-1113028D01*
X1195831Y-1113028D01*
X1195831Y-1153160D01*
G37*
G36*
X1060957Y-1203197D02*
G01*
X1060957Y-1163065D01*
X1195831Y-1163065D01*
X1195831Y-1203197D01*
G37*
G36*
X1060957Y-1252981D02*
G01*
X1060957Y-1213104D01*
X1195831Y-1213104D01*
X1195831Y-1252981D01*
G37*
G36*
X1060957Y-1303020D02*
G01*
X1060957Y-1263142D01*
X1195831Y-1263142D01*
X1195831Y-1303020D01*
G37*
G36*
X1060957Y-1353057D02*
G01*
X1060957Y-1313179D01*
X1195831Y-1313179D01*
X1195831Y-1353057D01*
G37*
G36*
X1060957Y-1403095D02*
G01*
X1060957Y-1363218D01*
X1195831Y-1363218D01*
X1195831Y-1403095D01*
G37*
G36*
X1060957Y-1453134D02*
G01*
X1060957Y-1413002D01*
X1195831Y-1413002D01*
X1195831Y-1453134D01*
G37*
G36*
X1060957Y-1503171D02*
G01*
X1060957Y-1463039D01*
X1195831Y-1463039D01*
X1195831Y-1503171D01*
G37*
G36*
X1205737Y-1084071D02*
G01*
X1205737Y-874013D01*
X1515871Y-874013D01*
X1515871Y-1084071D01*
G37*
G36*
X1205737Y-1742186D02*
G01*
X1205737Y-1532128D01*
X1515871Y-1532128D01*
X1515871Y-1742186D01*
G37*
G36*
X1131823Y-511555D02*
G01*
X1131823Y-441452D01*
X1248918Y-441452D01*
X1248918Y-511555D01*
G37*
G36*
X1131823Y-701547D02*
G01*
X1131823Y-631444D01*
X1248918Y-631444D01*
X1248918Y-701547D01*
G37*
G36*
X884681Y-606552D02*
G01*
X884681Y-536447D01*
X1001776Y-536447D01*
X1001776Y-606552D01*
G37*
G36*
X723392Y-463804D02*
G01*
X723392Y-399795D01*
X790194Y-399795D01*
X790194Y-463804D01*
G37*
G36*
X810005Y-463804D02*
G01*
X810005Y-399795D01*
X876807Y-399795D01*
X876807Y-463804D01*
G37*
G36*
X416305Y-830071D02*
G01*
X481837Y-744728D01*
X527050Y-744728D01*
X527050Y-830071D01*
G37*
G36*
X362457Y-830071D02*
G01*
X362457Y-744728D01*
X473455Y-744728D01*
X407670Y-830071D01*
G37*
G36*
X416305Y-1134871D02*
G01*
X481837Y-1049528D01*
X527050Y-1049528D01*
X527050Y-1134871D01*
G37*
G36*
X362457Y-1134871D02*
G01*
X362457Y-1049528D01*
X473455Y-1049528D01*
X407670Y-1134871D01*
G37*
G36*
X2334006Y-2315971D02*
G01*
X2399538Y-2230628D01*
X2444750Y-2230628D01*
X2444750Y-2315971D01*
G37*
G36*
X2280158Y-2315971D02*
G01*
X2280158Y-2230628D01*
X2391156Y-2230628D01*
X2325370Y-2315971D01*
G37*
G36*
X2334006Y-2201671D02*
G01*
X2399538Y-2116328D01*
X2444750Y-2116328D01*
X2444750Y-2201671D01*
G37*
G36*
X2280158Y-2201671D02*
G01*
X2280158Y-2116328D01*
X2391156Y-2116328D01*
X2325370Y-2201671D01*
G37*
G36*
X416305Y-1401571D02*
G01*
X481837Y-1316228D01*
X527050Y-1316228D01*
X527050Y-1401571D01*
G37*
G36*
X362457Y-1401571D02*
G01*
X362457Y-1316228D01*
X473455Y-1316228D01*
X407670Y-1401571D01*
G37*
M02*
