M48
METRIC,LZ,000.000
;FILE_FORMAT=3:3
;TYPE=PLATED
;Layer: Drill PTH
;EasyEDA v6.4.25, 2021-12-06T02:48:24+01:00
;3d30912b60d9496eba34c91f18b07311,db93e8822c7348a7aec6f6efa12e507d,10
;Gerber Generator version 0.2
;Holesize 1 = 0.305 mm
T01C0.305
%
G05
G90
T01
X026416Y-006665
X008128Y-014831
X007874Y-005715
X012573Y-011684
X023876Y-011811
X014986Y-013335
X016256Y-013970
X013462Y-014478
X026543Y-021590
X024892Y-020066
X029083Y-008763
X014224Y-022606
X027813Y-017907
X027813Y-012573
X027813Y-010287
X027813Y-015367
X030734Y-013462
X030861Y-010620
X030607Y-017145
X030480Y-015240
X030480Y-018796
X018288Y-010922
X020955Y-010922
X018034Y-012573
X020701Y-012573
X001778Y-011303
X013970Y-002921
X022098Y-005334
X021717Y-017780
M30
