G04 Layer: TopSilkLayer*
G04 EasyEDA v6.4.25, 2021-12-06T02:48:24+01:00*
G04 3d30912b60d9496eba34c91f18b07311,db93e8822c7348a7aec6f6efa12e507d,10*
G04 Gerber Generator version 0.2*
G04 Scale: 100 percent, Rotated: No, Reflected: No *
G04 Dimensions in millimeters *
G04 leading zeros omitted , absolute positions ,4 integer and 5 decimal *
%FSLAX45Y45*%
%MOMM*%

%ADD10C,0.2540*%
%ADD19C,0.4000*%
%ADD20C,0.2032*%
%ADD21C,0.1524*%

%LPD*%
D20*
X774700Y-2425006D02*
G01*
X774700Y-2497744D01*
X774700Y-2425006D02*
G01*
X819726Y-2425006D01*
X774700Y-2459644D02*
G01*
X802408Y-2459644D01*
X774700Y-2497744D02*
G01*
X819726Y-2497744D01*
X842586Y-2449253D02*
G01*
X842586Y-2497744D01*
X842586Y-2463106D02*
G01*
X852977Y-2452715D01*
X859904Y-2449253D01*
X870295Y-2449253D01*
X877224Y-2452715D01*
X880686Y-2463106D01*
X880686Y-2497744D01*
X880686Y-2463106D02*
G01*
X891077Y-2452715D01*
X898004Y-2449253D01*
X908395Y-2449253D01*
X915324Y-2452715D01*
X918786Y-2463106D01*
X918786Y-2497744D01*
X941646Y-2425006D02*
G01*
X941646Y-2497744D01*
X941646Y-2459644D02*
G01*
X948575Y-2452715D01*
X955502Y-2449253D01*
X965893Y-2449253D01*
X972820Y-2452715D01*
X979746Y-2459644D01*
X983211Y-2470035D01*
X983211Y-2476962D01*
X979746Y-2487353D01*
X972820Y-2494279D01*
X965893Y-2497744D01*
X955502Y-2497744D01*
X948575Y-2494279D01*
X941646Y-2487353D01*
X1006071Y-2470035D02*
G01*
X1047635Y-2470035D01*
X1047635Y-2463106D01*
X1044171Y-2456179D01*
X1040706Y-2452715D01*
X1033779Y-2449253D01*
X1023388Y-2449253D01*
X1016462Y-2452715D01*
X1009535Y-2459644D01*
X1006071Y-2470035D01*
X1006071Y-2476962D01*
X1009535Y-2487353D01*
X1016462Y-2494279D01*
X1023388Y-2497744D01*
X1033779Y-2497744D01*
X1040706Y-2494279D01*
X1047635Y-2487353D01*
X1112057Y-2425006D02*
G01*
X1112057Y-2497744D01*
X1112057Y-2459644D02*
G01*
X1105131Y-2452715D01*
X1098204Y-2449253D01*
X1087813Y-2449253D01*
X1080884Y-2452715D01*
X1073957Y-2459644D01*
X1070495Y-2470035D01*
X1070495Y-2476962D01*
X1073957Y-2487353D01*
X1080884Y-2494279D01*
X1087813Y-2497744D01*
X1098204Y-2497744D01*
X1105131Y-2494279D01*
X1112057Y-2487353D01*
X1176482Y-2425006D02*
G01*
X1176482Y-2497744D01*
X1176482Y-2459644D02*
G01*
X1169555Y-2452715D01*
X1162626Y-2449253D01*
X1152235Y-2449253D01*
X1145308Y-2452715D01*
X1138382Y-2459644D01*
X1134917Y-2470035D01*
X1134917Y-2476962D01*
X1138382Y-2487353D01*
X1145308Y-2494279D01*
X1152235Y-2497744D01*
X1162626Y-2497744D01*
X1169555Y-2494279D01*
X1176482Y-2487353D01*
X1199342Y-2470035D02*
G01*
X1240904Y-2470035D01*
X1240904Y-2463106D01*
X1237442Y-2456179D01*
X1233977Y-2452715D01*
X1227051Y-2449253D01*
X1216660Y-2449253D01*
X1209733Y-2452715D01*
X1202804Y-2459644D01*
X1199342Y-2470035D01*
X1199342Y-2476962D01*
X1202804Y-2487353D01*
X1209733Y-2494279D01*
X1216660Y-2497744D01*
X1227051Y-2497744D01*
X1233977Y-2494279D01*
X1240904Y-2487353D01*
X1305328Y-2425006D02*
G01*
X1305328Y-2497744D01*
X1305328Y-2459644D02*
G01*
X1298402Y-2452715D01*
X1291475Y-2449253D01*
X1281084Y-2449253D01*
X1274155Y-2452715D01*
X1267228Y-2459644D01*
X1263764Y-2470035D01*
X1263764Y-2476962D01*
X1267228Y-2487353D01*
X1274155Y-2494279D01*
X1281084Y-2497744D01*
X1291475Y-2497744D01*
X1298402Y-2494279D01*
X1305328Y-2487353D01*
X1381528Y-2425006D02*
G01*
X1381528Y-2497744D01*
X1381528Y-2497744D02*
G01*
X1423093Y-2497744D01*
X1487515Y-2449253D02*
G01*
X1487515Y-2497744D01*
X1487515Y-2459644D02*
G01*
X1480588Y-2452715D01*
X1473662Y-2449253D01*
X1463271Y-2449253D01*
X1456344Y-2452715D01*
X1449415Y-2459644D01*
X1445953Y-2470035D01*
X1445953Y-2476962D01*
X1449415Y-2487353D01*
X1456344Y-2494279D01*
X1463271Y-2497744D01*
X1473662Y-2497744D01*
X1480588Y-2494279D01*
X1487515Y-2487353D01*
X1510375Y-2425006D02*
G01*
X1510375Y-2497744D01*
X1510375Y-2459644D02*
G01*
X1517304Y-2452715D01*
X1524231Y-2449253D01*
X1534622Y-2449253D01*
X1541548Y-2452715D01*
X1548475Y-2459644D01*
X1551939Y-2470035D01*
X1551939Y-2476962D01*
X1548475Y-2487353D01*
X1541548Y-2494279D01*
X1534622Y-2497744D01*
X1524231Y-2497744D01*
X1517304Y-2494279D01*
X1510375Y-2487353D01*
X1631604Y-2442324D02*
G01*
X1631604Y-2438862D01*
X1635066Y-2431935D01*
X1638531Y-2428471D01*
X1645457Y-2425006D01*
X1659313Y-2425006D01*
X1666239Y-2428471D01*
X1669704Y-2431935D01*
X1673166Y-2438862D01*
X1673166Y-2445788D01*
X1669704Y-2452715D01*
X1662775Y-2463106D01*
X1628139Y-2497744D01*
X1676631Y-2497744D01*
X1720273Y-2425006D02*
G01*
X1709882Y-2428471D01*
X1702955Y-2438862D01*
X1699491Y-2456179D01*
X1699491Y-2466571D01*
X1702955Y-2483888D01*
X1709882Y-2494279D01*
X1720273Y-2497744D01*
X1727200Y-2497744D01*
X1737591Y-2494279D01*
X1744517Y-2483888D01*
X1747982Y-2466571D01*
X1747982Y-2456179D01*
X1744517Y-2438862D01*
X1737591Y-2428471D01*
X1727200Y-2425006D01*
X1720273Y-2425006D01*
X1774304Y-2442324D02*
G01*
X1774304Y-2438862D01*
X1777768Y-2431935D01*
X1781233Y-2428471D01*
X1788160Y-2425006D01*
X1802015Y-2425006D01*
X1808942Y-2428471D01*
X1812404Y-2431935D01*
X1815868Y-2438862D01*
X1815868Y-2445788D01*
X1812404Y-2452715D01*
X1805477Y-2463106D01*
X1770842Y-2497744D01*
X1819333Y-2497744D01*
X1842193Y-2438862D02*
G01*
X1849120Y-2435397D01*
X1859511Y-2425006D01*
X1859511Y-2497744D01*
X1944715Y-2411153D02*
G01*
X1882371Y-2521988D01*
X1971040Y-2442324D02*
G01*
X1971040Y-2438862D01*
X1974504Y-2431935D01*
X1977966Y-2428471D01*
X1984895Y-2425006D01*
X1998748Y-2425006D01*
X2005675Y-2428471D01*
X2009140Y-2431935D01*
X2012604Y-2438862D01*
X2012604Y-2445788D01*
X2009140Y-2452715D01*
X2002213Y-2463106D01*
X1967575Y-2497744D01*
X2016066Y-2497744D01*
X2042391Y-2442324D02*
G01*
X2042391Y-2438862D01*
X2045855Y-2431935D01*
X2049317Y-2428471D01*
X2056244Y-2425006D01*
X2070100Y-2425006D01*
X2077026Y-2428471D01*
X2080491Y-2431935D01*
X2083955Y-2438862D01*
X2083955Y-2445788D01*
X2080491Y-2452715D01*
X2073564Y-2463106D01*
X2038926Y-2497744D01*
X2087417Y-2497744D01*
X2163617Y-2425006D02*
G01*
X2163617Y-2476962D01*
X2167082Y-2487353D01*
X2174008Y-2494279D01*
X2184400Y-2497744D01*
X2191326Y-2497744D01*
X2201717Y-2494279D01*
X2208644Y-2487353D01*
X2212108Y-2476962D01*
X2212108Y-2425006D01*
X2234968Y-2449253D02*
G01*
X2234968Y-2497744D01*
X2234968Y-2463106D02*
G01*
X2245359Y-2452715D01*
X2252286Y-2449253D01*
X2262677Y-2449253D01*
X2269604Y-2452715D01*
X2273068Y-2463106D01*
X2273068Y-2497744D01*
X2295928Y-2425006D02*
G01*
X2299393Y-2428471D01*
X2302855Y-2425006D01*
X2299393Y-2421544D01*
X2295928Y-2425006D01*
X2299393Y-2449253D02*
G01*
X2299393Y-2497744D01*
X2325715Y-2425006D02*
G01*
X2325715Y-2497744D01*
X2325715Y-2425006D02*
G01*
X2370744Y-2425006D01*
X2325715Y-2459644D02*
G01*
X2353424Y-2459644D01*
X2393604Y-2449253D02*
G01*
X2393604Y-2497744D01*
X2393604Y-2470035D02*
G01*
X2397066Y-2459644D01*
X2403995Y-2452715D01*
X2410922Y-2449253D01*
X2421313Y-2449253D01*
X2444173Y-2470035D02*
G01*
X2485735Y-2470035D01*
X2485735Y-2463106D01*
X2482273Y-2456179D01*
X2478808Y-2452715D01*
X2471882Y-2449253D01*
X2461491Y-2449253D01*
X2454564Y-2452715D01*
X2447635Y-2459644D01*
X2444173Y-2470035D01*
X2444173Y-2476962D01*
X2447635Y-2487353D01*
X2454564Y-2494279D01*
X2461491Y-2497744D01*
X2471882Y-2497744D01*
X2478808Y-2494279D01*
X2485735Y-2487353D01*
X2508595Y-2425006D02*
G01*
X2512059Y-2428471D01*
X2515524Y-2425006D01*
X2512059Y-2421544D01*
X2508595Y-2425006D01*
X2512059Y-2449253D02*
G01*
X2512059Y-2497744D01*
X2538384Y-2425006D02*
G01*
X2538384Y-2497744D01*
X2538384Y-2459644D02*
G01*
X2545311Y-2452715D01*
X2552237Y-2449253D01*
X2562628Y-2449253D01*
X2569555Y-2452715D01*
X2576484Y-2459644D01*
X2579946Y-2470035D01*
X2579946Y-2476962D01*
X2576484Y-2487353D01*
X2569555Y-2494279D01*
X2562628Y-2497744D01*
X2552237Y-2497744D01*
X2545311Y-2494279D01*
X2538384Y-2487353D01*
X2602806Y-2449253D02*
G01*
X2602806Y-2483888D01*
X2606271Y-2494279D01*
X2613197Y-2497744D01*
X2623588Y-2497744D01*
X2630515Y-2494279D01*
X2640906Y-2483888D01*
X2640906Y-2449253D02*
G01*
X2640906Y-2497744D01*
X2663766Y-2449253D02*
G01*
X2663766Y-2497744D01*
X2663766Y-2470035D02*
G01*
X2667231Y-2459644D01*
X2674157Y-2452715D01*
X2681084Y-2449253D01*
X2691475Y-2449253D01*
X2755900Y-2449253D02*
G01*
X2755900Y-2504671D01*
X2752435Y-2515062D01*
X2748973Y-2518524D01*
X2742044Y-2521988D01*
X2731655Y-2521988D01*
X2724726Y-2518524D01*
X2755900Y-2459644D02*
G01*
X2748973Y-2452715D01*
X2742044Y-2449253D01*
X2731655Y-2449253D01*
X2724726Y-2452715D01*
X2717800Y-2459644D01*
X2714335Y-2470035D01*
X2714335Y-2476962D01*
X2717800Y-2487353D01*
X2724726Y-2494279D01*
X2731655Y-2497744D01*
X2742044Y-2497744D01*
X2748973Y-2494279D01*
X2755900Y-2487353D01*
X1562100Y-176644D02*
G01*
X1562100Y-297873D01*
X1642917Y-176644D02*
G01*
X1642917Y-297873D01*
X1562100Y-234373D02*
G01*
X1642917Y-234373D01*
X1709882Y-217055D02*
G01*
X1698335Y-222826D01*
X1686791Y-234373D01*
X1681017Y-251691D01*
X1681017Y-263235D01*
X1686791Y-280555D01*
X1698335Y-292100D01*
X1709882Y-297873D01*
X1727200Y-297873D01*
X1738744Y-292100D01*
X1750291Y-280555D01*
X1756064Y-263235D01*
X1756064Y-251691D01*
X1750291Y-234373D01*
X1738744Y-222826D01*
X1727200Y-217055D01*
X1709882Y-217055D01*
X1794164Y-176644D02*
G01*
X1794164Y-297873D01*
X1861126Y-217055D02*
G01*
X1849582Y-222826D01*
X1838035Y-234373D01*
X1832264Y-251691D01*
X1832264Y-263235D01*
X1838035Y-280555D01*
X1849582Y-292100D01*
X1861126Y-297873D01*
X1878444Y-297873D01*
X1889991Y-292100D01*
X1901535Y-280555D01*
X1907308Y-263235D01*
X1907308Y-251691D01*
X1901535Y-234373D01*
X1889991Y-222826D01*
X1878444Y-217055D01*
X1861126Y-217055D01*
X1929244Y-139006D02*
G01*
X1929244Y-211744D01*
X1905000Y-139006D02*
G01*
X1953491Y-139006D01*
X1976351Y-184035D02*
G01*
X2017915Y-184035D01*
X2017915Y-177106D01*
X2014451Y-170179D01*
X2010986Y-166715D01*
X2004059Y-163253D01*
X1993668Y-163253D01*
X1986742Y-166715D01*
X1979815Y-173644D01*
X1976351Y-184035D01*
X1976351Y-190962D01*
X1979815Y-201353D01*
X1986742Y-208279D01*
X1993668Y-211744D01*
X2004059Y-211744D01*
X2010986Y-208279D01*
X2017915Y-201353D01*
X2082337Y-163253D02*
G01*
X2082337Y-211744D01*
X2082337Y-173644D02*
G01*
X2075411Y-166715D01*
X2068484Y-163253D01*
X2058093Y-163253D01*
X2051164Y-166715D01*
X2044237Y-173644D01*
X2040775Y-184035D01*
X2040775Y-190962D01*
X2044237Y-201353D01*
X2051164Y-208279D01*
X2058093Y-211744D01*
X2068484Y-211744D01*
X2075411Y-208279D01*
X2082337Y-201353D01*
X2105197Y-163253D02*
G01*
X2105197Y-211744D01*
X2105197Y-177106D02*
G01*
X2115588Y-166715D01*
X2122515Y-163253D01*
X2132906Y-163253D01*
X2139835Y-166715D01*
X2143297Y-177106D01*
X2143297Y-211744D01*
X2143297Y-177106D02*
G01*
X2153688Y-166715D01*
X2160615Y-163253D01*
X2171006Y-163253D01*
X2177935Y-166715D01*
X2181397Y-177106D01*
X2181397Y-211744D01*
X2245822Y-139006D02*
G01*
X2211184Y-139006D01*
X2207722Y-170179D01*
X2211184Y-166715D01*
X2221575Y-163253D01*
X2231966Y-163253D01*
X2242357Y-166715D01*
X2249284Y-173644D01*
X2252748Y-184035D01*
X2252748Y-190962D01*
X2249284Y-201353D01*
X2242357Y-208279D01*
X2231966Y-211744D01*
X2221575Y-211744D01*
X2211184Y-208279D01*
X2207722Y-204815D01*
X2204257Y-197888D01*
X240606Y-1554017D02*
G01*
X244071Y-1564408D01*
X254462Y-1571335D01*
X271779Y-1574800D01*
X282171Y-1574800D01*
X299488Y-1571335D01*
X309879Y-1564408D01*
X313344Y-1554017D01*
X313344Y-1547091D01*
X309879Y-1536700D01*
X299488Y-1529773D01*
X282171Y-1526308D01*
X271779Y-1526308D01*
X254462Y-1529773D01*
X244071Y-1536700D01*
X240606Y-1547091D01*
X240606Y-1554017D01*
X257924Y-1499984D02*
G01*
X254462Y-1499984D01*
X247535Y-1496522D01*
X244071Y-1493057D01*
X240606Y-1486131D01*
X240606Y-1472275D01*
X244071Y-1465348D01*
X247535Y-1461884D01*
X254462Y-1458422D01*
X261388Y-1458422D01*
X268315Y-1461884D01*
X278706Y-1468813D01*
X313344Y-1503448D01*
X313344Y-1454957D01*
X282171Y-1432097D02*
G01*
X282171Y-1369753D01*
X254462Y-1346893D02*
G01*
X250997Y-1339964D01*
X240606Y-1329575D01*
X313344Y-1329575D01*
X257924Y-1303251D02*
G01*
X254462Y-1303251D01*
X247535Y-1299786D01*
X244071Y-1296324D01*
X240606Y-1289395D01*
X240606Y-1275542D01*
X244071Y-1268615D01*
X247535Y-1265151D01*
X254462Y-1261686D01*
X261388Y-1261686D01*
X268315Y-1265151D01*
X278706Y-1272077D01*
X313344Y-1306715D01*
X313344Y-1258224D01*
X282171Y-1235364D02*
G01*
X282171Y-1173017D01*
X257924Y-1146695D02*
G01*
X254462Y-1146695D01*
X247535Y-1143231D01*
X244071Y-1139766D01*
X240606Y-1132839D01*
X240606Y-1118984D01*
X244071Y-1112057D01*
X247535Y-1108595D01*
X254462Y-1105131D01*
X261388Y-1105131D01*
X268315Y-1108595D01*
X278706Y-1115522D01*
X313344Y-1150157D01*
X313344Y-1101666D01*
X240606Y-1058024D02*
G01*
X244071Y-1068415D01*
X254462Y-1075344D01*
X271779Y-1078806D01*
X282171Y-1078806D01*
X299488Y-1075344D01*
X309879Y-1068415D01*
X313344Y-1058024D01*
X313344Y-1051097D01*
X309879Y-1040706D01*
X299488Y-1033779D01*
X282171Y-1030315D01*
X271779Y-1030315D01*
X254462Y-1033779D01*
X244071Y-1040706D01*
X240606Y-1051097D01*
X240606Y-1058024D01*
X257924Y-1003993D02*
G01*
X254462Y-1003993D01*
X247535Y-1000528D01*
X244071Y-997064D01*
X240606Y-990137D01*
X240606Y-976284D01*
X244071Y-969355D01*
X247535Y-965893D01*
X254462Y-962428D01*
X261388Y-962428D01*
X268315Y-965893D01*
X278706Y-972820D01*
X313344Y-1007455D01*
X313344Y-958964D01*
X254462Y-936104D02*
G01*
X250997Y-929177D01*
X240606Y-918786D01*
X313344Y-918786D01*
D21*
X2907284Y-1485900D02*
G01*
X3016250Y-1485900D01*
X2907284Y-1485900D02*
G01*
X2907284Y-1418336D01*
X2959100Y-1485900D02*
G01*
X2959100Y-1444244D01*
X2907284Y-1384045D02*
G01*
X3016250Y-1384045D01*
X2907284Y-1384045D02*
G01*
X2907284Y-1337310D01*
X2912363Y-1321815D01*
X2917697Y-1316481D01*
X2928111Y-1311402D01*
X2943606Y-1311402D01*
X2954020Y-1316481D01*
X2959100Y-1321815D01*
X2964434Y-1337310D01*
X2964434Y-1384045D01*
X2933191Y-1199134D02*
G01*
X2922777Y-1204213D01*
X2912363Y-1214628D01*
X2907284Y-1225042D01*
X2907284Y-1245870D01*
X2912363Y-1256284D01*
X2922777Y-1266697D01*
X2933191Y-1271778D01*
X2948940Y-1277112D01*
X2974847Y-1277112D01*
X2990341Y-1271778D01*
X3000756Y-1266697D01*
X3011170Y-1256284D01*
X3016250Y-1245870D01*
X3016250Y-1225042D01*
X3011170Y-1214628D01*
X3000756Y-1204213D01*
X2990341Y-1199134D01*
X2933191Y-1159510D02*
G01*
X2928111Y-1159510D01*
X2917697Y-1154429D01*
X2912363Y-1149350D01*
X2907284Y-1138936D01*
X2907284Y-1118107D01*
X2912363Y-1107694D01*
X2917697Y-1102360D01*
X2928111Y-1097279D01*
X2938525Y-1097279D01*
X2948940Y-1102360D01*
X2964434Y-1112773D01*
X3016250Y-1164844D01*
X3016250Y-1092200D01*
D10*
X2627030Y-420212D02*
G01*
X3252028Y-420212D01*
X2627030Y-2115207D02*
G01*
X2627119Y-1970090D01*
X2627119Y-620328D02*
G01*
X2627030Y-475208D01*
X3251961Y-2170206D02*
G01*
X2627030Y-2170206D01*
X3252028Y-475208D02*
G01*
X3251961Y-2115207D01*
D19*
G75*
G01
X3152038Y-720192D02*
G03X3152038Y-720192I-24994J0D01*
M02*
