G04 Layer: BottomPasteMaskLayer*
G04 EasyEDA v6.4.25, 2021-12-06T02:48:24+01:00*
G04 3d30912b60d9496eba34c91f18b07311,db93e8822c7348a7aec6f6efa12e507d,10*
G04 Gerber Generator version 0.2*
G04 Scale: 100 percent, Rotated: No, Reflected: No *
G04 Dimensions in millimeters *
G04 leading zeros omitted , absolute positions ,4 integer and 5 decimal *
%FSLAX45Y45*%
%MOMM*%

%ADD10C,0.0001*%

%LPD*%
G36*
X732536Y-404774D02*
G01*
X728522Y-408787D01*
X728522Y-454812D01*
X732536Y-458825D01*
X782624Y-458825D01*
X786587Y-454812D01*
X786587Y-408787D01*
X782624Y-404774D01*
G37*
G36*
X817575Y-404774D02*
G01*
X813612Y-408787D01*
X813612Y-454812D01*
X817575Y-458825D01*
X867664Y-458825D01*
X871677Y-454812D01*
X871677Y-408787D01*
X867664Y-404774D01*
G37*
G36*
X1065844Y-1118102D02*
G01*
X1065844Y-1148105D01*
X1190843Y-1148105D01*
X1190843Y-1118102D01*
G37*
G36*
X1065844Y-1168102D02*
G01*
X1065844Y-1198105D01*
X1190843Y-1198105D01*
X1190843Y-1168102D01*
G37*
G36*
X1065844Y-1218102D02*
G01*
X1065844Y-1248105D01*
X1190843Y-1248105D01*
X1190843Y-1218102D01*
G37*
G36*
X1065844Y-1268102D02*
G01*
X1065844Y-1298105D01*
X1190843Y-1298105D01*
X1190843Y-1268102D01*
G37*
G36*
X1065844Y-1318102D02*
G01*
X1065844Y-1348104D01*
X1190843Y-1348104D01*
X1190843Y-1318102D01*
G37*
G36*
X1065844Y-1368102D02*
G01*
X1065844Y-1398104D01*
X1190843Y-1398104D01*
X1190843Y-1368102D01*
G37*
G36*
X1065844Y-1418102D02*
G01*
X1065844Y-1448104D01*
X1190843Y-1448104D01*
X1190843Y-1418102D01*
G37*
G36*
X1065844Y-1468102D02*
G01*
X1065844Y-1498104D01*
X1190843Y-1498104D01*
X1190843Y-1468102D01*
G37*
G36*
X1210840Y-879104D02*
G01*
X1210840Y-1079103D01*
X1510842Y-1079103D01*
X1510842Y-879104D01*
G37*
G36*
X1210840Y-1537093D02*
G01*
X1210840Y-1737093D01*
X1510842Y-1737093D01*
X1510842Y-1537093D01*
G37*
G36*
X1136799Y-506503D02*
G01*
X1243799Y-506503D01*
X1243799Y-446504D01*
X1136799Y-446504D01*
G37*
G36*
X1136799Y-696495D02*
G01*
X1243799Y-696495D01*
X1243799Y-636496D01*
X1136799Y-636496D01*
G37*
G36*
X889800Y-601499D02*
G01*
X996800Y-601499D01*
X996800Y-541500D01*
X889800Y-541500D01*
G37*
G36*
X516889Y-754887D02*
G01*
X486918Y-754887D01*
X436918Y-819912D01*
X516889Y-819912D01*
G37*
G36*
X372618Y-819912D02*
G01*
X402589Y-819912D01*
X452716Y-754887D01*
X372618Y-754887D01*
G37*
G36*
X516889Y-1059687D02*
G01*
X486918Y-1059687D01*
X436918Y-1124712D01*
X516889Y-1124712D01*
G37*
G36*
X372618Y-1124712D02*
G01*
X402589Y-1124712D01*
X452716Y-1059687D01*
X372618Y-1059687D01*
G37*
G36*
X2434590Y-2240787D02*
G01*
X2404618Y-2240787D01*
X2354618Y-2305812D01*
X2434590Y-2305812D01*
G37*
G36*
X2290318Y-2305812D02*
G01*
X2320290Y-2305812D01*
X2370416Y-2240787D01*
X2290318Y-2240787D01*
G37*
G36*
X2434590Y-2126487D02*
G01*
X2404618Y-2126487D01*
X2354618Y-2191512D01*
X2434590Y-2191512D01*
G37*
G36*
X2290318Y-2191512D02*
G01*
X2320290Y-2191512D01*
X2370416Y-2126487D01*
X2290318Y-2126487D01*
G37*
G36*
X516889Y-1326387D02*
G01*
X486918Y-1326387D01*
X436918Y-1391412D01*
X516889Y-1391412D01*
G37*
G36*
X372618Y-1391412D02*
G01*
X402589Y-1391412D01*
X452716Y-1326387D01*
X372618Y-1326387D01*
G37*
M02*
