G04 Layer: TopSolderMaskLayer*
G04 EasyEDA v6.4.25, 2021-12-06T02:48:24+01:00*
G04 3d30912b60d9496eba34c91f18b07311,db93e8822c7348a7aec6f6efa12e507d,10*
G04 Gerber Generator version 0.2*
G04 Scale: 100 percent, Rotated: No, Reflected: No *
G04 Dimensions in millimeters *
G04 leading zeros omitted , absolute positions ,4 integer and 5 decimal *
%FSLAX45Y45*%
%MOMM*%

%ADD10C,0.0001*%

%LPD*%
G36*
X2566670Y-745489D02*
G01*
X2566670Y-695197D01*
X2717038Y-695197D01*
X2717038Y-745489D01*
G37*
G36*
X2566670Y-795528D02*
G01*
X2566670Y-745236D01*
X2717038Y-745236D01*
X2717038Y-795528D01*
G37*
G36*
X2566670Y-845565D02*
G01*
X2566670Y-795273D01*
X2717038Y-795273D01*
X2717038Y-845565D01*
G37*
G36*
X2566670Y-895604D02*
G01*
X2566670Y-845312D01*
X2717038Y-845312D01*
X2717038Y-895604D01*
G37*
G36*
X2566670Y-945642D02*
G01*
X2566670Y-895350D01*
X2717038Y-895350D01*
X2717038Y-945642D01*
G37*
G36*
X2566670Y-995679D02*
G01*
X2566670Y-945134D01*
X2717038Y-945134D01*
X2717038Y-995679D01*
G37*
G36*
X2566670Y-1045463D02*
G01*
X2566670Y-995171D01*
X2717038Y-995171D01*
X2717038Y-1045463D01*
G37*
G36*
X2566670Y-1095502D02*
G01*
X2566670Y-1045210D01*
X2717038Y-1045210D01*
X2717038Y-1095502D01*
G37*
G36*
X2566670Y-1145539D02*
G01*
X2566670Y-1095247D01*
X2717038Y-1095247D01*
X2717038Y-1145539D01*
G37*
G36*
X2566670Y-1195578D02*
G01*
X2566670Y-1145286D01*
X2717038Y-1145286D01*
X2717038Y-1195578D01*
G37*
G36*
X2566670Y-1245615D02*
G01*
X2566670Y-1195323D01*
X2717038Y-1195323D01*
X2717038Y-1245615D01*
G37*
G36*
X2566670Y-1295654D02*
G01*
X2566670Y-1245362D01*
X2717038Y-1245362D01*
X2717038Y-1295654D01*
G37*
G36*
X2566670Y-1345692D02*
G01*
X2566670Y-1295145D01*
X2717038Y-1295145D01*
X2717038Y-1345692D01*
G37*
G36*
X2566670Y-1395476D02*
G01*
X2566670Y-1345184D01*
X2717038Y-1345184D01*
X2717038Y-1395476D01*
G37*
G36*
X2566670Y-1445513D02*
G01*
X2566670Y-1395221D01*
X2717038Y-1395221D01*
X2717038Y-1445513D01*
G37*
G36*
X2566670Y-1495552D02*
G01*
X2566670Y-1445260D01*
X2717038Y-1445260D01*
X2717038Y-1495552D01*
G37*
G36*
X2566670Y-1545589D02*
G01*
X2566670Y-1495297D01*
X2717038Y-1495297D01*
X2717038Y-1545589D01*
G37*
G36*
X2566670Y-1595628D02*
G01*
X2566670Y-1545336D01*
X2717038Y-1545336D01*
X2717038Y-1595628D01*
G37*
G36*
X2566670Y-1645665D02*
G01*
X2566670Y-1595373D01*
X2717038Y-1595373D01*
X2717038Y-1645665D01*
G37*
G36*
X2566670Y-1695450D02*
G01*
X2566670Y-1645157D01*
X2717038Y-1645157D01*
X2717038Y-1695450D01*
G37*
G36*
X2566670Y-1745487D02*
G01*
X2566670Y-1695195D01*
X2717038Y-1695195D01*
X2717038Y-1745487D01*
G37*
G36*
X2566670Y-1795526D02*
G01*
X2566670Y-1745234D01*
X2717038Y-1745234D01*
X2717038Y-1795526D01*
G37*
G36*
X2566670Y-1845563D02*
G01*
X2566670Y-1795271D01*
X2717038Y-1795271D01*
X2717038Y-1845563D01*
G37*
G36*
X2566670Y-1895602D02*
G01*
X2566670Y-1845310D01*
X2717038Y-1845310D01*
X2717038Y-1895602D01*
G37*
G36*
X2821940Y-2150363D02*
G01*
X2821940Y-1930145D01*
X3002279Y-1930145D01*
X3002279Y-2150363D01*
G37*
G36*
X2821940Y-660400D02*
G01*
X2821940Y-439928D01*
X3002279Y-439928D01*
X3002279Y-660400D01*
G37*
M02*
