G04 Layer: BottomLayer*
G04 EasyEDA v6.4.25, 2021-12-06T02:48:24+01:00*
G04 3d30912b60d9496eba34c91f18b07311,db93e8822c7348a7aec6f6efa12e507d,10*
G04 Gerber Generator version 0.2*
G04 Scale: 100 percent, Rotated: No, Reflected: No *
G04 Dimensions in millimeters *
G04 leading zeros omitted , absolute positions ,4 integer and 5 decimal *
%FSLAX45Y45*%
%MOMM*%

%ADD10C,0.2540*%
%ADD11C,0.3500*%
%ADD12C,0.6096*%

%LPD*%
G36*
X101244Y-2590088D02*
G01*
X88747Y-2589123D01*
X78486Y-2586786D01*
X68630Y-2582976D01*
X59385Y-2577846D01*
X51003Y-2571445D01*
X43637Y-2563876D01*
X37388Y-2555392D01*
X32410Y-2546096D01*
X28803Y-2536139D01*
X26670Y-2525826D01*
X25908Y-2514752D01*
X25908Y-101244D01*
X26873Y-88747D01*
X29209Y-78486D01*
X33020Y-68630D01*
X38150Y-59385D01*
X44551Y-51003D01*
X52120Y-43637D01*
X60604Y-37388D01*
X69951Y-32410D01*
X79857Y-28803D01*
X90170Y-26670D01*
X101244Y-25908D01*
X3424732Y-25908D01*
X3437229Y-26873D01*
X3447542Y-29209D01*
X3457397Y-33020D01*
X3466592Y-38150D01*
X3474974Y-44551D01*
X3482390Y-52120D01*
X3488639Y-60604D01*
X3493617Y-69951D01*
X3497173Y-79857D01*
X3499307Y-90170D01*
X3500069Y-101244D01*
X3500069Y-2514752D01*
X3499104Y-2527249D01*
X3496767Y-2537561D01*
X3493008Y-2547366D01*
X3487826Y-2556611D01*
X3481425Y-2564993D01*
X3473907Y-2572359D01*
X3465372Y-2578608D01*
X3456076Y-2583586D01*
X3446170Y-2587193D01*
X3435807Y-2589326D01*
X3424732Y-2590088D01*
G37*

%LPC*%
G36*
X2286508Y-2489708D02*
G01*
X2831592Y-2489708D01*
X2839618Y-2488895D01*
X2846832Y-2486710D01*
X2853537Y-2483154D01*
X2859735Y-2478024D01*
X2935224Y-2402535D01*
X2940354Y-2396337D01*
X2943910Y-2389632D01*
X2946095Y-2382418D01*
X2946908Y-2374392D01*
X2946908Y-921308D01*
X2947670Y-917397D01*
X2949905Y-914095D01*
X2951480Y-912520D01*
X2957118Y-904494D01*
X2961233Y-895553D01*
X2963773Y-886104D01*
X2964637Y-876300D01*
X2963773Y-866495D01*
X2961233Y-857046D01*
X2957118Y-848106D01*
X2951480Y-840079D01*
X2944520Y-833119D01*
X2936494Y-827481D01*
X2927553Y-823366D01*
X2918104Y-820826D01*
X2908300Y-819962D01*
X2898495Y-820826D01*
X2889046Y-823366D01*
X2880106Y-827481D01*
X2872079Y-833119D01*
X2865120Y-840079D01*
X2859481Y-848106D01*
X2855366Y-857046D01*
X2852826Y-866495D01*
X2851962Y-876300D01*
X2852826Y-886104D01*
X2855366Y-895553D01*
X2859481Y-904494D01*
X2865120Y-912520D01*
X2866694Y-914095D01*
X2868930Y-917397D01*
X2869692Y-921308D01*
X2869692Y-2354681D01*
X2868930Y-2358593D01*
X2866694Y-2361895D01*
X2819095Y-2409494D01*
X2815793Y-2411730D01*
X2811881Y-2412492D01*
X2306218Y-2412492D01*
X2302306Y-2411730D01*
X2299004Y-2409494D01*
X2289505Y-2399995D01*
X2287270Y-2396693D01*
X2286508Y-2392781D01*
X2286508Y-2357018D01*
X2287270Y-2353106D01*
X2289505Y-2349804D01*
X2304592Y-2334717D01*
X2307894Y-2332482D01*
X2311806Y-2331720D01*
X2319731Y-2331720D01*
X2326132Y-2330958D01*
X2335479Y-2327402D01*
X2339289Y-2327351D01*
X2343505Y-2329129D01*
X2348890Y-2331008D01*
X2355189Y-2331720D01*
X2434031Y-2331720D01*
X2440330Y-2331008D01*
X2445816Y-2329078D01*
X2450693Y-2326030D01*
X2454808Y-2321915D01*
X2457856Y-2317038D01*
X2459786Y-2311552D01*
X2460498Y-2305253D01*
X2460498Y-2241346D01*
X2459786Y-2235047D01*
X2457856Y-2229561D01*
X2454808Y-2224684D01*
X2453436Y-2223312D01*
X2451252Y-2220061D01*
X2450490Y-2216150D01*
X2451252Y-2212238D01*
X2453436Y-2208987D01*
X2454808Y-2207615D01*
X2457856Y-2202738D01*
X2459786Y-2197252D01*
X2460498Y-2190953D01*
X2460498Y-2127046D01*
X2459786Y-2120747D01*
X2457856Y-2115261D01*
X2452370Y-2106879D01*
X2451608Y-2102967D01*
X2452370Y-2099106D01*
X2454605Y-2095804D01*
X2484678Y-2065731D01*
X2487574Y-2063699D01*
X2490978Y-2062784D01*
X2499004Y-2062073D01*
X2508453Y-2059533D01*
X2517394Y-2055418D01*
X2525420Y-2049780D01*
X2532380Y-2042820D01*
X2538018Y-2034793D01*
X2542133Y-2025853D01*
X2544673Y-2016404D01*
X2545537Y-2006600D01*
X2544673Y-1996795D01*
X2542133Y-1987346D01*
X2538018Y-1978406D01*
X2532380Y-1970379D01*
X2525420Y-1963420D01*
X2517394Y-1957781D01*
X2508453Y-1953666D01*
X2499004Y-1951126D01*
X2489200Y-1950262D01*
X2479395Y-1951126D01*
X2469946Y-1953666D01*
X2461006Y-1957781D01*
X2452979Y-1963420D01*
X2446020Y-1970379D01*
X2440381Y-1978406D01*
X2436266Y-1987346D01*
X2433726Y-1996795D01*
X2433015Y-2004822D01*
X2432100Y-2008225D01*
X2430068Y-2011121D01*
X2377694Y-2063546D01*
X2372563Y-2069744D01*
X2369007Y-2076450D01*
X2366822Y-2083663D01*
X2366060Y-2091436D01*
X2364994Y-2094992D01*
X2362758Y-2097938D01*
X2359558Y-2099919D01*
X2355900Y-2100580D01*
X2346807Y-2100580D01*
X2346807Y-2136902D01*
X2350160Y-2138730D01*
X2352649Y-2141728D01*
X2353767Y-2145436D01*
X2353462Y-2149297D01*
X2351735Y-2152751D01*
X2334412Y-2175256D01*
X2331161Y-2180691D01*
X2329332Y-2186127D01*
X2328773Y-2191816D01*
X2329484Y-2197506D01*
X2330856Y-2201265D01*
X2331415Y-2205075D01*
X2330551Y-2208885D01*
X2328316Y-2212035D01*
X2325065Y-2214118D01*
X2321255Y-2214880D01*
X2304186Y-2214880D01*
X2300325Y-2214118D01*
X2297023Y-2211882D01*
X2294839Y-2208631D01*
X2294026Y-2204720D01*
X2294026Y-2181606D01*
X2264410Y-2181606D01*
X2264410Y-2190953D01*
X2265121Y-2197252D01*
X2267051Y-2202738D01*
X2270099Y-2207615D01*
X2271471Y-2208987D01*
X2273655Y-2212238D01*
X2274417Y-2216150D01*
X2273655Y-2220061D01*
X2271471Y-2223312D01*
X2270099Y-2224684D01*
X2267051Y-2229561D01*
X2265121Y-2235047D01*
X2264410Y-2241346D01*
X2264410Y-2261463D01*
X2263648Y-2265375D01*
X2261412Y-2268677D01*
X2220976Y-2309164D01*
X2215845Y-2315362D01*
X2212289Y-2322068D01*
X2210104Y-2329281D01*
X2209292Y-2337308D01*
X2209292Y-2412492D01*
X2210104Y-2420518D01*
X2212289Y-2427732D01*
X2215845Y-2434437D01*
X2220976Y-2440635D01*
X2258364Y-2478024D01*
X2264562Y-2483154D01*
X2271268Y-2486710D01*
X2278481Y-2488895D01*
G37*
G36*
X2264410Y-2136394D02*
G01*
X2294026Y-2136394D01*
X2294026Y-2100580D01*
X2290876Y-2100580D01*
X2284577Y-2101291D01*
X2279091Y-2103221D01*
X2274214Y-2106269D01*
X2270099Y-2110384D01*
X2267051Y-2115261D01*
X2265121Y-2120747D01*
X2264410Y-2127046D01*
G37*
G36*
X1442212Y-1763014D02*
G01*
X1510284Y-1763014D01*
X1516583Y-1762302D01*
X1522069Y-1760372D01*
X1526946Y-1757273D01*
X1531061Y-1753209D01*
X1534109Y-1748282D01*
X1536039Y-1742846D01*
X1536750Y-1736547D01*
X1536750Y-1693468D01*
X1442212Y-1693468D01*
G37*
G36*
X1211427Y-1763014D02*
G01*
X1279499Y-1763014D01*
X1279499Y-1693468D01*
X1184960Y-1693468D01*
X1184960Y-1736547D01*
X1185672Y-1742846D01*
X1187551Y-1748282D01*
X1190650Y-1753209D01*
X1194714Y-1757273D01*
X1199642Y-1760372D01*
X1205077Y-1762302D01*
G37*
G36*
X1442212Y-1580743D02*
G01*
X1536750Y-1580743D01*
X1536750Y-1537665D01*
X1536039Y-1531366D01*
X1534109Y-1525879D01*
X1531061Y-1521002D01*
X1526946Y-1516888D01*
X1522069Y-1513789D01*
X1516583Y-1511909D01*
X1510284Y-1511198D01*
X1442212Y-1511198D01*
G37*
G36*
X1184960Y-1580743D02*
G01*
X1279499Y-1580743D01*
X1279499Y-1511198D01*
X1226566Y-1511198D01*
X1222451Y-1510284D01*
X1218996Y-1507794D01*
X1216914Y-1504086D01*
X1216507Y-1499870D01*
X1216761Y-1497533D01*
X1216761Y-1485595D01*
X1217472Y-1481886D01*
X1219504Y-1478635D01*
X1222603Y-1476400D01*
X1226312Y-1475486D01*
X1230071Y-1475943D01*
X1233424Y-1477822D01*
X1235913Y-1479854D01*
X1242568Y-1483410D01*
X1249781Y-1485595D01*
X1257808Y-1486408D01*
X1301191Y-1486408D01*
X1305102Y-1487170D01*
X1308404Y-1489405D01*
X1309979Y-1490980D01*
X1318006Y-1496618D01*
X1326946Y-1500733D01*
X1336395Y-1503273D01*
X1346200Y-1504137D01*
X1356004Y-1503273D01*
X1365453Y-1500733D01*
X1374394Y-1496618D01*
X1382420Y-1490980D01*
X1389380Y-1484020D01*
X1395018Y-1475994D01*
X1399133Y-1467053D01*
X1401673Y-1457604D01*
X1402537Y-1447800D01*
X1401673Y-1437995D01*
X1400759Y-1434490D01*
X1400454Y-1430832D01*
X1401521Y-1427276D01*
X1403756Y-1424330D01*
X1406906Y-1422400D01*
X1410563Y-1421739D01*
X1426413Y-1421739D01*
X1430274Y-1422501D01*
X1433576Y-1424686D01*
X1470964Y-1462024D01*
X1477162Y-1467154D01*
X1483868Y-1470710D01*
X1491081Y-1472895D01*
X1499108Y-1473708D01*
X1586992Y-1473708D01*
X1595018Y-1472895D01*
X1602232Y-1470710D01*
X1608937Y-1467154D01*
X1615135Y-1462024D01*
X1621078Y-1456131D01*
X1623974Y-1454099D01*
X1627378Y-1453184D01*
X1635404Y-1452473D01*
X1644853Y-1449933D01*
X1653793Y-1445818D01*
X1661820Y-1440180D01*
X1668780Y-1433220D01*
X1674418Y-1425194D01*
X1678533Y-1416253D01*
X1681073Y-1406804D01*
X1681937Y-1397000D01*
X1681073Y-1387195D01*
X1678533Y-1377746D01*
X1674418Y-1368806D01*
X1668780Y-1360779D01*
X1661820Y-1353820D01*
X1653793Y-1348181D01*
X1644853Y-1344066D01*
X1635404Y-1341526D01*
X1625600Y-1340662D01*
X1615795Y-1341526D01*
X1606346Y-1344066D01*
X1597406Y-1348181D01*
X1589379Y-1353820D01*
X1582420Y-1360779D01*
X1576781Y-1368806D01*
X1572666Y-1377746D01*
X1569110Y-1390802D01*
X1566824Y-1393799D01*
X1563674Y-1395780D01*
X1559966Y-1396492D01*
X1538732Y-1396492D01*
X1534566Y-1395577D01*
X1531162Y-1393088D01*
X1529029Y-1389380D01*
X1528622Y-1385163D01*
X1529994Y-1381099D01*
X1532890Y-1378000D01*
X1534820Y-1376680D01*
X1541780Y-1369720D01*
X1547418Y-1361694D01*
X1551533Y-1352753D01*
X1554073Y-1343304D01*
X1554937Y-1333500D01*
X1554073Y-1323695D01*
X1551533Y-1314246D01*
X1547418Y-1305306D01*
X1541780Y-1297279D01*
X1534820Y-1290320D01*
X1526794Y-1284681D01*
X1517853Y-1280566D01*
X1508404Y-1278026D01*
X1498600Y-1277162D01*
X1488795Y-1278026D01*
X1479346Y-1280566D01*
X1470406Y-1284681D01*
X1462379Y-1290320D01*
X1460804Y-1291894D01*
X1457502Y-1294130D01*
X1453591Y-1294892D01*
X1451254Y-1294892D01*
X1447342Y-1294130D01*
X1444040Y-1291894D01*
X1441856Y-1288643D01*
X1441094Y-1284732D01*
X1441856Y-1280820D01*
X1444040Y-1277569D01*
X1498904Y-1222705D01*
X1502206Y-1220470D01*
X1506118Y-1219708D01*
X2342591Y-1219708D01*
X2346502Y-1220470D01*
X2349804Y-1222705D01*
X2351379Y-1224280D01*
X2359406Y-1229918D01*
X2368346Y-1234033D01*
X2377795Y-1236573D01*
X2387600Y-1237437D01*
X2397404Y-1236573D01*
X2406853Y-1234033D01*
X2415794Y-1229918D01*
X2423820Y-1224280D01*
X2430780Y-1217320D01*
X2436418Y-1209294D01*
X2440533Y-1200353D01*
X2443073Y-1190904D01*
X2443937Y-1181100D01*
X2443073Y-1171295D01*
X2440533Y-1161846D01*
X2436418Y-1152906D01*
X2430780Y-1144879D01*
X2423820Y-1137920D01*
X2415794Y-1132281D01*
X2406853Y-1128166D01*
X2397404Y-1125626D01*
X2387600Y-1124762D01*
X2377795Y-1125626D01*
X2368346Y-1128166D01*
X2359406Y-1132281D01*
X2351379Y-1137920D01*
X2349804Y-1139494D01*
X2346502Y-1141730D01*
X2342591Y-1142492D01*
X1486408Y-1142492D01*
X1478381Y-1143304D01*
X1471168Y-1145489D01*
X1464462Y-1149045D01*
X1458264Y-1154176D01*
X1370787Y-1241602D01*
X1367485Y-1243838D01*
X1363573Y-1244600D01*
X1263091Y-1244600D01*
X1258824Y-1243634D01*
X1255318Y-1240993D01*
X1253286Y-1237081D01*
X1253083Y-1232662D01*
X1254760Y-1228598D01*
X1258011Y-1225651D01*
X1262227Y-1224330D01*
X1267104Y-1223873D01*
X1276553Y-1221333D01*
X1285494Y-1217218D01*
X1293520Y-1211580D01*
X1300480Y-1204620D01*
X1306118Y-1196594D01*
X1310233Y-1187653D01*
X1312773Y-1178204D01*
X1313637Y-1168400D01*
X1312773Y-1158595D01*
X1310233Y-1149146D01*
X1306118Y-1140206D01*
X1300480Y-1132179D01*
X1293520Y-1125220D01*
X1282242Y-1117295D01*
X1280210Y-1114094D01*
X1279499Y-1110335D01*
X1279499Y-1035456D01*
X1184960Y-1035456D01*
X1184960Y-1078534D01*
X1185214Y-1080922D01*
X1184808Y-1085138D01*
X1182674Y-1088796D01*
X1179271Y-1091285D01*
X1175105Y-1092200D01*
X1066393Y-1092200D01*
X1060094Y-1092911D01*
X1057198Y-1093927D01*
X1053846Y-1094486D01*
X988212Y-1094486D01*
X984300Y-1093724D01*
X980998Y-1091488D01*
X649935Y-760476D01*
X643737Y-755345D01*
X637032Y-751789D01*
X629818Y-749604D01*
X621792Y-748792D01*
X548995Y-748792D01*
X545642Y-748233D01*
X542645Y-746556D01*
X540410Y-744016D01*
X537108Y-738784D01*
X532993Y-734669D01*
X528116Y-731621D01*
X522630Y-729691D01*
X516331Y-728980D01*
X487476Y-728980D01*
X481076Y-729742D01*
X471779Y-733247D01*
X467969Y-733298D01*
X463854Y-731570D01*
X458419Y-729691D01*
X452170Y-728980D01*
X373176Y-728980D01*
X366877Y-729691D01*
X361391Y-731621D01*
X356514Y-734669D01*
X352399Y-738784D01*
X349351Y-743661D01*
X347421Y-749147D01*
X346710Y-755446D01*
X346710Y-819353D01*
X347421Y-825652D01*
X349351Y-831138D01*
X352399Y-836015D01*
X356514Y-840130D01*
X361391Y-843178D01*
X366877Y-845108D01*
X373176Y-845819D01*
X402031Y-845819D01*
X408432Y-845058D01*
X417779Y-841502D01*
X421589Y-841451D01*
X425805Y-843229D01*
X431190Y-845108D01*
X437489Y-845819D01*
X516331Y-845819D01*
X522630Y-845108D01*
X528116Y-843178D01*
X532993Y-840130D01*
X537108Y-836015D01*
X540410Y-830783D01*
X542645Y-828243D01*
X545642Y-826566D01*
X548995Y-826008D01*
X602081Y-826008D01*
X605993Y-826769D01*
X609295Y-829005D01*
X907440Y-1127150D01*
X909675Y-1130452D01*
X910437Y-1134364D01*
X909675Y-1138224D01*
X907440Y-1141526D01*
X904138Y-1143711D01*
X900277Y-1144524D01*
X733399Y-1144524D01*
X729538Y-1143711D01*
X726236Y-1141526D01*
X649935Y-1065276D01*
X643737Y-1060145D01*
X637032Y-1056589D01*
X629818Y-1054404D01*
X621792Y-1053592D01*
X548995Y-1053592D01*
X545642Y-1053033D01*
X542645Y-1051356D01*
X540410Y-1048816D01*
X537108Y-1043584D01*
X532993Y-1039469D01*
X528116Y-1036421D01*
X522630Y-1034491D01*
X516331Y-1033780D01*
X487476Y-1033780D01*
X481076Y-1034542D01*
X471779Y-1038047D01*
X467969Y-1038098D01*
X463854Y-1036370D01*
X458419Y-1034491D01*
X452170Y-1033780D01*
X403098Y-1033780D01*
X399237Y-1033018D01*
X395935Y-1030782D01*
X270205Y-905052D01*
X267970Y-901750D01*
X267208Y-897890D01*
X267208Y-706018D01*
X267970Y-702106D01*
X270205Y-698804D01*
X292404Y-676605D01*
X295706Y-674370D01*
X299618Y-673608D01*
X665581Y-673608D01*
X669493Y-674370D01*
X672795Y-676605D01*
X759764Y-763524D01*
X765962Y-768654D01*
X772668Y-772210D01*
X779881Y-774395D01*
X787908Y-775208D01*
X888492Y-775208D01*
X896518Y-774395D01*
X903732Y-772210D01*
X910437Y-768654D01*
X916635Y-763524D01*
X970229Y-709930D01*
X975360Y-703732D01*
X978916Y-697026D01*
X981100Y-689813D01*
X981913Y-681786D01*
X981913Y-637590D01*
X982675Y-633679D01*
X984910Y-630377D01*
X988161Y-628192D01*
X992073Y-627430D01*
X996238Y-627430D01*
X1002537Y-626719D01*
X1008024Y-624789D01*
X1012901Y-621690D01*
X1017016Y-617626D01*
X1020064Y-612698D01*
X1021994Y-607263D01*
X1022705Y-600913D01*
X1022705Y-542086D01*
X1021994Y-535838D01*
X1019403Y-528777D01*
X1018743Y-524967D01*
X1019606Y-521157D01*
X1021842Y-517956D01*
X1025093Y-515874D01*
X1028903Y-515112D01*
X1106271Y-515112D01*
X1109624Y-515670D01*
X1112570Y-517347D01*
X1114856Y-519887D01*
X1116584Y-522630D01*
X1120698Y-526694D01*
X1125575Y-529793D01*
X1131011Y-531672D01*
X1137361Y-532384D01*
X1243228Y-532384D01*
X1249527Y-531672D01*
X1255014Y-529793D01*
X1259890Y-526694D01*
X1264005Y-522630D01*
X1267053Y-517702D01*
X1268984Y-512267D01*
X1269695Y-505917D01*
X1269695Y-447090D01*
X1268984Y-440740D01*
X1267053Y-435305D01*
X1264005Y-430377D01*
X1259890Y-426313D01*
X1255014Y-423214D01*
X1249527Y-421284D01*
X1243228Y-420573D01*
X1137361Y-420573D01*
X1131011Y-421284D01*
X1125575Y-423214D01*
X1120698Y-426313D01*
X1116584Y-430377D01*
X1114856Y-433120D01*
X1112570Y-435660D01*
X1109624Y-437337D01*
X1106271Y-437896D01*
X908303Y-437896D01*
X904392Y-437134D01*
X900531Y-434390D01*
X898347Y-431088D01*
X897585Y-427177D01*
X897585Y-405384D01*
X896874Y-399034D01*
X894943Y-393598D01*
X891844Y-388670D01*
X887780Y-384606D01*
X882853Y-381508D01*
X877417Y-379628D01*
X871118Y-378917D01*
X815644Y-378917D01*
X809345Y-379628D01*
X803452Y-381660D01*
X800100Y-382219D01*
X796747Y-381660D01*
X790854Y-379628D01*
X784555Y-378917D01*
X729081Y-378917D01*
X722782Y-379628D01*
X717346Y-381508D01*
X712419Y-384606D01*
X708355Y-388670D01*
X705256Y-393598D01*
X703326Y-399034D01*
X702614Y-405384D01*
X702614Y-458216D01*
X703326Y-464566D01*
X705256Y-470001D01*
X708355Y-474929D01*
X712419Y-478993D01*
X715975Y-481939D01*
X717651Y-484885D01*
X718210Y-488238D01*
X718210Y-540410D01*
X719023Y-548436D01*
X721207Y-555650D01*
X724763Y-562356D01*
X728929Y-567385D01*
X730453Y-570026D01*
X731164Y-572973D01*
X731926Y-581304D01*
X734466Y-590753D01*
X738581Y-599694D01*
X744220Y-607720D01*
X751179Y-614680D01*
X759206Y-620318D01*
X768146Y-624433D01*
X777595Y-626973D01*
X787400Y-627837D01*
X797204Y-626973D01*
X806653Y-624433D01*
X815594Y-620318D01*
X823620Y-614680D01*
X830580Y-607720D01*
X836218Y-599694D01*
X840333Y-590753D01*
X842873Y-581304D01*
X843584Y-573227D01*
X844143Y-571500D01*
X843584Y-569772D01*
X842873Y-561695D01*
X840333Y-552246D01*
X836218Y-543306D01*
X830580Y-535279D01*
X823620Y-528320D01*
X815594Y-522681D01*
X806653Y-518566D01*
X802944Y-517550D01*
X799033Y-515518D01*
X796391Y-512013D01*
X795426Y-507746D01*
X795426Y-493420D01*
X796137Y-489661D01*
X798220Y-486409D01*
X801370Y-484174D01*
X805129Y-483311D01*
X815644Y-484733D01*
X837488Y-484733D01*
X841349Y-485495D01*
X844651Y-487680D01*
X860450Y-503428D01*
X866648Y-508558D01*
X870407Y-511352D01*
X872236Y-514604D01*
X872794Y-518363D01*
X871982Y-522020D01*
X869594Y-525373D01*
X866495Y-530301D01*
X864616Y-535736D01*
X863904Y-542086D01*
X863904Y-568909D01*
X863295Y-571500D01*
X863904Y-574090D01*
X863904Y-600913D01*
X864616Y-607263D01*
X866495Y-612698D01*
X869594Y-617626D01*
X873658Y-621690D01*
X878586Y-624789D01*
X884021Y-626719D01*
X890371Y-627430D01*
X894537Y-627430D01*
X898448Y-628192D01*
X901700Y-630377D01*
X903935Y-633679D01*
X904697Y-637590D01*
X904697Y-662076D01*
X903935Y-665988D01*
X901700Y-669290D01*
X875995Y-694994D01*
X872693Y-697230D01*
X868781Y-697992D01*
X807618Y-697992D01*
X803706Y-697230D01*
X800404Y-694994D01*
X713435Y-608076D01*
X707237Y-602945D01*
X700532Y-599389D01*
X693318Y-597204D01*
X685292Y-596392D01*
X279908Y-596392D01*
X271881Y-597204D01*
X264668Y-599389D01*
X257962Y-602945D01*
X251764Y-608076D01*
X201676Y-658164D01*
X196545Y-664362D01*
X192989Y-671068D01*
X190804Y-678281D01*
X189992Y-686308D01*
X189992Y-917600D01*
X190804Y-925626D01*
X192989Y-932840D01*
X196545Y-939495D01*
X201676Y-945743D01*
X343712Y-1087831D01*
X345948Y-1091133D01*
X346710Y-1094994D01*
X346710Y-1124153D01*
X347421Y-1130452D01*
X349351Y-1135938D01*
X352399Y-1140815D01*
X356514Y-1144930D01*
X361391Y-1147978D01*
X366877Y-1149908D01*
X373176Y-1150620D01*
X402031Y-1150620D01*
X408432Y-1149858D01*
X417779Y-1146302D01*
X421589Y-1146251D01*
X425805Y-1148029D01*
X431190Y-1149908D01*
X437489Y-1150620D01*
X516331Y-1150620D01*
X522630Y-1149908D01*
X528116Y-1147978D01*
X532993Y-1144930D01*
X537108Y-1140815D01*
X540410Y-1135583D01*
X542645Y-1133043D01*
X545642Y-1131366D01*
X548995Y-1130808D01*
X602081Y-1130808D01*
X605993Y-1131570D01*
X609295Y-1133805D01*
X685546Y-1210056D01*
X691794Y-1215186D01*
X698449Y-1218742D01*
X705662Y-1220927D01*
X713689Y-1221740D01*
X1053846Y-1221740D01*
X1057198Y-1222298D01*
X1060704Y-1223518D01*
X1064260Y-1225651D01*
X1066647Y-1229055D01*
X1067511Y-1233119D01*
X1066647Y-1237183D01*
X1064260Y-1240536D01*
X1060704Y-1242669D01*
X1054608Y-1244803D01*
X1051102Y-1246581D01*
X1048308Y-1246936D01*
X1039926Y-1246936D01*
X1040637Y-1253845D01*
X1041552Y-1258112D01*
X1040637Y-1262329D01*
X1039926Y-1268679D01*
X1039926Y-1297533D01*
X1040637Y-1303832D01*
X1041552Y-1308100D01*
X1040637Y-1312367D01*
X1039926Y-1318666D01*
X1039926Y-1347520D01*
X1040637Y-1353870D01*
X1041552Y-1358087D01*
X1040637Y-1362354D01*
X1039926Y-1368653D01*
X1039926Y-1397508D01*
X1040637Y-1403858D01*
X1041552Y-1408125D01*
X1040637Y-1412341D01*
X1039926Y-1418691D01*
X1039926Y-1434338D01*
X1039164Y-1438249D01*
X1036980Y-1441500D01*
X1033678Y-1443736D01*
X1029766Y-1444498D01*
X857808Y-1444498D01*
X853897Y-1443736D01*
X850595Y-1441500D01*
X849020Y-1439926D01*
X840994Y-1434287D01*
X832053Y-1430172D01*
X822604Y-1427632D01*
X812800Y-1426768D01*
X802995Y-1427632D01*
X793546Y-1430172D01*
X784606Y-1434287D01*
X776579Y-1439926D01*
X769620Y-1446885D01*
X763981Y-1454912D01*
X759866Y-1463852D01*
X757326Y-1473301D01*
X756462Y-1483106D01*
X757326Y-1492910D01*
X759866Y-1502359D01*
X763981Y-1511300D01*
X769620Y-1519326D01*
X776579Y-1526286D01*
X784606Y-1531924D01*
X793546Y-1536039D01*
X802995Y-1538579D01*
X812800Y-1539443D01*
X822604Y-1538579D01*
X832053Y-1536039D01*
X840994Y-1531924D01*
X849020Y-1526286D01*
X850595Y-1524711D01*
X853897Y-1522476D01*
X857808Y-1521714D01*
X1053846Y-1521714D01*
X1057198Y-1522272D01*
X1060094Y-1523288D01*
X1066393Y-1524000D01*
X1175105Y-1524000D01*
X1179271Y-1524914D01*
X1182674Y-1527403D01*
X1184808Y-1531061D01*
X1185214Y-1535328D01*
X1184960Y-1537665D01*
G37*
G36*
X513283Y-1417320D02*
G01*
X516331Y-1417320D01*
X522630Y-1416608D01*
X528116Y-1414678D01*
X532993Y-1411630D01*
X537108Y-1407515D01*
X540156Y-1402638D01*
X542086Y-1397152D01*
X542798Y-1390853D01*
X542798Y-1381506D01*
X513283Y-1381506D01*
G37*
G36*
X373176Y-1417320D02*
G01*
X376326Y-1417320D01*
X376326Y-1381506D01*
X346710Y-1381506D01*
X346710Y-1390853D01*
X347421Y-1397152D01*
X349351Y-1402638D01*
X352399Y-1407515D01*
X356514Y-1411630D01*
X361391Y-1414678D01*
X366877Y-1416608D01*
G37*
G36*
X437489Y-1417320D02*
G01*
X460552Y-1417320D01*
X460552Y-1381506D01*
X429107Y-1381506D01*
X429107Y-1415897D01*
X431190Y-1416608D01*
G37*
G36*
X513283Y-1336294D02*
G01*
X542798Y-1336294D01*
X542798Y-1326946D01*
X542086Y-1320647D01*
X540156Y-1315161D01*
X537108Y-1310284D01*
X532993Y-1306169D01*
X528116Y-1303121D01*
X522630Y-1301191D01*
X516331Y-1300480D01*
X513283Y-1300480D01*
G37*
G36*
X346710Y-1336294D02*
G01*
X376326Y-1336294D01*
X376326Y-1300480D01*
X373176Y-1300480D01*
X366877Y-1301191D01*
X361391Y-1303121D01*
X356514Y-1306169D01*
X352399Y-1310284D01*
X349351Y-1315161D01*
X347421Y-1320647D01*
X346710Y-1326946D01*
G37*
G36*
X429107Y-1336294D02*
G01*
X460552Y-1336294D01*
X460552Y-1301953D01*
X458419Y-1301191D01*
X452170Y-1300480D01*
X429107Y-1300480D01*
G37*
G36*
X1442212Y-1105001D02*
G01*
X1510284Y-1105001D01*
X1516583Y-1104290D01*
X1522069Y-1102410D01*
X1526946Y-1099312D01*
X1531061Y-1095197D01*
X1534109Y-1090320D01*
X1536039Y-1084834D01*
X1536750Y-1078534D01*
X1536750Y-1035456D01*
X1442212Y-1035456D01*
G37*
G36*
X1184960Y-922731D02*
G01*
X1279499Y-922731D01*
X1279499Y-853186D01*
X1211427Y-853186D01*
X1205077Y-853897D01*
X1199642Y-855827D01*
X1194714Y-858875D01*
X1190650Y-862990D01*
X1187551Y-867867D01*
X1185672Y-873353D01*
X1184960Y-879652D01*
G37*
G36*
X1442212Y-922731D02*
G01*
X1536750Y-922731D01*
X1536750Y-879652D01*
X1536039Y-873353D01*
X1534109Y-867867D01*
X1531061Y-862990D01*
X1526946Y-858875D01*
X1522069Y-855827D01*
X1516583Y-853897D01*
X1510284Y-853186D01*
X1442212Y-853186D01*
G37*
G36*
X2641600Y-722833D02*
G01*
X2651404Y-721969D01*
X2660853Y-719429D01*
X2669794Y-715314D01*
X2677820Y-709676D01*
X2684780Y-702716D01*
X2690418Y-694690D01*
X2694533Y-685749D01*
X2697073Y-676300D01*
X2697937Y-666496D01*
X2697073Y-656691D01*
X2694533Y-647242D01*
X2690418Y-638302D01*
X2684780Y-630275D01*
X2677820Y-623316D01*
X2669794Y-617677D01*
X2660853Y-613562D01*
X2651404Y-611022D01*
X2641600Y-610158D01*
X2631795Y-611022D01*
X2622346Y-613562D01*
X2613406Y-617677D01*
X2605379Y-623316D01*
X2603804Y-624890D01*
X2600502Y-627126D01*
X2596591Y-627888D01*
X1274318Y-627888D01*
X1270965Y-627329D01*
X1267968Y-625652D01*
X1265732Y-623112D01*
X1264005Y-620369D01*
X1259890Y-616305D01*
X1255014Y-613206D01*
X1249527Y-611327D01*
X1243228Y-610616D01*
X1137361Y-610616D01*
X1131011Y-611327D01*
X1125575Y-613206D01*
X1120698Y-616305D01*
X1116584Y-620369D01*
X1113485Y-625297D01*
X1111605Y-630732D01*
X1110894Y-637082D01*
X1110894Y-695909D01*
X1111605Y-702259D01*
X1113485Y-707694D01*
X1116584Y-712622D01*
X1120698Y-716686D01*
X1125575Y-719785D01*
X1131011Y-721715D01*
X1137361Y-722426D01*
X1243228Y-722426D01*
X1249527Y-721715D01*
X1255014Y-719785D01*
X1259890Y-716686D01*
X1264005Y-712622D01*
X1265732Y-709879D01*
X1267968Y-707339D01*
X1270965Y-705662D01*
X1274318Y-705104D01*
X2596591Y-705104D01*
X2600502Y-705866D01*
X2603804Y-708101D01*
X2605379Y-709676D01*
X2613406Y-715314D01*
X2622346Y-719429D01*
X2631795Y-721969D01*
G37*

%LPD*%
D11*
X1257300Y-1168400D02*
G01*
X1242593Y-1183106D01*
X1128344Y-1183106D01*
D10*
X1128344Y-1383106D02*
G01*
X1446606Y-1383106D01*
X1498600Y-1435100D01*
X1587500Y-1435100D01*
X1625600Y-1397000D01*
X1190294Y-666495D02*
G01*
X2641600Y-666495D01*
X756818Y-431800D02*
G01*
X756818Y-540918D01*
X787400Y-571500D01*
X843381Y-431800D02*
G01*
X888085Y-476504D01*
X1190294Y-476504D01*
X402717Y-787400D02*
G01*
X486918Y-787400D01*
X1128268Y-1133094D02*
G01*
X967994Y-1133094D01*
X622300Y-787400D01*
X486918Y-787400D01*
X1128344Y-1183106D02*
G01*
X713206Y-1183106D01*
X622300Y-1092200D01*
X486918Y-1092200D01*
X486918Y-1092200D02*
G01*
X402717Y-1092200D01*
X402717Y-1358900D02*
G01*
X486918Y-1358900D01*
X1128344Y-1233093D02*
G01*
X710006Y-1233093D01*
X584200Y-1358900D01*
X486918Y-1358900D01*
X1128268Y-1233170D02*
G01*
X1294129Y-1233170D01*
X1360931Y-1166368D01*
X1360931Y-979170D01*
X1128344Y-1483105D02*
G01*
X812800Y-1483105D01*
X1128346Y-1333091D02*
G01*
X1128755Y-1333500D01*
X1498600Y-1333500D01*
X1128346Y-1433090D02*
G01*
X1242590Y-1433090D01*
X1257300Y-1447800D01*
X1346200Y-1447800D01*
X2404618Y-2273300D02*
G01*
X2404618Y-2159000D01*
X2404618Y-2159000D02*
G01*
X2404618Y-2091181D01*
X2489200Y-2006600D01*
X1128268Y-1283207D02*
G01*
X1383792Y-1283207D01*
X1485900Y-1181100D01*
X2387600Y-1181100D01*
X1360830Y-1637106D02*
G01*
X1798523Y-1637106D01*
X2320416Y-2159000D01*
X2320416Y-2273300D02*
G01*
X2311400Y-2273300D01*
X2247900Y-2336800D01*
X2247900Y-2413000D01*
X2286000Y-2451100D01*
X2832100Y-2451100D01*
X2908300Y-2374900D01*
X2908300Y-876300D01*
X402717Y-1092200D02*
G01*
X228600Y-918082D01*
X228600Y-685800D01*
X279400Y-635000D01*
X685800Y-635000D01*
X787400Y-736600D01*
X889000Y-736600D01*
X943305Y-682294D01*
X943305Y-571500D01*
X486918Y-1358900D02*
G01*
X765124Y-1637106D01*
X1360830Y-1637106D01*
G36*
X1065844Y-1118102D02*
G01*
X1065844Y-1148105D01*
X1190843Y-1148105D01*
X1190843Y-1118102D01*
G37*
G36*
X1065844Y-1168102D02*
G01*
X1065844Y-1198105D01*
X1190843Y-1198105D01*
X1190843Y-1168102D01*
G37*
G36*
X1065844Y-1218102D02*
G01*
X1065844Y-1248105D01*
X1190843Y-1248105D01*
X1190843Y-1218102D01*
G37*
G36*
X1065844Y-1268102D02*
G01*
X1065844Y-1298105D01*
X1190843Y-1298105D01*
X1190843Y-1268102D01*
G37*
G36*
X1065844Y-1318102D02*
G01*
X1065844Y-1348104D01*
X1190843Y-1348104D01*
X1190843Y-1318102D01*
G37*
G36*
X1065844Y-1368102D02*
G01*
X1065844Y-1398104D01*
X1190843Y-1398104D01*
X1190843Y-1368102D01*
G37*
G36*
X1065844Y-1418102D02*
G01*
X1065844Y-1448104D01*
X1190843Y-1448104D01*
X1190843Y-1418102D01*
G37*
G36*
X1065844Y-1468102D02*
G01*
X1065844Y-1498104D01*
X1190843Y-1498104D01*
X1190843Y-1468102D01*
G37*
G36*
X1210840Y-879104D02*
G01*
X1210840Y-1079103D01*
X1510842Y-1079103D01*
X1510842Y-879104D01*
G37*
G36*
X1210840Y-1537093D02*
G01*
X1210840Y-1737093D01*
X1510842Y-1737093D01*
X1510842Y-1537093D01*
G37*
G36*
X1136799Y-506503D02*
G01*
X1243799Y-506503D01*
X1243799Y-446504D01*
X1136799Y-446504D01*
G37*
G36*
X1136799Y-696495D02*
G01*
X1243799Y-696495D01*
X1243799Y-636496D01*
X1136799Y-636496D01*
G37*
G36*
X889800Y-601499D02*
G01*
X996800Y-601499D01*
X996800Y-541500D01*
X889800Y-541500D01*
G37*
G36*
X785098Y-458800D02*
G01*
X785098Y-404799D01*
X728535Y-404799D01*
X728535Y-458800D01*
G37*
G36*
X815101Y-458800D02*
G01*
X815101Y-404799D01*
X871664Y-404799D01*
X871664Y-458800D01*
G37*
G36*
X516889Y-754887D02*
G01*
X486918Y-754887D01*
X436918Y-819912D01*
X516889Y-819912D01*
G37*
G36*
X372618Y-819912D02*
G01*
X402589Y-819912D01*
X452716Y-754887D01*
X372618Y-754887D01*
G37*
G36*
X516889Y-1059687D02*
G01*
X486918Y-1059687D01*
X436918Y-1124712D01*
X516889Y-1124712D01*
G37*
G36*
X372618Y-1124712D02*
G01*
X402589Y-1124712D01*
X452716Y-1059687D01*
X372618Y-1059687D01*
G37*
G36*
X2434590Y-2240787D02*
G01*
X2404618Y-2240787D01*
X2354618Y-2305812D01*
X2434590Y-2305812D01*
G37*
G36*
X2290318Y-2305812D02*
G01*
X2320290Y-2305812D01*
X2370416Y-2240787D01*
X2290318Y-2240787D01*
G37*
G36*
X2434590Y-2126487D02*
G01*
X2404618Y-2126487D01*
X2354618Y-2191512D01*
X2434590Y-2191512D01*
G37*
G36*
X2290318Y-2191512D02*
G01*
X2320290Y-2191512D01*
X2370416Y-2126487D01*
X2290318Y-2126487D01*
G37*
G36*
X516889Y-1326387D02*
G01*
X486918Y-1326387D01*
X436918Y-1391412D01*
X516889Y-1391412D01*
G37*
G36*
X372618Y-1391412D02*
G01*
X402589Y-1391412D01*
X452716Y-1326387D01*
X372618Y-1326387D01*
G37*
D12*
G01*
X2641600Y-666495D03*
G01*
X812800Y-1483105D03*
G01*
X787400Y-571500D03*
G01*
X1257300Y-1168400D03*
G01*
X2387600Y-1181100D03*
G01*
X1498600Y-1333500D03*
G01*
X1625600Y-1397000D03*
G01*
X1346200Y-1447800D03*
G01*
X2654300Y-2159000D03*
G01*
X2489200Y-2006600D03*
G01*
X2908300Y-876300D03*
G01*
X1422400Y-2260600D03*
G01*
X2781300Y-1790700D03*
G01*
X2781300Y-1257300D03*
G01*
X2781300Y-1028700D03*
G01*
X2781300Y-1536700D03*
G01*
X3073400Y-1346200D03*
G01*
X3086100Y-1061999D03*
G01*
X3060700Y-1714500D03*
G01*
X3048000Y-1524000D03*
G01*
X3048000Y-1879600D03*
G01*
X1828800Y-1092200D03*
G01*
X2095500Y-1092200D03*
G01*
X1803400Y-1257300D03*
G01*
X2070100Y-1257300D03*
G01*
X177800Y-1130300D03*
G01*
X1397000Y-292100D03*
G01*
X2209800Y-533400D03*
G01*
X2171700Y-1778000D03*
M02*
