M48
METRIC,LZ,000.000
;FILE_FORMAT=3:3
;TYPE=PLATED
;Layer: PTH_Through
;EasyEDA v6.4.32, 2022-03-05 12:23:48
;1b2e3b3a17c3449da9e352887ce741fa,292cea30c40f4109b391fbfe46d023fa,10
;Gerber Generator version 0.2
;Holesize 1 = 0.305 mm
T01C0.305
;Holesize 2 = 0.889 mm
T02C0.889
;Holesize 3 = 1.200 mm
T03C1.200
%
G05
G90
T01
X013843Y-061468
X011049Y-064262
X010915Y-065854
X022683Y-065727
X006782Y-061493
X018034Y-039370
X026289Y-059563
X003175Y-039497
X012446Y-038862
X004191Y-035306
X002540Y-029464
X021082Y-060833
X018174Y-057404
X002667Y-066421
X004953Y-066421
X015748Y-060833
X020828Y-058166
X018923Y-060325
X022479Y-058801
X015240Y-056134
X014859Y-056769
X013970Y-059055
X026797Y-054737
X013208Y-055118
X002286Y-055118
X009135Y-014859
X013081Y-053086
X020163Y-059949
X019685Y-060579
X022225Y-046736
X022860Y-046736
X010541Y-040132
X014986Y-059817
X017272Y-054229
X019431Y-048260
X023749Y-047498
X004445Y-044323
X030366Y-010922
X025654Y-011938
X023876Y-006858
X026543Y-008001
X030419Y-008001
X022479Y-040005
X017399Y-040132
X014859Y-039243
X011938Y-015494
X002286Y-026924
X001397Y-021463
X001778Y-034036
X016891Y-036195
X006604Y-035560
X006604Y-038227
X021844Y-039370
X020387Y-033078
X020387Y-033677
X018542Y-038481
X003683Y-027051
X024638Y-009591
X005938Y-040132
X007620Y-014859
X008890Y-017018
X016764Y-011303
X004761Y-009798
X004699Y-018034
X002032Y-011176
X026162Y-013716
X027559Y-012827
X020066Y-013716
X019558Y-020193
X015240Y-017272
X017526Y-015367
X018161Y-016891
X018923Y-017399
X020701Y-018161
X011811Y-010541
X003048Y-021590
X008763Y-019685
X018923Y-061087
X025019Y-043434
X025019Y-044196
X027051Y-040176
X027051Y-040894
X021844Y-038481
X012065Y-008890
X023495Y-023241
X021463Y-034671
X021463Y-014732
X023495Y-010541
X023495Y-011303
X028956Y-016383
X029591Y-015113
X001905Y-049276
X017907Y-027178
X022987Y-051816
X022860Y-044577
X024130Y-019431
X024130Y-017399
X027051Y-034163
X024257Y-035687
T02
X029591Y-020701
X032131Y-020701
X029591Y-023241
X032131Y-023241
X029591Y-025781
X032131Y-025781
X029591Y-028321
X032131Y-028321
X029591Y-030861
X032131Y-030861
X029591Y-033401
X032131Y-033401
T03
X006731Y-051054
X007087Y-047473
M30
