G04 Layer: BottomLayer*
G04 EasyEDA v6.4.32, 2022-03-05 12:23:48*
G04 1b2e3b3a17c3449da9e352887ce741fa,292cea30c40f4109b391fbfe46d023fa,10*
G04 Gerber Generator version 0.2*
G04 Scale: 100 percent, Rotated: No, Reflected: No *
G04 Dimensions in millimeters *
G04 leading zeros omitted , absolute positions ,4 integer and 5 decimal *
%FSLAX45Y45*%
%MOMM*%

%ADD10C,0.2540*%
%ADD11C,0.7000*%
%ADD12C,0.5000*%
%ADD13C,0.1520*%
%ADD14C,0.8000*%
%ADD15C,0.4000*%
%ADD19C,0.6096*%
%ADD52C,1.5748*%
%ADD53R,1.5748X1.5748*%
%ADD54C,2.0000*%

%LPD*%
G36*
X2369718Y-2158492D02*
G01*
X2365806Y-2157730D01*
X2362504Y-2155494D01*
X2090572Y-1883562D01*
X2088388Y-1880311D01*
X2087575Y-1876552D01*
X2088235Y-1872742D01*
X2090318Y-1869439D01*
X2093417Y-1867154D01*
X2098294Y-1864918D01*
X2106320Y-1859280D01*
X2107895Y-1857705D01*
X2111197Y-1855470D01*
X2115108Y-1854707D01*
X2684881Y-1854707D01*
X2688793Y-1855470D01*
X2692095Y-1857705D01*
X2858465Y-2024075D01*
X2860598Y-2027174D01*
X2861462Y-2030831D01*
X2860903Y-2034539D01*
X2858058Y-2043023D01*
X2855366Y-2056434D01*
X2854452Y-2070100D01*
X2855366Y-2083765D01*
X2858058Y-2097176D01*
X2862427Y-2110130D01*
X2868472Y-2122424D01*
X2876092Y-2133803D01*
X2882950Y-2141626D01*
X2884932Y-2144979D01*
X2885490Y-2148789D01*
X2884576Y-2152548D01*
X2882341Y-2155647D01*
X2879140Y-2157780D01*
X2875330Y-2158492D01*
G37*

%LPD*%
G36*
X3323539Y-2304338D02*
G01*
X3319627Y-2303373D01*
X3316376Y-2300986D01*
X3314293Y-2297480D01*
X3309772Y-2284069D01*
X3303727Y-2271776D01*
X3296107Y-2260396D01*
X3287064Y-2250135D01*
X3276803Y-2241092D01*
X3265424Y-2233472D01*
X3253130Y-2227427D01*
X3240176Y-2223058D01*
X3226765Y-2220366D01*
X3213100Y-2219452D01*
X3199434Y-2220366D01*
X3186023Y-2223058D01*
X3177540Y-2225903D01*
X3173831Y-2226462D01*
X3170174Y-2225598D01*
X3167075Y-2223465D01*
X3113735Y-2170176D01*
X3107537Y-2165045D01*
X3100832Y-2161489D01*
X3093618Y-2159304D01*
X3085592Y-2158492D01*
X3042869Y-2158492D01*
X3039059Y-2157780D01*
X3035858Y-2155647D01*
X3033623Y-2152548D01*
X3032709Y-2148789D01*
X3033268Y-2144979D01*
X3035249Y-2141626D01*
X3042107Y-2133803D01*
X3049727Y-2122424D01*
X3055772Y-2110130D01*
X3060141Y-2097176D01*
X3062833Y-2083765D01*
X3063748Y-2070100D01*
X3062833Y-2056434D01*
X3060141Y-2043023D01*
X3055772Y-2030069D01*
X3049727Y-2017775D01*
X3042107Y-2006396D01*
X3033064Y-1996135D01*
X3022803Y-1987092D01*
X3011424Y-1979472D01*
X2999130Y-1973427D01*
X2986176Y-1969058D01*
X2972765Y-1966366D01*
X2959100Y-1965452D01*
X2945434Y-1966366D01*
X2932023Y-1969058D01*
X2923540Y-1971903D01*
X2919831Y-1972462D01*
X2916174Y-1971598D01*
X2913075Y-1969465D01*
X2732735Y-1789175D01*
X2726537Y-1784045D01*
X2719832Y-1780489D01*
X2712618Y-1778304D01*
X2704592Y-1777492D01*
X2115108Y-1777492D01*
X2111197Y-1776730D01*
X2107895Y-1774494D01*
X2106320Y-1772920D01*
X2098294Y-1767281D01*
X2089353Y-1763166D01*
X2079904Y-1760626D01*
X2070100Y-1759762D01*
X2060295Y-1760626D01*
X2050846Y-1763166D01*
X2041906Y-1767281D01*
X2033879Y-1772920D01*
X2026920Y-1779879D01*
X2021281Y-1787906D01*
X2019046Y-1792782D01*
X2016760Y-1795881D01*
X2013457Y-1797964D01*
X2009648Y-1798624D01*
X2005888Y-1797812D01*
X2002637Y-1795627D01*
X1951431Y-1744421D01*
X1949399Y-1741525D01*
X1948484Y-1738122D01*
X1947773Y-1730095D01*
X1945233Y-1720646D01*
X1941118Y-1711706D01*
X1935480Y-1703679D01*
X1928520Y-1696720D01*
X1920493Y-1691081D01*
X1911553Y-1686966D01*
X1902104Y-1684426D01*
X1892300Y-1683562D01*
X1881682Y-1684477D01*
X1878177Y-1684172D01*
X1874977Y-1682699D01*
X1872437Y-1680210D01*
X1870964Y-1677009D01*
X1869033Y-1669846D01*
X1864918Y-1660906D01*
X1859280Y-1652879D01*
X1852320Y-1645920D01*
X1844293Y-1640281D01*
X1835353Y-1636166D01*
X1825904Y-1633626D01*
X1817878Y-1632915D01*
X1814474Y-1632000D01*
X1811578Y-1629968D01*
X1781302Y-1599692D01*
X1778914Y-1595983D01*
X1778355Y-1591614D01*
X1779676Y-1587449D01*
X1782673Y-1584198D01*
X1788820Y-1579880D01*
X1790395Y-1578305D01*
X1793697Y-1576070D01*
X1797608Y-1575308D01*
X2659481Y-1575308D01*
X2663393Y-1576070D01*
X2666695Y-1578305D01*
X3112465Y-2024075D01*
X3114598Y-2027174D01*
X3115462Y-2030831D01*
X3114903Y-2034539D01*
X3112058Y-2043023D01*
X3109366Y-2056434D01*
X3108452Y-2070100D01*
X3109366Y-2083765D01*
X3112058Y-2097176D01*
X3116427Y-2110130D01*
X3122472Y-2122424D01*
X3130092Y-2133803D01*
X3139135Y-2144064D01*
X3149396Y-2153107D01*
X3160776Y-2160727D01*
X3173069Y-2166772D01*
X3186023Y-2171141D01*
X3199434Y-2173833D01*
X3213100Y-2174748D01*
X3226765Y-2173833D01*
X3240176Y-2171141D01*
X3253130Y-2166772D01*
X3265424Y-2160727D01*
X3276803Y-2153107D01*
X3287064Y-2144064D01*
X3296107Y-2133803D01*
X3303727Y-2122424D01*
X3309772Y-2110130D01*
X3314293Y-2096719D01*
X3316376Y-2093214D01*
X3319627Y-2090826D01*
X3323539Y-2089861D01*
X3327552Y-2090521D01*
X3330956Y-2092706D01*
X3333292Y-2096007D01*
X3334105Y-2100021D01*
X3334105Y-2294178D01*
X3333292Y-2298192D01*
X3330956Y-2301494D01*
X3327552Y-2303678D01*
G37*

%LPD*%
G36*
X1404518Y-3809492D02*
G01*
X1400606Y-3808729D01*
X1397304Y-3806494D01*
X1062532Y-3471722D01*
X1060348Y-3468471D01*
X1059586Y-3464560D01*
X1060348Y-3460648D01*
X1062532Y-3457397D01*
X1065834Y-3455162D01*
X1069746Y-3454400D01*
X1116584Y-3454400D01*
X1117600Y-3453384D01*
X1117600Y-2401316D01*
X1116584Y-2400300D01*
X752246Y-2400300D01*
X748334Y-2399538D01*
X745032Y-2397302D01*
X742848Y-2394051D01*
X742086Y-2390140D01*
X742848Y-2386228D01*
X745032Y-2382977D01*
X1144524Y-1983435D01*
X1149654Y-1977237D01*
X1153210Y-1970532D01*
X1155395Y-1963318D01*
X1156208Y-1955292D01*
X1156208Y-1609750D01*
X1157020Y-1605788D01*
X1159306Y-1602435D01*
X1162710Y-1600250D01*
X1166723Y-1599590D01*
X1170686Y-1600555D01*
X1174546Y-1602333D01*
X1183995Y-1604873D01*
X1193800Y-1605737D01*
X1203604Y-1604873D01*
X1213053Y-1602333D01*
X1221994Y-1598218D01*
X1230020Y-1592580D01*
X1231595Y-1591005D01*
X1234897Y-1588770D01*
X1238808Y-1588008D01*
X1554581Y-1588008D01*
X1558493Y-1588770D01*
X1561795Y-1591005D01*
X1642059Y-1671269D01*
X1644243Y-1674520D01*
X1645005Y-1678432D01*
X1644243Y-1682343D01*
X1642059Y-1685594D01*
X1638757Y-1687830D01*
X1634845Y-1688592D01*
X1569008Y-1688592D01*
X1565097Y-1687830D01*
X1561795Y-1685594D01*
X1560220Y-1684020D01*
X1552194Y-1678381D01*
X1543253Y-1674266D01*
X1533804Y-1671726D01*
X1524000Y-1670862D01*
X1514195Y-1671726D01*
X1504746Y-1674266D01*
X1495806Y-1678381D01*
X1487779Y-1684020D01*
X1480820Y-1690979D01*
X1475181Y-1699006D01*
X1471066Y-1707946D01*
X1468526Y-1717395D01*
X1467662Y-1727200D01*
X1468526Y-1737004D01*
X1471066Y-1746453D01*
X1475181Y-1755393D01*
X1480820Y-1763420D01*
X1487779Y-1770380D01*
X1495806Y-1776018D01*
X1504746Y-1780133D01*
X1514195Y-1782673D01*
X1524000Y-1783537D01*
X1533804Y-1782673D01*
X1543253Y-1780133D01*
X1552194Y-1776018D01*
X1560220Y-1770380D01*
X1561795Y-1768805D01*
X1565097Y-1766570D01*
X1569008Y-1765807D01*
X1643481Y-1765807D01*
X1647393Y-1766570D01*
X1650695Y-1768805D01*
X1896668Y-2014778D01*
X1898700Y-2017674D01*
X1899615Y-2021078D01*
X1900326Y-2029104D01*
X1902866Y-2038553D01*
X1906981Y-2047493D01*
X1912620Y-2055520D01*
X1919579Y-2062480D01*
X1927606Y-2068118D01*
X1936546Y-2072233D01*
X1945995Y-2074773D01*
X1955800Y-2075637D01*
X1965604Y-2074773D01*
X1975053Y-2072233D01*
X1983993Y-2068118D01*
X1992020Y-2062480D01*
X1998980Y-2055520D01*
X2003298Y-2049373D01*
X2006549Y-2046376D01*
X2010714Y-2045055D01*
X2015083Y-2045614D01*
X2018792Y-2048002D01*
X2290368Y-2319578D01*
X2292400Y-2322474D01*
X2293315Y-2325878D01*
X2294026Y-2333904D01*
X2296566Y-2343353D01*
X2300681Y-2352294D01*
X2306320Y-2360320D01*
X2313279Y-2367280D01*
X2321306Y-2372918D01*
X2330246Y-2377033D01*
X2339695Y-2379573D01*
X2349500Y-2380437D01*
X2359304Y-2379573D01*
X2368753Y-2377033D01*
X2377694Y-2372918D01*
X2385720Y-2367280D01*
X2387295Y-2365705D01*
X2390597Y-2363470D01*
X2394508Y-2362708D01*
X2855417Y-2362708D01*
X2859074Y-2363419D01*
X2862275Y-2365400D01*
X2864510Y-2368397D01*
X2868472Y-2376424D01*
X2876092Y-2387803D01*
X2885135Y-2398064D01*
X2895396Y-2407107D01*
X2906776Y-2414727D01*
X2919069Y-2420772D01*
X2932023Y-2425141D01*
X2945434Y-2427833D01*
X2959100Y-2428748D01*
X2972765Y-2427833D01*
X2986176Y-2425141D01*
X2999130Y-2420772D01*
X3011424Y-2414727D01*
X3022803Y-2407107D01*
X3033064Y-2398064D01*
X3042107Y-2387803D01*
X3049727Y-2376424D01*
X3055772Y-2364130D01*
X3060141Y-2351176D01*
X3062833Y-2337765D01*
X3063748Y-2324100D01*
X3062833Y-2310434D01*
X3060141Y-2297023D01*
X3055772Y-2284069D01*
X3049727Y-2271776D01*
X3042107Y-2260396D01*
X3035249Y-2252573D01*
X3033268Y-2249220D01*
X3032709Y-2245410D01*
X3033623Y-2241651D01*
X3035858Y-2238552D01*
X3039059Y-2236419D01*
X3042869Y-2235708D01*
X3065881Y-2235708D01*
X3069793Y-2236470D01*
X3073095Y-2238705D01*
X3112465Y-2278075D01*
X3114598Y-2281174D01*
X3115462Y-2284831D01*
X3114903Y-2288540D01*
X3112058Y-2297023D01*
X3109366Y-2310434D01*
X3108452Y-2324100D01*
X3109366Y-2337765D01*
X3112058Y-2351176D01*
X3116427Y-2364130D01*
X3122472Y-2376424D01*
X3130092Y-2387803D01*
X3139135Y-2398064D01*
X3149396Y-2407107D01*
X3160776Y-2414727D01*
X3173069Y-2420772D01*
X3186023Y-2425141D01*
X3199434Y-2427833D01*
X3213100Y-2428748D01*
X3226765Y-2427833D01*
X3240176Y-2425141D01*
X3253130Y-2420772D01*
X3265424Y-2414727D01*
X3276803Y-2407107D01*
X3287064Y-2398064D01*
X3296107Y-2387803D01*
X3303727Y-2376424D01*
X3309772Y-2364130D01*
X3314293Y-2350719D01*
X3316376Y-2347214D01*
X3319627Y-2344826D01*
X3323539Y-2343861D01*
X3327552Y-2344521D01*
X3330956Y-2346706D01*
X3333292Y-2350008D01*
X3334105Y-2354021D01*
X3334105Y-2548178D01*
X3333292Y-2552192D01*
X3330956Y-2555494D01*
X3327552Y-2557678D01*
X3323539Y-2558338D01*
X3319627Y-2557373D01*
X3316376Y-2554986D01*
X3314293Y-2551480D01*
X3309772Y-2538069D01*
X3303727Y-2525776D01*
X3296107Y-2514396D01*
X3287064Y-2504135D01*
X3276803Y-2495092D01*
X3265424Y-2487472D01*
X3253130Y-2481427D01*
X3240176Y-2477058D01*
X3226765Y-2474366D01*
X3213100Y-2473452D01*
X3199434Y-2474366D01*
X3186023Y-2477058D01*
X3173069Y-2481427D01*
X3160776Y-2487472D01*
X3149396Y-2495092D01*
X3139135Y-2504135D01*
X3130092Y-2514396D01*
X3122472Y-2525776D01*
X3116427Y-2538069D01*
X3112058Y-2551023D01*
X3109366Y-2564434D01*
X3108452Y-2578100D01*
X3109366Y-2591765D01*
X3112058Y-2605176D01*
X3116427Y-2618130D01*
X3122472Y-2630424D01*
X3130092Y-2641803D01*
X3139135Y-2652064D01*
X3149396Y-2661107D01*
X3160776Y-2668727D01*
X3173069Y-2674772D01*
X3186023Y-2679141D01*
X3199434Y-2681833D01*
X3213100Y-2682748D01*
X3226765Y-2681833D01*
X3240176Y-2679141D01*
X3253130Y-2674772D01*
X3265424Y-2668727D01*
X3276803Y-2661107D01*
X3287064Y-2652064D01*
X3296107Y-2641803D01*
X3303727Y-2630424D01*
X3309772Y-2618130D01*
X3314293Y-2604719D01*
X3316376Y-2601214D01*
X3319627Y-2598826D01*
X3323539Y-2597861D01*
X3327552Y-2598521D01*
X3330956Y-2600706D01*
X3333292Y-2604008D01*
X3334105Y-2608021D01*
X3334105Y-3056178D01*
X3333292Y-3060192D01*
X3330956Y-3063494D01*
X3327552Y-3065678D01*
X3323539Y-3066338D01*
X3319627Y-3065373D01*
X3316376Y-3062986D01*
X3314293Y-3059480D01*
X3309772Y-3046069D01*
X3303727Y-3033776D01*
X3296107Y-3022396D01*
X3287064Y-3012135D01*
X3276803Y-3003092D01*
X3265424Y-2995472D01*
X3253130Y-2989427D01*
X3240176Y-2985058D01*
X3226765Y-2982366D01*
X3213100Y-2981452D01*
X3199434Y-2982366D01*
X3186023Y-2985058D01*
X3172206Y-2989783D01*
X3168497Y-2990291D01*
X3164840Y-2989478D01*
X3161741Y-2987344D01*
X3097479Y-2923082D01*
X3091637Y-2918358D01*
X3085388Y-2915158D01*
X3078480Y-2913329D01*
X3072993Y-2912872D01*
X3049524Y-2912872D01*
X3045764Y-2912160D01*
X3042513Y-2910078D01*
X3040278Y-2906928D01*
X3039364Y-2903169D01*
X3039973Y-2899359D01*
X3042107Y-2895803D01*
X3049727Y-2884424D01*
X3052978Y-2877820D01*
X3004820Y-2877820D01*
X3004820Y-2902712D01*
X3004058Y-2906623D01*
X3001822Y-2909925D01*
X2998571Y-2912110D01*
X2994660Y-2912872D01*
X2923540Y-2912872D01*
X2919628Y-2912110D01*
X2916377Y-2909925D01*
X2914142Y-2906623D01*
X2913380Y-2902712D01*
X2913380Y-2877820D01*
X2865221Y-2877820D01*
X2868472Y-2884424D01*
X2876296Y-2896057D01*
X2878277Y-2899359D01*
X2878836Y-2903169D01*
X2877921Y-2906928D01*
X2875686Y-2910078D01*
X2872435Y-2912160D01*
X2868676Y-2912872D01*
X2832608Y-2912872D01*
X2825140Y-2913684D01*
X2818485Y-2915818D01*
X2812338Y-2919425D01*
X2808122Y-2922981D01*
X2198878Y-3532225D01*
X2195576Y-3534410D01*
X2191715Y-3535172D01*
X1651507Y-3535172D01*
X1644040Y-3535984D01*
X1637385Y-3538118D01*
X1631238Y-3541725D01*
X1627022Y-3545281D01*
X1576882Y-3595420D01*
X1572158Y-3601262D01*
X1568958Y-3607511D01*
X1567129Y-3614420D01*
X1566672Y-3619906D01*
X1566672Y-3695192D01*
X1567484Y-3702659D01*
X1569618Y-3709314D01*
X1573225Y-3715461D01*
X1576781Y-3719677D01*
X1639620Y-3782517D01*
X1645513Y-3787292D01*
X1651355Y-3790289D01*
X1654759Y-3793185D01*
X1656638Y-3797249D01*
X1656537Y-3801719D01*
X1654556Y-3805732D01*
X1651050Y-3808526D01*
X1646682Y-3809492D01*
G37*

%LPC*%
G36*
X2038705Y-3424072D02*
G01*
X2048459Y-3423208D01*
X2057958Y-3420668D01*
X2066848Y-3416503D01*
X2074925Y-3410864D01*
X2081834Y-3403955D01*
X2087473Y-3395878D01*
X2091639Y-3386988D01*
X2094179Y-3377488D01*
X2095042Y-3367735D01*
X2094179Y-3357930D01*
X2091639Y-3348431D01*
X2090521Y-3346094D01*
X2089607Y-3341827D01*
X2089607Y-3333699D01*
X2090521Y-3329432D01*
X2093163Y-3325317D01*
X2786481Y-2631998D01*
X2789732Y-2629763D01*
X2793644Y-2629001D01*
X2862122Y-2629001D01*
X2865374Y-2629560D01*
X2868320Y-2631084D01*
X2870555Y-2633522D01*
X2876092Y-2641803D01*
X2885135Y-2652064D01*
X2895396Y-2661107D01*
X2906776Y-2668727D01*
X2919069Y-2674772D01*
X2932023Y-2679141D01*
X2945434Y-2681833D01*
X2959100Y-2682748D01*
X2972765Y-2681833D01*
X2986176Y-2679141D01*
X2999130Y-2674772D01*
X3011424Y-2668727D01*
X3022803Y-2661107D01*
X3033064Y-2652064D01*
X3042107Y-2641803D01*
X3049727Y-2630424D01*
X3055772Y-2618130D01*
X3060141Y-2605176D01*
X3062833Y-2591765D01*
X3063748Y-2578100D01*
X3062833Y-2564434D01*
X3060141Y-2551023D01*
X3055772Y-2538069D01*
X3049727Y-2525776D01*
X3042107Y-2514396D01*
X3033064Y-2504135D01*
X3022803Y-2495092D01*
X3011424Y-2487472D01*
X2999130Y-2481427D01*
X2986176Y-2477058D01*
X2972765Y-2474366D01*
X2959100Y-2473452D01*
X2945434Y-2474366D01*
X2932023Y-2477058D01*
X2919069Y-2481427D01*
X2906776Y-2487472D01*
X2895396Y-2495092D01*
X2885135Y-2504135D01*
X2876092Y-2514396D01*
X2870555Y-2522677D01*
X2868320Y-2525115D01*
X2865374Y-2526639D01*
X2862122Y-2527198D01*
X2768549Y-2527198D01*
X2763926Y-2527401D01*
X2759506Y-2527960D01*
X2755188Y-2528925D01*
X2750921Y-2530246D01*
X2746857Y-2531973D01*
X2742895Y-2534005D01*
X2739136Y-2536393D01*
X2735630Y-2539085D01*
X2732176Y-2542235D01*
X2021027Y-3253435D01*
X2018131Y-3255467D01*
X2010511Y-3259023D01*
X2002434Y-3264662D01*
X1995525Y-3271570D01*
X1989886Y-3279648D01*
X1985721Y-3288537D01*
X1983181Y-3298037D01*
X1982317Y-3307842D01*
X1983181Y-3317595D01*
X1985721Y-3327095D01*
X1986838Y-3329432D01*
X1987753Y-3333699D01*
X1987753Y-3341827D01*
X1986838Y-3346094D01*
X1985721Y-3348431D01*
X1983181Y-3357930D01*
X1982317Y-3367735D01*
X1983181Y-3377488D01*
X1985721Y-3386988D01*
X1989886Y-3395878D01*
X1995525Y-3403955D01*
X2002434Y-3410864D01*
X2010511Y-3416503D01*
X2019401Y-3420668D01*
X2028901Y-3423208D01*
G37*
G36*
X3258820Y-2925978D02*
G01*
X3265424Y-2922727D01*
X3276803Y-2915107D01*
X3287064Y-2906064D01*
X3296107Y-2895803D01*
X3303727Y-2884424D01*
X3306978Y-2877820D01*
X3258820Y-2877820D01*
G37*
G36*
X3167380Y-2925978D02*
G01*
X3167380Y-2877820D01*
X3119221Y-2877820D01*
X3122472Y-2884424D01*
X3130092Y-2895803D01*
X3139135Y-2906064D01*
X3149396Y-2915107D01*
X3160776Y-2922727D01*
G37*
G36*
X3119221Y-2786380D02*
G01*
X3167380Y-2786380D01*
X3167380Y-2738221D01*
X3160776Y-2741472D01*
X3149396Y-2749092D01*
X3139135Y-2758135D01*
X3130092Y-2768396D01*
X3122472Y-2779776D01*
G37*
G36*
X2865221Y-2786380D02*
G01*
X2913380Y-2786380D01*
X2913380Y-2738221D01*
X2906776Y-2741472D01*
X2895396Y-2749092D01*
X2885135Y-2758135D01*
X2876092Y-2768396D01*
X2868472Y-2779776D01*
G37*
G36*
X3258820Y-2786380D02*
G01*
X3306978Y-2786380D01*
X3303727Y-2779776D01*
X3296107Y-2768396D01*
X3287064Y-2758135D01*
X3276803Y-2749092D01*
X3265424Y-2741472D01*
X3258820Y-2738221D01*
G37*
G36*
X3004820Y-2786380D02*
G01*
X3052978Y-2786380D01*
X3049727Y-2779776D01*
X3042107Y-2768396D01*
X3033064Y-2758135D01*
X3022803Y-2749092D01*
X3011424Y-2741472D01*
X3004820Y-2738221D01*
G37*

%LPD*%
G36*
X1442008Y-5866892D02*
G01*
X1438097Y-5866130D01*
X1434795Y-5863894D01*
X1433220Y-5862320D01*
X1425194Y-5856681D01*
X1416253Y-5852566D01*
X1406804Y-5850026D01*
X1397000Y-5849162D01*
X1387195Y-5850026D01*
X1384909Y-5850636D01*
X1381201Y-5850940D01*
X1377645Y-5849874D01*
X1374698Y-5847588D01*
X1372768Y-5844438D01*
X1372108Y-5840831D01*
X1372108Y-5722518D01*
X1372870Y-5718606D01*
X1375105Y-5715304D01*
X1412849Y-5677560D01*
X1415999Y-5675426D01*
X1419758Y-5674563D01*
X1423517Y-5675172D01*
X1426768Y-5677154D01*
X1429105Y-5680151D01*
X1430172Y-5683859D01*
X1430426Y-5686704D01*
X1432966Y-5696153D01*
X1437081Y-5705094D01*
X1442720Y-5713120D01*
X1449679Y-5720080D01*
X1457706Y-5725718D01*
X1466646Y-5729833D01*
X1476095Y-5732373D01*
X1485900Y-5733237D01*
X1495704Y-5732373D01*
X1505153Y-5729833D01*
X1514094Y-5725718D01*
X1522120Y-5720080D01*
X1523695Y-5718505D01*
X1526997Y-5716270D01*
X1530908Y-5715508D01*
X1625092Y-5715508D01*
X1633118Y-5714695D01*
X1640332Y-5712510D01*
X1647037Y-5708954D01*
X1653235Y-5703824D01*
X2135124Y-5221935D01*
X2140254Y-5215737D01*
X2143810Y-5209032D01*
X2145995Y-5201818D01*
X2146808Y-5193792D01*
X2146808Y-4685182D01*
X2147671Y-4681118D01*
X2150059Y-4677714D01*
X2153615Y-4675581D01*
X2157730Y-4675022D01*
X2161692Y-4676190D01*
X2164892Y-4678832D01*
X2166772Y-4682540D01*
X2169566Y-4692853D01*
X2173681Y-4701794D01*
X2179320Y-4709820D01*
X2186279Y-4716780D01*
X2194306Y-4722418D01*
X2203246Y-4726533D01*
X2212695Y-4729073D01*
X2222500Y-4729937D01*
X2232304Y-4729073D01*
X2241753Y-4726533D01*
X2244090Y-4725466D01*
X2248408Y-4724501D01*
X2260092Y-4724501D01*
X2264410Y-4725466D01*
X2266746Y-4726533D01*
X2276195Y-4729073D01*
X2286000Y-4729937D01*
X2295804Y-4729073D01*
X2309520Y-4725365D01*
X2313279Y-4725873D01*
X2316632Y-4727752D01*
X2319020Y-4730699D01*
X2320188Y-4734356D01*
X2319883Y-4738166D01*
X2319426Y-4739995D01*
X2318562Y-4749800D01*
X2319426Y-4759604D01*
X2321966Y-4769053D01*
X2326081Y-4777994D01*
X2331720Y-4786020D01*
X2338679Y-4792980D01*
X2346706Y-4798618D01*
X2355646Y-4802733D01*
X2365095Y-4805273D01*
X2373122Y-4805984D01*
X2376525Y-4806899D01*
X2379421Y-4808931D01*
X2638094Y-5067604D01*
X2640330Y-5070906D01*
X2641092Y-5074818D01*
X2641092Y-5424932D01*
X2640330Y-5428843D01*
X2638094Y-5432094D01*
X2634843Y-5434330D01*
X2630932Y-5435092D01*
X1981707Y-5435092D01*
X1973681Y-5435904D01*
X1966468Y-5438089D01*
X1959762Y-5441645D01*
X1953564Y-5446776D01*
X1536395Y-5863894D01*
X1533093Y-5866130D01*
X1529181Y-5866892D01*
G37*

%LPD*%
G36*
X200863Y-6774078D02*
G01*
X182422Y-6773164D01*
X165557Y-6770573D01*
X148996Y-6766407D01*
X132943Y-6760616D01*
X117500Y-6753250D01*
X102870Y-6744411D01*
X89204Y-6734200D01*
X76606Y-6722719D01*
X65125Y-6710019D01*
X55016Y-6696252D01*
X46278Y-6681622D01*
X39014Y-6666128D01*
X33324Y-6650024D01*
X29209Y-6633464D01*
X26771Y-6616547D01*
X25908Y-6599123D01*
X25908Y-5464454D01*
X26670Y-5460542D01*
X28905Y-5457240D01*
X32156Y-5455056D01*
X36068Y-5454294D01*
X39979Y-5455056D01*
X43230Y-5457240D01*
X124764Y-5538724D01*
X130962Y-5543854D01*
X137668Y-5547410D01*
X144881Y-5549595D01*
X152908Y-5550408D01*
X183591Y-5550408D01*
X187502Y-5551170D01*
X190804Y-5553405D01*
X192379Y-5554980D01*
X200406Y-5560618D01*
X209346Y-5564733D01*
X218795Y-5567273D01*
X228600Y-5568137D01*
X238404Y-5567273D01*
X247853Y-5564733D01*
X256794Y-5560618D01*
X264820Y-5554980D01*
X266395Y-5553405D01*
X269697Y-5551170D01*
X273608Y-5550408D01*
X1275791Y-5550408D01*
X1279702Y-5551170D01*
X1283004Y-5553405D01*
X1284579Y-5554980D01*
X1292606Y-5560618D01*
X1301546Y-5564733D01*
X1310995Y-5567273D01*
X1320800Y-5568137D01*
X1330604Y-5567273D01*
X1340053Y-5564733D01*
X1348994Y-5560618D01*
X1357020Y-5554980D01*
X1363980Y-5548020D01*
X1369618Y-5539994D01*
X1373733Y-5531053D01*
X1376273Y-5521604D01*
X1377137Y-5511800D01*
X1376273Y-5501995D01*
X1373733Y-5492546D01*
X1369618Y-5483606D01*
X1363980Y-5475579D01*
X1357020Y-5468620D01*
X1348994Y-5462981D01*
X1340053Y-5458866D01*
X1330604Y-5456326D01*
X1320800Y-5455462D01*
X1310995Y-5456326D01*
X1301546Y-5458866D01*
X1292606Y-5462981D01*
X1284579Y-5468620D01*
X1283004Y-5470194D01*
X1279702Y-5472430D01*
X1275791Y-5473192D01*
X273608Y-5473192D01*
X269697Y-5472430D01*
X266395Y-5470194D01*
X264820Y-5468620D01*
X256794Y-5462981D01*
X247853Y-5458866D01*
X238404Y-5456326D01*
X228600Y-5455462D01*
X218795Y-5456326D01*
X209346Y-5458866D01*
X200406Y-5462981D01*
X192379Y-5468620D01*
X190804Y-5470194D01*
X187502Y-5472430D01*
X183591Y-5473192D01*
X172618Y-5473192D01*
X168706Y-5472430D01*
X165404Y-5470194D01*
X105105Y-5409895D01*
X102870Y-5406593D01*
X102108Y-5402681D01*
X102108Y-1442618D01*
X102870Y-1438706D01*
X105105Y-1435404D01*
X216204Y-1324305D01*
X219506Y-1322070D01*
X223418Y-1321308D01*
X690118Y-1321308D01*
X694029Y-1322070D01*
X697331Y-1324305D01*
X854405Y-1481378D01*
X856437Y-1484274D01*
X857351Y-1487678D01*
X858062Y-1495704D01*
X860602Y-1505153D01*
X864717Y-1514094D01*
X870356Y-1522120D01*
X877316Y-1529080D01*
X885342Y-1534718D01*
X894283Y-1538833D01*
X903732Y-1541373D01*
X913536Y-1542237D01*
X923340Y-1541373D01*
X932789Y-1538833D01*
X941730Y-1534718D01*
X949756Y-1529080D01*
X956716Y-1522120D01*
X962355Y-1514094D01*
X966469Y-1505153D01*
X969010Y-1495704D01*
X969873Y-1485900D01*
X969010Y-1476095D01*
X966469Y-1466646D01*
X962355Y-1457706D01*
X956716Y-1449679D01*
X949756Y-1442720D01*
X941730Y-1437081D01*
X932789Y-1432966D01*
X923340Y-1430426D01*
X915314Y-1429715D01*
X911910Y-1428800D01*
X909015Y-1426768D01*
X737971Y-1255776D01*
X731774Y-1250645D01*
X725119Y-1247089D01*
X717854Y-1244904D01*
X709828Y-1244092D01*
X203708Y-1244092D01*
X195681Y-1244904D01*
X188468Y-1247089D01*
X181762Y-1250645D01*
X175564Y-1255776D01*
X43230Y-1388059D01*
X39979Y-1390243D01*
X36068Y-1391005D01*
X32156Y-1390243D01*
X28905Y-1388059D01*
X26670Y-1384757D01*
X25908Y-1380845D01*
X25908Y-601624D01*
X26670Y-597712D01*
X28905Y-594410D01*
X32156Y-592226D01*
X36068Y-591464D01*
X3323945Y-591464D01*
X3327806Y-592226D01*
X3331108Y-594410D01*
X3333343Y-597712D01*
X3334105Y-601624D01*
X3334105Y-2040178D01*
X3333292Y-2044192D01*
X3330956Y-2047493D01*
X3327552Y-2049678D01*
X3323539Y-2050338D01*
X3319627Y-2049373D01*
X3316376Y-2046986D01*
X3314293Y-2043480D01*
X3309772Y-2030069D01*
X3303727Y-2017775D01*
X3296107Y-2006396D01*
X3287064Y-1996135D01*
X3276803Y-1987092D01*
X3265424Y-1979472D01*
X3253130Y-1973427D01*
X3240176Y-1969058D01*
X3226765Y-1966366D01*
X3213100Y-1965452D01*
X3199434Y-1966366D01*
X3186023Y-1969058D01*
X3177540Y-1971903D01*
X3173831Y-1972462D01*
X3170174Y-1971598D01*
X3167075Y-1969465D01*
X2906776Y-1709216D01*
X2904490Y-1705660D01*
X2903829Y-1701495D01*
X2904947Y-1697380D01*
X2907588Y-1694129D01*
X2911348Y-1692198D01*
X2914853Y-1691233D01*
X2923794Y-1687118D01*
X2931820Y-1681480D01*
X2938780Y-1674520D01*
X2944418Y-1666493D01*
X2948533Y-1657553D01*
X2951073Y-1648104D01*
X2951937Y-1638300D01*
X2951073Y-1628495D01*
X2948533Y-1619046D01*
X2944418Y-1610106D01*
X2938780Y-1602079D01*
X2937205Y-1600504D01*
X2934970Y-1597202D01*
X2934208Y-1593291D01*
X2934208Y-1575968D01*
X2934868Y-1572361D01*
X2936798Y-1569212D01*
X2939745Y-1566926D01*
X2943301Y-1565859D01*
X2947009Y-1566164D01*
X2949295Y-1566773D01*
X2959100Y-1567637D01*
X2968904Y-1566773D01*
X2978353Y-1564233D01*
X2987294Y-1560118D01*
X2995320Y-1554480D01*
X3002280Y-1547520D01*
X3007918Y-1539494D01*
X3012033Y-1530553D01*
X3014573Y-1521104D01*
X3015437Y-1511300D01*
X3014573Y-1501495D01*
X3012033Y-1492046D01*
X3007918Y-1483106D01*
X3002280Y-1475079D01*
X3000705Y-1473504D01*
X2998470Y-1470202D01*
X2997708Y-1466291D01*
X2997708Y-1257808D01*
X2996895Y-1249781D01*
X2994710Y-1242568D01*
X2991154Y-1235862D01*
X2986024Y-1229664D01*
X2783535Y-1027176D01*
X2777337Y-1022045D01*
X2770632Y-1018489D01*
X2763418Y-1016304D01*
X2755392Y-1015492D01*
X2511298Y-1015492D01*
X2507386Y-1014730D01*
X2504084Y-1012494D01*
X2501900Y-1009243D01*
X2501138Y-1005332D01*
X2501900Y-1001420D01*
X2504084Y-998169D01*
X2506980Y-995273D01*
X2512618Y-987247D01*
X2516733Y-978306D01*
X2519273Y-968857D01*
X2520137Y-959053D01*
X2519273Y-949248D01*
X2516733Y-939800D01*
X2512618Y-930859D01*
X2506980Y-922832D01*
X2500020Y-915873D01*
X2491994Y-910234D01*
X2484170Y-906627D01*
X2481275Y-904595D01*
X2429865Y-853135D01*
X2426411Y-849985D01*
X2422906Y-847293D01*
X2419146Y-844905D01*
X2415184Y-842873D01*
X2411120Y-841146D01*
X2406853Y-839825D01*
X2402535Y-838860D01*
X2398115Y-838301D01*
X2393492Y-838098D01*
X1232408Y-838098D01*
X1228090Y-837133D01*
X1225753Y-836066D01*
X1216304Y-833526D01*
X1206500Y-832662D01*
X1196695Y-833526D01*
X1187246Y-836066D01*
X1178306Y-840181D01*
X1170279Y-845819D01*
X1163320Y-852779D01*
X1157681Y-860806D01*
X1153566Y-869746D01*
X1151026Y-879195D01*
X1150162Y-889000D01*
X1151026Y-898804D01*
X1153566Y-908253D01*
X1157681Y-917194D01*
X1163320Y-925220D01*
X1170279Y-932180D01*
X1178306Y-937818D01*
X1187246Y-941933D01*
X1196695Y-944473D01*
X1206500Y-945337D01*
X1216304Y-944473D01*
X1225753Y-941933D01*
X1228090Y-940866D01*
X1232408Y-939901D01*
X2368397Y-939901D01*
X2372309Y-940663D01*
X2375560Y-942898D01*
X2409444Y-976731D01*
X2411476Y-979627D01*
X2414981Y-987247D01*
X2420620Y-995273D01*
X2423515Y-998169D01*
X2425700Y-1001420D01*
X2426462Y-1005332D01*
X2425700Y-1009243D01*
X2423515Y-1012494D01*
X2420213Y-1014730D01*
X2416302Y-1015492D01*
X2394508Y-1015492D01*
X2390597Y-1014730D01*
X2387295Y-1012494D01*
X2385720Y-1010919D01*
X2377694Y-1005281D01*
X2368753Y-1001166D01*
X2359304Y-998626D01*
X2349500Y-997762D01*
X2339695Y-998626D01*
X2330246Y-1001166D01*
X2321306Y-1005281D01*
X2313279Y-1010919D01*
X2306320Y-1017879D01*
X2300681Y-1025906D01*
X2296566Y-1034846D01*
X2294026Y-1044295D01*
X2293162Y-1054100D01*
X2294026Y-1063904D01*
X2296566Y-1073353D01*
X2300681Y-1082294D01*
X2303576Y-1086358D01*
X2305202Y-1090168D01*
X2305202Y-1094232D01*
X2303576Y-1098042D01*
X2300681Y-1102106D01*
X2296566Y-1111046D01*
X2294026Y-1120495D01*
X2293162Y-1130300D01*
X2294026Y-1140104D01*
X2296566Y-1149553D01*
X2300681Y-1158494D01*
X2306320Y-1166520D01*
X2313279Y-1173480D01*
X2321306Y-1179118D01*
X2330246Y-1183233D01*
X2339695Y-1185773D01*
X2349500Y-1186637D01*
X2359304Y-1185773D01*
X2368753Y-1183233D01*
X2377694Y-1179118D01*
X2385720Y-1173480D01*
X2387295Y-1171905D01*
X2390597Y-1169670D01*
X2394508Y-1168908D01*
X2748381Y-1168908D01*
X2752293Y-1169670D01*
X2755595Y-1171905D01*
X2853994Y-1270304D01*
X2856230Y-1273606D01*
X2856992Y-1277518D01*
X2856992Y-1593291D01*
X2856230Y-1597202D01*
X2853994Y-1600504D01*
X2852420Y-1602079D01*
X2846781Y-1610106D01*
X2842666Y-1619046D01*
X2841701Y-1622552D01*
X2839770Y-1626311D01*
X2836519Y-1628952D01*
X2832404Y-1630070D01*
X2828239Y-1629410D01*
X2824683Y-1627124D01*
X2707335Y-1509776D01*
X2701137Y-1504645D01*
X2694432Y-1501089D01*
X2687218Y-1498904D01*
X2679192Y-1498092D01*
X1797608Y-1498092D01*
X1793697Y-1497330D01*
X1790395Y-1495094D01*
X1788820Y-1493520D01*
X1780793Y-1487881D01*
X1771853Y-1483766D01*
X1762404Y-1481226D01*
X1754378Y-1480515D01*
X1750974Y-1479600D01*
X1748078Y-1477568D01*
X1691335Y-1420876D01*
X1685137Y-1415745D01*
X1678432Y-1412189D01*
X1671218Y-1410004D01*
X1663192Y-1409192D01*
X1143508Y-1409192D01*
X1135481Y-1410004D01*
X1128268Y-1412189D01*
X1121562Y-1415745D01*
X1115364Y-1420876D01*
X1039876Y-1496364D01*
X1034745Y-1502562D01*
X1031189Y-1509268D01*
X1029004Y-1516481D01*
X1028192Y-1524508D01*
X1028192Y-1656181D01*
X1027430Y-1660093D01*
X1025194Y-1663395D01*
X571195Y-2117394D01*
X567893Y-2119630D01*
X563981Y-2120392D01*
X349808Y-2120392D01*
X345897Y-2119630D01*
X342595Y-2117394D01*
X341020Y-2115820D01*
X332994Y-2110181D01*
X324053Y-2106066D01*
X314604Y-2103526D01*
X304800Y-2102662D01*
X294995Y-2103526D01*
X285546Y-2106066D01*
X276606Y-2110181D01*
X268579Y-2115820D01*
X261620Y-2122779D01*
X255981Y-2130806D01*
X251866Y-2139746D01*
X249326Y-2149195D01*
X248462Y-2159000D01*
X249326Y-2168804D01*
X251866Y-2178253D01*
X255981Y-2187194D01*
X261620Y-2195220D01*
X268579Y-2202180D01*
X276606Y-2207818D01*
X285546Y-2211933D01*
X294995Y-2214473D01*
X304800Y-2215337D01*
X314604Y-2214473D01*
X324053Y-2211933D01*
X332994Y-2207818D01*
X341020Y-2202180D01*
X342595Y-2200605D01*
X345897Y-2198370D01*
X349808Y-2197608D01*
X583692Y-2197608D01*
X591718Y-2196795D01*
X598932Y-2194610D01*
X605637Y-2191054D01*
X611835Y-2185924D01*
X1061669Y-1736140D01*
X1064920Y-1733956D01*
X1068832Y-1733194D01*
X1072743Y-1733956D01*
X1075994Y-1736140D01*
X1078230Y-1739442D01*
X1078992Y-1743354D01*
X1078992Y-1935581D01*
X1078230Y-1939493D01*
X1075994Y-1942795D01*
X621487Y-2397302D01*
X618185Y-2399538D01*
X614273Y-2400300D01*
X609752Y-2400452D01*
X609600Y-2404973D01*
X608838Y-2408885D01*
X606602Y-2412187D01*
X372821Y-2645968D01*
X369925Y-2648000D01*
X366522Y-2648915D01*
X358495Y-2649626D01*
X349046Y-2652166D01*
X340106Y-2656281D01*
X332079Y-2661920D01*
X325120Y-2668879D01*
X319481Y-2676906D01*
X315366Y-2685846D01*
X312826Y-2695295D01*
X311962Y-2705100D01*
X312826Y-2714904D01*
X315366Y-2724353D01*
X319481Y-2733294D01*
X325120Y-2741320D01*
X326694Y-2742895D01*
X328930Y-2746197D01*
X329692Y-2750108D01*
X329692Y-2831592D01*
X330504Y-2839618D01*
X332689Y-2846832D01*
X336245Y-2853537D01*
X341376Y-2859735D01*
X529894Y-3048304D01*
X532130Y-3051606D01*
X532892Y-3055518D01*
X532892Y-3326892D01*
X533704Y-3334918D01*
X535889Y-3342132D01*
X539445Y-3348837D01*
X544576Y-3355035D01*
X606602Y-3417112D01*
X608838Y-3420414D01*
X609600Y-3424326D01*
X609600Y-3453384D01*
X610616Y-3454400D01*
X639673Y-3454400D01*
X643585Y-3455162D01*
X646887Y-3457397D01*
X658164Y-3468624D01*
X664362Y-3473754D01*
X671068Y-3477310D01*
X678281Y-3479495D01*
X686308Y-3480308D01*
X957681Y-3480308D01*
X961593Y-3481070D01*
X964895Y-3483305D01*
X1356664Y-3875024D01*
X1362862Y-3880154D01*
X1369568Y-3883710D01*
X1376781Y-3885895D01*
X1384808Y-3886708D01*
X1750568Y-3886708D01*
X1754886Y-3887673D01*
X1758340Y-3890314D01*
X1760372Y-3894226D01*
X1760575Y-3898646D01*
X1758899Y-3902710D01*
X1754581Y-3908806D01*
X1750466Y-3917746D01*
X1747926Y-3927195D01*
X1747062Y-3937000D01*
X1747926Y-3946804D01*
X1750466Y-3956253D01*
X1754581Y-3965194D01*
X1760220Y-3973220D01*
X1767179Y-3980179D01*
X1775206Y-3985818D01*
X1784146Y-3989933D01*
X1793595Y-3992473D01*
X1803400Y-3993337D01*
X1813204Y-3992473D01*
X1822653Y-3989933D01*
X1831593Y-3985818D01*
X1839620Y-3980179D01*
X1841195Y-3978605D01*
X1844497Y-3976370D01*
X1848408Y-3975608D01*
X2139391Y-3975608D01*
X2143302Y-3976370D01*
X2146604Y-3978605D01*
X2148179Y-3980179D01*
X2156206Y-3985818D01*
X2165146Y-3989933D01*
X2174595Y-3992473D01*
X2184400Y-3993337D01*
X2194204Y-3992473D01*
X2203653Y-3989933D01*
X2212594Y-3985818D01*
X2220620Y-3980179D01*
X2227580Y-3973220D01*
X2233218Y-3965194D01*
X2237333Y-3956253D01*
X2239873Y-3946804D01*
X2240737Y-3937000D01*
X2239873Y-3927195D01*
X2237333Y-3917746D01*
X2233218Y-3908806D01*
X2227580Y-3900779D01*
X2220620Y-3893820D01*
X2212594Y-3888181D01*
X2203653Y-3884066D01*
X2194204Y-3881526D01*
X2184400Y-3880662D01*
X2174595Y-3881526D01*
X2165146Y-3884066D01*
X2156206Y-3888181D01*
X2148179Y-3893820D01*
X2146604Y-3895394D01*
X2143302Y-3897629D01*
X2139391Y-3898392D01*
X1907032Y-3898392D01*
X1902714Y-3897426D01*
X1899259Y-3894785D01*
X1897227Y-3890873D01*
X1897024Y-3886454D01*
X1898700Y-3882390D01*
X1903018Y-3876294D01*
X1907133Y-3867353D01*
X1909673Y-3857904D01*
X1910537Y-3848100D01*
X1909673Y-3838295D01*
X1907133Y-3828846D01*
X1903018Y-3819906D01*
X1897380Y-3811879D01*
X1890420Y-3804920D01*
X1882393Y-3799281D01*
X1873453Y-3795166D01*
X1864004Y-3792626D01*
X1854200Y-3791762D01*
X1850694Y-3792067D01*
X1846325Y-3791508D01*
X1842617Y-3789121D01*
X1789379Y-3735882D01*
X1783537Y-3731158D01*
X1777288Y-3727958D01*
X1770380Y-3726129D01*
X1764893Y-3725672D01*
X1681784Y-3725672D01*
X1677924Y-3724910D01*
X1674622Y-3722725D01*
X1636674Y-3684778D01*
X1634489Y-3681476D01*
X1633728Y-3677615D01*
X1633728Y-3668014D01*
X1634489Y-3664153D01*
X1636674Y-3660851D01*
X1639976Y-3658615D01*
X1643888Y-3657854D01*
X1647748Y-3658615D01*
X1651050Y-3660851D01*
X1652879Y-3662679D01*
X1660906Y-3668318D01*
X1669846Y-3672433D01*
X1679295Y-3674973D01*
X1689100Y-3675837D01*
X1698904Y-3674973D01*
X1708353Y-3672433D01*
X1717293Y-3668318D01*
X1725320Y-3662679D01*
X1732025Y-3655974D01*
X1735277Y-3653790D01*
X1739188Y-3653028D01*
X2209292Y-3653028D01*
X2216759Y-3652215D01*
X2223414Y-3650081D01*
X2229561Y-3646474D01*
X2233777Y-3642918D01*
X2849880Y-3026816D01*
X2853283Y-3024581D01*
X2857246Y-3023819D01*
X2861208Y-3024733D01*
X2864510Y-3027070D01*
X2866593Y-3030575D01*
X2867202Y-3034588D01*
X2866186Y-3038500D01*
X2862427Y-3046069D01*
X2858058Y-3059023D01*
X2855366Y-3072434D01*
X2854452Y-3086100D01*
X2855366Y-3099765D01*
X2858058Y-3113176D01*
X2862427Y-3126130D01*
X2868472Y-3138424D01*
X2876092Y-3149803D01*
X2885135Y-3160064D01*
X2895396Y-3169107D01*
X2906776Y-3176727D01*
X2919069Y-3182772D01*
X2932023Y-3187141D01*
X2941523Y-3189071D01*
X2944317Y-3190036D01*
X2946755Y-3191814D01*
X2973476Y-3218586D01*
X2975711Y-3221990D01*
X2976473Y-3226003D01*
X2975559Y-3229965D01*
X2973171Y-3233267D01*
X2969666Y-3235350D01*
X2965653Y-3235909D01*
X2959100Y-3235452D01*
X2945434Y-3236366D01*
X2932023Y-3239058D01*
X2919069Y-3243427D01*
X2906776Y-3249472D01*
X2895396Y-3257092D01*
X2885135Y-3266135D01*
X2876092Y-3276396D01*
X2868472Y-3287776D01*
X2862427Y-3300069D01*
X2858058Y-3313023D01*
X2855366Y-3326434D01*
X2854452Y-3340100D01*
X2855366Y-3353765D01*
X2858058Y-3367176D01*
X2862427Y-3380130D01*
X2868472Y-3392424D01*
X2876092Y-3403803D01*
X2883001Y-3411677D01*
X2884932Y-3414928D01*
X2885541Y-3418687D01*
X2884678Y-3422396D01*
X2882544Y-3425545D01*
X2030475Y-4277664D01*
X2025345Y-4283862D01*
X2021789Y-4290568D01*
X2019604Y-4297781D01*
X2018792Y-4305808D01*
X2018792Y-4383532D01*
X2018030Y-4387443D01*
X2015794Y-4390694D01*
X2012543Y-4392930D01*
X2008632Y-4393692D01*
X489508Y-4393692D01*
X485597Y-4392930D01*
X482295Y-4390694D01*
X480720Y-4389120D01*
X472693Y-4383481D01*
X463753Y-4379366D01*
X454304Y-4376826D01*
X444500Y-4375962D01*
X434695Y-4376826D01*
X425246Y-4379366D01*
X416306Y-4383481D01*
X408279Y-4389120D01*
X401320Y-4396079D01*
X395681Y-4404106D01*
X391566Y-4413046D01*
X389026Y-4422495D01*
X388162Y-4432300D01*
X389026Y-4442104D01*
X391566Y-4451553D01*
X395681Y-4460494D01*
X401320Y-4468520D01*
X408279Y-4475480D01*
X416306Y-4481118D01*
X425246Y-4485233D01*
X434695Y-4487773D01*
X444500Y-4488637D01*
X454304Y-4487773D01*
X463753Y-4485233D01*
X472693Y-4481118D01*
X480720Y-4475480D01*
X482295Y-4473905D01*
X485597Y-4471670D01*
X489508Y-4470908D01*
X2008632Y-4470908D01*
X2012543Y-4471670D01*
X2015794Y-4473905D01*
X2018030Y-4477156D01*
X2018792Y-4481068D01*
X2018792Y-5161381D01*
X2018030Y-5165293D01*
X2015794Y-5168595D01*
X1790192Y-5394198D01*
X1786483Y-5396585D01*
X1782114Y-5397144D01*
X1777949Y-5395823D01*
X1774698Y-5392826D01*
X1770380Y-5386679D01*
X1763420Y-5379720D01*
X1755393Y-5374081D01*
X1746453Y-5369966D01*
X1737004Y-5367426D01*
X1727200Y-5366562D01*
X1717395Y-5367426D01*
X1707946Y-5369966D01*
X1699006Y-5374081D01*
X1690979Y-5379720D01*
X1689404Y-5381294D01*
X1686102Y-5383530D01*
X1682191Y-5384292D01*
X1613408Y-5384292D01*
X1605381Y-5385104D01*
X1598168Y-5387289D01*
X1591462Y-5390845D01*
X1585264Y-5395976D01*
X1306576Y-5674664D01*
X1301445Y-5680862D01*
X1297889Y-5687568D01*
X1295704Y-5694781D01*
X1294892Y-5702808D01*
X1294892Y-5930392D01*
X1295704Y-5938418D01*
X1297889Y-5945632D01*
X1301445Y-5952337D01*
X1306576Y-5958535D01*
X1356664Y-6008624D01*
X1362862Y-6013754D01*
X1369568Y-6017310D01*
X1376781Y-6019495D01*
X1384808Y-6020308D01*
X1453591Y-6020308D01*
X1457502Y-6021070D01*
X1460804Y-6023305D01*
X1462379Y-6024880D01*
X1470406Y-6030518D01*
X1479346Y-6034633D01*
X1488795Y-6037173D01*
X1498600Y-6038037D01*
X1508404Y-6037173D01*
X1517853Y-6034633D01*
X1526794Y-6030518D01*
X1534820Y-6024880D01*
X1541780Y-6017920D01*
X1547418Y-6009894D01*
X1551533Y-6000953D01*
X1554073Y-5991504D01*
X1554937Y-5981700D01*
X1554073Y-5971895D01*
X1551533Y-5962446D01*
X1549349Y-5957671D01*
X1548384Y-5953455D01*
X1549298Y-5949188D01*
X1551838Y-5945733D01*
X1555648Y-5943600D01*
X1564182Y-5941110D01*
X1570837Y-5937554D01*
X1577035Y-5932424D01*
X1994204Y-5515305D01*
X1997506Y-5513070D01*
X2001418Y-5512308D01*
X2634691Y-5512308D01*
X2638602Y-5513070D01*
X2641904Y-5515305D01*
X2643479Y-5516880D01*
X2651506Y-5522518D01*
X2660446Y-5526633D01*
X2669895Y-5529173D01*
X2679700Y-5530037D01*
X2689504Y-5529173D01*
X2698953Y-5526633D01*
X2707894Y-5522518D01*
X2715920Y-5516880D01*
X2722880Y-5509920D01*
X2728518Y-5501894D01*
X2732633Y-5492953D01*
X2735173Y-5483504D01*
X2736037Y-5473700D01*
X2735173Y-5463895D01*
X2732633Y-5454446D01*
X2728518Y-5445506D01*
X2722880Y-5437479D01*
X2721305Y-5435904D01*
X2719070Y-5432602D01*
X2718308Y-5428691D01*
X2718308Y-5055108D01*
X2717495Y-5047081D01*
X2715310Y-5039868D01*
X2711754Y-5033162D01*
X2706624Y-5026964D01*
X2434031Y-4754321D01*
X2431999Y-4751425D01*
X2431084Y-4748022D01*
X2430373Y-4739995D01*
X2429662Y-4737303D01*
X2429357Y-4733594D01*
X2430424Y-4730038D01*
X2432659Y-4727092D01*
X2435860Y-4725162D01*
X2439466Y-4724501D01*
X2451201Y-4724501D01*
X2455113Y-4725263D01*
X2458364Y-4727498D01*
X2790901Y-5060035D01*
X2793136Y-5063286D01*
X2793898Y-5067198D01*
X2793898Y-5486501D01*
X2793136Y-5490413D01*
X2790901Y-5493664D01*
X2344064Y-5940552D01*
X2340762Y-5942736D01*
X2336901Y-5943549D01*
X2287320Y-5943600D01*
X2283155Y-5942736D01*
X2279700Y-5940196D01*
X2277618Y-5936488D01*
X2277211Y-5932271D01*
X2278583Y-5928258D01*
X2281478Y-5925108D01*
X2284120Y-5923280D01*
X2291080Y-5916320D01*
X2296718Y-5908294D01*
X2300833Y-5899353D01*
X2303373Y-5889904D01*
X2304237Y-5880100D01*
X2303373Y-5870295D01*
X2300833Y-5860846D01*
X2296718Y-5851906D01*
X2291080Y-5843879D01*
X2284120Y-5836920D01*
X2276094Y-5831281D01*
X2267153Y-5827166D01*
X2257704Y-5824626D01*
X2247900Y-5823762D01*
X2238095Y-5824626D01*
X2228646Y-5827166D01*
X2219706Y-5831281D01*
X2211679Y-5836920D01*
X2210104Y-5838494D01*
X2206802Y-5840730D01*
X2202891Y-5841492D01*
X2147468Y-5841492D01*
X2143861Y-5840831D01*
X2140712Y-5838901D01*
X2138426Y-5835954D01*
X2137359Y-5832398D01*
X2137664Y-5828690D01*
X2138273Y-5826404D01*
X2139137Y-5816600D01*
X2138273Y-5806795D01*
X2135733Y-5797346D01*
X2131618Y-5788406D01*
X2125980Y-5780379D01*
X2119020Y-5773420D01*
X2110994Y-5767781D01*
X2102053Y-5763666D01*
X2092604Y-5761126D01*
X2082800Y-5760262D01*
X2072995Y-5761126D01*
X2063546Y-5763666D01*
X2054606Y-5767781D01*
X2046579Y-5773420D01*
X2045004Y-5774994D01*
X2041702Y-5777230D01*
X2037791Y-5777992D01*
X1956307Y-5777992D01*
X1948281Y-5778804D01*
X1941068Y-5780989D01*
X1934362Y-5784545D01*
X1928164Y-5789676D01*
X1352651Y-6365138D01*
X1349095Y-6367475D01*
X1344930Y-6368135D01*
X1340866Y-6367018D01*
X1337564Y-6364376D01*
X1335633Y-6360617D01*
X1333144Y-6351219D01*
X1329029Y-6342430D01*
X1323441Y-6334455D01*
X1316532Y-6327546D01*
X1308557Y-6321958D01*
X1299768Y-6317843D01*
X1291590Y-6315659D01*
X1287830Y-6313728D01*
X1285189Y-6310477D01*
X1284071Y-6306362D01*
X1284732Y-6302197D01*
X1287018Y-6298641D01*
X1379778Y-6205931D01*
X1382674Y-6203899D01*
X1386078Y-6202984D01*
X1394104Y-6202273D01*
X1403553Y-6199733D01*
X1412494Y-6195618D01*
X1420520Y-6189980D01*
X1427480Y-6183020D01*
X1433118Y-6174994D01*
X1437233Y-6166053D01*
X1439773Y-6156604D01*
X1440637Y-6146800D01*
X1439773Y-6136995D01*
X1437233Y-6127546D01*
X1433118Y-6118606D01*
X1427480Y-6110579D01*
X1420520Y-6103620D01*
X1412494Y-6097981D01*
X1403553Y-6093866D01*
X1394104Y-6091326D01*
X1384300Y-6090462D01*
X1374495Y-6091326D01*
X1365046Y-6093866D01*
X1356106Y-6097981D01*
X1348079Y-6103620D01*
X1341120Y-6110579D01*
X1335481Y-6118606D01*
X1331366Y-6127546D01*
X1328826Y-6136995D01*
X1328115Y-6145022D01*
X1327200Y-6148425D01*
X1325168Y-6151321D01*
X1109421Y-6367068D01*
X1106525Y-6369100D01*
X1103122Y-6370015D01*
X1095095Y-6370726D01*
X1085646Y-6373266D01*
X1076706Y-6377381D01*
X1068679Y-6383020D01*
X1061720Y-6389979D01*
X1056081Y-6398006D01*
X1051966Y-6406946D01*
X1049426Y-6416395D01*
X1048562Y-6426200D01*
X1049426Y-6436004D01*
X1051966Y-6445453D01*
X1053744Y-6449314D01*
X1054709Y-6453276D01*
X1054049Y-6457289D01*
X1051864Y-6460693D01*
X1048512Y-6462979D01*
X1044549Y-6463792D01*
X635508Y-6463792D01*
X627481Y-6464604D01*
X620268Y-6466789D01*
X613562Y-6470345D01*
X607364Y-6475476D01*
X499821Y-6582968D01*
X496925Y-6585000D01*
X493522Y-6585915D01*
X485495Y-6586626D01*
X476046Y-6589166D01*
X467106Y-6593281D01*
X459079Y-6598920D01*
X452120Y-6605879D01*
X446481Y-6613906D01*
X442366Y-6622846D01*
X439826Y-6632295D01*
X438962Y-6642100D01*
X439826Y-6651904D01*
X442366Y-6661353D01*
X446481Y-6670294D01*
X452120Y-6678320D01*
X459079Y-6685280D01*
X467106Y-6690918D01*
X476046Y-6695033D01*
X485495Y-6697573D01*
X495300Y-6698437D01*
X505104Y-6697573D01*
X514553Y-6695033D01*
X523493Y-6690918D01*
X531520Y-6685280D01*
X538480Y-6678320D01*
X544118Y-6670294D01*
X548233Y-6661353D01*
X550773Y-6651904D01*
X551484Y-6643878D01*
X552399Y-6640474D01*
X554431Y-6637578D01*
X648004Y-6544005D01*
X651306Y-6541770D01*
X655218Y-6541007D01*
X1269492Y-6541007D01*
X1277518Y-6540195D01*
X1284732Y-6538010D01*
X1291437Y-6534454D01*
X1297635Y-6529324D01*
X1821891Y-6005118D01*
X1825599Y-6002731D01*
X1829968Y-6002172D01*
X1834184Y-6003493D01*
X1837385Y-6006439D01*
X1839112Y-6010503D01*
X1838909Y-6014923D01*
X1836826Y-6022695D01*
X1835962Y-6032500D01*
X1836826Y-6042304D01*
X1839366Y-6051753D01*
X1843481Y-6060694D01*
X1849120Y-6068720D01*
X1856079Y-6075680D01*
X1864106Y-6081318D01*
X1873046Y-6085433D01*
X1882495Y-6087973D01*
X1892300Y-6088837D01*
X1902104Y-6087973D01*
X1911197Y-6085535D01*
X1915261Y-6085332D01*
X1919122Y-6086703D01*
X1922119Y-6089548D01*
X1925320Y-6094120D01*
X1932279Y-6101080D01*
X1940306Y-6106718D01*
X1949246Y-6110833D01*
X1958695Y-6113373D01*
X1968500Y-6114237D01*
X1978304Y-6113373D01*
X1987753Y-6110833D01*
X1996693Y-6106718D01*
X2004720Y-6101080D01*
X2011680Y-6094120D01*
X2017318Y-6086094D01*
X2021433Y-6077153D01*
X2023973Y-6067704D01*
X2024888Y-6057646D01*
X2026056Y-6053683D01*
X2028698Y-6050534D01*
X2032355Y-6048705D01*
X2035505Y-6047841D01*
X2037943Y-6046724D01*
X2042210Y-6045758D01*
X2362047Y-6045301D01*
X2366619Y-6045098D01*
X2371140Y-6044488D01*
X2375357Y-6043574D01*
X2379675Y-6042202D01*
X2383688Y-6040526D01*
X2387701Y-6038443D01*
X2391410Y-6036106D01*
X2394966Y-6033312D01*
X2398369Y-6030264D01*
X2880664Y-5547969D01*
X2883814Y-5544515D01*
X2886506Y-5541010D01*
X2888894Y-5537250D01*
X2890926Y-5533288D01*
X2892653Y-5529224D01*
X2893974Y-5524957D01*
X2894939Y-5520639D01*
X2895498Y-5516219D01*
X2895701Y-5511596D01*
X2895701Y-5042103D01*
X2895498Y-5037480D01*
X2894939Y-5033060D01*
X2893974Y-5028742D01*
X2892653Y-5024475D01*
X2890926Y-5020411D01*
X2888894Y-5016449D01*
X2886506Y-5012690D01*
X2883814Y-5009184D01*
X2880664Y-5005730D01*
X2512669Y-4637735D01*
X2509215Y-4634585D01*
X2505710Y-4631893D01*
X2501950Y-4629505D01*
X2497988Y-4627473D01*
X2493924Y-4625746D01*
X2489657Y-4624425D01*
X2485339Y-4623460D01*
X2480919Y-4622901D01*
X2476296Y-4622698D01*
X2311908Y-4622698D01*
X2307590Y-4621733D01*
X2305253Y-4620666D01*
X2295804Y-4618126D01*
X2286000Y-4617262D01*
X2276195Y-4618126D01*
X2266746Y-4620666D01*
X2264410Y-4621733D01*
X2260092Y-4622698D01*
X2248408Y-4622698D01*
X2244090Y-4621733D01*
X2241753Y-4620666D01*
X2232304Y-4618126D01*
X2222500Y-4617262D01*
X2212695Y-4618126D01*
X2203246Y-4620666D01*
X2194306Y-4624781D01*
X2186279Y-4630420D01*
X2179320Y-4637379D01*
X2173681Y-4645406D01*
X2169566Y-4654346D01*
X2166772Y-4664659D01*
X2164892Y-4668367D01*
X2161692Y-4671009D01*
X2157730Y-4672177D01*
X2153615Y-4671618D01*
X2150059Y-4669485D01*
X2147671Y-4666081D01*
X2146808Y-4662017D01*
X2146808Y-4363618D01*
X2147570Y-4359706D01*
X2149805Y-4356404D01*
X3091434Y-3414725D01*
X3094583Y-3412591D01*
X3098241Y-3411778D01*
X3102000Y-3412337D01*
X3105251Y-3414217D01*
X3107639Y-3417163D01*
X3108756Y-3420770D01*
X3109163Y-3424580D01*
X3111093Y-3430066D01*
X3114141Y-3434943D01*
X3118256Y-3439058D01*
X3123133Y-3442106D01*
X3128619Y-3444036D01*
X3134918Y-3444748D01*
X3291281Y-3444748D01*
X3297580Y-3444036D01*
X3303066Y-3442106D01*
X3307943Y-3439058D01*
X3312058Y-3434943D01*
X3315309Y-3429711D01*
X3318357Y-3426612D01*
X3322421Y-3425088D01*
X3326739Y-3425393D01*
X3330549Y-3427425D01*
X3333191Y-3430879D01*
X3334105Y-3435146D01*
X3334105Y-6599123D01*
X3333140Y-6617563D01*
X3330600Y-6634429D01*
X3326384Y-6650990D01*
X3320592Y-6667042D01*
X3313277Y-6682486D01*
X3304438Y-6697116D01*
X3294227Y-6710781D01*
X3282696Y-6723430D01*
X3270046Y-6734860D01*
X3256279Y-6744970D01*
X3241598Y-6753707D01*
X3226155Y-6760972D01*
X3210052Y-6766712D01*
X3193440Y-6770776D01*
X3176574Y-6773265D01*
X3159150Y-6774078D01*
G37*

%LPC*%
G36*
X880668Y-6426200D02*
G01*
X890320Y-6425387D01*
X899769Y-6422847D01*
X908558Y-6418732D01*
X916533Y-6413144D01*
X923442Y-6406235D01*
X929030Y-6398260D01*
X933145Y-6389471D01*
X935685Y-6380022D01*
X936498Y-6370370D01*
X935685Y-6360668D01*
X933145Y-6351219D01*
X929030Y-6342430D01*
X923442Y-6334455D01*
X916533Y-6327546D01*
X908558Y-6321958D01*
X899769Y-6317843D01*
X890320Y-6315303D01*
X880668Y-6314490D01*
X870966Y-6315303D01*
X861517Y-6317843D01*
X852728Y-6321958D01*
X844753Y-6327546D01*
X837844Y-6334455D01*
X832256Y-6342430D01*
X828141Y-6351219D01*
X825601Y-6360668D01*
X824788Y-6370370D01*
X825601Y-6380022D01*
X828141Y-6389471D01*
X832256Y-6398260D01*
X837844Y-6406235D01*
X844753Y-6413144D01*
X852728Y-6418732D01*
X861517Y-6422847D01*
X870966Y-6425387D01*
G37*
G36*
X2087168Y-6413500D02*
G01*
X2096820Y-6412687D01*
X2106269Y-6410147D01*
X2115058Y-6406032D01*
X2123033Y-6400444D01*
X2129942Y-6393535D01*
X2135530Y-6385560D01*
X2139645Y-6376771D01*
X2142185Y-6367322D01*
X2142998Y-6357670D01*
X2142185Y-6347968D01*
X2139645Y-6338519D01*
X2135530Y-6329730D01*
X2129942Y-6321755D01*
X2123033Y-6314846D01*
X2115058Y-6309258D01*
X2106269Y-6305143D01*
X2096820Y-6302603D01*
X2087168Y-6301790D01*
X2077466Y-6302603D01*
X2068017Y-6305143D01*
X2059228Y-6309258D01*
X2051253Y-6314846D01*
X2044344Y-6321755D01*
X2038756Y-6329730D01*
X2034641Y-6338519D01*
X2032101Y-6347968D01*
X2031288Y-6357670D01*
X2032101Y-6367322D01*
X2034641Y-6376771D01*
X2038756Y-6385560D01*
X2044344Y-6393535D01*
X2051253Y-6400444D01*
X2059228Y-6406032D01*
X2068017Y-6410147D01*
X2077466Y-6412687D01*
G37*
G36*
X2487168Y-6413500D02*
G01*
X2496820Y-6412687D01*
X2506268Y-6410147D01*
X2515057Y-6406032D01*
X2523032Y-6400444D01*
X2529941Y-6393535D01*
X2535529Y-6385560D01*
X2539644Y-6376771D01*
X2542184Y-6367322D01*
X2542997Y-6357670D01*
X2542184Y-6347968D01*
X2539644Y-6338519D01*
X2535529Y-6329730D01*
X2529941Y-6321755D01*
X2523032Y-6314846D01*
X2515057Y-6309258D01*
X2506268Y-6305143D01*
X2496820Y-6302603D01*
X2487168Y-6301790D01*
X2477465Y-6302603D01*
X2468016Y-6305143D01*
X2459228Y-6309258D01*
X2451252Y-6314846D01*
X2444343Y-6321755D01*
X2438755Y-6329730D01*
X2434640Y-6338519D01*
X2432100Y-6347968D01*
X2431288Y-6357670D01*
X2432100Y-6367322D01*
X2434640Y-6376771D01*
X2438755Y-6385560D01*
X2444343Y-6393535D01*
X2451252Y-6400444D01*
X2459228Y-6406032D01*
X2468016Y-6410147D01*
X2477465Y-6412687D01*
G37*
G36*
X347421Y-6106718D02*
G01*
X365506Y-6105347D01*
X383286Y-6102096D01*
X400710Y-6097016D01*
X417474Y-6090208D01*
X433425Y-6081674D01*
X448462Y-6071565D01*
X462381Y-6059982D01*
X475030Y-6047028D01*
X486257Y-6032804D01*
X495960Y-6017514D01*
X504088Y-6001359D01*
X510438Y-5984392D01*
X515061Y-5966866D01*
X517855Y-5948984D01*
X518769Y-5930900D01*
X517855Y-5912815D01*
X515061Y-5894933D01*
X510438Y-5877407D01*
X504088Y-5860440D01*
X495960Y-5844286D01*
X486257Y-5828995D01*
X475030Y-5814771D01*
X462381Y-5801817D01*
X448462Y-5790234D01*
X433425Y-5780125D01*
X417474Y-5771591D01*
X400710Y-5764784D01*
X383286Y-5759704D01*
X365506Y-5756452D01*
X347421Y-5755081D01*
X329336Y-5755538D01*
X311353Y-5757875D01*
X293725Y-5761990D01*
X276656Y-5767984D01*
X260248Y-5775655D01*
X244703Y-5784951D01*
X230225Y-5795822D01*
X216916Y-5808116D01*
X204978Y-5821730D01*
X194462Y-5836513D01*
X185572Y-5852261D01*
X178308Y-5868873D01*
X172821Y-5886094D01*
X169113Y-5903823D01*
X167233Y-5921857D01*
X167233Y-5939942D01*
X169113Y-5957976D01*
X172821Y-5975705D01*
X178308Y-5992926D01*
X185572Y-6009538D01*
X194462Y-6025286D01*
X204978Y-6040069D01*
X216916Y-6053683D01*
X230225Y-6065977D01*
X244703Y-6076848D01*
X260248Y-6086144D01*
X276656Y-6093815D01*
X293725Y-6099810D01*
X311353Y-6103924D01*
X329336Y-6106261D01*
G37*
G36*
X3027121Y-6106718D02*
G01*
X3045206Y-6105347D01*
X3062986Y-6102096D01*
X3080410Y-6097016D01*
X3097174Y-6090208D01*
X3113125Y-6081674D01*
X3128162Y-6071565D01*
X3142081Y-6059982D01*
X3154730Y-6047028D01*
X3165957Y-6032804D01*
X3175660Y-6017514D01*
X3183788Y-6001359D01*
X3190138Y-5984392D01*
X3194761Y-5966866D01*
X3197555Y-5948984D01*
X3198469Y-5930900D01*
X3197555Y-5912815D01*
X3194761Y-5894933D01*
X3190138Y-5877407D01*
X3183788Y-5860440D01*
X3175660Y-5844286D01*
X3165957Y-5828995D01*
X3154730Y-5814771D01*
X3142081Y-5801817D01*
X3128162Y-5790234D01*
X3113125Y-5780125D01*
X3097174Y-5771591D01*
X3080410Y-5764784D01*
X3062986Y-5759704D01*
X3045206Y-5756452D01*
X3027121Y-5755081D01*
X3009036Y-5755538D01*
X2991053Y-5757875D01*
X2973425Y-5761990D01*
X2956356Y-5767984D01*
X2939948Y-5775655D01*
X2924403Y-5784951D01*
X2909925Y-5795822D01*
X2896616Y-5808116D01*
X2884678Y-5821730D01*
X2874162Y-5836513D01*
X2865272Y-5852261D01*
X2858008Y-5868873D01*
X2852521Y-5886094D01*
X2848813Y-5903823D01*
X2846933Y-5921857D01*
X2846933Y-5939942D01*
X2848813Y-5957976D01*
X2852521Y-5975705D01*
X2858008Y-5992926D01*
X2865272Y-6009538D01*
X2874162Y-6025286D01*
X2884678Y-6040069D01*
X2896616Y-6053683D01*
X2909925Y-6065977D01*
X2924403Y-6076848D01*
X2939948Y-6086144D01*
X2956356Y-6093815D01*
X2973425Y-6099810D01*
X2991053Y-6103924D01*
X3009036Y-6106261D01*
G37*
G36*
X729437Y-5217820D02*
G01*
X731621Y-5216855D01*
X744626Y-5208981D01*
X756564Y-5199634D01*
X767334Y-5188864D01*
X776681Y-5176926D01*
X784555Y-5163921D01*
X785520Y-5161737D01*
X729437Y-5161737D01*
G37*
G36*
X616762Y-5217820D02*
G01*
X616762Y-5161737D01*
X560679Y-5161737D01*
X561644Y-5163921D01*
X569518Y-5176926D01*
X578866Y-5188864D01*
X589635Y-5199634D01*
X601573Y-5208981D01*
X614578Y-5216855D01*
G37*
G36*
X560679Y-5049062D02*
G01*
X616762Y-5049062D01*
X616762Y-4992979D01*
X614578Y-4993944D01*
X601573Y-5001768D01*
X589635Y-5011166D01*
X578866Y-5021935D01*
X569518Y-5033873D01*
X561644Y-5046878D01*
G37*
G36*
X729437Y-5049062D02*
G01*
X785520Y-5049062D01*
X784555Y-5046878D01*
X776681Y-5033873D01*
X767334Y-5021935D01*
X756564Y-5011166D01*
X744626Y-5001768D01*
X731621Y-4993944D01*
X729437Y-4992979D01*
G37*
G36*
X708660Y-4873142D02*
G01*
X723849Y-4872228D01*
X738784Y-4869484D01*
X753313Y-4864963D01*
X767181Y-4858715D01*
X780186Y-4850841D01*
X792124Y-4841494D01*
X802894Y-4830724D01*
X812241Y-4818786D01*
X820115Y-4805781D01*
X826363Y-4791913D01*
X830884Y-4777384D01*
X833628Y-4762449D01*
X834542Y-4747260D01*
X833628Y-4732070D01*
X830884Y-4717135D01*
X826363Y-4702606D01*
X820115Y-4688738D01*
X812241Y-4675733D01*
X802894Y-4663795D01*
X792124Y-4653026D01*
X780186Y-4643628D01*
X767181Y-4635804D01*
X753313Y-4629556D01*
X738784Y-4625035D01*
X723849Y-4622292D01*
X708660Y-4621377D01*
X693470Y-4622292D01*
X678535Y-4625035D01*
X664006Y-4629556D01*
X650138Y-4635804D01*
X637133Y-4643628D01*
X625195Y-4653026D01*
X614426Y-4663795D01*
X605078Y-4675733D01*
X597204Y-4688738D01*
X590956Y-4702606D01*
X586435Y-4717135D01*
X583692Y-4732070D01*
X582777Y-4747260D01*
X583692Y-4762449D01*
X586435Y-4777384D01*
X590956Y-4791913D01*
X597204Y-4805781D01*
X605078Y-4818786D01*
X614426Y-4830724D01*
X625195Y-4841494D01*
X637133Y-4850841D01*
X650138Y-4858715D01*
X664006Y-4864963D01*
X678535Y-4869484D01*
X693470Y-4872228D01*
G37*
G36*
X2496870Y-4480255D02*
G01*
X2506929Y-4480255D01*
X2516835Y-4478629D01*
X2526334Y-4475327D01*
X2535174Y-4470552D01*
X2543149Y-4464405D01*
X2549956Y-4456988D01*
X2555443Y-4448556D01*
X2559456Y-4439361D01*
X2561945Y-4429607D01*
X2562809Y-4419193D01*
X2562809Y-4322013D01*
X2563571Y-4318152D01*
X2565806Y-4314850D01*
X2747924Y-4132681D01*
X2753309Y-4126636D01*
X2758744Y-4118203D01*
X2759710Y-4116324D01*
X2763418Y-4106976D01*
X2765196Y-4099204D01*
X2765501Y-4097121D01*
X2766009Y-4089095D01*
X2766009Y-4018076D01*
X2765145Y-4007612D01*
X2762656Y-3997858D01*
X2758643Y-3988663D01*
X2753156Y-3980230D01*
X2746349Y-3972864D01*
X2738374Y-3966667D01*
X2729534Y-3961892D01*
X2720035Y-3958640D01*
X2710129Y-3956964D01*
X2700070Y-3956964D01*
X2690164Y-3958640D01*
X2680665Y-3961892D01*
X2671826Y-3966667D01*
X2663850Y-3972864D01*
X2657043Y-3980230D01*
X2651556Y-3988663D01*
X2647543Y-3997858D01*
X2645054Y-4007612D01*
X2644190Y-4018076D01*
X2644190Y-4059986D01*
X2643428Y-4063847D01*
X2641193Y-4067149D01*
X2459075Y-4249318D01*
X2453690Y-4255363D01*
X2448255Y-4263796D01*
X2447290Y-4265676D01*
X2443581Y-4275023D01*
X2441803Y-4282795D01*
X2441498Y-4284878D01*
X2440990Y-4292904D01*
X2440990Y-4419193D01*
X2441854Y-4429607D01*
X2444343Y-4439361D01*
X2448356Y-4448556D01*
X2453843Y-4456988D01*
X2460650Y-4464405D01*
X2468626Y-4470552D01*
X2477465Y-4475327D01*
X2486964Y-4478629D01*
G37*
G36*
X317500Y-4006037D02*
G01*
X327304Y-4005173D01*
X336753Y-4002633D01*
X345694Y-3998518D01*
X353720Y-3992879D01*
X360680Y-3985920D01*
X366318Y-3977894D01*
X370433Y-3968953D01*
X372973Y-3959504D01*
X373684Y-3951478D01*
X374599Y-3948074D01*
X376631Y-3945178D01*
X394004Y-3927805D01*
X397306Y-3925570D01*
X401218Y-3924808D01*
X1199591Y-3924808D01*
X1203502Y-3925570D01*
X1206804Y-3927805D01*
X1208379Y-3929379D01*
X1216406Y-3935018D01*
X1225346Y-3939133D01*
X1234795Y-3941673D01*
X1244600Y-3942537D01*
X1254404Y-3941673D01*
X1263853Y-3939133D01*
X1272794Y-3935018D01*
X1280820Y-3929379D01*
X1287780Y-3922420D01*
X1293418Y-3914394D01*
X1297533Y-3905453D01*
X1300073Y-3896004D01*
X1300937Y-3886200D01*
X1300073Y-3876395D01*
X1297533Y-3866946D01*
X1293418Y-3858006D01*
X1287780Y-3849979D01*
X1280820Y-3843020D01*
X1272794Y-3837381D01*
X1263853Y-3833266D01*
X1254404Y-3830726D01*
X1244600Y-3829862D01*
X1234795Y-3830726D01*
X1225346Y-3833266D01*
X1216406Y-3837381D01*
X1208379Y-3843020D01*
X1206804Y-3844594D01*
X1203502Y-3846829D01*
X1199591Y-3847592D01*
X725068Y-3847592D01*
X721461Y-3846931D01*
X718312Y-3845001D01*
X716026Y-3842054D01*
X714959Y-3838498D01*
X715264Y-3834790D01*
X715873Y-3832504D01*
X716737Y-3822700D01*
X715873Y-3812895D01*
X713333Y-3803446D01*
X709218Y-3794506D01*
X703580Y-3786479D01*
X702005Y-3784904D01*
X699770Y-3781602D01*
X699008Y-3777691D01*
X699008Y-3601008D01*
X699770Y-3597097D01*
X702005Y-3593795D01*
X703580Y-3592220D01*
X709218Y-3584194D01*
X713333Y-3575253D01*
X715873Y-3565804D01*
X716737Y-3556000D01*
X715873Y-3546195D01*
X713333Y-3536746D01*
X709218Y-3527806D01*
X703580Y-3519779D01*
X696620Y-3512820D01*
X688594Y-3507181D01*
X679653Y-3503066D01*
X670204Y-3500526D01*
X660400Y-3499662D01*
X650595Y-3500526D01*
X641146Y-3503066D01*
X632206Y-3507181D01*
X624179Y-3512820D01*
X617220Y-3519779D01*
X611581Y-3527806D01*
X607466Y-3536746D01*
X604926Y-3546195D01*
X604062Y-3556000D01*
X604926Y-3565804D01*
X607466Y-3575253D01*
X611581Y-3584194D01*
X617220Y-3592220D01*
X618794Y-3593795D01*
X621030Y-3597097D01*
X621792Y-3601008D01*
X621792Y-3777691D01*
X621030Y-3781602D01*
X618794Y-3784904D01*
X617220Y-3786479D01*
X611581Y-3794506D01*
X607466Y-3803446D01*
X604926Y-3812895D01*
X604062Y-3822700D01*
X604926Y-3832504D01*
X605536Y-3834790D01*
X605840Y-3838498D01*
X604774Y-3842054D01*
X602488Y-3845001D01*
X599338Y-3846931D01*
X595731Y-3847592D01*
X381508Y-3847592D01*
X373481Y-3848404D01*
X366268Y-3850589D01*
X359562Y-3854145D01*
X353364Y-3859276D01*
X322021Y-3890568D01*
X319125Y-3892600D01*
X315722Y-3893515D01*
X307695Y-3894226D01*
X298246Y-3896766D01*
X289306Y-3900881D01*
X281279Y-3906520D01*
X274320Y-3913479D01*
X268681Y-3921506D01*
X264566Y-3930446D01*
X262026Y-3939895D01*
X261162Y-3949700D01*
X262026Y-3959504D01*
X264566Y-3968953D01*
X268681Y-3977894D01*
X274320Y-3985920D01*
X281279Y-3992879D01*
X289306Y-3998518D01*
X298246Y-4002633D01*
X307695Y-4005173D01*
G37*
G36*
X419100Y-3586937D02*
G01*
X428904Y-3586073D01*
X438353Y-3583533D01*
X447293Y-3579418D01*
X455320Y-3573779D01*
X462280Y-3566820D01*
X467918Y-3558794D01*
X472033Y-3549853D01*
X474573Y-3540404D01*
X475437Y-3530600D01*
X474573Y-3520795D01*
X472033Y-3511346D01*
X470966Y-3509010D01*
X470001Y-3504692D01*
X470001Y-3111703D01*
X469798Y-3107080D01*
X469239Y-3102660D01*
X468274Y-3098342D01*
X466953Y-3094075D01*
X465226Y-3090011D01*
X463194Y-3086049D01*
X460806Y-3082290D01*
X458114Y-3078784D01*
X454964Y-3075330D01*
X308406Y-2928823D01*
X306374Y-2925927D01*
X302818Y-2918206D01*
X297180Y-2910179D01*
X290220Y-2903220D01*
X282194Y-2897581D01*
X273253Y-2893466D01*
X263804Y-2890926D01*
X254000Y-2890062D01*
X244195Y-2890926D01*
X234746Y-2893466D01*
X225806Y-2897581D01*
X217779Y-2903220D01*
X210820Y-2910179D01*
X205181Y-2918206D01*
X201066Y-2927146D01*
X198526Y-2936595D01*
X197662Y-2946400D01*
X198526Y-2956204D01*
X201066Y-2965653D01*
X205181Y-2974594D01*
X210820Y-2982620D01*
X217779Y-2989580D01*
X225806Y-2995218D01*
X233527Y-2998774D01*
X236423Y-3000806D01*
X365201Y-3129635D01*
X367436Y-3132886D01*
X368198Y-3136798D01*
X368198Y-3504692D01*
X367233Y-3509010D01*
X366166Y-3511346D01*
X363626Y-3520795D01*
X362762Y-3530600D01*
X363626Y-3540404D01*
X366166Y-3549853D01*
X370281Y-3558794D01*
X375920Y-3566820D01*
X382879Y-3573779D01*
X390906Y-3579418D01*
X399846Y-3583533D01*
X409295Y-3586073D01*
G37*
G36*
X2006600Y-1427937D02*
G01*
X2016404Y-1427073D01*
X2025853Y-1424533D01*
X2034793Y-1420418D01*
X2042820Y-1414780D01*
X2044395Y-1413205D01*
X2047697Y-1410970D01*
X2051608Y-1410208D01*
X2571191Y-1410208D01*
X2575102Y-1410970D01*
X2578404Y-1413205D01*
X2579979Y-1414780D01*
X2588006Y-1420418D01*
X2596946Y-1424533D01*
X2606395Y-1427073D01*
X2616200Y-1427937D01*
X2626004Y-1427073D01*
X2635453Y-1424533D01*
X2644394Y-1420418D01*
X2652420Y-1414780D01*
X2659380Y-1407820D01*
X2665018Y-1399794D01*
X2669133Y-1390853D01*
X2671673Y-1381404D01*
X2672537Y-1371600D01*
X2671673Y-1361795D01*
X2669133Y-1352346D01*
X2665018Y-1343406D01*
X2660700Y-1337310D01*
X2659024Y-1333246D01*
X2659227Y-1328826D01*
X2661259Y-1324914D01*
X2664714Y-1322273D01*
X2669032Y-1321308D01*
X2710891Y-1321308D01*
X2714802Y-1322070D01*
X2718104Y-1324305D01*
X2719679Y-1325880D01*
X2727706Y-1331518D01*
X2736646Y-1335633D01*
X2746095Y-1338173D01*
X2755900Y-1339037D01*
X2765704Y-1338173D01*
X2775153Y-1335633D01*
X2784094Y-1331518D01*
X2792120Y-1325880D01*
X2799080Y-1318920D01*
X2804718Y-1310894D01*
X2808833Y-1301953D01*
X2811373Y-1292504D01*
X2812237Y-1282700D01*
X2811373Y-1272895D01*
X2808833Y-1263446D01*
X2804718Y-1254506D01*
X2799080Y-1246479D01*
X2792120Y-1239520D01*
X2784094Y-1233881D01*
X2775153Y-1229766D01*
X2765704Y-1227226D01*
X2755900Y-1226362D01*
X2746095Y-1227226D01*
X2736646Y-1229766D01*
X2727706Y-1233881D01*
X2719679Y-1239520D01*
X2718104Y-1241094D01*
X2714802Y-1243330D01*
X2710891Y-1244092D01*
X1734718Y-1244092D01*
X1730806Y-1243330D01*
X1727504Y-1241094D01*
X1513535Y-1027176D01*
X1507337Y-1022045D01*
X1500632Y-1018489D01*
X1493418Y-1016304D01*
X1485392Y-1015492D01*
X1226108Y-1015492D01*
X1222197Y-1014730D01*
X1218895Y-1012494D01*
X1217320Y-1010919D01*
X1209294Y-1005281D01*
X1200353Y-1001166D01*
X1190904Y-998626D01*
X1181100Y-997762D01*
X1171295Y-998626D01*
X1161846Y-1001166D01*
X1152906Y-1005281D01*
X1144879Y-1010919D01*
X1137920Y-1017879D01*
X1132281Y-1025906D01*
X1128166Y-1034846D01*
X1125626Y-1044295D01*
X1124762Y-1054100D01*
X1125626Y-1063904D01*
X1126236Y-1066190D01*
X1126540Y-1069898D01*
X1125474Y-1073454D01*
X1123188Y-1076401D01*
X1120038Y-1078331D01*
X1116431Y-1078992D01*
X248208Y-1078992D01*
X244297Y-1078230D01*
X240995Y-1075994D01*
X239420Y-1074420D01*
X231394Y-1068781D01*
X222453Y-1064666D01*
X213004Y-1062126D01*
X203200Y-1061262D01*
X193395Y-1062126D01*
X183946Y-1064666D01*
X175006Y-1068781D01*
X166979Y-1074420D01*
X160020Y-1081379D01*
X154381Y-1089406D01*
X150266Y-1098346D01*
X147726Y-1107795D01*
X146862Y-1117600D01*
X147726Y-1127404D01*
X150266Y-1136853D01*
X154381Y-1145794D01*
X160020Y-1153820D01*
X166979Y-1160780D01*
X175006Y-1166418D01*
X183946Y-1170533D01*
X193395Y-1173073D01*
X203200Y-1173937D01*
X213004Y-1173073D01*
X222453Y-1170533D01*
X231394Y-1166418D01*
X239420Y-1160780D01*
X240995Y-1159205D01*
X244297Y-1156970D01*
X248208Y-1156208D01*
X1452981Y-1156208D01*
X1456893Y-1156970D01*
X1460195Y-1159205D01*
X1699564Y-1398524D01*
X1705762Y-1403654D01*
X1712468Y-1407210D01*
X1719681Y-1409395D01*
X1727707Y-1410208D01*
X1961591Y-1410208D01*
X1965502Y-1410970D01*
X1968804Y-1413205D01*
X1970379Y-1414780D01*
X1978406Y-1420418D01*
X1987346Y-1424533D01*
X1996795Y-1427073D01*
G37*
G36*
X2654300Y-856437D02*
G01*
X2664104Y-855573D01*
X2673553Y-853033D01*
X2682494Y-848918D01*
X2686761Y-846480D01*
X2689809Y-846023D01*
X3006394Y-846023D01*
X3009442Y-846480D01*
X3013710Y-848918D01*
X3022650Y-853033D01*
X3032099Y-855573D01*
X3041904Y-856437D01*
X3051708Y-855573D01*
X3061157Y-853033D01*
X3070098Y-848918D01*
X3078124Y-843280D01*
X3085084Y-836320D01*
X3090722Y-828294D01*
X3094837Y-819353D01*
X3097377Y-809904D01*
X3098241Y-800100D01*
X3097377Y-790295D01*
X3094837Y-780846D01*
X3090722Y-771906D01*
X3085084Y-763879D01*
X3078124Y-756920D01*
X3070098Y-751281D01*
X3061157Y-747166D01*
X3051708Y-744626D01*
X3041904Y-743762D01*
X3032099Y-744626D01*
X3022650Y-747166D01*
X3013710Y-751281D01*
X3009442Y-753719D01*
X3006394Y-754176D01*
X2689809Y-754176D01*
X2686761Y-753719D01*
X2682494Y-751281D01*
X2673553Y-747166D01*
X2664104Y-744626D01*
X2654300Y-743762D01*
X2644495Y-744626D01*
X2635046Y-747166D01*
X2626106Y-751281D01*
X2618079Y-756920D01*
X2611120Y-763879D01*
X2605481Y-771906D01*
X2601366Y-780846D01*
X2598826Y-790295D01*
X2597962Y-800100D01*
X2598826Y-809904D01*
X2601366Y-819353D01*
X2605481Y-828294D01*
X2611120Y-836320D01*
X2618079Y-843280D01*
X2626106Y-848918D01*
X2635046Y-853033D01*
X2644495Y-855573D01*
G37*

%LPD*%
D10*
X2959100Y-1511300D02*
G01*
X2959100Y-1257300D01*
X2755900Y-1054100D01*
X2349500Y-1054100D01*
X2349500Y-1130300D02*
G01*
X2768600Y-1130300D01*
X2895600Y-1257300D01*
X2895600Y-1638300D01*
X2565400Y-1193800D02*
G01*
X2755900Y-1193800D01*
X2832100Y-1270000D01*
X2832100Y-1346200D01*
X2705100Y-1473200D01*
X2146300Y-1473200D01*
X2070100Y-1816100D02*
G01*
X2705100Y-1816100D01*
X2959100Y-2070100D01*
X3213100Y-2070100D02*
G01*
X2679700Y-1536700D01*
X1752600Y-1536700D01*
X475995Y-979678D02*
G01*
X1525778Y-979678D01*
X1676400Y-1130300D01*
X1676400Y-1130300D02*
G01*
X1739900Y-1193800D01*
X2565400Y-1193800D01*
X2959100Y-2832100D02*
G01*
X2781300Y-2832100D01*
X2146300Y-3467100D01*
D12*
X2463800Y-959104D02*
G01*
X2393695Y-889000D01*
X1206500Y-889000D01*
X254000Y-2946400D02*
G01*
X419100Y-3111500D01*
X419100Y-3530600D01*
D10*
X2184400Y-3848100D02*
G01*
X2209800Y-3848100D01*
X2247900Y-3886200D01*
X2247900Y-4000500D01*
D11*
X2501900Y-4343400D02*
G01*
X2501900Y-4419600D01*
X2705100Y-4089400D02*
G01*
X2501900Y-4292600D01*
X2501900Y-4343400D01*
X2705100Y-4017639D02*
G01*
X2705100Y-4089400D01*
D10*
X1892300Y-6108700D02*
G01*
X1917700Y-6134100D01*
X2019300Y-6134100D01*
X2070100Y-6083300D01*
X2108200Y-6083300D01*
D12*
X2108200Y-6083300D02*
G01*
X2108200Y-6197600D01*
X1720342Y-6585458D01*
X1091437Y-6585458D01*
D10*
X1752600Y-1536700D02*
G01*
X1663700Y-1447800D01*
X1143000Y-1447800D01*
X1066800Y-1524000D01*
X1066800Y-1676400D01*
X584200Y-2159000D01*
X304800Y-2159000D01*
X1574800Y-6083300D02*
G01*
X1143000Y-6083300D01*
X1076982Y-6149317D01*
X678179Y-6149317D01*
D13*
X3213100Y-3086100D02*
G01*
X3073400Y-2946400D01*
X2832100Y-2946400D01*
X2209800Y-3568700D01*
X1651000Y-3568700D01*
X1600200Y-3619500D01*
X1600200Y-3695700D01*
X1663700Y-3759200D01*
X1765300Y-3759200D01*
X1854200Y-3848100D01*
D10*
X1193800Y-1549400D02*
G01*
X1574800Y-1549400D01*
X2349500Y-2324100D01*
X2349500Y-2324100D02*
G01*
X2349500Y-2324100D01*
X2959100Y-2324100D01*
X2006600Y-1371600D02*
G01*
X1727200Y-1371600D01*
X1473200Y-1117600D01*
X203200Y-1117600D01*
X2755900Y-1282700D02*
G01*
X1714500Y-1282700D01*
X1485900Y-1054100D01*
X1181100Y-1054100D01*
X3213100Y-2324100D02*
G01*
X3086100Y-2197100D01*
X2349500Y-2197100D01*
X1892300Y-1739900D01*
D12*
X2038604Y-3307842D02*
G01*
X2768345Y-2578100D01*
X2959100Y-2578100D01*
D10*
X2616200Y-1371600D02*
G01*
X2006600Y-1371600D01*
X660400Y-3556000D02*
G01*
X660400Y-3822700D01*
D11*
X3213100Y-2832100D02*
G01*
X2959100Y-2832100D01*
D10*
X228600Y-2692400D02*
G01*
X177800Y-2743200D01*
X177800Y-3403600D01*
D14*
X139700Y-2146300D02*
G01*
X228600Y-2235200D01*
X228600Y-2692400D01*
D10*
X1739900Y-4013200D02*
G01*
X1054100Y-4013200D01*
X2247900Y-4000500D02*
G01*
X2235200Y-4013200D01*
X1739900Y-4013200D01*
D15*
X3041904Y-800100D02*
G01*
X2654300Y-800100D01*
X2387600Y-685800D02*
G01*
X3086100Y-685800D01*
X3213100Y-812800D01*
X3213100Y-915670D01*
X3036570Y-1092200D01*
D10*
X2374900Y-4749800D02*
G01*
X2679700Y-5054600D01*
X2679700Y-5473700D01*
D11*
X1943100Y-4826000D02*
G01*
X952500Y-4826000D01*
X673100Y-5105400D01*
D10*
X1498600Y-5981700D02*
G01*
X1384300Y-5981700D01*
X1333500Y-5930900D01*
X1333500Y-5702300D01*
X1612900Y-5422900D01*
X1727200Y-5422900D01*
X1817370Y-5740400D02*
G01*
X1817370Y-5840729D01*
X1574800Y-6083300D01*
D12*
X593755Y-4013200D02*
G01*
X406400Y-4013200D01*
X317500Y-4102100D01*
X317500Y-4749800D01*
X673100Y-5105400D01*
X1054100Y-4013200D02*
G01*
X593755Y-4013200D01*
X2016249Y-5994907D02*
G01*
X2362200Y-5994400D01*
X2844800Y-5511800D01*
X2844800Y-5041900D01*
X2476500Y-4673600D01*
X2286000Y-4673600D01*
X2286000Y-4673600D02*
G01*
X2222500Y-4673600D01*
D10*
X2247900Y-5880100D02*
G01*
X2044700Y-5880100D01*
X1892300Y-6032500D01*
X1308100Y-5308600D02*
G01*
X1409700Y-5410200D01*
X1409700Y-5549900D01*
X1333500Y-5626100D01*
X1201397Y-5626100D01*
X678179Y-6149317D01*
X1320800Y-5511800D02*
G01*
X228600Y-5511800D01*
X913538Y-1485900D02*
G01*
X710338Y-1282700D01*
X203200Y-1282700D01*
X63500Y-1422400D01*
X63500Y-5422900D01*
X152400Y-5511800D01*
X228600Y-5511800D01*
X495300Y-6642100D02*
G01*
X635000Y-6502400D01*
X1270000Y-6502400D01*
X1955800Y-5816600D01*
X2082800Y-5816600D01*
X266700Y-6642100D02*
G01*
X381000Y-6756400D01*
X920495Y-6756400D01*
X1091437Y-6585458D01*
X678179Y-6149339D02*
G01*
X480060Y-6149339D01*
X266700Y-6362700D01*
X266700Y-6642100D01*
X317500Y-3949700D02*
G01*
X381000Y-3886200D01*
X1244600Y-3886200D01*
X2628900Y-5956300D02*
G01*
X2268349Y-6316850D01*
X2268349Y-6572656D01*
X1384300Y-6146800D02*
G01*
X1104900Y-6426200D01*
X1803400Y-3937000D02*
G01*
X2184400Y-3937000D01*
D12*
X2038680Y-3367699D02*
G01*
X2038680Y-3307826D01*
D10*
X1485900Y-3924300D02*
G01*
X1651000Y-3924300D01*
X1739900Y-4013200D01*
D13*
X3213100Y-3340100D02*
G01*
X3213100Y-3276600D01*
X3086100Y-3149600D01*
X3086100Y-3022600D01*
X3048000Y-2984500D01*
X2844800Y-2984500D01*
X2209800Y-3619500D01*
X1689100Y-3619500D01*
D10*
X673100Y-5105400D02*
G01*
X876300Y-5308600D01*
X1308100Y-5308600D01*
X762000Y-1485900D02*
G01*
X889000Y-1612900D01*
X889000Y-1701800D01*
X762000Y-1485900D02*
G01*
X596900Y-1485900D01*
X469900Y-1612900D01*
X469900Y-1803400D01*
X1816100Y-1689100D02*
G01*
X1612900Y-1485900D01*
X1168400Y-1485900D01*
X1117600Y-1536700D01*
X1117600Y-1955800D01*
X368300Y-2705100D01*
X3213100Y-2832100D02*
G01*
X3213100Y-2781300D01*
X3086100Y-2654300D01*
X3086100Y-2527300D01*
X3022600Y-2463800D01*
X2044700Y-2463800D01*
X1790700Y-2717800D01*
X190500Y-4927600D02*
G01*
X190500Y-5003800D01*
X292100Y-5105400D01*
X673100Y-5105400D01*
X2959100Y-3340100D02*
G01*
X2959100Y-3403600D01*
X2057400Y-4305300D01*
X2057400Y-5181600D01*
X1625600Y-5613400D01*
X1524000Y-5613400D01*
X2057400Y-4417598D02*
G01*
X2044700Y-4432300D01*
X444500Y-4432300D01*
X1485900Y-5676900D02*
G01*
X1625600Y-5676900D01*
X2108200Y-5194300D01*
X2108200Y-4343400D01*
X3086100Y-3365500D01*
X3086100Y-3276600D01*
X2959100Y-3149600D01*
X2959100Y-3086100D01*
X2679700Y-5473700D02*
G01*
X1981200Y-5473700D01*
X1549400Y-5905500D01*
X1397000Y-5905500D01*
X2184400Y-3848100D02*
G01*
X2184400Y-3810000D01*
X2425700Y-3568700D01*
X2425700Y-3568700D02*
G01*
X2552700Y-3568700D01*
X2705100Y-3416300D01*
X368300Y-2705100D02*
G01*
X368300Y-2832100D01*
X571500Y-3035300D01*
X571500Y-3327400D01*
X685800Y-3441700D01*
X977900Y-3441700D01*
X1384300Y-3848100D01*
X1854200Y-3848100D01*
X1955800Y-2019300D02*
G01*
X1663700Y-1727200D01*
X1524000Y-1727200D01*
D52*
G01*
X2959100Y-2070100D03*
G01*
X3213100Y-2070100D03*
G01*
X2959100Y-2324100D03*
G01*
X3213100Y-2324100D03*
G01*
X2959100Y-2578100D03*
G01*
X3213100Y-2578100D03*
G01*
X2959100Y-2832100D03*
G01*
X3213100Y-2832100D03*
G01*
X2959100Y-3086100D03*
G01*
X3213100Y-3086100D03*
G01*
X2959100Y-3340100D03*
D53*
G01*
X3213100Y-3340100D03*
D54*
G01*
X673100Y-5105400D03*
G01*
X708660Y-4747260D03*
D19*
G01*
X1384300Y-6146800D03*
G01*
X1104900Y-6426200D03*
G01*
X1091488Y-6585356D03*
G01*
X2268347Y-6572656D03*
G01*
X678179Y-6149314D03*
G01*
X1803400Y-3937000D03*
G01*
X2628900Y-5956300D03*
G01*
X317500Y-3949700D03*
G01*
X1244600Y-3886200D03*
G01*
X419100Y-3530600D03*
G01*
X254000Y-2946400D03*
G01*
X2108200Y-6083300D03*
G01*
X1817370Y-5740400D03*
G01*
X266700Y-6642100D03*
G01*
X495300Y-6642100D03*
G01*
X1574800Y-6083300D03*
G01*
X2082800Y-5816600D03*
G01*
X1892300Y-6032500D03*
G01*
X2247900Y-5880100D03*
G01*
X1524000Y-5613400D03*
G01*
X1485900Y-5676900D03*
G01*
X1397000Y-5905500D03*
G01*
X2679700Y-5473700D03*
G01*
X1320800Y-5511800D03*
G01*
X228600Y-5511800D03*
G01*
X913536Y-1485900D03*
G01*
X1308100Y-5308600D03*
G01*
X2016252Y-5994907D03*
G01*
X1968500Y-6057900D03*
G01*
X2222500Y-4673600D03*
G01*
X2286000Y-4673600D03*
G01*
X1054100Y-4013200D03*
G01*
X1498600Y-5981700D03*
G01*
X1727200Y-5422900D03*
G01*
X1943100Y-4826000D03*
G01*
X2374900Y-4749800D03*
G01*
X444500Y-4432300D03*
G01*
X3036570Y-1092200D03*
G01*
X2565400Y-1193800D03*
G01*
X2387600Y-685800D03*
G01*
X2654300Y-800100D03*
G01*
X3041904Y-800100D03*
G01*
X2247900Y-4000500D03*
G01*
X1739900Y-4013200D03*
G01*
X1485900Y-3924300D03*
G01*
X1193800Y-1549400D03*
G01*
X228600Y-2692400D03*
G01*
X139700Y-2146300D03*
G01*
X177800Y-3403600D03*
G01*
X1689100Y-3619500D03*
G01*
X660400Y-3556000D03*
G01*
X660400Y-3822700D03*
G01*
X2184400Y-3937000D03*
G01*
X2038680Y-3307816D03*
G01*
X2038680Y-3367709D03*
G01*
X1854200Y-3848100D03*
G01*
X368300Y-2705100D03*
G01*
X2463800Y-959053D03*
G01*
X593750Y-4013200D03*
G01*
X762000Y-1485900D03*
G01*
X889000Y-1701800D03*
G01*
X1676400Y-1130300D03*
G01*
X476097Y-979779D03*
G01*
X469900Y-1803400D03*
G01*
X203200Y-1117600D03*
G01*
X2616200Y-1371600D03*
G01*
X2755900Y-1282700D03*
G01*
X2006600Y-1371600D03*
G01*
X1955800Y-2019300D03*
G01*
X1524000Y-1727200D03*
G01*
X1752600Y-1536700D03*
G01*
X1816100Y-1689100D03*
G01*
X1892300Y-1739900D03*
G01*
X2070100Y-1816100D03*
G01*
X1181100Y-1054100D03*
G01*
X304800Y-2159000D03*
G01*
X876300Y-1968500D03*
G01*
X1892300Y-6108700D03*
G01*
X2501900Y-4343400D03*
G01*
X2501900Y-4419600D03*
G01*
X2705100Y-4017645D03*
G01*
X2705100Y-4089400D03*
G01*
X2184400Y-3848100D03*
G01*
X1206500Y-889000D03*
G01*
X2349500Y-2324100D03*
G01*
X2146300Y-3467100D03*
G01*
X2146300Y-1473200D03*
G01*
X2349500Y-1054100D03*
G01*
X2349500Y-1130300D03*
G01*
X2895600Y-1638300D03*
G01*
X2959100Y-1511300D03*
G01*
X190500Y-4927600D03*
G01*
X1790700Y-2717800D03*
G01*
X2298700Y-5181600D03*
G01*
X2286000Y-4457700D03*
G01*
X2413000Y-1943100D03*
G01*
X2413000Y-1739900D03*
G01*
X2705100Y-3416300D03*
G01*
X2425700Y-3568700D03*
M02*
