G04 Layer: TopSilkscreenLayer*
G04 EasyEDA v6.4.32, 2022-03-05 12:23:48*
G04 1b2e3b3a17c3449da9e352887ce741fa,292cea30c40f4109b391fbfe46d023fa,10*
G04 Gerber Generator version 0.2*
G04 Scale: 100 percent, Rotated: No, Reflected: No *
G04 Dimensions in millimeters *
G04 leading zeros omitted , absolute positions ,4 integer and 5 decimal *
%FSLAX45Y45*%
%MOMM*%

%ADD10C,0.2540*%
%ADD15C,0.4000*%
%ADD16C,0.1270*%
%ADD55C,0.1016*%
%ADD56C,0.1524*%
%ADD57C,0.2000*%
%ADD58C,0.1200*%
%ADD59C,0.2032*%
%ADD60C,0.1500*%

%LPD*%
D59*
X838707Y-4654042D02*
G01*
X1004823Y-4654042D01*
X921765Y-4737100D02*
G01*
X921765Y-4570729D01*
X1010665Y-5118100D02*
G01*
X1010665Y-4951729D01*
X2817622Y-5194300D02*
G01*
X3011424Y-5194300D01*
X2817622Y-5065013D02*
G01*
X3011424Y-5065013D01*
X2909824Y-5194300D02*
G01*
X2909824Y-5065013D01*
X2882138Y-4957826D02*
G01*
X2891536Y-4976368D01*
X2909824Y-4994910D01*
X2937509Y-5004054D01*
X2956052Y-5004054D01*
X2983738Y-4994910D01*
X3002279Y-4976368D01*
X3011424Y-4957826D01*
X3011424Y-4930139D01*
X3002279Y-4911597D01*
X2983738Y-4893310D01*
X2956052Y-4883912D01*
X2937509Y-4883912D01*
X2909824Y-4893310D01*
X2891536Y-4911597D01*
X2882138Y-4930139D01*
X2882138Y-4957826D01*
X2817622Y-4822952D02*
G01*
X3011424Y-4822952D01*
X2882138Y-4715763D02*
G01*
X2891536Y-4734305D01*
X2909824Y-4752847D01*
X2937509Y-4761992D01*
X2956052Y-4761992D01*
X2983738Y-4752847D01*
X3002279Y-4734305D01*
X3011424Y-4715763D01*
X3011424Y-4688078D01*
X3002279Y-4669789D01*
X2983738Y-4651247D01*
X2956052Y-4641850D01*
X2937509Y-4641850D01*
X2909824Y-4651247D01*
X2891536Y-4669789D01*
X2882138Y-4688078D01*
X2882138Y-4715763D01*
X2909824Y-4470145D02*
G01*
X2891536Y-4488687D01*
X2882138Y-4507229D01*
X2882138Y-4534915D01*
X2891536Y-4553204D01*
X2909824Y-4571745D01*
X2937509Y-4580889D01*
X2956052Y-4580889D01*
X2983738Y-4571745D01*
X3002279Y-4553204D01*
X3011424Y-4534915D01*
X3011424Y-4507229D01*
X3002279Y-4488687D01*
X2983738Y-4470145D01*
X2882138Y-4409186D02*
G01*
X2974593Y-4409186D01*
X3002279Y-4400042D01*
X3011424Y-4381500D01*
X3011424Y-4353813D01*
X3002279Y-4335271D01*
X2974593Y-4307586D01*
X2882138Y-4307586D02*
G01*
X3011424Y-4307586D01*
X2817622Y-4246626D02*
G01*
X3011424Y-4246626D01*
X2909824Y-4246626D02*
G01*
X2891536Y-4228084D01*
X2882138Y-4209795D01*
X2882138Y-4182110D01*
X2891536Y-4163568D01*
X2909824Y-4145026D01*
X2937509Y-4135881D01*
X2956052Y-4135881D01*
X2983738Y-4145026D01*
X3002279Y-4163568D01*
X3011424Y-4182110D01*
X3011424Y-4209795D01*
X3002279Y-4228084D01*
X2983738Y-4246626D01*
X2937509Y-4074921D02*
G01*
X2937509Y-3963923D01*
X2919222Y-3963923D01*
X2900679Y-3973321D01*
X2891536Y-3982465D01*
X2882138Y-4001007D01*
X2882138Y-4028694D01*
X2891536Y-4047236D01*
X2909824Y-4065523D01*
X2937509Y-4074921D01*
X2956052Y-4074921D01*
X2983738Y-4065523D01*
X3002279Y-4047236D01*
X3011424Y-4028694D01*
X3011424Y-4001007D01*
X3002279Y-3982465D01*
X2983738Y-3963923D01*
X2756661Y-3994150D02*
G01*
X2852165Y-3994150D01*
X2756661Y-4025900D02*
G01*
X2756661Y-3962145D01*
X2815590Y-3932173D02*
G01*
X2815590Y-3877818D01*
X2806700Y-3877818D01*
X2797556Y-3882389D01*
X2792984Y-3886707D01*
X2788411Y-3895852D01*
X2788411Y-3909568D01*
X2792984Y-3918712D01*
X2802127Y-3927602D01*
X2815590Y-3932173D01*
X2824734Y-3932173D01*
X2838450Y-3927602D01*
X2847593Y-3918712D01*
X2852165Y-3909568D01*
X2852165Y-3895852D01*
X2847593Y-3886707D01*
X2838450Y-3877818D01*
X2788411Y-3793236D02*
G01*
X2852165Y-3793236D01*
X2802127Y-3793236D02*
G01*
X2792984Y-3802379D01*
X2788411Y-3811270D01*
X2788411Y-3824986D01*
X2792984Y-3834129D01*
X2802127Y-3843273D01*
X2815590Y-3847592D01*
X2824734Y-3847592D01*
X2838450Y-3843273D01*
X2847593Y-3834129D01*
X2852165Y-3824986D01*
X2852165Y-3811270D01*
X2847593Y-3802379D01*
X2838450Y-3793236D01*
X2788411Y-3763263D02*
G01*
X2852165Y-3763263D01*
X2806700Y-3763263D02*
G01*
X2792984Y-3749547D01*
X2788411Y-3740404D01*
X2788411Y-3726687D01*
X2792984Y-3717797D01*
X2806700Y-3713226D01*
X2852165Y-3713226D01*
X2806700Y-3713226D02*
G01*
X2792984Y-3699510D01*
X2788411Y-3690365D01*
X2788411Y-3676904D01*
X2792984Y-3667760D01*
X2806700Y-3663187D01*
X2852165Y-3663187D01*
X2756661Y-3578605D02*
G01*
X2756661Y-3624071D01*
X2797556Y-3628644D01*
X2792984Y-3624071D01*
X2788411Y-3610355D01*
X2788411Y-3596894D01*
X2792984Y-3583178D01*
X2802127Y-3574034D01*
X2815590Y-3569462D01*
X2824734Y-3569462D01*
X2838450Y-3574034D01*
X2847593Y-3583178D01*
X2852165Y-3596894D01*
X2852165Y-3610355D01*
X2847593Y-3624071D01*
X2843022Y-3628644D01*
X2833877Y-3633215D01*
X3086861Y-5194300D02*
G01*
X3182365Y-5194300D01*
X3086861Y-5194300D02*
G01*
X3086861Y-5153405D01*
X3091434Y-5139689D01*
X3096006Y-5135118D01*
X3104895Y-5130545D01*
X3114040Y-5130545D01*
X3123184Y-5135118D01*
X3127756Y-5139689D01*
X3132327Y-5153405D01*
X3132327Y-5194300D01*
X3132327Y-5162550D02*
G01*
X3182365Y-5130545D01*
X3145790Y-5100573D02*
G01*
X3145790Y-5046218D01*
X3136900Y-5046218D01*
X3127756Y-5050789D01*
X3123184Y-5055107D01*
X3118611Y-5064252D01*
X3118611Y-5077968D01*
X3123184Y-5087112D01*
X3132327Y-5096002D01*
X3145790Y-5100573D01*
X3154934Y-5100573D01*
X3168650Y-5096002D01*
X3177793Y-5087112D01*
X3182365Y-5077968D01*
X3182365Y-5064252D01*
X3177793Y-5055107D01*
X3168650Y-5046218D01*
X3118611Y-5015992D02*
G01*
X3182365Y-4988813D01*
X3118611Y-4961636D02*
G01*
X3182365Y-4988813D01*
X3086861Y-4922520D02*
G01*
X3086861Y-4872481D01*
X3123184Y-4899660D01*
X3123184Y-4886197D01*
X3127756Y-4877054D01*
X3132327Y-4872481D01*
X3145790Y-4867910D01*
X3154934Y-4867910D01*
X3168650Y-4872481D01*
X3177793Y-4881626D01*
X3182365Y-4895087D01*
X3182365Y-4908804D01*
X3177793Y-4922520D01*
X3173222Y-4927092D01*
X3164077Y-4931663D01*
X3127756Y-4833365D02*
G01*
X3132327Y-4837937D01*
X3136900Y-4833365D01*
X3132327Y-4828794D01*
X3127756Y-4833365D01*
X3159506Y-4833365D02*
G01*
X3164077Y-4837937D01*
X3168650Y-4833365D01*
X3164077Y-4828794D01*
X3159506Y-4833365D01*
X3096768Y-4745228D02*
G01*
X3092195Y-4745228D01*
X3083306Y-4740655D01*
X3078734Y-4736084D01*
X3074161Y-4727194D01*
X3074161Y-4708905D01*
X3078734Y-4699762D01*
X3083306Y-4695189D01*
X3092195Y-4690618D01*
X3101340Y-4690618D01*
X3110484Y-4695189D01*
X3124200Y-4704334D01*
X3169665Y-4749800D01*
X3169665Y-4686045D01*
X3074161Y-4633468D02*
G01*
X3078734Y-4647184D01*
X3087624Y-4651502D01*
X3096768Y-4651502D01*
X3105911Y-4647184D01*
X3110484Y-4638039D01*
X3115056Y-4619752D01*
X3119627Y-4606289D01*
X3128518Y-4597145D01*
X3137661Y-4592573D01*
X3151377Y-4592573D01*
X3160522Y-4597145D01*
X3165093Y-4601718D01*
X3169665Y-4615179D01*
X3169665Y-4633468D01*
X3165093Y-4647184D01*
X3160522Y-4651502D01*
X3151377Y-4656073D01*
X3137661Y-4656073D01*
X3128518Y-4651502D01*
X3119627Y-4642612D01*
X3115056Y-4628895D01*
X3110484Y-4610607D01*
X3105911Y-4601718D01*
X3096768Y-4597145D01*
X3087624Y-4597145D01*
X3078734Y-4601718D01*
X3074161Y-4615179D01*
X3074161Y-4633468D01*
X3074161Y-4492497D02*
G01*
X3169665Y-4492497D01*
X3074161Y-4492497D02*
G01*
X3074161Y-4433315D01*
X3119627Y-4492497D02*
G01*
X3119627Y-4456176D01*
X3133090Y-4403344D02*
G01*
X3133090Y-4348987D01*
X3124200Y-4348987D01*
X3115056Y-4353560D01*
X3110484Y-4357878D01*
X3105911Y-4367021D01*
X3105911Y-4380737D01*
X3110484Y-4389881D01*
X3119627Y-4398771D01*
X3133090Y-4403344D01*
X3142234Y-4403344D01*
X3155950Y-4398771D01*
X3165093Y-4389881D01*
X3169665Y-4380737D01*
X3169665Y-4367021D01*
X3165093Y-4357878D01*
X3155950Y-4348987D01*
X3074161Y-4319015D02*
G01*
X3169665Y-4319015D01*
X3119627Y-4319015D02*
G01*
X3110484Y-4309871D01*
X3105911Y-4300728D01*
X3105911Y-4287012D01*
X3110484Y-4277868D01*
X3119627Y-4268978D01*
X3133090Y-4264405D01*
X3142234Y-4264405D01*
X3155950Y-4268978D01*
X3165093Y-4277868D01*
X3169665Y-4287012D01*
X3169665Y-4300728D01*
X3165093Y-4309871D01*
X3155950Y-4319015D01*
X3146806Y-4229862D02*
G01*
X3151377Y-4234434D01*
X3155950Y-4229862D01*
X3151377Y-4225289D01*
X3146806Y-4229862D01*
X3096768Y-4120642D02*
G01*
X3092195Y-4120642D01*
X3083306Y-4116070D01*
X3078734Y-4111497D01*
X3074161Y-4102607D01*
X3074161Y-4084320D01*
X3078734Y-4075176D01*
X3083306Y-4070604D01*
X3092195Y-4066286D01*
X3101340Y-4066286D01*
X3110484Y-4070604D01*
X3124200Y-4079747D01*
X3169665Y-4125213D01*
X3169665Y-4061713D01*
X3074161Y-4004310D02*
G01*
X3078734Y-4018026D01*
X3092195Y-4027170D01*
X3115056Y-4031742D01*
X3128518Y-4031742D01*
X3151377Y-4027170D01*
X3165093Y-4018026D01*
X3169665Y-4004310D01*
X3169665Y-3995165D01*
X3165093Y-3981704D01*
X3151377Y-3972560D01*
X3128518Y-3967987D01*
X3115056Y-3967987D01*
X3092195Y-3972560D01*
X3078734Y-3981704D01*
X3074161Y-3995165D01*
X3074161Y-4004310D01*
X3096768Y-3933444D02*
G01*
X3092195Y-3933444D01*
X3083306Y-3928871D01*
X3078734Y-3924300D01*
X3074161Y-3915155D01*
X3074161Y-3897121D01*
X3078734Y-3887978D01*
X3083306Y-3883405D01*
X3092195Y-3878834D01*
X3101340Y-3878834D01*
X3110484Y-3883405D01*
X3124200Y-3892550D01*
X3169665Y-3938015D01*
X3169665Y-3874262D01*
X3096768Y-3839718D02*
G01*
X3092195Y-3839718D01*
X3083306Y-3835145D01*
X3078734Y-3830828D01*
X3074161Y-3821684D01*
X3074161Y-3803395D01*
X3078734Y-3794252D01*
X3083306Y-3789679D01*
X3092195Y-3785362D01*
X3101340Y-3785362D01*
X3110484Y-3789679D01*
X3124200Y-3798823D01*
X3169665Y-3844289D01*
X3169665Y-3780789D01*
X2184400Y-2020062D02*
G01*
X2184400Y-2115565D01*
X2241550Y-2020062D02*
G01*
X2232659Y-2024634D01*
X2223515Y-2033523D01*
X2218943Y-2042668D01*
X2214372Y-2056384D01*
X2214372Y-2078989D01*
X2218943Y-2092705D01*
X2223515Y-2101850D01*
X2232659Y-2110994D01*
X2241550Y-2115565D01*
X2259838Y-2115565D01*
X2268981Y-2110994D01*
X2278125Y-2101850D01*
X2282697Y-2092705D01*
X2287015Y-2078989D01*
X2287015Y-2056384D01*
X2282697Y-2042668D01*
X2278125Y-2033523D01*
X2268981Y-2024634D01*
X2259838Y-2020062D01*
X2241550Y-2020062D01*
X2376170Y-2051812D02*
G01*
X2371597Y-2065528D01*
X2362708Y-2074418D01*
X2348991Y-2078989D01*
X2344420Y-2078989D01*
X2330704Y-2074418D01*
X2321559Y-2065528D01*
X2317241Y-2051812D01*
X2317241Y-2047239D01*
X2321559Y-2033523D01*
X2330704Y-2024634D01*
X2344420Y-2020062D01*
X2348991Y-2020062D01*
X2362708Y-2024634D01*
X2371597Y-2033523D01*
X2376170Y-2051812D01*
X2376170Y-2074418D01*
X2371597Y-2097278D01*
X2362708Y-2110994D01*
X2348991Y-2115565D01*
X2339847Y-2115565D01*
X2326131Y-2110994D01*
X2321559Y-2101850D01*
X2546095Y-2020062D02*
G01*
X2546095Y-2115565D01*
X2603500Y-2020062D02*
G01*
X2594356Y-2024634D01*
X2585211Y-2033523D01*
X2580640Y-2042668D01*
X2576322Y-2056384D01*
X2576322Y-2078989D01*
X2580640Y-2092705D01*
X2585211Y-2101850D01*
X2594356Y-2110994D01*
X2603500Y-2115565D01*
X2621788Y-2115565D01*
X2630677Y-2110994D01*
X2639822Y-2101850D01*
X2644393Y-2092705D01*
X2648965Y-2078989D01*
X2648965Y-2056384D01*
X2644393Y-2042668D01*
X2639822Y-2033523D01*
X2630677Y-2024634D01*
X2621788Y-2020062D01*
X2603500Y-2020062D01*
X2733547Y-2020062D02*
G01*
X2688081Y-2020062D01*
X2683509Y-2060955D01*
X2688081Y-2056384D01*
X2701797Y-2051812D01*
X2715259Y-2051812D01*
X2728975Y-2056384D01*
X2738120Y-2065528D01*
X2742691Y-2078989D01*
X2742691Y-2088134D01*
X2738120Y-2101850D01*
X2728975Y-2110994D01*
X2715259Y-2115565D01*
X2701797Y-2115565D01*
X2688081Y-2110994D01*
X2683509Y-2106421D01*
X2678938Y-2097278D01*
X2184400Y-2274062D02*
G01*
X2184400Y-2369565D01*
X2241550Y-2274062D02*
G01*
X2232659Y-2278634D01*
X2223515Y-2287523D01*
X2218943Y-2296668D01*
X2214372Y-2310384D01*
X2214372Y-2332989D01*
X2218943Y-2346705D01*
X2223515Y-2355850D01*
X2232659Y-2364994D01*
X2241550Y-2369565D01*
X2259838Y-2369565D01*
X2268981Y-2364994D01*
X2278125Y-2355850D01*
X2282697Y-2346705D01*
X2287015Y-2332989D01*
X2287015Y-2310384D01*
X2282697Y-2296668D01*
X2278125Y-2287523D01*
X2268981Y-2278634D01*
X2259838Y-2274062D01*
X2241550Y-2274062D01*
X2344420Y-2274062D02*
G01*
X2330704Y-2278634D01*
X2321559Y-2292095D01*
X2317241Y-2314955D01*
X2317241Y-2328418D01*
X2321559Y-2351278D01*
X2330704Y-2364994D01*
X2344420Y-2369565D01*
X2353563Y-2369565D01*
X2367025Y-2364994D01*
X2376170Y-2351278D01*
X2380741Y-2328418D01*
X2380741Y-2314955D01*
X2376170Y-2292095D01*
X2367025Y-2278634D01*
X2353563Y-2274062D01*
X2344420Y-2274062D01*
X2550668Y-2274062D02*
G01*
X2550668Y-2369565D01*
X2608072Y-2274062D02*
G01*
X2598927Y-2278634D01*
X2589784Y-2287523D01*
X2585211Y-2296668D01*
X2580640Y-2310384D01*
X2580640Y-2332989D01*
X2585211Y-2346705D01*
X2589784Y-2355850D01*
X2598927Y-2364994D01*
X2608072Y-2369565D01*
X2626106Y-2369565D01*
X2635250Y-2364994D01*
X2644393Y-2355850D01*
X2648965Y-2346705D01*
X2653538Y-2332989D01*
X2653538Y-2310384D01*
X2648965Y-2296668D01*
X2644393Y-2287523D01*
X2635250Y-2278634D01*
X2626106Y-2274062D01*
X2608072Y-2274062D01*
X2747009Y-2274062D02*
G01*
X2701797Y-2369565D01*
X2683509Y-2274062D02*
G01*
X2747009Y-2274062D01*
X2180843Y-2540762D02*
G01*
X2230881Y-2540762D01*
X2203450Y-2577084D01*
X2217165Y-2577084D01*
X2226309Y-2581655D01*
X2230881Y-2586228D01*
X2235454Y-2599689D01*
X2235454Y-2608834D01*
X2230881Y-2622550D01*
X2221738Y-2631694D01*
X2208022Y-2636265D01*
X2194306Y-2636265D01*
X2180843Y-2631694D01*
X2176272Y-2627121D01*
X2171700Y-2617978D01*
X2265425Y-2540762D02*
G01*
X2301747Y-2636265D01*
X2338070Y-2540762D02*
G01*
X2301747Y-2636265D01*
X2377186Y-2540762D02*
G01*
X2427224Y-2540762D01*
X2399791Y-2577084D01*
X2413508Y-2577084D01*
X2422652Y-2581655D01*
X2427224Y-2586228D01*
X2431795Y-2599689D01*
X2431795Y-2608834D01*
X2427224Y-2622550D01*
X2418079Y-2631694D01*
X2404363Y-2636265D01*
X2390902Y-2636265D01*
X2377186Y-2631694D01*
X2372613Y-2627121D01*
X2368041Y-2617978D01*
X2577084Y-2540762D02*
G01*
X2531618Y-2604262D01*
X2599943Y-2604262D01*
X2577084Y-2540762D02*
G01*
X2577084Y-2636265D01*
X2629915Y-2540762D02*
G01*
X2666238Y-2636265D01*
X2702559Y-2540762D02*
G01*
X2666238Y-2636265D01*
X2787141Y-2540762D02*
G01*
X2741675Y-2540762D01*
X2737104Y-2581655D01*
X2741675Y-2577084D01*
X2755391Y-2572512D01*
X2768854Y-2572512D01*
X2782570Y-2577084D01*
X2791713Y-2586228D01*
X2796286Y-2599689D01*
X2796286Y-2608834D01*
X2791713Y-2622550D01*
X2782570Y-2631694D01*
X2768854Y-2636265D01*
X2755391Y-2636265D01*
X2741675Y-2631694D01*
X2737104Y-2627121D01*
X2732531Y-2617978D01*
X2239772Y-2791968D02*
G01*
X2235454Y-2782823D01*
X2226309Y-2773934D01*
X2217165Y-2769362D01*
X2198877Y-2769362D01*
X2189988Y-2773934D01*
X2180843Y-2782823D01*
X2176272Y-2791968D01*
X2171700Y-2805684D01*
X2171700Y-2828289D01*
X2176272Y-2842005D01*
X2180843Y-2851150D01*
X2189988Y-2860294D01*
X2198877Y-2864865D01*
X2217165Y-2864865D01*
X2226309Y-2860294D01*
X2235454Y-2851150D01*
X2239772Y-2842005D01*
X2239772Y-2828289D01*
X2217165Y-2828289D02*
G01*
X2239772Y-2828289D01*
X2269997Y-2769362D02*
G01*
X2269997Y-2864865D01*
X2269997Y-2769362D02*
G01*
X2333497Y-2864865D01*
X2333497Y-2769362D02*
G01*
X2333497Y-2864865D01*
X2363470Y-2769362D02*
G01*
X2363470Y-2864865D01*
X2363470Y-2769362D02*
G01*
X2395220Y-2769362D01*
X2408936Y-2773934D01*
X2418079Y-2782823D01*
X2422652Y-2791968D01*
X2427224Y-2805684D01*
X2427224Y-2828289D01*
X2422652Y-2842005D01*
X2418079Y-2851150D01*
X2408936Y-2860294D01*
X2395220Y-2864865D01*
X2363470Y-2864865D01*
X2595372Y-2791968D02*
G01*
X2590800Y-2782823D01*
X2581656Y-2773934D01*
X2572511Y-2769362D01*
X2554477Y-2769362D01*
X2545334Y-2773934D01*
X2536190Y-2782823D01*
X2531618Y-2791968D01*
X2527045Y-2805684D01*
X2527045Y-2828289D01*
X2531618Y-2842005D01*
X2536190Y-2851150D01*
X2545334Y-2860294D01*
X2554477Y-2864865D01*
X2572511Y-2864865D01*
X2581656Y-2860294D01*
X2590800Y-2851150D01*
X2595372Y-2842005D01*
X2595372Y-2828289D01*
X2572511Y-2828289D02*
G01*
X2595372Y-2828289D01*
X2625343Y-2769362D02*
G01*
X2625343Y-2864865D01*
X2625343Y-2769362D02*
G01*
X2689097Y-2864865D01*
X2689097Y-2769362D02*
G01*
X2689097Y-2864865D01*
X2719070Y-2769362D02*
G01*
X2719070Y-2864865D01*
X2719070Y-2769362D02*
G01*
X2750820Y-2769362D01*
X2764536Y-2773934D01*
X2773425Y-2782823D01*
X2777997Y-2791968D01*
X2782570Y-2805684D01*
X2782570Y-2828289D01*
X2777997Y-2842005D01*
X2773425Y-2851150D01*
X2764536Y-2860294D01*
X2750820Y-2864865D01*
X2719070Y-2864865D01*
X2203450Y-2921762D02*
G01*
X2203450Y-3017265D01*
X2171700Y-2921762D02*
G01*
X2235454Y-2921762D01*
X2265425Y-2921762D02*
G01*
X2328925Y-3017265D01*
X2328925Y-2921762D02*
G01*
X2265425Y-3017265D01*
X2358897Y-2921762D02*
G01*
X2358897Y-3017265D01*
X2358897Y-2921762D02*
G01*
X2390902Y-2921762D01*
X2404363Y-2926334D01*
X2413508Y-2935223D01*
X2418079Y-2944368D01*
X2422652Y-2958084D01*
X2422652Y-2980689D01*
X2418079Y-2994405D01*
X2413508Y-3003550D01*
X2404363Y-3012694D01*
X2390902Y-3017265D01*
X2358897Y-3017265D01*
X2522727Y-2921762D02*
G01*
X2522727Y-3017265D01*
X2579877Y-2921762D02*
G01*
X2570734Y-2926334D01*
X2561590Y-2935223D01*
X2557272Y-2944368D01*
X2552700Y-2958084D01*
X2552700Y-2980689D01*
X2557272Y-2994405D01*
X2561590Y-3003550D01*
X2570734Y-3012694D01*
X2579877Y-3017265D01*
X2598165Y-3017265D01*
X2607056Y-3012694D01*
X2616200Y-3003550D01*
X2620772Y-2994405D01*
X2625343Y-2980689D01*
X2625343Y-2958084D01*
X2620772Y-2944368D01*
X2616200Y-2935223D01*
X2607056Y-2926334D01*
X2598165Y-2921762D01*
X2579877Y-2921762D01*
X2709925Y-2935223D02*
G01*
X2705354Y-2926334D01*
X2691638Y-2921762D01*
X2682493Y-2921762D01*
X2669031Y-2926334D01*
X2659888Y-2939795D01*
X2655315Y-2962655D01*
X2655315Y-2985262D01*
X2659888Y-3003550D01*
X2669031Y-3012694D01*
X2682493Y-3017265D01*
X2687065Y-3017265D01*
X2700781Y-3012694D01*
X2709925Y-3003550D01*
X2714497Y-2989834D01*
X2714497Y-2985262D01*
X2709925Y-2971800D01*
X2700781Y-2962655D01*
X2687065Y-2958084D01*
X2682493Y-2958084D01*
X2669031Y-2962655D01*
X2659888Y-2971800D01*
X2655315Y-2985262D01*
X2209800Y-3404362D02*
G01*
X2209800Y-3499865D01*
X2209800Y-3404362D02*
G01*
X2250693Y-3404362D01*
X2264409Y-3408934D01*
X2268981Y-3413505D01*
X2273554Y-3422395D01*
X2273554Y-3431539D01*
X2268981Y-3440684D01*
X2264409Y-3445255D01*
X2250693Y-3449828D01*
X2209800Y-3449828D01*
X2241550Y-3449828D02*
G01*
X2273554Y-3499865D01*
X2303525Y-3404362D02*
G01*
X2367025Y-3499865D01*
X2367025Y-3404362D02*
G01*
X2303525Y-3499865D01*
X2396997Y-3404362D02*
G01*
X2396997Y-3499865D01*
X2396997Y-3404362D02*
G01*
X2429002Y-3404362D01*
X2442463Y-3408934D01*
X2451608Y-3417823D01*
X2456179Y-3426968D01*
X2460752Y-3440684D01*
X2460752Y-3463289D01*
X2456179Y-3477005D01*
X2451608Y-3486150D01*
X2442463Y-3495294D01*
X2429002Y-3499865D01*
X2396997Y-3499865D01*
X2560827Y-3404362D02*
G01*
X2560827Y-3499865D01*
X2617977Y-3404362D02*
G01*
X2608834Y-3408934D01*
X2599690Y-3417823D01*
X2595372Y-3426968D01*
X2590800Y-3440684D01*
X2590800Y-3463289D01*
X2595372Y-3477005D01*
X2599690Y-3486150D01*
X2608834Y-3495294D01*
X2617977Y-3499865D01*
X2636265Y-3499865D01*
X2645156Y-3495294D01*
X2654300Y-3486150D01*
X2658872Y-3477005D01*
X2663443Y-3463289D01*
X2663443Y-3440684D01*
X2658872Y-3426968D01*
X2654300Y-3417823D01*
X2645156Y-3408934D01*
X2636265Y-3404362D01*
X2617977Y-3404362D01*
X2738881Y-3404362D02*
G01*
X2693415Y-3467862D01*
X2761741Y-3467862D01*
X2738881Y-3404362D02*
G01*
X2738881Y-3499865D01*
D56*
X1828812Y-4431284D02*
G01*
X1828812Y-4540250D01*
X1828812Y-4540250D02*
G01*
X1891042Y-4540250D01*
X1925332Y-4431284D02*
G01*
X1925332Y-4540250D01*
X1925332Y-4431284D02*
G01*
X1961908Y-4431284D01*
X1977402Y-4436363D01*
X1987816Y-4446778D01*
X1992896Y-4457192D01*
X1998230Y-4472939D01*
X1998230Y-4498847D01*
X1992896Y-4514342D01*
X1987816Y-4524755D01*
X1977402Y-4535170D01*
X1961908Y-4540250D01*
X1925332Y-4540250D01*
X2063762Y-4431284D02*
G01*
X2053348Y-4436363D01*
X2042934Y-4446778D01*
X2037600Y-4457192D01*
X2032520Y-4472939D01*
X2032520Y-4498847D01*
X2037600Y-4514342D01*
X2042934Y-4524755D01*
X2053348Y-4535170D01*
X2063762Y-4540250D01*
X2084336Y-4540250D01*
X2094750Y-4535170D01*
X2105164Y-4524755D01*
X2110498Y-4514342D01*
X2115578Y-4498847D01*
X2115578Y-4472939D01*
X2110498Y-4457192D01*
X2105164Y-4446778D01*
X2094750Y-4436363D01*
X2084336Y-4431284D01*
X2063762Y-4431284D01*
X2149868Y-4452112D02*
G01*
X2160282Y-4446778D01*
X2175776Y-4431284D01*
X2175776Y-4540250D01*
X649478Y-520192D02*
G01*
X644144Y-509778D01*
X633729Y-499363D01*
X623570Y-494284D01*
X602742Y-494284D01*
X592328Y-499363D01*
X581913Y-509778D01*
X576579Y-520192D01*
X571500Y-535939D01*
X571500Y-561847D01*
X576579Y-577342D01*
X581913Y-587755D01*
X592328Y-598170D01*
X602742Y-603250D01*
X623570Y-603250D01*
X633729Y-598170D01*
X644144Y-587755D01*
X649478Y-577342D01*
X745997Y-509778D02*
G01*
X740918Y-499363D01*
X725170Y-494284D01*
X715010Y-494284D01*
X699262Y-499363D01*
X688847Y-515112D01*
X683768Y-541020D01*
X683768Y-566928D01*
X688847Y-587755D01*
X699262Y-598170D01*
X715010Y-603250D01*
X720089Y-603250D01*
X735584Y-598170D01*
X745997Y-587755D01*
X751331Y-572262D01*
X751331Y-566928D01*
X745997Y-551434D01*
X735584Y-541020D01*
X720089Y-535939D01*
X715010Y-535939D01*
X699262Y-541020D01*
X688847Y-551434D01*
X683768Y-566928D01*
X648462Y-5880100D02*
G01*
X743965Y-5880100D01*
X648462Y-5880100D02*
G01*
X648462Y-5848350D01*
X653034Y-5834634D01*
X661923Y-5825489D01*
X671068Y-5820918D01*
X684784Y-5816345D01*
X707389Y-5816345D01*
X721105Y-5820918D01*
X730250Y-5825489D01*
X739394Y-5834634D01*
X743965Y-5848350D01*
X743965Y-5880100D01*
X666495Y-5786373D02*
G01*
X661923Y-5777484D01*
X648462Y-5763768D01*
X743965Y-5763768D01*
X2566161Y-5816600D02*
G01*
X2661665Y-5816600D01*
X2566161Y-5816600D02*
G01*
X2566161Y-5784850D01*
X2570734Y-5771134D01*
X2579624Y-5761989D01*
X2588768Y-5757418D01*
X2602484Y-5752845D01*
X2625090Y-5752845D01*
X2638806Y-5757418D01*
X2647950Y-5761989D01*
X2657093Y-5771134D01*
X2661665Y-5784850D01*
X2661665Y-5816600D01*
X2588768Y-5718302D02*
G01*
X2584195Y-5718302D01*
X2575306Y-5713984D01*
X2570734Y-5709412D01*
X2566161Y-5700268D01*
X2566161Y-5681979D01*
X2570734Y-5673089D01*
X2575306Y-5668518D01*
X2584195Y-5663945D01*
X2593340Y-5663945D01*
X2602484Y-5668518D01*
X2616200Y-5677407D01*
X2661665Y-5722873D01*
X2661665Y-5659373D01*
X1498587Y-4418584D02*
G01*
X1498587Y-4527550D01*
X1498587Y-4418584D02*
G01*
X1534909Y-4418584D01*
X1550657Y-4423663D01*
X1560817Y-4434078D01*
X1566151Y-4444492D01*
X1571231Y-4460239D01*
X1571231Y-4486147D01*
X1566151Y-4501642D01*
X1560817Y-4512055D01*
X1550657Y-4522470D01*
X1534909Y-4527550D01*
X1498587Y-4527550D01*
X1673085Y-4454905D02*
G01*
X1668005Y-4470400D01*
X1657591Y-4480813D01*
X1642097Y-4486147D01*
X1636763Y-4486147D01*
X1621269Y-4480813D01*
X1610855Y-4470400D01*
X1605521Y-4454905D01*
X1605521Y-4449826D01*
X1610855Y-4434078D01*
X1621269Y-4423663D01*
X1636763Y-4418584D01*
X1642097Y-4418584D01*
X1657591Y-4423663D01*
X1668005Y-4434078D01*
X1673085Y-4454905D01*
X1673085Y-4480813D01*
X1668005Y-4506976D01*
X1657591Y-4522470D01*
X1642097Y-4527550D01*
X1631683Y-4527550D01*
X1615935Y-4522470D01*
X1610855Y-4512055D01*
X1955800Y-6020562D02*
G01*
X1955800Y-6116065D01*
X1955800Y-6020562D02*
G01*
X1987550Y-6020562D01*
X2001265Y-6025134D01*
X2010409Y-6034023D01*
X2014981Y-6043168D01*
X2019554Y-6056884D01*
X2019554Y-6079489D01*
X2014981Y-6093205D01*
X2010409Y-6102350D01*
X2001265Y-6111494D01*
X1987550Y-6116065D01*
X1955800Y-6116065D01*
X2094991Y-6020562D02*
G01*
X2049525Y-6084062D01*
X2117597Y-6084062D01*
X2094991Y-6020562D02*
G01*
X2094991Y-6116065D01*
X2565400Y-5868162D02*
G01*
X2565400Y-5963665D01*
X2565400Y-5868162D02*
G01*
X2597150Y-5868162D01*
X2610865Y-5872734D01*
X2620009Y-5881623D01*
X2624581Y-5890768D01*
X2629154Y-5904484D01*
X2629154Y-5927089D01*
X2624581Y-5940805D01*
X2620009Y-5949950D01*
X2610865Y-5959094D01*
X2597150Y-5963665D01*
X2565400Y-5963665D01*
X2681731Y-5868162D02*
G01*
X2668015Y-5872734D01*
X2663697Y-5881623D01*
X2663697Y-5890768D01*
X2668015Y-5899912D01*
X2677159Y-5904484D01*
X2695447Y-5909055D01*
X2708909Y-5913628D01*
X2718054Y-5922518D01*
X2722625Y-5931662D01*
X2722625Y-5945378D01*
X2718054Y-5954521D01*
X2713481Y-5959094D01*
X2700020Y-5963665D01*
X2681731Y-5963665D01*
X2668015Y-5959094D01*
X2663697Y-5954521D01*
X2659125Y-5945378D01*
X2659125Y-5931662D01*
X2663697Y-5922518D01*
X2672588Y-5913628D01*
X2686304Y-5909055D01*
X2704591Y-5904484D01*
X2713481Y-5899912D01*
X2718054Y-5890768D01*
X2718054Y-5881623D01*
X2713481Y-5872734D01*
X2700020Y-5868162D01*
X2681731Y-5868162D01*
X1562100Y-3466084D02*
G01*
X1562100Y-3575050D01*
X1562100Y-3466084D02*
G01*
X1629663Y-3466084D01*
X1562100Y-3517900D02*
G01*
X1603755Y-3517900D01*
X1663954Y-3466084D02*
G01*
X1663954Y-3575050D01*
X1663954Y-3466084D02*
G01*
X1710689Y-3466084D01*
X1726184Y-3471163D01*
X1731518Y-3476497D01*
X1736597Y-3486912D01*
X1736597Y-3502405D01*
X1731518Y-3512820D01*
X1726184Y-3517900D01*
X1710689Y-3523234D01*
X1663954Y-3523234D01*
X1848865Y-3491992D02*
G01*
X1843786Y-3481578D01*
X1833371Y-3471163D01*
X1822957Y-3466084D01*
X1802129Y-3466084D01*
X1791715Y-3471163D01*
X1781302Y-3481578D01*
X1776221Y-3491992D01*
X1770887Y-3507739D01*
X1770887Y-3533647D01*
X1776221Y-3549142D01*
X1781302Y-3559555D01*
X1791715Y-3569970D01*
X1802129Y-3575050D01*
X1822957Y-3575050D01*
X1833371Y-3569970D01*
X1843786Y-3559555D01*
X1848865Y-3549142D01*
X1883155Y-3486912D02*
G01*
X1893570Y-3481578D01*
X1909063Y-3466084D01*
X1909063Y-3575050D01*
X102870Y-3923284D02*
G01*
X102870Y-4006342D01*
X97536Y-4022089D01*
X92455Y-4027170D01*
X82042Y-4032250D01*
X71628Y-4032250D01*
X61213Y-4027170D01*
X55879Y-4022089D01*
X50800Y-4006342D01*
X50800Y-3995928D01*
X137160Y-3923284D02*
G01*
X137160Y-4032250D01*
X137160Y-3923284D02*
G01*
X183895Y-3923284D01*
X199389Y-3928363D01*
X204470Y-3933697D01*
X209804Y-3944112D01*
X209804Y-3959605D01*
X204470Y-3970020D01*
X199389Y-3975100D01*
X183895Y-3980434D01*
X137160Y-3980434D01*
X244094Y-3944112D02*
G01*
X254507Y-3938778D01*
X270002Y-3923284D01*
X270002Y-4032250D01*
X102870Y-4050284D02*
G01*
X102870Y-4133342D01*
X97536Y-4149089D01*
X92455Y-4154170D01*
X82042Y-4159250D01*
X71628Y-4159250D01*
X61213Y-4154170D01*
X55879Y-4149089D01*
X50800Y-4133342D01*
X50800Y-4122928D01*
X137160Y-4050284D02*
G01*
X137160Y-4159250D01*
X137160Y-4050284D02*
G01*
X183895Y-4050284D01*
X199389Y-4055363D01*
X204470Y-4060697D01*
X209804Y-4071112D01*
X209804Y-4086605D01*
X204470Y-4097020D01*
X199389Y-4102100D01*
X183895Y-4107434D01*
X137160Y-4107434D01*
X249173Y-4076192D02*
G01*
X249173Y-4071112D01*
X254507Y-4060697D01*
X259587Y-4055363D01*
X270002Y-4050284D01*
X290829Y-4050284D01*
X301244Y-4055363D01*
X306323Y-4060697D01*
X311657Y-4071112D01*
X311657Y-4081526D01*
X306323Y-4091939D01*
X295910Y-4107434D01*
X244094Y-4159250D01*
X316737Y-4159250D01*
X214884Y-5003800D02*
G01*
X323850Y-5003800D01*
X214884Y-5003800D02*
G01*
X214884Y-4957063D01*
X219963Y-4941570D01*
X225297Y-4936236D01*
X235712Y-4931155D01*
X251205Y-4931155D01*
X261620Y-4936236D01*
X266700Y-4941570D01*
X272034Y-4957063D01*
X272034Y-5003800D01*
X235712Y-4896865D02*
G01*
X230378Y-4886452D01*
X214884Y-4870704D01*
X323850Y-4870704D01*
X1948941Y-3021584D02*
G01*
X1938527Y-3026663D01*
X1928113Y-3037078D01*
X1922779Y-3047492D01*
X1917700Y-3063239D01*
X1917700Y-3089147D01*
X1922779Y-3104642D01*
X1928113Y-3115055D01*
X1938527Y-3125470D01*
X1948941Y-3130550D01*
X1969770Y-3130550D01*
X1979929Y-3125470D01*
X1990343Y-3115055D01*
X1995677Y-3104642D01*
X2000758Y-3089147D01*
X2000758Y-3063239D01*
X1995677Y-3047492D01*
X1990343Y-3037078D01*
X1979929Y-3026663D01*
X1969770Y-3021584D01*
X1948941Y-3021584D01*
X1964436Y-3109976D02*
G01*
X1995677Y-3140963D01*
X2035047Y-3042412D02*
G01*
X2045461Y-3037078D01*
X2061209Y-3021584D01*
X2061209Y-3130550D01*
X1373378Y-6134862D02*
G01*
X1364487Y-6139434D01*
X1355344Y-6148323D01*
X1350771Y-6157468D01*
X1346200Y-6171184D01*
X1346200Y-6193789D01*
X1350771Y-6207505D01*
X1355344Y-6216650D01*
X1364487Y-6225794D01*
X1373378Y-6230365D01*
X1391665Y-6230365D01*
X1400810Y-6225794D01*
X1409954Y-6216650D01*
X1414271Y-6207505D01*
X1418844Y-6193789D01*
X1418844Y-6171184D01*
X1414271Y-6157468D01*
X1409954Y-6148323D01*
X1400810Y-6139434D01*
X1391665Y-6134862D01*
X1373378Y-6134862D01*
X1387094Y-6212078D02*
G01*
X1414271Y-6239255D01*
X1457960Y-6134862D02*
G01*
X1507997Y-6134862D01*
X1480820Y-6171184D01*
X1494281Y-6171184D01*
X1503426Y-6175755D01*
X1507997Y-6180328D01*
X1512570Y-6193789D01*
X1512570Y-6202934D01*
X1507997Y-6216650D01*
X1498854Y-6225794D01*
X1485392Y-6230365D01*
X1471676Y-6230365D01*
X1457960Y-6225794D01*
X1453387Y-6221221D01*
X1448815Y-6212078D01*
X2462784Y-1981200D02*
G01*
X2571750Y-1981200D01*
X2462784Y-1981200D02*
G01*
X2462784Y-1934463D01*
X2467863Y-1918970D01*
X2473197Y-1913636D01*
X2483611Y-1908555D01*
X2494025Y-1908555D01*
X2504440Y-1913636D01*
X2509520Y-1918970D01*
X2514600Y-1934463D01*
X2514600Y-1981200D01*
X2514600Y-1944878D02*
G01*
X2571750Y-1908555D01*
X2483611Y-1874265D02*
G01*
X2478277Y-1863852D01*
X2462784Y-1848104D01*
X2571750Y-1848104D01*
X2478277Y-1751584D02*
G01*
X2467863Y-1756663D01*
X2462784Y-1772412D01*
X2462784Y-1782826D01*
X2467863Y-1798320D01*
X2483611Y-1808734D01*
X2509520Y-1813813D01*
X2535427Y-1813813D01*
X2556256Y-1808734D01*
X2566670Y-1798320D01*
X2571750Y-1782826D01*
X2571750Y-1777492D01*
X2566670Y-1761997D01*
X2556256Y-1751584D01*
X2540761Y-1746250D01*
X2535427Y-1746250D01*
X2519934Y-1751584D01*
X2509520Y-1761997D01*
X2504440Y-1777492D01*
X2504440Y-1782826D01*
X2509520Y-1798320D01*
X2519934Y-1808734D01*
X2535427Y-1813813D01*
X2615184Y-1943100D02*
G01*
X2724150Y-1943100D01*
X2615184Y-1943100D02*
G01*
X2615184Y-1896363D01*
X2620263Y-1880870D01*
X2625597Y-1875536D01*
X2636011Y-1870455D01*
X2646425Y-1870455D01*
X2656840Y-1875536D01*
X2661920Y-1880870D01*
X2667000Y-1896363D01*
X2667000Y-1943100D01*
X2667000Y-1906778D02*
G01*
X2724150Y-1870455D01*
X2636011Y-1836165D02*
G01*
X2630677Y-1825752D01*
X2615184Y-1810004D01*
X2724150Y-1810004D01*
X2615184Y-1703070D02*
G01*
X2724150Y-1755139D01*
X2615184Y-1775713D02*
G01*
X2615184Y-1703070D01*
X1955800Y-5398262D02*
G01*
X1955800Y-5466334D01*
X1960372Y-5480050D01*
X1969515Y-5489194D01*
X1982977Y-5493765D01*
X1992122Y-5493765D01*
X2005838Y-5489194D01*
X2014981Y-5480050D01*
X2019554Y-5466334D01*
X2019554Y-5398262D01*
X2049525Y-5416295D02*
G01*
X2058415Y-5411723D01*
X2072131Y-5398262D01*
X2072131Y-5493765D01*
X774700Y-113284D02*
G01*
X774700Y-191262D01*
X779779Y-206755D01*
X790194Y-217170D01*
X805942Y-222250D01*
X816355Y-222250D01*
X831850Y-217170D01*
X842263Y-206755D01*
X847344Y-191262D01*
X847344Y-113284D01*
X892047Y-113284D02*
G01*
X949197Y-113284D01*
X918210Y-154939D01*
X933704Y-154939D01*
X944118Y-160020D01*
X949197Y-165100D01*
X954531Y-180847D01*
X954531Y-191262D01*
X949197Y-206755D01*
X938784Y-217170D01*
X923289Y-222250D01*
X907795Y-222250D01*
X892047Y-217170D01*
X886968Y-212089D01*
X881634Y-201676D01*
X698500Y-5385562D02*
G01*
X698500Y-5453634D01*
X703071Y-5467350D01*
X712215Y-5476494D01*
X725678Y-5481065D01*
X734821Y-5481065D01*
X748537Y-5476494D01*
X757681Y-5467350D01*
X762254Y-5453634D01*
X762254Y-5385562D01*
X837692Y-5385562D02*
G01*
X792226Y-5449062D01*
X860297Y-5449062D01*
X837692Y-5385562D02*
G01*
X837692Y-5481065D01*
X1212329Y-4456684D02*
G01*
X1201915Y-4461763D01*
X1191501Y-4472178D01*
X1186167Y-4482592D01*
X1181087Y-4498339D01*
X1181087Y-4524247D01*
X1186167Y-4539742D01*
X1191501Y-4550155D01*
X1201915Y-4560570D01*
X1212329Y-4565650D01*
X1233157Y-4565650D01*
X1243317Y-4560570D01*
X1253731Y-4550155D01*
X1259065Y-4539742D01*
X1264145Y-4524247D01*
X1264145Y-4498339D01*
X1259065Y-4482592D01*
X1253731Y-4472178D01*
X1243317Y-4461763D01*
X1233157Y-4456684D01*
X1212329Y-4456684D01*
X1227823Y-4545076D02*
G01*
X1259065Y-4576063D01*
X1350505Y-4456684D02*
G01*
X1298435Y-4529328D01*
X1376413Y-4529328D01*
X1350505Y-4456684D02*
G01*
X1350505Y-4565650D01*
X774623Y-1154684D02*
G01*
X774623Y-1263650D01*
X774623Y-1154684D02*
G01*
X821359Y-1154684D01*
X837107Y-1159763D01*
X842187Y-1165097D01*
X847521Y-1175512D01*
X847521Y-1185926D01*
X842187Y-1196339D01*
X837107Y-1201420D01*
X821359Y-1206500D01*
X774623Y-1206500D01*
X810945Y-1206500D02*
G01*
X847521Y-1263650D01*
X944041Y-1154684D02*
G01*
X892225Y-1154684D01*
X886891Y-1201420D01*
X892225Y-1196339D01*
X907719Y-1191005D01*
X923213Y-1191005D01*
X938961Y-1196339D01*
X949375Y-1206500D01*
X954455Y-1222247D01*
X954455Y-1232662D01*
X949375Y-1248155D01*
X938961Y-1258570D01*
X923213Y-1263650D01*
X907719Y-1263650D01*
X892225Y-1258570D01*
X886891Y-1253489D01*
X881811Y-1243076D01*
X49784Y-1028776D02*
G01*
X158750Y-1028776D01*
X49784Y-1028776D02*
G01*
X49784Y-982040D01*
X54863Y-966292D01*
X60197Y-961212D01*
X70612Y-955878D01*
X81026Y-955878D01*
X91439Y-961212D01*
X96520Y-966292D01*
X101600Y-982040D01*
X101600Y-1028776D01*
X101600Y-992454D02*
G01*
X158750Y-955878D01*
X70612Y-921588D02*
G01*
X65278Y-911174D01*
X49784Y-895680D01*
X158750Y-895680D01*
X75692Y-856310D02*
G01*
X70612Y-856310D01*
X60197Y-850976D01*
X54863Y-845896D01*
X49784Y-835482D01*
X49784Y-814654D01*
X54863Y-804240D01*
X60197Y-799160D01*
X70612Y-793826D01*
X81026Y-793826D01*
X91439Y-799160D01*
X106934Y-809574D01*
X158750Y-861390D01*
X158750Y-788746D01*
X306323Y-5524245D02*
G01*
X297434Y-5533389D01*
X292862Y-5547105D01*
X292862Y-5565394D01*
X297434Y-5578855D01*
X306323Y-5588000D01*
X315468Y-5588000D01*
X324612Y-5583428D01*
X329184Y-5578855D01*
X333755Y-5569712D01*
X342900Y-5542534D01*
X347218Y-5533389D01*
X351789Y-5528818D01*
X360934Y-5524245D01*
X374650Y-5524245D01*
X383794Y-5533389D01*
X388365Y-5547105D01*
X388365Y-5565394D01*
X383794Y-5578855D01*
X374650Y-5588000D01*
X292862Y-5494273D02*
G01*
X388365Y-5471668D01*
X292862Y-5448807D02*
G01*
X388365Y-5471668D01*
X292862Y-5448807D02*
G01*
X388365Y-5426202D01*
X292862Y-5403342D02*
G01*
X388365Y-5426202D01*
X310895Y-5373370D02*
G01*
X306323Y-5364479D01*
X292862Y-5350763D01*
X388365Y-5350763D01*
X2998724Y-5524245D02*
G01*
X2989834Y-5533389D01*
X2985261Y-5547105D01*
X2985261Y-5565394D01*
X2989834Y-5578855D01*
X2998724Y-5588000D01*
X3007868Y-5588000D01*
X3017011Y-5583428D01*
X3021584Y-5578855D01*
X3026156Y-5569712D01*
X3035300Y-5542534D01*
X3039618Y-5533389D01*
X3044190Y-5528818D01*
X3053334Y-5524245D01*
X3067050Y-5524245D01*
X3076193Y-5533389D01*
X3080765Y-5547105D01*
X3080765Y-5565394D01*
X3076193Y-5578855D01*
X3067050Y-5588000D01*
X2985261Y-5494273D02*
G01*
X3080765Y-5471668D01*
X2985261Y-5448807D02*
G01*
X3080765Y-5471668D01*
X2985261Y-5448807D02*
G01*
X3080765Y-5426202D01*
X2985261Y-5403342D02*
G01*
X3080765Y-5426202D01*
X3007868Y-5368797D02*
G01*
X3003295Y-5368797D01*
X2994406Y-5364479D01*
X2989834Y-5359907D01*
X2985261Y-5350763D01*
X2985261Y-5332476D01*
X2989834Y-5323331D01*
X2994406Y-5319013D01*
X3003295Y-5314442D01*
X3012440Y-5314442D01*
X3021584Y-5319013D01*
X3035300Y-5327904D01*
X3080765Y-5373370D01*
X3080765Y-5309870D01*
X2806725Y-1383207D02*
G01*
X2806725Y-1461185D01*
X2811805Y-1476679D01*
X2822219Y-1487093D01*
X2837967Y-1492427D01*
X2848381Y-1492427D01*
X2863875Y-1487093D01*
X2874289Y-1476679D01*
X2879369Y-1461185D01*
X2879369Y-1383207D01*
X2918993Y-1409115D02*
G01*
X2918993Y-1404035D01*
X2924073Y-1393621D01*
X2929407Y-1388541D01*
X2939821Y-1383207D01*
X2960395Y-1383207D01*
X2970809Y-1388541D01*
X2976143Y-1393621D01*
X2981223Y-1404035D01*
X2981223Y-1414449D01*
X2976143Y-1424863D01*
X2965729Y-1440357D01*
X2913659Y-1492427D01*
X2986557Y-1492427D01*
X253885Y-1218082D02*
G01*
X253885Y-1296060D01*
X259219Y-1311554D01*
X269633Y-1321968D01*
X285127Y-1327302D01*
X295541Y-1327302D01*
X311035Y-1321968D01*
X321449Y-1311554D01*
X326783Y-1296060D01*
X326783Y-1218082D01*
X423303Y-1218082D02*
G01*
X371487Y-1218082D01*
X366153Y-1264818D01*
X371487Y-1259738D01*
X386981Y-1254404D01*
X402475Y-1254404D01*
X418223Y-1259738D01*
X428637Y-1270152D01*
X433717Y-1285646D01*
X433717Y-1296060D01*
X428637Y-1311554D01*
X418223Y-1321968D01*
X402475Y-1327302D01*
X386981Y-1327302D01*
X371487Y-1321968D01*
X366153Y-1316888D01*
X361073Y-1306474D01*
X1268984Y-2959100D02*
G01*
X1346962Y-2959100D01*
X1362455Y-2954020D01*
X1372870Y-2943605D01*
X1377950Y-2927857D01*
X1377950Y-2917444D01*
X1372870Y-2901950D01*
X1362455Y-2891536D01*
X1346962Y-2886455D01*
X1268984Y-2886455D01*
X1268984Y-2779268D02*
G01*
X1377950Y-2831337D01*
X1268984Y-2852165D02*
G01*
X1268984Y-2779268D01*
X927100Y-6134862D02*
G01*
X927100Y-6202934D01*
X931671Y-6216650D01*
X940815Y-6225794D01*
X954278Y-6230365D01*
X963421Y-6230365D01*
X977137Y-6225794D01*
X986281Y-6216650D01*
X990854Y-6202934D01*
X990854Y-6134862D01*
X1084326Y-6148323D02*
G01*
X1075181Y-6139434D01*
X1061720Y-6134862D01*
X1043431Y-6134862D01*
X1029715Y-6139434D01*
X1020826Y-6148323D01*
X1020826Y-6157468D01*
X1025397Y-6166612D01*
X1029715Y-6171184D01*
X1038860Y-6175755D01*
X1066292Y-6184900D01*
X1075181Y-6189218D01*
X1079754Y-6193789D01*
X1084326Y-6202934D01*
X1084326Y-6216650D01*
X1075181Y-6225794D01*
X1061720Y-6230365D01*
X1043431Y-6230365D01*
X1029715Y-6225794D01*
X1020826Y-6216650D01*
X1114297Y-6134862D02*
G01*
X1114297Y-6230365D01*
X1114297Y-6134862D02*
G01*
X1155192Y-6134862D01*
X1168907Y-6139434D01*
X1173479Y-6144005D01*
X1178052Y-6152895D01*
X1178052Y-6162039D01*
X1173479Y-6171184D01*
X1168907Y-6175755D01*
X1155192Y-6180328D01*
X1114297Y-6180328D02*
G01*
X1155192Y-6180328D01*
X1168907Y-6184900D01*
X1173479Y-6189218D01*
X1178052Y-6198362D01*
X1178052Y-6212078D01*
X1173479Y-6221221D01*
X1168907Y-6225794D01*
X1155192Y-6230365D01*
X1114297Y-6230365D01*
X1208023Y-6152895D02*
G01*
X1217168Y-6148323D01*
X1230629Y-6134862D01*
X1230629Y-6230365D01*
X2184400Y-6109462D02*
G01*
X2184400Y-6177534D01*
X2188972Y-6191250D01*
X2198115Y-6200394D01*
X2211577Y-6204965D01*
X2220722Y-6204965D01*
X2234438Y-6200394D01*
X2243581Y-6191250D01*
X2248154Y-6177534D01*
X2248154Y-6109462D01*
X2341625Y-6122923D02*
G01*
X2332481Y-6114034D01*
X2319020Y-6109462D01*
X2300731Y-6109462D01*
X2287015Y-6114034D01*
X2278125Y-6122923D01*
X2278125Y-6132068D01*
X2282697Y-6141212D01*
X2287015Y-6145784D01*
X2296159Y-6150355D01*
X2323591Y-6159500D01*
X2332481Y-6163818D01*
X2337054Y-6168389D01*
X2341625Y-6177534D01*
X2341625Y-6191250D01*
X2332481Y-6200394D01*
X2319020Y-6204965D01*
X2300731Y-6204965D01*
X2287015Y-6200394D01*
X2278125Y-6191250D01*
X2371597Y-6109462D02*
G01*
X2371597Y-6204965D01*
X2371597Y-6109462D02*
G01*
X2412491Y-6109462D01*
X2426208Y-6114034D01*
X2430779Y-6118605D01*
X2435352Y-6127495D01*
X2435352Y-6136639D01*
X2430779Y-6145784D01*
X2426208Y-6150355D01*
X2412491Y-6154928D01*
X2371597Y-6154928D02*
G01*
X2412491Y-6154928D01*
X2426208Y-6159500D01*
X2430779Y-6163818D01*
X2435352Y-6172962D01*
X2435352Y-6186678D01*
X2430779Y-6195821D01*
X2426208Y-6200394D01*
X2412491Y-6204965D01*
X2371597Y-6204965D01*
X2469895Y-6132068D02*
G01*
X2469895Y-6127495D01*
X2474468Y-6118605D01*
X2479040Y-6114034D01*
X2487929Y-6109462D01*
X2506218Y-6109462D01*
X2515361Y-6114034D01*
X2519934Y-6118605D01*
X2524506Y-6127495D01*
X2524506Y-6136639D01*
X2519934Y-6145784D01*
X2510790Y-6159500D01*
X2465324Y-6204965D01*
X2528824Y-6204965D01*
X2188972Y-5001768D02*
G01*
X2184654Y-4992623D01*
X2175509Y-4983734D01*
X2166365Y-4979162D01*
X2148077Y-4979162D01*
X2139188Y-4983734D01*
X2130043Y-4992623D01*
X2125472Y-5001768D01*
X2120900Y-5015484D01*
X2120900Y-5038089D01*
X2125472Y-5051805D01*
X2130043Y-5060950D01*
X2139188Y-5070094D01*
X2148077Y-5074665D01*
X2166365Y-5074665D01*
X2175509Y-5070094D01*
X2184654Y-5060950D01*
X2188972Y-5051805D01*
X2219197Y-4997195D02*
G01*
X2228088Y-4992623D01*
X2241804Y-4979162D01*
X2241804Y-5074665D01*
X1725168Y-6662928D02*
G01*
X1716023Y-6667245D01*
X1707134Y-6676389D01*
X1702562Y-6685534D01*
X1702562Y-6703821D01*
X1707134Y-6712712D01*
X1716023Y-6721855D01*
X1725168Y-6726428D01*
X1738884Y-6731000D01*
X1761489Y-6731000D01*
X1775205Y-6726428D01*
X1784350Y-6721855D01*
X1793494Y-6712712D01*
X1798065Y-6703821D01*
X1798065Y-6685534D01*
X1793494Y-6676389D01*
X1784350Y-6667245D01*
X1775205Y-6662928D01*
X1725168Y-6628384D02*
G01*
X1720595Y-6628384D01*
X1711705Y-6623812D01*
X1707134Y-6619239D01*
X1702562Y-6610095D01*
X1702562Y-6591808D01*
X1707134Y-6582918D01*
X1711705Y-6578345D01*
X1720595Y-6573773D01*
X1729739Y-6573773D01*
X1738884Y-6578345D01*
X1752600Y-6587489D01*
X1798065Y-6632702D01*
X1798065Y-6569202D01*
X1598168Y-6662928D02*
G01*
X1589023Y-6667245D01*
X1580134Y-6676389D01*
X1575562Y-6685534D01*
X1575562Y-6703821D01*
X1580134Y-6712712D01*
X1589023Y-6721855D01*
X1598168Y-6726428D01*
X1611884Y-6731000D01*
X1634489Y-6731000D01*
X1648205Y-6726428D01*
X1657350Y-6721855D01*
X1666494Y-6712712D01*
X1671065Y-6703821D01*
X1671065Y-6685534D01*
X1666494Y-6676389D01*
X1657350Y-6667245D01*
X1648205Y-6662928D01*
X1575562Y-6623812D02*
G01*
X1575562Y-6573773D01*
X1611884Y-6600952D01*
X1611884Y-6587489D01*
X1616455Y-6578345D01*
X1621028Y-6573773D01*
X1634489Y-6569202D01*
X1643634Y-6569202D01*
X1657350Y-6573773D01*
X1666494Y-6582918D01*
X1671065Y-6596379D01*
X1671065Y-6610095D01*
X1666494Y-6623812D01*
X1661921Y-6628384D01*
X1652778Y-6632702D01*
X2529077Y-494792D02*
G01*
X2523743Y-484378D01*
X2513329Y-473963D01*
X2503170Y-468884D01*
X2482341Y-468884D01*
X2471927Y-473963D01*
X2461513Y-484378D01*
X2456179Y-494792D01*
X2451100Y-510539D01*
X2451100Y-536447D01*
X2456179Y-551942D01*
X2461513Y-562355D01*
X2471927Y-572770D01*
X2482341Y-577850D01*
X2503170Y-577850D01*
X2513329Y-572770D01*
X2523743Y-562355D01*
X2529077Y-551942D01*
X2615184Y-468884D02*
G01*
X2563368Y-541528D01*
X2641345Y-541528D01*
X2615184Y-468884D02*
G01*
X2615184Y-577850D01*
X281152Y-1028192D02*
G01*
X275818Y-1017778D01*
X265658Y-1007363D01*
X255244Y-1002284D01*
X234416Y-1002284D01*
X224002Y-1007363D01*
X213588Y-1017778D01*
X208508Y-1028192D01*
X203174Y-1043939D01*
X203174Y-1069847D01*
X208508Y-1085342D01*
X213588Y-1095755D01*
X224002Y-1106170D01*
X234416Y-1111250D01*
X255244Y-1111250D01*
X265658Y-1106170D01*
X275818Y-1095755D01*
X281152Y-1085342D01*
X377672Y-1002284D02*
G01*
X325856Y-1002284D01*
X320522Y-1049020D01*
X325856Y-1043939D01*
X341350Y-1038605D01*
X357098Y-1038605D01*
X372592Y-1043939D01*
X383006Y-1054100D01*
X388086Y-1069847D01*
X388086Y-1080262D01*
X383006Y-1095755D01*
X372592Y-1106170D01*
X357098Y-1111250D01*
X341350Y-1111250D01*
X325856Y-1106170D01*
X320522Y-1101089D01*
X315442Y-1090676D01*
X624052Y-1244092D02*
G01*
X618718Y-1233678D01*
X608558Y-1223263D01*
X598144Y-1218184D01*
X577316Y-1218184D01*
X566902Y-1223263D01*
X556488Y-1233678D01*
X551408Y-1244092D01*
X546074Y-1259839D01*
X546074Y-1285747D01*
X551408Y-1301242D01*
X556488Y-1311655D01*
X566902Y-1322070D01*
X577316Y-1327150D01*
X598144Y-1327150D01*
X608558Y-1322070D01*
X618718Y-1311655D01*
X624052Y-1301242D01*
X730986Y-1218184D02*
G01*
X679170Y-1327150D01*
X658342Y-1218184D02*
G01*
X730986Y-1218184D01*
X2846577Y-494792D02*
G01*
X2841243Y-484378D01*
X2830829Y-473963D01*
X2820670Y-468884D01*
X2799841Y-468884D01*
X2789427Y-473963D01*
X2779013Y-484378D01*
X2773679Y-494792D01*
X2768600Y-510539D01*
X2768600Y-536447D01*
X2773679Y-551942D01*
X2779013Y-562355D01*
X2789427Y-572770D01*
X2799841Y-577850D01*
X2820670Y-577850D01*
X2830829Y-572770D01*
X2841243Y-562355D01*
X2846577Y-551942D01*
X2906775Y-468884D02*
G01*
X2891281Y-473963D01*
X2885947Y-484378D01*
X2885947Y-494792D01*
X2891281Y-505205D01*
X2901695Y-510539D01*
X2922270Y-515620D01*
X2938018Y-520700D01*
X2948431Y-531113D01*
X2953511Y-541528D01*
X2953511Y-557276D01*
X2948431Y-567689D01*
X2943097Y-572770D01*
X2927604Y-577850D01*
X2906775Y-577850D01*
X2891281Y-572770D01*
X2885947Y-567689D01*
X2880868Y-557276D01*
X2880868Y-541528D01*
X2885947Y-531113D01*
X2896361Y-520700D01*
X2912109Y-515620D01*
X2932684Y-510539D01*
X2943097Y-505205D01*
X2948431Y-494792D01*
X2948431Y-484378D01*
X2943097Y-473963D01*
X2927604Y-468884D01*
X2906775Y-468884D01*
X3151377Y-494792D02*
G01*
X3146043Y-484378D01*
X3135629Y-473963D01*
X3125470Y-468884D01*
X3104641Y-468884D01*
X3094227Y-473963D01*
X3083813Y-484378D01*
X3078479Y-494792D01*
X3073400Y-510539D01*
X3073400Y-536447D01*
X3078479Y-551942D01*
X3083813Y-562355D01*
X3094227Y-572770D01*
X3104641Y-577850D01*
X3125470Y-577850D01*
X3135629Y-572770D01*
X3146043Y-562355D01*
X3151377Y-551942D01*
X3253231Y-505205D02*
G01*
X3247897Y-520700D01*
X3237484Y-531113D01*
X3221990Y-536447D01*
X3216909Y-536447D01*
X3201161Y-531113D01*
X3190747Y-520700D01*
X3185668Y-505205D01*
X3185668Y-500126D01*
X3190747Y-484378D01*
X3201161Y-473963D01*
X3216909Y-468884D01*
X3221990Y-468884D01*
X3237484Y-473963D01*
X3247897Y-484378D01*
X3253231Y-505205D01*
X3253231Y-531113D01*
X3247897Y-557276D01*
X3237484Y-572770D01*
X3221990Y-577850D01*
X3211575Y-577850D01*
X3196081Y-572770D01*
X3190747Y-562355D01*
X3113277Y-1586992D02*
G01*
X3107943Y-1576578D01*
X3097529Y-1566163D01*
X3087370Y-1561084D01*
X3066541Y-1561084D01*
X3056127Y-1566163D01*
X3045713Y-1576578D01*
X3040379Y-1586992D01*
X3035300Y-1602739D01*
X3035300Y-1628647D01*
X3040379Y-1644142D01*
X3045713Y-1654555D01*
X3056127Y-1664970D01*
X3066541Y-1670050D01*
X3087370Y-1670050D01*
X3097529Y-1664970D01*
X3107943Y-1654555D01*
X3113277Y-1644142D01*
X3147568Y-1581912D02*
G01*
X3157981Y-1576578D01*
X3173475Y-1561084D01*
X3173475Y-1670050D01*
X3239008Y-1561084D02*
G01*
X3223259Y-1566163D01*
X3213100Y-1581912D01*
X3207765Y-1607820D01*
X3207765Y-1623313D01*
X3213100Y-1649476D01*
X3223259Y-1664970D01*
X3239008Y-1670050D01*
X3249422Y-1670050D01*
X3264915Y-1664970D01*
X3275329Y-1649476D01*
X3280409Y-1623313D01*
X3280409Y-1607820D01*
X3275329Y-1581912D01*
X3264915Y-1566163D01*
X3249422Y-1561084D01*
X3239008Y-1561084D01*
X2538984Y-3263900D02*
G01*
X2647950Y-3263900D01*
X2538984Y-3263900D02*
G01*
X2538984Y-3217163D01*
X2544063Y-3201670D01*
X2549397Y-3196336D01*
X2559811Y-3191255D01*
X2570225Y-3191255D01*
X2580640Y-3196336D01*
X2585720Y-3201670D01*
X2590800Y-3217163D01*
X2590800Y-3263900D01*
X2590800Y-3227578D02*
G01*
X2647950Y-3191255D01*
X2559811Y-3156965D02*
G01*
X2554477Y-3146552D01*
X2538984Y-3130804D01*
X2647950Y-3130804D01*
X266700Y-6223762D02*
G01*
X266700Y-6319265D01*
X266700Y-6223762D02*
G01*
X307594Y-6223762D01*
X321310Y-6228334D01*
X325881Y-6232905D01*
X330454Y-6241795D01*
X330454Y-6250939D01*
X325881Y-6260084D01*
X321310Y-6264655D01*
X307594Y-6269228D01*
X266700Y-6269228D01*
X298450Y-6269228D02*
G01*
X330454Y-6319265D01*
X364997Y-6246368D02*
G01*
X364997Y-6241795D01*
X369315Y-6232905D01*
X373887Y-6228334D01*
X383031Y-6223762D01*
X401320Y-6223762D01*
X410210Y-6228334D01*
X414781Y-6232905D01*
X419354Y-6241795D01*
X419354Y-6250939D01*
X414781Y-6260084D01*
X405892Y-6273800D01*
X360426Y-6319265D01*
X423926Y-6319265D01*
X2946400Y-6655562D02*
G01*
X2946400Y-6751065D01*
X2946400Y-6655562D02*
G01*
X2987293Y-6655562D01*
X3001009Y-6660134D01*
X3005581Y-6664705D01*
X3010154Y-6673595D01*
X3010154Y-6682739D01*
X3005581Y-6691884D01*
X3001009Y-6696455D01*
X2987293Y-6701028D01*
X2946400Y-6701028D01*
X2978150Y-6701028D02*
G01*
X3010154Y-6751065D01*
X3049015Y-6655562D02*
G01*
X3099054Y-6655562D01*
X3071875Y-6691884D01*
X3085591Y-6691884D01*
X3094481Y-6696455D01*
X3099054Y-6701028D01*
X3103625Y-6714489D01*
X3103625Y-6723634D01*
X3099054Y-6737350D01*
X3089909Y-6746494D01*
X3076447Y-6751065D01*
X3062731Y-6751065D01*
X3049015Y-6746494D01*
X3044697Y-6741921D01*
X3040125Y-6732778D01*
X2121661Y-5651500D02*
G01*
X2217165Y-5651500D01*
X2121661Y-5651500D02*
G01*
X2121661Y-5610605D01*
X2126234Y-5596889D01*
X2130806Y-5592318D01*
X2139695Y-5587745D01*
X2148840Y-5587745D01*
X2157984Y-5592318D01*
X2162556Y-5596889D01*
X2167127Y-5610605D01*
X2167127Y-5651500D01*
X2167127Y-5619750D02*
G01*
X2217165Y-5587745D01*
X2121661Y-5512307D02*
G01*
X2185161Y-5557773D01*
X2185161Y-5489702D01*
X2121661Y-5512307D02*
G01*
X2217165Y-5512307D01*
X3060801Y-1802384D02*
G01*
X3060801Y-1911350D01*
X3060801Y-1802384D02*
G01*
X3107537Y-1802384D01*
X3123031Y-1807463D01*
X3128365Y-1812797D01*
X3133445Y-1823212D01*
X3133445Y-1833626D01*
X3128365Y-1844039D01*
X3123031Y-1849120D01*
X3107537Y-1854200D01*
X3060801Y-1854200D01*
X3097123Y-1854200D02*
G01*
X3133445Y-1911350D01*
X3229965Y-1817878D02*
G01*
X3224885Y-1807463D01*
X3209391Y-1802384D01*
X3198977Y-1802384D01*
X3183229Y-1807463D01*
X3172815Y-1823212D01*
X3167735Y-1849120D01*
X3167735Y-1875028D01*
X3172815Y-1895855D01*
X3183229Y-1906270D01*
X3198977Y-1911350D01*
X3204057Y-1911350D01*
X3219805Y-1906270D01*
X3229965Y-1895855D01*
X3235299Y-1880362D01*
X3235299Y-1875028D01*
X3229965Y-1859534D01*
X3219805Y-1849120D01*
X3204057Y-1844039D01*
X3198977Y-1844039D01*
X3183229Y-1849120D01*
X3172815Y-1859534D01*
X3167735Y-1875028D01*
X1651000Y-5233162D02*
G01*
X1651000Y-5328665D01*
X1651000Y-5233162D02*
G01*
X1691894Y-5233162D01*
X1705610Y-5237734D01*
X1710181Y-5242305D01*
X1714754Y-5251195D01*
X1714754Y-5260339D01*
X1710181Y-5269484D01*
X1705610Y-5274055D01*
X1691894Y-5278628D01*
X1651000Y-5278628D01*
X1682750Y-5278628D02*
G01*
X1714754Y-5328665D01*
X1808226Y-5233162D02*
G01*
X1762760Y-5328665D01*
X1744726Y-5233162D02*
G01*
X1808226Y-5233162D01*
X76200Y-6503162D02*
G01*
X76200Y-6598665D01*
X76200Y-6503162D02*
G01*
X117094Y-6503162D01*
X130810Y-6507734D01*
X135381Y-6512305D01*
X139954Y-6521195D01*
X139954Y-6530339D01*
X135381Y-6539484D01*
X130810Y-6544055D01*
X117094Y-6548628D01*
X76200Y-6548628D01*
X107950Y-6548628D02*
G01*
X139954Y-6598665D01*
X192531Y-6503162D02*
G01*
X178815Y-6507734D01*
X174497Y-6516623D01*
X174497Y-6525768D01*
X178815Y-6534912D01*
X187960Y-6539484D01*
X206247Y-6544055D01*
X219710Y-6548628D01*
X228854Y-6557518D01*
X233426Y-6566662D01*
X233426Y-6580378D01*
X228854Y-6589521D01*
X224281Y-6594094D01*
X210820Y-6598665D01*
X192531Y-6598665D01*
X178815Y-6594094D01*
X174497Y-6589521D01*
X169926Y-6580378D01*
X169926Y-6566662D01*
X174497Y-6557518D01*
X183387Y-6548628D01*
X197104Y-6544055D01*
X215392Y-6539484D01*
X224281Y-6534912D01*
X228854Y-6525768D01*
X228854Y-6516623D01*
X224281Y-6507734D01*
X210820Y-6503162D01*
X192531Y-6503162D01*
X762101Y-1688084D02*
G01*
X762101Y-1797050D01*
X762101Y-1688084D02*
G01*
X808837Y-1688084D01*
X824331Y-1693163D01*
X829665Y-1698497D01*
X834745Y-1708912D01*
X834745Y-1719326D01*
X829665Y-1729739D01*
X824331Y-1734820D01*
X808837Y-1739900D01*
X762101Y-1739900D01*
X798423Y-1739900D02*
G01*
X834745Y-1797050D01*
X936599Y-1724405D02*
G01*
X931265Y-1739900D01*
X921105Y-1750313D01*
X905357Y-1755647D01*
X900277Y-1755647D01*
X884529Y-1750313D01*
X874115Y-1739900D01*
X869035Y-1724405D01*
X869035Y-1719326D01*
X874115Y-1703578D01*
X884529Y-1693163D01*
X900277Y-1688084D01*
X905357Y-1688084D01*
X921105Y-1693163D01*
X931265Y-1703578D01*
X936599Y-1724405D01*
X936599Y-1750313D01*
X931265Y-1776476D01*
X921105Y-1791970D01*
X905357Y-1797050D01*
X894943Y-1797050D01*
X879449Y-1791970D01*
X874115Y-1781555D01*
X76200Y-6642862D02*
G01*
X76200Y-6738365D01*
X76200Y-6642862D02*
G01*
X117094Y-6642862D01*
X130810Y-6647434D01*
X135381Y-6652005D01*
X139954Y-6660895D01*
X139954Y-6670039D01*
X135381Y-6679184D01*
X130810Y-6683755D01*
X117094Y-6688328D01*
X76200Y-6688328D01*
X107950Y-6688328D02*
G01*
X139954Y-6738365D01*
X169926Y-6660895D02*
G01*
X178815Y-6656323D01*
X192531Y-6642862D01*
X192531Y-6738365D01*
X249936Y-6642862D02*
G01*
X236220Y-6647434D01*
X227076Y-6660895D01*
X222504Y-6683755D01*
X222504Y-6697218D01*
X227076Y-6720078D01*
X236220Y-6733794D01*
X249936Y-6738365D01*
X258826Y-6738365D01*
X272542Y-6733794D01*
X281686Y-6720078D01*
X286257Y-6697218D01*
X286257Y-6683755D01*
X281686Y-6660895D01*
X272542Y-6647434D01*
X258826Y-6642862D01*
X249936Y-6642862D01*
X50901Y-4329684D02*
G01*
X50901Y-4438650D01*
X50901Y-4329684D02*
G01*
X97637Y-4329684D01*
X113131Y-4334763D01*
X118465Y-4340097D01*
X123545Y-4350512D01*
X123545Y-4360926D01*
X118465Y-4371339D01*
X113131Y-4376420D01*
X97637Y-4381500D01*
X50901Y-4381500D01*
X87223Y-4381500D02*
G01*
X123545Y-4438650D01*
X157835Y-4350512D02*
G01*
X168249Y-4345178D01*
X183743Y-4329684D01*
X183743Y-4438650D01*
X228447Y-4329684D02*
G01*
X285597Y-4329684D01*
X254355Y-4371339D01*
X270103Y-4371339D01*
X280517Y-4376420D01*
X285597Y-4381500D01*
X290931Y-4397247D01*
X290931Y-4407662D01*
X285597Y-4423155D01*
X275183Y-4433570D01*
X259689Y-4438650D01*
X244195Y-4438650D01*
X228447Y-4433570D01*
X223367Y-4428489D01*
X218033Y-4418076D01*
X1397762Y-5422900D02*
G01*
X1493265Y-5422900D01*
X1397762Y-5422900D02*
G01*
X1397762Y-5382005D01*
X1402334Y-5368289D01*
X1406905Y-5363718D01*
X1415795Y-5359145D01*
X1424939Y-5359145D01*
X1434084Y-5363718D01*
X1438655Y-5368289D01*
X1443228Y-5382005D01*
X1443228Y-5422900D01*
X1443228Y-5391150D02*
G01*
X1493265Y-5359145D01*
X1415795Y-5329173D02*
G01*
X1411223Y-5320284D01*
X1397762Y-5306568D01*
X1493265Y-5306568D01*
X1397762Y-5231129D02*
G01*
X1461262Y-5276595D01*
X1461262Y-5208270D01*
X1397762Y-5231129D02*
G01*
X1493265Y-5231129D01*
X50901Y-4189984D02*
G01*
X50901Y-4298950D01*
X50901Y-4189984D02*
G01*
X97637Y-4189984D01*
X113131Y-4195063D01*
X118465Y-4200397D01*
X123545Y-4210812D01*
X123545Y-4221226D01*
X118465Y-4231639D01*
X113131Y-4236720D01*
X97637Y-4241800D01*
X50901Y-4241800D01*
X87223Y-4241800D02*
G01*
X123545Y-4298950D01*
X157835Y-4210812D02*
G01*
X168249Y-4205478D01*
X183743Y-4189984D01*
X183743Y-4298950D01*
X280517Y-4189984D02*
G01*
X228447Y-4189984D01*
X223367Y-4236720D01*
X228447Y-4231639D01*
X244195Y-4226305D01*
X259689Y-4226305D01*
X275183Y-4231639D01*
X285597Y-4241800D01*
X290931Y-4257547D01*
X290931Y-4267962D01*
X285597Y-4283455D01*
X275183Y-4293870D01*
X259689Y-4298950D01*
X244195Y-4298950D01*
X228447Y-4293870D01*
X223367Y-4288789D01*
X218033Y-4278376D01*
X2361184Y-1028700D02*
G01*
X2470150Y-1028700D01*
X2361184Y-1028700D02*
G01*
X2361184Y-981963D01*
X2366263Y-966470D01*
X2371597Y-961136D01*
X2382011Y-956055D01*
X2392425Y-956055D01*
X2402840Y-961136D01*
X2407920Y-966470D01*
X2413000Y-981963D01*
X2413000Y-1028700D01*
X2413000Y-992378D02*
G01*
X2470150Y-956055D01*
X2382011Y-921765D02*
G01*
X2376677Y-911352D01*
X2361184Y-895604D01*
X2470150Y-895604D01*
X2361184Y-835405D02*
G01*
X2366263Y-850900D01*
X2376677Y-856234D01*
X2387091Y-856234D01*
X2397506Y-850900D01*
X2402840Y-840739D01*
X2407920Y-819912D01*
X2413000Y-804163D01*
X2423413Y-793750D01*
X2433827Y-788670D01*
X2449575Y-788670D01*
X2459990Y-793750D01*
X2465070Y-799084D01*
X2470150Y-814578D01*
X2470150Y-835405D01*
X2465070Y-850900D01*
X2459990Y-856234D01*
X2449575Y-861313D01*
X2433827Y-861313D01*
X2423413Y-856234D01*
X2413000Y-845820D01*
X2407920Y-830326D01*
X2402840Y-809497D01*
X2397506Y-799084D01*
X2387091Y-793750D01*
X2376677Y-793750D01*
X2366263Y-799084D01*
X2361184Y-814578D01*
X2361184Y-835405D01*
X50800Y-3770884D02*
G01*
X50800Y-3879850D01*
X50800Y-3770884D02*
G01*
X97536Y-3770884D01*
X113029Y-3775963D01*
X118363Y-3781297D01*
X123444Y-3791712D01*
X123444Y-3802126D01*
X118363Y-3812539D01*
X113029Y-3817620D01*
X97536Y-3822700D01*
X50800Y-3822700D01*
X87121Y-3822700D02*
G01*
X123444Y-3879850D01*
X157734Y-3791712D02*
G01*
X168147Y-3786378D01*
X183895Y-3770884D01*
X183895Y-3879850D01*
X285750Y-3807205D02*
G01*
X280415Y-3822700D01*
X270002Y-3833113D01*
X254507Y-3838447D01*
X249173Y-3838447D01*
X233679Y-3833113D01*
X223265Y-3822700D01*
X218186Y-3807205D01*
X218186Y-3802126D01*
X223265Y-3786378D01*
X233679Y-3775963D01*
X249173Y-3770884D01*
X254507Y-3770884D01*
X270002Y-3775963D01*
X280415Y-3786378D01*
X285750Y-3807205D01*
X285750Y-3833113D01*
X280415Y-3859276D01*
X270002Y-3874770D01*
X254507Y-3879850D01*
X244094Y-3879850D01*
X228600Y-3874770D01*
X223265Y-3864355D01*
X50800Y-3618484D02*
G01*
X50800Y-3727450D01*
X50800Y-3618484D02*
G01*
X97536Y-3618484D01*
X113029Y-3623563D01*
X118363Y-3628897D01*
X123444Y-3639312D01*
X123444Y-3649726D01*
X118363Y-3660139D01*
X113029Y-3665220D01*
X97536Y-3670300D01*
X50800Y-3670300D01*
X87121Y-3670300D02*
G01*
X123444Y-3727450D01*
X163068Y-3644392D02*
G01*
X163068Y-3639312D01*
X168147Y-3628897D01*
X173481Y-3623563D01*
X183895Y-3618484D01*
X204470Y-3618484D01*
X214884Y-3623563D01*
X220218Y-3628897D01*
X225297Y-3639312D01*
X225297Y-3649726D01*
X220218Y-3660139D01*
X209804Y-3675634D01*
X157734Y-3727450D01*
X230631Y-3727450D01*
X295910Y-3618484D02*
G01*
X280415Y-3623563D01*
X270002Y-3639312D01*
X264921Y-3665220D01*
X264921Y-3680713D01*
X270002Y-3706876D01*
X280415Y-3722370D01*
X295910Y-3727450D01*
X306323Y-3727450D01*
X322071Y-3722370D01*
X332486Y-3706876D01*
X337565Y-3680713D01*
X337565Y-3665220D01*
X332486Y-3639312D01*
X322071Y-3623563D01*
X306323Y-3618484D01*
X295910Y-3618484D01*
X50800Y-2145284D02*
G01*
X50800Y-2254250D01*
X50800Y-2145284D02*
G01*
X97536Y-2145284D01*
X113029Y-2150363D01*
X118363Y-2155697D01*
X123444Y-2166112D01*
X123444Y-2176526D01*
X118363Y-2186939D01*
X113029Y-2192020D01*
X97536Y-2197100D01*
X50800Y-2197100D01*
X87121Y-2197100D02*
G01*
X123444Y-2254250D01*
X163068Y-2171192D02*
G01*
X163068Y-2166112D01*
X168147Y-2155697D01*
X173481Y-2150363D01*
X183895Y-2145284D01*
X204470Y-2145284D01*
X214884Y-2150363D01*
X220218Y-2155697D01*
X225297Y-2166112D01*
X225297Y-2176526D01*
X220218Y-2186939D01*
X209804Y-2202434D01*
X157734Y-2254250D01*
X230631Y-2254250D01*
X264921Y-2166112D02*
G01*
X275336Y-2160778D01*
X290829Y-2145284D01*
X290829Y-2254250D01*
X1409700Y-5118862D02*
G01*
X1409700Y-5214365D01*
X1409700Y-5118862D02*
G01*
X1450594Y-5118862D01*
X1464310Y-5123434D01*
X1468881Y-5128005D01*
X1473454Y-5136895D01*
X1473454Y-5146039D01*
X1468881Y-5155184D01*
X1464310Y-5159755D01*
X1450594Y-5164328D01*
X1409700Y-5164328D01*
X1441450Y-5164328D02*
G01*
X1473454Y-5214365D01*
X1507997Y-5141468D02*
G01*
X1507997Y-5136895D01*
X1512315Y-5128005D01*
X1516887Y-5123434D01*
X1526031Y-5118862D01*
X1544320Y-5118862D01*
X1553210Y-5123434D01*
X1557781Y-5128005D01*
X1562354Y-5136895D01*
X1562354Y-5146039D01*
X1557781Y-5155184D01*
X1548892Y-5168900D01*
X1503426Y-5214365D01*
X1566926Y-5214365D01*
X1601470Y-5141468D02*
G01*
X1601470Y-5136895D01*
X1606042Y-5128005D01*
X1610613Y-5123434D01*
X1619757Y-5118862D01*
X1637792Y-5118862D01*
X1646936Y-5123434D01*
X1651507Y-5128005D01*
X1656079Y-5136895D01*
X1656079Y-5146039D01*
X1651507Y-5155184D01*
X1642363Y-5168900D01*
X1596897Y-5214365D01*
X1660652Y-5214365D01*
X50800Y-2005584D02*
G01*
X50800Y-2114550D01*
X50800Y-2005584D02*
G01*
X97536Y-2005584D01*
X113029Y-2010663D01*
X118363Y-2015997D01*
X123444Y-2026412D01*
X123444Y-2036826D01*
X118363Y-2047239D01*
X113029Y-2052320D01*
X97536Y-2057400D01*
X50800Y-2057400D01*
X87121Y-2057400D02*
G01*
X123444Y-2114550D01*
X163068Y-2031492D02*
G01*
X163068Y-2026412D01*
X168147Y-2015997D01*
X173481Y-2010663D01*
X183895Y-2005584D01*
X204470Y-2005584D01*
X214884Y-2010663D01*
X220218Y-2015997D01*
X225297Y-2026412D01*
X225297Y-2036826D01*
X220218Y-2047239D01*
X209804Y-2062734D01*
X157734Y-2114550D01*
X230631Y-2114550D01*
X275336Y-2005584D02*
G01*
X332486Y-2005584D01*
X301244Y-2047239D01*
X316737Y-2047239D01*
X327152Y-2052320D01*
X332486Y-2057400D01*
X337565Y-2073147D01*
X337565Y-2083562D01*
X332486Y-2099055D01*
X322071Y-2109470D01*
X306323Y-2114550D01*
X290829Y-2114550D01*
X275336Y-2109470D01*
X270002Y-2104389D01*
X264921Y-2093976D01*
G36*
X1649780Y-5994400D02*
G01*
X1645259Y-5995009D01*
X1640941Y-5996432D01*
X1636928Y-5998565D01*
X1633372Y-6001410D01*
X1630375Y-6004864D01*
X1628089Y-6008725D01*
X1626463Y-6012992D01*
X1625650Y-6017463D01*
X1625650Y-6022035D01*
X1626463Y-6026505D01*
X1628089Y-6030772D01*
X1630375Y-6034684D01*
X1633372Y-6038088D01*
X1636928Y-6040932D01*
X1640941Y-6043066D01*
X1645259Y-6044488D01*
X1649780Y-6045149D01*
X1654302Y-6044946D01*
X1658721Y-6043930D01*
X1662938Y-6042152D01*
X1666748Y-6039662D01*
X1669999Y-6036564D01*
X1671472Y-6034786D01*
X1673809Y-6030874D01*
X1675434Y-6026607D01*
X1676247Y-6022136D01*
X1676349Y-6019647D01*
X1675942Y-6015126D01*
X1674723Y-6010706D01*
X1672691Y-6006642D01*
X1671472Y-6004763D01*
X1668424Y-6001308D01*
X1664868Y-5998514D01*
X1660855Y-5996381D01*
X1656537Y-5994958D01*
X1654302Y-5994552D01*
G37*
G36*
X2868980Y-1320850D02*
G01*
X2864510Y-1321460D01*
X2860192Y-1322882D01*
X2856179Y-1325016D01*
X2852623Y-1327861D01*
X2849626Y-1331315D01*
X2847289Y-1335176D01*
X2845714Y-1339443D01*
X2844901Y-1343914D01*
X2844901Y-1348486D01*
X2845714Y-1352956D01*
X2847289Y-1357223D01*
X2849626Y-1361135D01*
X2852623Y-1364538D01*
X2856179Y-1367383D01*
X2860192Y-1369517D01*
X2864510Y-1370939D01*
X2868980Y-1371600D01*
X2873552Y-1371396D01*
X2877972Y-1370380D01*
X2882138Y-1368602D01*
X2885948Y-1366113D01*
X2889250Y-1363014D01*
X2891942Y-1359306D01*
X2893923Y-1355242D01*
X2895142Y-1350873D01*
X2895600Y-1346352D01*
X2895498Y-1343812D01*
X2894634Y-1339342D01*
X2893009Y-1335074D01*
X2890672Y-1331214D01*
X2887675Y-1327759D01*
X2884119Y-1324965D01*
X2880106Y-1322832D01*
X2875788Y-1321409D01*
X2873552Y-1321003D01*
G37*
G36*
X605586Y-1612900D02*
G01*
X355600Y-1862886D01*
X508000Y-1862886D01*
X508000Y-1727200D01*
X520700Y-1714500D01*
X596900Y-1714500D01*
X605586Y-1705813D01*
G37*
D10*
X2058504Y-4607493D02*
G01*
X1878502Y-4607493D01*
X2058504Y-4722492D02*
G01*
X2058504Y-4802494D01*
X2058504Y-4917495D02*
G01*
X1878502Y-4917495D01*
X542289Y-965098D02*
G01*
X349605Y-965098D01*
X349605Y-635101D01*
X542289Y-635101D01*
X702310Y-635101D02*
G01*
X894994Y-635101D01*
X894994Y-965098D01*
X948334Y-965098D01*
X948334Y-635101D01*
X894994Y-635101D01*
X702310Y-965098D02*
G01*
X894994Y-965098D01*
X1041699Y-5613900D02*
G01*
X1041699Y-5993899D01*
X781710Y-5723902D02*
G01*
X1031646Y-5723902D01*
D16*
X901700Y-5766523D02*
G01*
X863600Y-5766523D01*
X863600Y-5842723D02*
G01*
X901700Y-5766523D01*
X901700Y-5842723D02*
G01*
X863600Y-5842723D01*
X901700Y-5766523D02*
G01*
X939800Y-5766523D01*
X939800Y-5842723D02*
G01*
X901700Y-5766523D01*
X901700Y-5842723D02*
G01*
X939800Y-5842723D01*
X901700Y-5868123D02*
G01*
X901700Y-5741123D01*
D10*
X761700Y-5613900D02*
G01*
X761700Y-5993899D01*
X1041699Y-5613900D02*
G01*
X1014813Y-5613900D01*
X788586Y-5613900D02*
G01*
X761700Y-5613900D01*
X1041699Y-5993899D02*
G01*
X1014813Y-5993899D01*
X788586Y-5993899D02*
G01*
X761700Y-5993899D01*
X2527599Y-5613900D02*
G01*
X2527599Y-5993899D01*
X2267610Y-5723902D02*
G01*
X2517546Y-5723902D01*
D16*
X2387600Y-5766523D02*
G01*
X2349500Y-5766523D01*
X2349500Y-5842723D02*
G01*
X2387600Y-5766523D01*
X2387600Y-5842723D02*
G01*
X2349500Y-5842723D01*
X2387600Y-5766523D02*
G01*
X2425700Y-5766523D01*
X2425700Y-5842723D02*
G01*
X2387600Y-5766523D01*
X2387600Y-5842723D02*
G01*
X2425700Y-5842723D01*
X2387600Y-5868123D02*
G01*
X2387600Y-5741123D01*
D10*
X2247600Y-5613900D02*
G01*
X2247600Y-5993899D01*
X2527599Y-5613900D02*
G01*
X2500713Y-5613900D01*
X2274486Y-5613900D02*
G01*
X2247600Y-5613900D01*
X2527599Y-5993899D02*
G01*
X2500713Y-5993899D01*
X2274486Y-5993899D02*
G01*
X2247600Y-5993899D01*
X1727499Y-4636000D02*
G01*
X1727499Y-5015999D01*
X1467510Y-4746002D02*
G01*
X1717446Y-4746002D01*
D16*
X1587500Y-4788623D02*
G01*
X1549400Y-4788623D01*
X1549400Y-4864823D02*
G01*
X1587500Y-4788623D01*
X1587500Y-4864823D02*
G01*
X1549400Y-4864823D01*
X1587500Y-4788623D02*
G01*
X1625600Y-4788623D01*
X1625600Y-4864823D02*
G01*
X1587500Y-4788623D01*
X1587500Y-4864823D02*
G01*
X1625600Y-4864823D01*
X1587500Y-4890223D02*
G01*
X1587500Y-4763223D01*
D10*
X1447500Y-4636000D02*
G01*
X1447500Y-5015999D01*
X1727499Y-4636000D02*
G01*
X1700613Y-4636000D01*
X1474386Y-4636000D02*
G01*
X1447500Y-4636000D01*
X1727499Y-5015999D02*
G01*
X1700613Y-5015999D01*
X1474386Y-5015999D02*
G01*
X1447500Y-5015999D01*
D16*
X683260Y-6019800D02*
G01*
X764539Y-6019800D01*
X764539Y-6096000D02*
G01*
X683260Y-6096000D01*
X2042159Y-6121400D02*
G01*
X2123440Y-6121400D01*
X2123440Y-6197600D02*
G01*
X2042159Y-6197600D01*
X1844039Y-6184900D02*
G01*
X1762760Y-6184900D01*
X1762760Y-6108700D02*
G01*
X1844039Y-6108700D01*
X2656840Y-6045200D02*
G01*
X2575559Y-6045200D01*
X2575559Y-5969000D02*
G01*
X2656840Y-5969000D01*
X1635760Y-6045200D02*
G01*
X1717039Y-6045200D01*
X1717039Y-6121400D02*
G01*
X1635760Y-6121400D01*
X2656840Y-6184900D02*
G01*
X2575559Y-6184900D01*
X2575559Y-6108700D02*
G01*
X2656840Y-6108700D01*
D10*
X2538887Y-3719230D02*
G01*
X2538887Y-4344228D01*
X843892Y-3719230D02*
G01*
X989009Y-3719319D01*
X2338771Y-3719319D02*
G01*
X2483891Y-3719230D01*
X788893Y-4344162D02*
G01*
X788893Y-3719230D01*
X2483891Y-4344228D02*
G01*
X843892Y-4344162D01*
D55*
X413257Y-3957320D02*
G01*
X349757Y-3957320D01*
X349757Y-4043679D01*
X403097Y-4043679D01*
X413257Y-4043679D01*
X451357Y-4043679D02*
G01*
X512318Y-4043679D01*
X512318Y-3957320D01*
X458978Y-3957320D01*
X451357Y-3957320D01*
X413257Y-4058920D02*
G01*
X349757Y-4058920D01*
X349757Y-4145279D01*
X403097Y-4145279D01*
X413257Y-4145279D01*
X451357Y-4145279D02*
G01*
X512318Y-4145279D01*
X512318Y-4058920D01*
X458978Y-4058920D01*
X451357Y-4058920D01*
D10*
X68579Y-5140960D02*
G01*
X68579Y-4688839D01*
X419100Y-4516120D02*
G01*
X817879Y-4516120D01*
X817879Y-4516120D02*
G01*
X817879Y-4599939D01*
X817879Y-4599939D02*
G01*
X568960Y-4599939D01*
X568960Y-4599939D02*
G01*
X568960Y-4739639D01*
X568960Y-5090160D02*
G01*
X568960Y-5229860D01*
X568960Y-5229860D02*
G01*
X817879Y-5229860D01*
X817879Y-5229860D02*
G01*
X817879Y-5313679D01*
X817879Y-5313679D02*
G01*
X419100Y-5313679D01*
D56*
X2272007Y-3046780D02*
G01*
X2096767Y-3046780D01*
X2096767Y-3150941D01*
X2272007Y-3354019D02*
G01*
X2096767Y-3354019D01*
X2096767Y-3249858D01*
X2272007Y-3154860D02*
G01*
X2272007Y-3245939D01*
X1550619Y-5739107D02*
G01*
X1550619Y-5563867D01*
X1446458Y-5563867D01*
X1243380Y-5739107D02*
G01*
X1243380Y-5563867D01*
X1347541Y-5563867D01*
X1442539Y-5739107D02*
G01*
X1351460Y-5739107D01*
X1550619Y-6031207D02*
G01*
X1550619Y-5855967D01*
X1446458Y-5855967D01*
X1243380Y-6031207D02*
G01*
X1243380Y-5855967D01*
X1347541Y-5855967D01*
X1442539Y-6031207D02*
G01*
X1351460Y-6031207D01*
X2448539Y-1604721D02*
G01*
X2448539Y-1700608D01*
X2580660Y-1700608D01*
X2580660Y-1604721D01*
X2448539Y-1519478D02*
G01*
X2448539Y-1423591D01*
X2580660Y-1423591D01*
X2580660Y-1519478D01*
X2733060Y-1494078D02*
G01*
X2733060Y-1398191D01*
X2600939Y-1398191D01*
X2600939Y-1494078D01*
X2733060Y-1579321D02*
G01*
X2733060Y-1675208D01*
X2600939Y-1675208D01*
X2600939Y-1579321D01*
D57*
X2032381Y-5565396D02*
G01*
X2032381Y-5525386D01*
X1992375Y-5525386D01*
X1602361Y-5565396D02*
G01*
X1602361Y-5525386D01*
X1642363Y-5525386D01*
X1642363Y-5955413D02*
G01*
X1602361Y-5955413D01*
X1602361Y-5915408D01*
X2032381Y-5915408D02*
G01*
X2032381Y-5955413D01*
X1992375Y-5955413D01*
D10*
X2336401Y-1690298D02*
G01*
X2336403Y-30294D01*
X2336403Y-570301D02*
G01*
X1016396Y-570301D01*
X1016396Y-30297D02*
G01*
X2336403Y-30297D01*
X1016398Y-1690298D02*
G01*
X1016396Y-30297D01*
X1016398Y-1690298D02*
G01*
X2336401Y-1690298D01*
D58*
X959799Y-5513798D02*
G01*
X1139799Y-5513798D01*
X1139799Y-5191800D02*
G01*
X894801Y-5191800D01*
D59*
X2832100Y-3467100D02*
G01*
X2832100Y-1943100D01*
X3340100Y-1943100D01*
X3340100Y-3467100D01*
X2832100Y-3467100D01*
D56*
X1410919Y-4862807D02*
G01*
X1410919Y-4687567D01*
X1306758Y-4687567D01*
X1103680Y-4862807D02*
G01*
X1103680Y-4687567D01*
X1207841Y-4687567D01*
X1302839Y-4862807D02*
G01*
X1211760Y-4862807D01*
X893521Y-1132860D02*
G01*
X989408Y-1132860D01*
X989408Y-1000739D01*
X893521Y-1000739D01*
X808278Y-1132860D02*
G01*
X712391Y-1132860D01*
X712391Y-1000739D01*
X808278Y-1000739D01*
X167660Y-1151178D02*
G01*
X167660Y-1055291D01*
X35539Y-1055291D01*
X35539Y-1151178D01*
X167660Y-1236421D02*
G01*
X167660Y-1332308D01*
X35539Y-1332308D01*
X35539Y-1236421D01*
D10*
X42900Y-5618203D02*
G01*
X42900Y-6218201D01*
X642899Y-5618200D02*
G01*
X642899Y-6218199D01*
X42890Y-6218212D02*
G01*
X642889Y-6218212D01*
X42890Y-5618213D02*
G01*
X642889Y-5618213D01*
X2722600Y-5618203D02*
G01*
X2722600Y-6218201D01*
X3322599Y-5618200D02*
G01*
X3322599Y-6218199D01*
X2722590Y-6218212D02*
G01*
X3322589Y-6218212D01*
X2722590Y-5618213D02*
G01*
X3322589Y-5618213D01*
D57*
X3251553Y-1267205D02*
G01*
X3251553Y-1307216D01*
X3211550Y-1307216D01*
X2861536Y-1307216D02*
G01*
X2821538Y-1307216D01*
X2821538Y-1267205D01*
X2821538Y-917199D02*
G01*
X2821538Y-877188D01*
X2861536Y-877188D01*
X3251553Y-917199D02*
G01*
X3251553Y-877188D01*
X3211550Y-877188D01*
D10*
X605604Y-1862904D02*
G01*
X105605Y-1862904D01*
X605604Y-1535943D02*
G01*
X605604Y-1689867D01*
X605604Y-1850931D02*
G01*
X605604Y-1862904D01*
X605604Y-1362905D02*
G01*
X605604Y-1374879D01*
X105605Y-1362905D02*
G01*
X605604Y-1362905D01*
X105605Y-1374879D02*
G01*
X105605Y-1362905D01*
X105605Y-1862904D02*
G01*
X105605Y-1850931D01*
X105605Y-1689867D02*
G01*
X105605Y-1535943D01*
D56*
X2754632Y-1010780D02*
G01*
X2754632Y-1326019D01*
X2579392Y-1010780D02*
G01*
X2579392Y-1326019D01*
D10*
X1231900Y-2336800D02*
G01*
X1231900Y-3531793D01*
X131902Y-3531793D01*
X131902Y-2336800D01*
X1231900Y-2336800D01*
X711141Y-6502242D02*
G01*
X711141Y-6467071D01*
X711141Y-6705300D02*
G01*
X711141Y-6668470D01*
X1450141Y-6502242D02*
G01*
X1450141Y-6462529D01*
X1450141Y-6678462D02*
G01*
X1450141Y-6668470D01*
X711141Y-6810341D02*
G01*
X711141Y-6829844D01*
X680643Y-6860341D01*
X1450141Y-6810341D02*
G01*
X1450141Y-6829844D01*
X1480639Y-6860341D01*
X680643Y-6860341D02*
G01*
X1480639Y-6860341D01*
X1450141Y-6810341D02*
G01*
X1450141Y-6678462D01*
X711141Y-6810341D02*
G01*
X711141Y-6678462D01*
X711141Y-6810341D02*
G01*
X1450141Y-6810341D01*
X1450139Y-6502234D02*
G01*
X1450139Y-6393464D01*
X711141Y-6502234D02*
G01*
X711141Y-6393461D01*
X1253754Y-6282748D02*
G01*
X1312524Y-6282748D01*
X848756Y-6282748D02*
G01*
X907526Y-6282748D01*
X1917641Y-6489542D02*
G01*
X1917641Y-6454371D01*
X1917641Y-6692600D02*
G01*
X1917641Y-6655770D01*
X2656641Y-6489542D02*
G01*
X2656641Y-6449829D01*
X2656641Y-6665762D02*
G01*
X2656641Y-6655770D01*
X1917641Y-6797641D02*
G01*
X1917641Y-6817144D01*
X1887143Y-6847641D01*
X2656641Y-6797641D02*
G01*
X2656641Y-6817144D01*
X2687139Y-6847641D01*
X1887143Y-6847641D02*
G01*
X2687139Y-6847641D01*
X2656641Y-6797641D02*
G01*
X2656641Y-6665762D01*
X1917641Y-6797641D02*
G01*
X1917641Y-6665762D01*
X1917641Y-6797641D02*
G01*
X2656641Y-6797641D01*
X2656639Y-6489534D02*
G01*
X2656639Y-6380764D01*
X1917641Y-6489534D02*
G01*
X1917641Y-6380761D01*
X2460254Y-6270048D02*
G01*
X2519024Y-6270048D01*
X2055256Y-6270048D02*
G01*
X2114026Y-6270048D01*
X1804098Y-5069177D02*
G01*
X1804098Y-4989174D01*
X1915073Y-5100162D02*
G01*
X1835076Y-5100162D01*
X1915073Y-4958196D02*
G01*
X1835076Y-4958196D01*
X1972663Y-5100744D02*
G01*
X2052662Y-5100744D01*
X2083645Y-5069761D02*
G01*
X2083645Y-4989763D01*
X1972663Y-4958783D02*
G01*
X2052662Y-4958783D01*
X1725322Y-6236398D02*
G01*
X1805325Y-6236398D01*
X1694337Y-6347373D02*
G01*
X1694337Y-6267376D01*
X1836303Y-6347373D02*
G01*
X1836303Y-6267376D01*
X1693755Y-6404963D02*
G01*
X1693755Y-6484962D01*
X1724738Y-6515945D02*
G01*
X1804736Y-6515945D01*
X1835716Y-6404963D02*
G01*
X1835716Y-6484962D01*
X1560222Y-6236398D02*
G01*
X1640225Y-6236398D01*
X1529237Y-6347373D02*
G01*
X1529237Y-6267376D01*
X1671203Y-6347373D02*
G01*
X1671203Y-6267376D01*
X1528655Y-6404963D02*
G01*
X1528655Y-6484962D01*
X1559638Y-6515945D02*
G01*
X1639636Y-6515945D01*
X1670616Y-6404963D02*
G01*
X1670616Y-6484962D01*
X2679001Y-645822D02*
G01*
X2679001Y-725825D01*
X2568026Y-614837D02*
G01*
X2648023Y-614837D01*
X2568026Y-756803D02*
G01*
X2648023Y-756803D01*
X2510436Y-614255D02*
G01*
X2430437Y-614255D01*
X2399454Y-645238D02*
G01*
X2399454Y-725236D01*
X2510436Y-756216D02*
G01*
X2430437Y-756216D01*
X685101Y-1026822D02*
G01*
X685101Y-1106825D01*
X574126Y-995837D02*
G01*
X654123Y-995837D01*
X574126Y-1137803D02*
G01*
X654123Y-1137803D01*
X516536Y-995255D02*
G01*
X436537Y-995255D01*
X405554Y-1026238D02*
G01*
X405554Y-1106236D01*
X516536Y-1137216D02*
G01*
X436537Y-1137216D01*
X977201Y-1357022D02*
G01*
X977201Y-1437025D01*
X866226Y-1326037D02*
G01*
X946223Y-1326037D01*
X866226Y-1468003D02*
G01*
X946223Y-1468003D01*
X808636Y-1325455D02*
G01*
X728637Y-1325455D01*
X697654Y-1356438D02*
G01*
X697654Y-1436436D01*
X808636Y-1467416D02*
G01*
X728637Y-1467416D01*
X2996501Y-645822D02*
G01*
X2996501Y-725825D01*
X2885526Y-614837D02*
G01*
X2965523Y-614837D01*
X2885526Y-756803D02*
G01*
X2965523Y-756803D01*
X2827936Y-614255D02*
G01*
X2747937Y-614255D01*
X2716954Y-645238D02*
G01*
X2716954Y-725236D01*
X2827936Y-756216D02*
G01*
X2747937Y-756216D01*
X3314001Y-645822D02*
G01*
X3314001Y-725825D01*
X3203026Y-614837D02*
G01*
X3283023Y-614837D01*
X3203026Y-756803D02*
G01*
X3283023Y-756803D01*
X3145436Y-614255D02*
G01*
X3065437Y-614255D01*
X3034454Y-645238D02*
G01*
X3034454Y-725236D01*
X3145436Y-756216D02*
G01*
X3065437Y-756216D01*
X3301301Y-1420522D02*
G01*
X3301301Y-1500525D01*
X3190326Y-1389537D02*
G01*
X3270323Y-1389537D01*
X3190326Y-1531503D02*
G01*
X3270323Y-1531503D01*
X3132736Y-1388955D02*
G01*
X3052737Y-1388955D01*
X3021754Y-1419938D02*
G01*
X3021754Y-1499936D01*
X3132736Y-1530916D02*
G01*
X3052737Y-1530916D01*
X1103022Y-5537898D02*
G01*
X1183025Y-5537898D01*
X1072037Y-5648873D02*
G01*
X1072037Y-5568876D01*
X1214003Y-5648873D02*
G01*
X1214003Y-5568876D01*
X1071455Y-5706463D02*
G01*
X1071455Y-5786462D01*
X1102438Y-5817445D02*
G01*
X1182436Y-5817445D01*
X1213416Y-5706463D02*
G01*
X1213416Y-5786462D01*
X2767901Y-861722D02*
G01*
X2767901Y-941725D01*
X2656926Y-830737D02*
G01*
X2736923Y-830737D01*
X2656926Y-972703D02*
G01*
X2736923Y-972703D01*
X2599336Y-830155D02*
G01*
X2519337Y-830155D01*
X2488354Y-861138D02*
G01*
X2488354Y-941136D01*
X2599336Y-972116D02*
G01*
X2519337Y-972116D01*
D56*
X2504460Y-3170478D02*
G01*
X2504460Y-3074591D01*
X2372339Y-3074591D01*
X2372339Y-3170478D01*
X2504460Y-3255721D02*
G01*
X2504460Y-3351608D01*
X2372339Y-3351608D01*
X2372339Y-3255721D01*
X300278Y-6334739D02*
G01*
X204391Y-6334739D01*
X204391Y-6466860D01*
X300278Y-6466860D01*
X385521Y-6334739D02*
G01*
X481408Y-6334739D01*
X481408Y-6466860D01*
X385521Y-6466860D01*
X2979978Y-6487139D02*
G01*
X2884091Y-6487139D01*
X2884091Y-6619260D01*
X2979978Y-6619260D01*
X3065221Y-6487139D02*
G01*
X3161108Y-6487139D01*
X3161108Y-6619260D01*
X3065221Y-6619260D01*
X2092939Y-5859221D02*
G01*
X2092939Y-5955108D01*
X2225060Y-5955108D01*
X2225060Y-5859221D01*
X2092939Y-5773978D02*
G01*
X2092939Y-5678091D01*
X2225060Y-5678091D01*
X2225060Y-5773978D01*
X2852978Y-1788139D02*
G01*
X2757091Y-1788139D01*
X2757091Y-1920260D01*
X2852978Y-1920260D01*
X2938221Y-1788139D02*
G01*
X3034108Y-1788139D01*
X3034108Y-1920260D01*
X2938221Y-1920260D01*
X1757121Y-5488960D02*
G01*
X1853008Y-5488960D01*
X1853008Y-5356839D01*
X1757121Y-5356839D01*
X1671878Y-5488960D02*
G01*
X1575991Y-5488960D01*
X1575991Y-5356839D01*
X1671878Y-5356839D01*
X439978Y-6487139D02*
G01*
X344091Y-6487139D01*
X344091Y-6619260D01*
X439978Y-6619260D01*
X525221Y-6487139D02*
G01*
X621108Y-6487139D01*
X621108Y-6619260D01*
X525221Y-6619260D01*
X880821Y-1666260D02*
G01*
X976708Y-1666260D01*
X976708Y-1534139D01*
X880821Y-1534139D01*
X795578Y-1666260D02*
G01*
X699691Y-1666260D01*
X699691Y-1534139D01*
X795578Y-1534139D01*
X439978Y-6639539D02*
G01*
X344091Y-6639539D01*
X344091Y-6771660D01*
X439978Y-6771660D01*
X525221Y-6639539D02*
G01*
X621108Y-6639539D01*
X621108Y-6771660D01*
X525221Y-6771660D01*
X1209060Y-5939078D02*
G01*
X1209060Y-5843191D01*
X1076939Y-5843191D01*
X1076939Y-5939078D01*
X1209060Y-6024321D02*
G01*
X1209060Y-6120208D01*
X1076939Y-6120208D01*
X1076939Y-6024321D01*
X537921Y-4460260D02*
G01*
X633808Y-4460260D01*
X633808Y-4328139D01*
X537921Y-4328139D01*
X452678Y-4460260D02*
G01*
X356791Y-4460260D01*
X356791Y-4328139D01*
X452678Y-4328139D01*
X1374160Y-5253278D02*
G01*
X1374160Y-5157391D01*
X1242039Y-5157391D01*
X1242039Y-5253278D01*
X1374160Y-5338521D02*
G01*
X1374160Y-5434408D01*
X1242039Y-5434408D01*
X1242039Y-5338521D01*
X537921Y-4307860D02*
G01*
X633808Y-4307860D01*
X633808Y-4175739D01*
X537921Y-4175739D01*
X452678Y-4307860D02*
G01*
X356791Y-4307860D01*
X356791Y-4175739D01*
X452678Y-4175739D01*
X2529860Y-1151178D02*
G01*
X2529860Y-1055291D01*
X2397739Y-1055291D01*
X2397739Y-1151178D01*
X2529860Y-1236421D02*
G01*
X2529860Y-1332308D01*
X2397739Y-1332308D01*
X2397739Y-1236421D01*
X537921Y-3888760D02*
G01*
X633808Y-3888760D01*
X633808Y-3756639D01*
X537921Y-3756639D01*
X452678Y-3888760D02*
G01*
X356791Y-3888760D01*
X356791Y-3756639D01*
X452678Y-3756639D01*
X537921Y-3736360D02*
G01*
X633808Y-3736360D01*
X633808Y-3604239D01*
X537921Y-3604239D01*
X452678Y-3736360D02*
G01*
X356791Y-3736360D01*
X356791Y-3604239D01*
X452678Y-3604239D01*
X452678Y-2143739D02*
G01*
X356791Y-2143739D01*
X356791Y-2275860D01*
X452678Y-2275860D01*
X537921Y-2143739D02*
G01*
X633808Y-2143739D01*
X633808Y-2275860D01*
X537921Y-2275860D01*
X1201978Y-5013939D02*
G01*
X1106091Y-5013939D01*
X1106091Y-5146060D01*
X1201978Y-5146060D01*
X1287221Y-5013939D02*
G01*
X1383108Y-5013939D01*
X1383108Y-5146060D01*
X1287221Y-5146060D01*
X452678Y-1978639D02*
G01*
X356791Y-1978639D01*
X356791Y-2110760D01*
X452678Y-2110760D01*
X537921Y-1978639D02*
G01*
X633808Y-1978639D01*
X633808Y-2110760D01*
X537921Y-2110760D01*
D10*
G75*
G01*
X2083651Y-5069761D02*
G02*
X2052668Y-5100744I-30983J0D01*
G75*
G01*
X2052668Y-4958778D02*
G02*
X2083651Y-4989764I0J-30983D01*
G75*
G01*
X1835081Y-5100163D02*
G02*
X1804099Y-5069177I0J30983D01*
G75*
G01*
X1804099Y-4989180D02*
G02*
X1835081Y-4958197I30982J0D01*
G75*
G01*
X1724739Y-6515951D02*
G02*
X1693756Y-6484968I0J30983D01*
G75*
G01*
X1835722Y-6484968D02*
G02*
X1804736Y-6515951I-30983J0D01*
G75*
G01*
X1694337Y-6267381D02*
G02*
X1725323Y-6236399I30983J0D01*
G75*
G01*
X1805320Y-6236399D02*
G02*
X1836303Y-6267381I0J-30982D01*
G75*
G01*
X1559639Y-6515951D02*
G02*
X1528656Y-6484968I0J30983D01*
G75*
G01*
X1670622Y-6484968D02*
G02*
X1639636Y-6515951I-30983J0D01*
G75*
G01*
X1529237Y-6267381D02*
G02*
X1560223Y-6236399I30983J0D01*
G75*
G01*
X1640220Y-6236399D02*
G02*
X1671203Y-6267381I0J-30982D01*
G75*
G01*
X2399449Y-645239D02*
G02*
X2430432Y-614256I30983J0D01*
G75*
G01*
X2430432Y-756222D02*
G02*
X2399449Y-725236I0J30983D01*
G75*
G01*
X2648019Y-614837D02*
G02*
X2679001Y-645823I0J-30983D01*
G75*
G01*
X2679001Y-725820D02*
G02*
X2648019Y-756803I-30982J0D01*
G75*
G01*
X405549Y-1026239D02*
G02*
X436532Y-995256I30983J0D01*
G75*
G01*
X436532Y-1137222D02*
G02*
X405549Y-1106236I0J30983D01*
G75*
G01*
X654119Y-995837D02*
G02*
X685101Y-1026823I0J-30983D01*
G75*
G01*
X685101Y-1106820D02*
G02*
X654119Y-1137803I-30982J0D01*
G75*
G01*
X697649Y-1356439D02*
G02*
X728632Y-1325456I30983J0D01*
G75*
G01*
X728632Y-1467422D02*
G02*
X697649Y-1436436I0J30983D01*
G75*
G01*
X946219Y-1326037D02*
G02*
X977201Y-1357023I0J-30983D01*
G75*
G01*
X977201Y-1437020D02*
G02*
X946219Y-1468003I-30982J0D01*
G75*
G01*
X2716949Y-645239D02*
G02*
X2747932Y-614256I30983J0D01*
G75*
G01*
X2747932Y-756222D02*
G02*
X2716949Y-725236I0J30983D01*
G75*
G01*
X2965519Y-614837D02*
G02*
X2996501Y-645823I0J-30983D01*
G75*
G01*
X2996501Y-725820D02*
G02*
X2965519Y-756803I-30982J0D01*
G75*
G01*
X3034449Y-645239D02*
G02*
X3065432Y-614256I30983J0D01*
G75*
G01*
X3065432Y-756222D02*
G02*
X3034449Y-725236I0J30983D01*
G75*
G01*
X3283019Y-614837D02*
G02*
X3314001Y-645823I0J-30983D01*
G75*
G01*
X3314001Y-725820D02*
G02*
X3283019Y-756803I-30982J0D01*
G75*
G01*
X3021749Y-1419939D02*
G02*
X3052732Y-1388956I30983J0D01*
G75*
G01*
X3052732Y-1530922D02*
G02*
X3021749Y-1499936I0J30983D01*
G75*
G01*
X3270319Y-1389537D02*
G02*
X3301301Y-1420523I0J-30983D01*
G75*
G01*
X3301301Y-1500520D02*
G02*
X3270319Y-1531503I-30982J0D01*
G75*
G01*
X1102439Y-5817451D02*
G02*
X1071456Y-5786468I0J30983D01*
G75*
G01*
X1213422Y-5786468D02*
G02*
X1182436Y-5817451I-30983J0D01*
G75*
G01*
X1072037Y-5568881D02*
G02*
X1103023Y-5537899I30983J0D01*
G75*
G01*
X1183020Y-5537899D02*
G02*
X1214003Y-5568881I0J-30982D01*
G75*
G01*
X2488349Y-861139D02*
G02*
X2519332Y-830156I30983J0D01*
G75*
G01*
X2519332Y-972122D02*
G02*
X2488349Y-941136I0J30983D01*
G75*
G01*
X2736919Y-830737D02*
G02*
X2767901Y-861723I0J-30983D01*
G75*
G01*
X2767901Y-941720D02*
G02*
X2736919Y-972703I-30982J0D01*
G75*
G01
X1828800Y-4597400D02*
G03X1828800Y-4597400I-12700J0D01*
D15*
G75*
G01
X2263902Y-4219245D02*
G03X2263902Y-4219245I-24994J0D01*
D10*
G75*
G01
X986409Y-730301D02*
G03X986409Y-730301I-10008J0D01*
G75*
G01
X518185Y-5927827D02*
G03X518185Y-5927827I-175006J0D01*
G75*
G01
X3197885Y-5927827D02*
G03X3197885Y-5927827I-175006J0D01*
G75*
G01
X665607Y-1862887D02*
G03X665607Y-1862887I-10008J0D01*
G75*
G01
X505562Y-1612900D02*
G03X505562Y-1612900I-150012J0D01*
D60*
G75*
G01
X2724480Y-970407D02*
G03X2724480Y-970407I-7493J0D01*
M02*
