G04 Layer: TopPasteMaskLayer*
G04 EasyEDA v6.4.32, 2022-03-05 12:23:48*
G04 1b2e3b3a17c3449da9e352887ce741fa,292cea30c40f4109b391fbfe46d023fa,10*
G04 Gerber Generator version 0.2*
G04 Scale: 100 percent, Rotated: No, Reflected: No *
G04 Dimensions in millimeters *
G04 leading zeros omitted , absolute positions ,4 integer and 5 decimal *
%FSLAX45Y45*%
%MOMM*%

%ADD18C,0.2800*%
%ADD20R,1.0000X0.6000*%
%ADD21R,1.8000X2.6000*%
%ADD22R,1.8000X1.6000*%
%ADD23R,0.5000X0.4000*%
%ADD24R,0.3000X1.3000*%
%ADD25R,2.0000X1.6000*%
%ADD26R,4.5999X1.0008*%
%ADD27R,3.4011X1.6002*%
%ADD29R,0.6000X1.0700*%
%ADD31R,2.7000X2.7000*%
%ADD32R,0.8000X0.4000*%
%ADD33R,0.4000X0.8000*%
%ADD38R,1.4000X2.2000*%
%ADD39R,1.5000X1.0000*%
%ADD40R,0.2800X0.5050*%
%ADD41R,1.2000X1.5000*%
%ADD42R,1.7500X0.7000*%
%ADD43R,1.5000X1.3000*%
%ADD44R,1.0000X1.4500*%
%ADD45R,1.5000X0.8000*%
%ADD46R,1.4000X0.8000*%
%ADD50R,0.8000X0.9000*%
%ADD51R,0.9000X0.8000*%

%LPD*%
G36*
X2474620Y-1596593D02*
G01*
X2469591Y-1601622D01*
X2469591Y-1681581D01*
X2474620Y-1686610D01*
X2554579Y-1686610D01*
X2559608Y-1681581D01*
X2559608Y-1601622D01*
X2554579Y-1596593D01*
X2531821Y-1596593D01*
X2531821Y-1633626D01*
X2498801Y-1633626D01*
X2498801Y-1596593D01*
G37*
G36*
X2474620Y-1437589D02*
G01*
X2469591Y-1442618D01*
X2469591Y-1521612D01*
X2474620Y-1526590D01*
X2498801Y-1526590D01*
X2498801Y-1488592D01*
X2531821Y-1488592D01*
X2531821Y-1526590D01*
X2554579Y-1526590D01*
X2559608Y-1521612D01*
X2559608Y-1442618D01*
X2554579Y-1437589D01*
G37*
G36*
X2627020Y-1412189D02*
G01*
X2621991Y-1417218D01*
X2621991Y-1497177D01*
X2627020Y-1502206D01*
X2649778Y-1502206D01*
X2649778Y-1465173D01*
X2682798Y-1465173D01*
X2682798Y-1502206D01*
X2706979Y-1502206D01*
X2712008Y-1497177D01*
X2712008Y-1417218D01*
X2706979Y-1412189D01*
G37*
G36*
X2627020Y-1572209D02*
G01*
X2621991Y-1577187D01*
X2621991Y-1656181D01*
X2627020Y-1661210D01*
X2706979Y-1661210D01*
X2712008Y-1656181D01*
X2712008Y-1577187D01*
X2706979Y-1572209D01*
X2682798Y-1572209D01*
X2682798Y-1610207D01*
X2649778Y-1610207D01*
X2649778Y-1572209D01*
G37*
G36*
X890422Y-1021791D02*
G01*
X885393Y-1026820D01*
X885393Y-1049578D01*
X922426Y-1049578D01*
X922426Y-1082598D01*
X885393Y-1082598D01*
X885393Y-1106779D01*
X890422Y-1111808D01*
X970381Y-1111808D01*
X975410Y-1106779D01*
X975410Y-1026820D01*
X970381Y-1021791D01*
G37*
G36*
X731418Y-1021791D02*
G01*
X726389Y-1026820D01*
X726389Y-1106779D01*
X731418Y-1111808D01*
X810412Y-1111808D01*
X815390Y-1106779D01*
X815390Y-1082598D01*
X777392Y-1082598D01*
X777392Y-1049578D01*
X815390Y-1049578D01*
X815390Y-1026820D01*
X810412Y-1021791D01*
G37*
G36*
X61620Y-1069289D02*
G01*
X56591Y-1074318D01*
X56591Y-1154277D01*
X61620Y-1159306D01*
X84378Y-1159306D01*
X84378Y-1122273D01*
X117398Y-1122273D01*
X117398Y-1159306D01*
X141579Y-1159306D01*
X146608Y-1154277D01*
X146608Y-1074318D01*
X141579Y-1069289D01*
G37*
G36*
X61620Y-1229309D02*
G01*
X56591Y-1234287D01*
X56591Y-1313281D01*
X61620Y-1318310D01*
X141579Y-1318310D01*
X146608Y-1313281D01*
X146608Y-1234287D01*
X141579Y-1229309D01*
X117398Y-1229309D01*
X117398Y-1267307D01*
X84378Y-1267307D01*
X84378Y-1229309D01*
G37*
G36*
X2398420Y-3088589D02*
G01*
X2393391Y-3093618D01*
X2393391Y-3173577D01*
X2398420Y-3178606D01*
X2421178Y-3178606D01*
X2421178Y-3141573D01*
X2454198Y-3141573D01*
X2454198Y-3178606D01*
X2478379Y-3178606D01*
X2483408Y-3173577D01*
X2483408Y-3093618D01*
X2478379Y-3088589D01*
G37*
G36*
X2398420Y-3248609D02*
G01*
X2393391Y-3253587D01*
X2393391Y-3332581D01*
X2398420Y-3337610D01*
X2478379Y-3337610D01*
X2483408Y-3332581D01*
X2483408Y-3253587D01*
X2478379Y-3248609D01*
X2454198Y-3248609D01*
X2454198Y-3286607D01*
X2421178Y-3286607D01*
X2421178Y-3248609D01*
G37*
G36*
X223418Y-6355791D02*
G01*
X218389Y-6360820D01*
X218389Y-6440779D01*
X223418Y-6445808D01*
X303377Y-6445808D01*
X308406Y-6440779D01*
X308406Y-6418021D01*
X271373Y-6418021D01*
X271373Y-6385001D01*
X308406Y-6385001D01*
X308406Y-6360820D01*
X303377Y-6355791D01*
G37*
G36*
X383387Y-6355791D02*
G01*
X378409Y-6360820D01*
X378409Y-6385001D01*
X416407Y-6385001D01*
X416407Y-6418021D01*
X378409Y-6418021D01*
X378409Y-6440779D01*
X383387Y-6445808D01*
X462381Y-6445808D01*
X467410Y-6440779D01*
X467410Y-6360820D01*
X462381Y-6355791D01*
G37*
G36*
X2903118Y-6508191D02*
G01*
X2898089Y-6513220D01*
X2898089Y-6593179D01*
X2903118Y-6598208D01*
X2983077Y-6598208D01*
X2988106Y-6593179D01*
X2988106Y-6570421D01*
X2951124Y-6570421D01*
X2951124Y-6537401D01*
X2988106Y-6537401D01*
X2988106Y-6513220D01*
X2983077Y-6508191D01*
G37*
G36*
X3063087Y-6508191D02*
G01*
X3058109Y-6513220D01*
X3058109Y-6537401D01*
X3096107Y-6537401D01*
X3096107Y-6570421D01*
X3058109Y-6570421D01*
X3058109Y-6593179D01*
X3063087Y-6598208D01*
X3142081Y-6598208D01*
X3147110Y-6593179D01*
X3147110Y-6513220D01*
X3142081Y-6508191D01*
G37*
G36*
X2119020Y-5851093D02*
G01*
X2113991Y-5856122D01*
X2113991Y-5936081D01*
X2119020Y-5941110D01*
X2198979Y-5941110D01*
X2204008Y-5936081D01*
X2204008Y-5856122D01*
X2198979Y-5851093D01*
X2176221Y-5851093D01*
X2176221Y-5888126D01*
X2143201Y-5888126D01*
X2143201Y-5851093D01*
G37*
G36*
X2119020Y-5692089D02*
G01*
X2113991Y-5697118D01*
X2113991Y-5776112D01*
X2119020Y-5781090D01*
X2143201Y-5781090D01*
X2143201Y-5743092D01*
X2176221Y-5743092D01*
X2176221Y-5781090D01*
X2198979Y-5781090D01*
X2204008Y-5776112D01*
X2204008Y-5697118D01*
X2198979Y-5692089D01*
G37*
G36*
X2776118Y-1809191D02*
G01*
X2771089Y-1814220D01*
X2771089Y-1894179D01*
X2776118Y-1899208D01*
X2856077Y-1899208D01*
X2861106Y-1894179D01*
X2861106Y-1871421D01*
X2824124Y-1871421D01*
X2824124Y-1838401D01*
X2861106Y-1838401D01*
X2861106Y-1814220D01*
X2856077Y-1809191D01*
G37*
G36*
X2936087Y-1809191D02*
G01*
X2931109Y-1814220D01*
X2931109Y-1838401D01*
X2969107Y-1838401D01*
X2969107Y-1871421D01*
X2931109Y-1871421D01*
X2931109Y-1894179D01*
X2936087Y-1899208D01*
X3015081Y-1899208D01*
X3020110Y-1894179D01*
X3020110Y-1814220D01*
X3015081Y-1809191D01*
G37*
G36*
X1754022Y-5377891D02*
G01*
X1748993Y-5382920D01*
X1748993Y-5405678D01*
X1786026Y-5405678D01*
X1786026Y-5438698D01*
X1748993Y-5438698D01*
X1748993Y-5462879D01*
X1754022Y-5467908D01*
X1833981Y-5467908D01*
X1839010Y-5462879D01*
X1839010Y-5382920D01*
X1833981Y-5377891D01*
G37*
G36*
X1595018Y-5377891D02*
G01*
X1589989Y-5382920D01*
X1589989Y-5462879D01*
X1595018Y-5467908D01*
X1674012Y-5467908D01*
X1678990Y-5462879D01*
X1678990Y-5438698D01*
X1640992Y-5438698D01*
X1640992Y-5405678D01*
X1678990Y-5405678D01*
X1678990Y-5382920D01*
X1674012Y-5377891D01*
G37*
G36*
X363118Y-6508191D02*
G01*
X358089Y-6513220D01*
X358089Y-6593179D01*
X363118Y-6598208D01*
X443077Y-6598208D01*
X448106Y-6593179D01*
X448106Y-6570421D01*
X411073Y-6570421D01*
X411073Y-6537401D01*
X448106Y-6537401D01*
X448106Y-6513220D01*
X443077Y-6508191D01*
G37*
G36*
X523087Y-6508191D02*
G01*
X518109Y-6513220D01*
X518109Y-6537401D01*
X556107Y-6537401D01*
X556107Y-6570421D01*
X518109Y-6570421D01*
X518109Y-6593179D01*
X523087Y-6598208D01*
X602081Y-6598208D01*
X607110Y-6593179D01*
X607110Y-6513220D01*
X602081Y-6508191D01*
G37*
G36*
X877722Y-1555191D02*
G01*
X872693Y-1560220D01*
X872693Y-1582978D01*
X909726Y-1582978D01*
X909726Y-1615998D01*
X872693Y-1615998D01*
X872693Y-1640179D01*
X877722Y-1645208D01*
X957681Y-1645208D01*
X962710Y-1640179D01*
X962710Y-1560220D01*
X957681Y-1555191D01*
G37*
G36*
X718718Y-1555191D02*
G01*
X713689Y-1560220D01*
X713689Y-1640179D01*
X718718Y-1645208D01*
X797712Y-1645208D01*
X802690Y-1640179D01*
X802690Y-1615998D01*
X764692Y-1615998D01*
X764692Y-1582978D01*
X802690Y-1582978D01*
X802690Y-1560220D01*
X797712Y-1555191D01*
G37*
G36*
X363118Y-6660591D02*
G01*
X358089Y-6665620D01*
X358089Y-6745579D01*
X363118Y-6750608D01*
X443077Y-6750608D01*
X448106Y-6745579D01*
X448106Y-6722821D01*
X411073Y-6722821D01*
X411073Y-6689801D01*
X448106Y-6689801D01*
X448106Y-6665620D01*
X443077Y-6660591D01*
G37*
G36*
X523087Y-6660591D02*
G01*
X518109Y-6665620D01*
X518109Y-6689801D01*
X556107Y-6689801D01*
X556107Y-6722821D01*
X518109Y-6722821D01*
X518109Y-6745579D01*
X523087Y-6750608D01*
X602081Y-6750608D01*
X607110Y-6745579D01*
X607110Y-6665620D01*
X602081Y-6660591D01*
G37*
G36*
X1103020Y-5857189D02*
G01*
X1097991Y-5862218D01*
X1097991Y-5942177D01*
X1103020Y-5947206D01*
X1125778Y-5947206D01*
X1125778Y-5910173D01*
X1158798Y-5910173D01*
X1158798Y-5947206D01*
X1182979Y-5947206D01*
X1188008Y-5942177D01*
X1188008Y-5862218D01*
X1182979Y-5857189D01*
G37*
G36*
X1103020Y-6017209D02*
G01*
X1097991Y-6022187D01*
X1097991Y-6101181D01*
X1103020Y-6106210D01*
X1182979Y-6106210D01*
X1188008Y-6101181D01*
X1188008Y-6022187D01*
X1182979Y-6017209D01*
X1158798Y-6017209D01*
X1158798Y-6055207D01*
X1125778Y-6055207D01*
X1125778Y-6017209D01*
G37*
G36*
X534822Y-4349191D02*
G01*
X529793Y-4354220D01*
X529793Y-4376978D01*
X566826Y-4376978D01*
X566826Y-4409998D01*
X529793Y-4409998D01*
X529793Y-4434179D01*
X534822Y-4439208D01*
X614781Y-4439208D01*
X619810Y-4434179D01*
X619810Y-4354220D01*
X614781Y-4349191D01*
G37*
G36*
X375818Y-4349191D02*
G01*
X370789Y-4354220D01*
X370789Y-4434179D01*
X375818Y-4439208D01*
X454812Y-4439208D01*
X459790Y-4434179D01*
X459790Y-4409998D01*
X421792Y-4409998D01*
X421792Y-4376978D01*
X459790Y-4376978D01*
X459790Y-4354220D01*
X454812Y-4349191D01*
G37*
G36*
X1268120Y-5171389D02*
G01*
X1263091Y-5176418D01*
X1263091Y-5256377D01*
X1268120Y-5261406D01*
X1290878Y-5261406D01*
X1290878Y-5224373D01*
X1323898Y-5224373D01*
X1323898Y-5261406D01*
X1348079Y-5261406D01*
X1353108Y-5256377D01*
X1353108Y-5176418D01*
X1348079Y-5171389D01*
G37*
G36*
X1268120Y-5331409D02*
G01*
X1263091Y-5336387D01*
X1263091Y-5415381D01*
X1268120Y-5420410D01*
X1348079Y-5420410D01*
X1353108Y-5415381D01*
X1353108Y-5336387D01*
X1348079Y-5331409D01*
X1323898Y-5331409D01*
X1323898Y-5369407D01*
X1290878Y-5369407D01*
X1290878Y-5331409D01*
G37*
G36*
X534822Y-4196791D02*
G01*
X529793Y-4201820D01*
X529793Y-4224578D01*
X566826Y-4224578D01*
X566826Y-4257598D01*
X529793Y-4257598D01*
X529793Y-4281779D01*
X534822Y-4286808D01*
X614781Y-4286808D01*
X619810Y-4281779D01*
X619810Y-4201820D01*
X614781Y-4196791D01*
G37*
G36*
X375818Y-4196791D02*
G01*
X370789Y-4201820D01*
X370789Y-4281779D01*
X375818Y-4286808D01*
X454812Y-4286808D01*
X459790Y-4281779D01*
X459790Y-4257598D01*
X421792Y-4257598D01*
X421792Y-4224578D01*
X459790Y-4224578D01*
X459790Y-4201820D01*
X454812Y-4196791D01*
G37*
G36*
X2423820Y-1069289D02*
G01*
X2418791Y-1074318D01*
X2418791Y-1154277D01*
X2423820Y-1159306D01*
X2446578Y-1159306D01*
X2446578Y-1122273D01*
X2479598Y-1122273D01*
X2479598Y-1159306D01*
X2503779Y-1159306D01*
X2508808Y-1154277D01*
X2508808Y-1074318D01*
X2503779Y-1069289D01*
G37*
G36*
X2423820Y-1229309D02*
G01*
X2418791Y-1234287D01*
X2418791Y-1313281D01*
X2423820Y-1318310D01*
X2503779Y-1318310D01*
X2508808Y-1313281D01*
X2508808Y-1234287D01*
X2503779Y-1229309D01*
X2479598Y-1229309D01*
X2479598Y-1267307D01*
X2446578Y-1267307D01*
X2446578Y-1229309D01*
G37*
G36*
X534822Y-3777691D02*
G01*
X529793Y-3782720D01*
X529793Y-3805478D01*
X566826Y-3805478D01*
X566826Y-3838498D01*
X529793Y-3838498D01*
X529793Y-3862679D01*
X534822Y-3867708D01*
X614781Y-3867708D01*
X619810Y-3862679D01*
X619810Y-3782720D01*
X614781Y-3777691D01*
G37*
G36*
X375818Y-3777691D02*
G01*
X370789Y-3782720D01*
X370789Y-3862679D01*
X375818Y-3867708D01*
X454812Y-3867708D01*
X459790Y-3862679D01*
X459790Y-3838498D01*
X421792Y-3838498D01*
X421792Y-3805478D01*
X459790Y-3805478D01*
X459790Y-3782720D01*
X454812Y-3777691D01*
G37*
G36*
X534822Y-3625291D02*
G01*
X529793Y-3630320D01*
X529793Y-3653078D01*
X566826Y-3653078D01*
X566826Y-3686098D01*
X529793Y-3686098D01*
X529793Y-3710279D01*
X534822Y-3715308D01*
X614781Y-3715308D01*
X619810Y-3710279D01*
X619810Y-3630320D01*
X614781Y-3625291D01*
G37*
G36*
X375818Y-3625291D02*
G01*
X370789Y-3630320D01*
X370789Y-3710279D01*
X375818Y-3715308D01*
X454812Y-3715308D01*
X459790Y-3710279D01*
X459790Y-3686098D01*
X421792Y-3686098D01*
X421792Y-3653078D01*
X459790Y-3653078D01*
X459790Y-3630320D01*
X454812Y-3625291D01*
G37*
G36*
X375818Y-2164791D02*
G01*
X370789Y-2169820D01*
X370789Y-2249779D01*
X375818Y-2254808D01*
X455777Y-2254808D01*
X460806Y-2249779D01*
X460806Y-2227021D01*
X423773Y-2227021D01*
X423773Y-2194001D01*
X460806Y-2194001D01*
X460806Y-2169820D01*
X455777Y-2164791D01*
G37*
G36*
X535787Y-2164791D02*
G01*
X530809Y-2169820D01*
X530809Y-2194001D01*
X568807Y-2194001D01*
X568807Y-2227021D01*
X530809Y-2227021D01*
X530809Y-2249779D01*
X535787Y-2254808D01*
X614781Y-2254808D01*
X619810Y-2249779D01*
X619810Y-2169820D01*
X614781Y-2164791D01*
G37*
G36*
X1125118Y-5034991D02*
G01*
X1120089Y-5040020D01*
X1120089Y-5119979D01*
X1125118Y-5125008D01*
X1205077Y-5125008D01*
X1210106Y-5119979D01*
X1210106Y-5097221D01*
X1173073Y-5097221D01*
X1173073Y-5064201D01*
X1210106Y-5064201D01*
X1210106Y-5040020D01*
X1205077Y-5034991D01*
G37*
G36*
X1285087Y-5034991D02*
G01*
X1280109Y-5040020D01*
X1280109Y-5064201D01*
X1318107Y-5064201D01*
X1318107Y-5097221D01*
X1280109Y-5097221D01*
X1280109Y-5119979D01*
X1285087Y-5125008D01*
X1364081Y-5125008D01*
X1369110Y-5119979D01*
X1369110Y-5040020D01*
X1364081Y-5034991D01*
G37*
G36*
X375818Y-1999691D02*
G01*
X370789Y-2004720D01*
X370789Y-2084679D01*
X375818Y-2089708D01*
X455777Y-2089708D01*
X460806Y-2084679D01*
X460806Y-2061921D01*
X423773Y-2061921D01*
X423773Y-2028901D01*
X460806Y-2028901D01*
X460806Y-2004720D01*
X455777Y-1999691D01*
G37*
G36*
X535787Y-1999691D02*
G01*
X530809Y-2004720D01*
X530809Y-2028901D01*
X568807Y-2028901D01*
X568807Y-2061921D01*
X530809Y-2061921D01*
X530809Y-2084679D01*
X535787Y-2089708D01*
X614781Y-2089708D01*
X619810Y-2084679D01*
X619810Y-2004720D01*
X614781Y-1999691D01*
G37*
D18*
X1691131Y-5966399D02*
G01*
X1691131Y-5914400D01*
X1741119Y-5966399D02*
G01*
X1741119Y-5914400D01*
X1791131Y-5966399D02*
G01*
X1791131Y-5914400D01*
X1841119Y-5966399D02*
G01*
X1841119Y-5914400D01*
X1891131Y-5966399D02*
G01*
X1891131Y-5914400D01*
X1941118Y-5966399D02*
G01*
X1941118Y-5914400D01*
X1990125Y-5865393D02*
G01*
X2042124Y-5865393D01*
X1990125Y-5815406D02*
G01*
X2042124Y-5815406D01*
X1990125Y-5765393D02*
G01*
X2042124Y-5765393D01*
X1990125Y-5715406D02*
G01*
X2042124Y-5715406D01*
X1990125Y-5665393D02*
G01*
X2042124Y-5665393D01*
X1990125Y-5615406D02*
G01*
X2042124Y-5615406D01*
X1941118Y-5566399D02*
G01*
X1941118Y-5514400D01*
X1891131Y-5566399D02*
G01*
X1891131Y-5514400D01*
X1841119Y-5566399D02*
G01*
X1841119Y-5514400D01*
X1791131Y-5566399D02*
G01*
X1791131Y-5514400D01*
X1741119Y-5566399D02*
G01*
X1741119Y-5514400D01*
X1691919Y-5566399D02*
G01*
X1691919Y-5514400D01*
X1590126Y-5615406D02*
G01*
X1642125Y-5615406D01*
X1590126Y-5665393D02*
G01*
X1642125Y-5665393D01*
X1590126Y-5715406D02*
G01*
X1642125Y-5715406D01*
X1590126Y-5765393D02*
G01*
X1642125Y-5765393D01*
X1590126Y-5815406D02*
G01*
X1642125Y-5815406D01*
X1590126Y-5865393D02*
G01*
X1642125Y-5865393D01*
X2910306Y-1266200D02*
G01*
X2910306Y-1318199D01*
X2960293Y-1266200D02*
G01*
X2960293Y-1318199D01*
X3010306Y-1266200D02*
G01*
X3010306Y-1318199D01*
X3060293Y-1266200D02*
G01*
X3060293Y-1318199D01*
X3110306Y-1266200D02*
G01*
X3110306Y-1318199D01*
X3160293Y-1266200D02*
G01*
X3160293Y-1318199D01*
X3209300Y-1217193D02*
G01*
X3261299Y-1217193D01*
X3209300Y-1167206D02*
G01*
X3261299Y-1167206D01*
X3209300Y-1117193D02*
G01*
X3261299Y-1117193D01*
X3209300Y-1067206D02*
G01*
X3261299Y-1067206D01*
X3209300Y-1017193D02*
G01*
X3261299Y-1017193D01*
X3209300Y-967206D02*
G01*
X3261299Y-967206D01*
X3160293Y-866200D02*
G01*
X3160293Y-918199D01*
X3110306Y-866200D02*
G01*
X3110306Y-918199D01*
X3060293Y-866200D02*
G01*
X3060293Y-918199D01*
X3010306Y-866200D02*
G01*
X3010306Y-918199D01*
X2960293Y-866200D02*
G01*
X2960293Y-918199D01*
X2911093Y-866200D02*
G01*
X2911093Y-918199D01*
X2809300Y-967206D02*
G01*
X2861299Y-967206D01*
X2809300Y-1017193D02*
G01*
X2861299Y-1017193D01*
X2809300Y-1067206D02*
G01*
X2861299Y-1067206D01*
X2809300Y-1117193D02*
G01*
X2861299Y-1117193D01*
X2809300Y-1167206D02*
G01*
X2861299Y-1167206D01*
X2809300Y-1217193D02*
G01*
X2861299Y-1217193D01*
D20*
G01*
X2098522Y-4667504D03*
G01*
X2098522Y-4857495D03*
G01*
X1838502Y-4857495D03*
G01*
X1838502Y-4762500D03*
G01*
X1838502Y-4667504D03*
D21*
G01*
X772413Y-800100D03*
G01*
X472186Y-800100D03*
D22*
G01*
X901700Y-5993892D03*
G01*
X901700Y-5613907D03*
G01*
X2387600Y-5993892D03*
G01*
X2387600Y-5613907D03*
G01*
X1587500Y-5015992D03*
G01*
X1587500Y-4636007D03*
D23*
G01*
X678179Y-6057900D03*
G01*
X769620Y-6057900D03*
G01*
X2037079Y-6159500D03*
G01*
X2128520Y-6159500D03*
G01*
X1849120Y-6146800D03*
G01*
X1757679Y-6146800D03*
G01*
X2661920Y-6007100D03*
G01*
X2570479Y-6007100D03*
G01*
X1630679Y-6083300D03*
G01*
X1722120Y-6083300D03*
G01*
X2661920Y-6146800D03*
G01*
X2570479Y-6146800D03*
D24*
G01*
X2238679Y-3734155D03*
G01*
X2188692Y-3734155D03*
G01*
X2138679Y-3734155D03*
G01*
X2088692Y-3734155D03*
G01*
X2038680Y-3734155D03*
G01*
X1988693Y-3734155D03*
G01*
X1938680Y-3734155D03*
G01*
X1888693Y-3734155D03*
G01*
X1838680Y-3734155D03*
G01*
X1788693Y-3734155D03*
G01*
X1738680Y-3734155D03*
G01*
X1688693Y-3734155D03*
G01*
X1638680Y-3734155D03*
G01*
X1588693Y-3734155D03*
G01*
X1538681Y-3734155D03*
G01*
X1488694Y-3734155D03*
G01*
X1438681Y-3734155D03*
G01*
X1388694Y-3734155D03*
G01*
X1338681Y-3734155D03*
G01*
X1288694Y-3734155D03*
G01*
X1238681Y-3734155D03*
G01*
X1188694Y-3734155D03*
G01*
X1138681Y-3734155D03*
G01*
X1088694Y-3734155D03*
D25*
G01*
X918895Y-4004310D03*
G01*
X2408885Y-4004310D03*
G36*
X359410Y-3967987D02*
G01*
X389381Y-3967987D01*
X439381Y-4033012D01*
X359410Y-4033012D01*
G37*
G36*
X503681Y-4033012D02*
G01*
X473710Y-4033012D01*
X423583Y-3967987D01*
X503681Y-3967987D01*
G37*
G36*
X359410Y-4069587D02*
G01*
X389381Y-4069587D01*
X439381Y-4134612D01*
X359410Y-4134612D01*
G37*
G36*
X503681Y-4134612D02*
G01*
X473710Y-4134612D01*
X423583Y-4069587D01*
X503681Y-4069587D01*
G37*
D26*
G01*
X739267Y-5013960D03*
G01*
X739267Y-4815839D03*
D27*
G01*
X218439Y-5255260D03*
G01*
X218439Y-4574539D03*
G36*
X2254399Y-3265396D02*
G01*
X2361399Y-3265396D01*
X2361399Y-3325395D01*
X2254399Y-3325395D01*
G37*
G36*
X2254399Y-3075404D02*
G01*
X2361399Y-3075404D01*
X2361399Y-3135403D01*
X2254399Y-3135403D01*
G37*
G36*
X2007400Y-3170400D02*
G01*
X2114400Y-3170400D01*
X2114400Y-3230399D01*
X2007400Y-3230399D01*
G37*
D29*
G01*
X1302004Y-5774994D03*
G01*
X1491995Y-5774994D03*
G01*
X1397000Y-5528005D03*
G01*
X1302004Y-6067094D03*
G01*
X1491995Y-6067094D03*
G01*
X1397000Y-5820105D03*
D31*
G01*
X1817370Y-5740400D03*
D32*
G01*
X1086408Y-730300D03*
G01*
X1086408Y-810310D03*
G01*
X1086408Y-890295D03*
G01*
X1086408Y-970305D03*
G01*
X1086408Y-1050289D03*
G01*
X1086408Y-1130300D03*
G01*
X1086408Y-1210310D03*
G01*
X1086408Y-1290294D03*
G01*
X1086408Y-1370304D03*
G01*
X1086408Y-1450289D03*
G01*
X1086408Y-1530299D03*
D33*
G01*
X1196390Y-1620291D03*
G01*
X1276400Y-1620291D03*
G01*
X1356410Y-1620291D03*
G01*
X1436395Y-1620291D03*
G01*
X1516405Y-1620291D03*
G01*
X1596389Y-1620291D03*
G01*
X1676400Y-1620291D03*
G01*
X1756410Y-1620291D03*
G01*
X1836394Y-1620291D03*
G01*
X1916404Y-1620291D03*
G01*
X1996389Y-1620291D03*
G01*
X2076399Y-1620291D03*
G01*
X2156409Y-1620291D03*
D32*
G01*
X2266391Y-1530299D03*
G01*
X2266391Y-1450289D03*
G01*
X2266391Y-1370304D03*
G01*
X2266391Y-1290294D03*
G01*
X2266391Y-1210310D03*
G01*
X2266391Y-1130300D03*
G01*
X2266391Y-1050289D03*
G01*
X2266391Y-970305D03*
G01*
X2266391Y-890295D03*
G01*
X2266391Y-810310D03*
G01*
X2266391Y-730300D03*
G36*
X2136399Y-600301D02*
G01*
X2176399Y-600301D01*
X2176399Y-680300D01*
X2136399Y-680300D01*
G37*
G36*
X2056399Y-600301D02*
G01*
X2096399Y-600301D01*
X2096399Y-680300D01*
X2056399Y-680300D01*
G37*
G36*
X1976399Y-600301D02*
G01*
X2016399Y-600301D01*
X2016399Y-680300D01*
X1976399Y-680300D01*
G37*
G36*
X1896399Y-600301D02*
G01*
X1936399Y-600301D01*
X1936399Y-680300D01*
X1896399Y-680300D01*
G37*
G36*
X1816399Y-600301D02*
G01*
X1856399Y-600301D01*
X1856399Y-680300D01*
X1816399Y-680300D01*
G37*
G36*
X1736399Y-600301D02*
G01*
X1776399Y-600301D01*
X1776399Y-680300D01*
X1736399Y-680300D01*
G37*
G36*
X1656400Y-600301D02*
G01*
X1696399Y-600301D01*
X1696399Y-680300D01*
X1656400Y-680300D01*
G37*
G36*
X1576400Y-600301D02*
G01*
X1616400Y-600301D01*
X1616400Y-680300D01*
X1576400Y-680300D01*
G37*
G36*
X1496400Y-600301D02*
G01*
X1536400Y-600301D01*
X1536400Y-680300D01*
X1496400Y-680300D01*
G37*
G36*
X1416400Y-600301D02*
G01*
X1456400Y-600301D01*
X1456400Y-680300D01*
X1416400Y-680300D01*
G37*
G36*
X1336400Y-600301D02*
G01*
X1376400Y-600301D01*
X1376400Y-680300D01*
X1336400Y-680300D01*
G37*
G36*
X1256400Y-600301D02*
G01*
X1296400Y-600301D01*
X1296400Y-680300D01*
X1256400Y-680300D01*
G37*
G36*
X1176401Y-600301D02*
G01*
X1216400Y-600301D01*
X1216400Y-680300D01*
X1176401Y-680300D01*
G37*
G36*
X1406400Y-860300D02*
G01*
X1946399Y-860300D01*
X1946399Y-1400299D01*
X1406400Y-1400299D01*
G37*
G36*
X2236398Y-600298D02*
G01*
X2306401Y-600298D01*
X2306401Y-670300D01*
X2236398Y-670300D01*
G37*
G36*
X2236398Y-1590299D02*
G01*
X2306401Y-1590299D01*
X2306401Y-1660301D01*
X2236398Y-1660301D01*
G37*
G36*
X1046398Y-1590299D02*
G01*
X1116401Y-1590299D01*
X1116401Y-1660301D01*
X1046398Y-1660301D01*
G37*
G36*
X1046398Y-600298D02*
G01*
X1116401Y-600298D01*
X1116401Y-670300D01*
X1046398Y-670300D01*
G37*
G36*
X886800Y-5225300D02*
G01*
X992799Y-5225300D01*
X992799Y-5290299D01*
X886800Y-5290299D01*
G37*
G36*
X886800Y-5320296D02*
G01*
X992799Y-5320296D01*
X992799Y-5385297D01*
X886800Y-5385297D01*
G37*
G36*
X886800Y-5415292D02*
G01*
X992799Y-5415292D01*
X992799Y-5480293D01*
X886800Y-5480293D01*
G37*
G36*
X1106789Y-5415292D02*
G01*
X1212789Y-5415292D01*
X1212789Y-5480293D01*
X1106789Y-5480293D01*
G37*
G36*
X1106789Y-5225300D02*
G01*
X1212789Y-5225300D01*
X1212789Y-5290299D01*
X1106789Y-5290299D01*
G37*
D29*
G01*
X1162304Y-4898694D03*
G01*
X1352295Y-4898694D03*
G01*
X1257300Y-4651705D03*
D38*
G01*
X567893Y-6358204D03*
G01*
X567893Y-5478195D03*
G01*
X117906Y-5478195D03*
G01*
X117906Y-6358204D03*
G01*
X3247593Y-6358204D03*
G01*
X3247593Y-5478195D03*
G01*
X2797606Y-5478195D03*
G01*
X2797606Y-6358204D03*
G36*
X2901543Y-957198D02*
G01*
X3171545Y-957198D01*
X3171545Y-1227201D01*
X2901543Y-1227201D01*
G37*
G36*
X525548Y-1397993D02*
G01*
X675662Y-1397993D01*
X675662Y-1497815D01*
X525548Y-1497815D01*
G37*
G36*
X525548Y-1727995D02*
G01*
X675662Y-1727995D01*
X675662Y-1827817D01*
X525548Y-1827817D01*
G37*
G36*
X35674Y-1727995D02*
G01*
X185534Y-1727995D01*
X185534Y-1827817D01*
X35674Y-1827817D01*
G37*
G36*
X35674Y-1397993D02*
G01*
X185534Y-1397993D01*
X185534Y-1497815D01*
X35674Y-1497815D01*
G37*
D40*
G01*
X2717012Y-1025652D03*
G01*
X2667025Y-1025652D03*
G01*
X2617012Y-1025652D03*
G01*
X2617012Y-1311147D03*
G01*
X2667025Y-1311147D03*
G01*
X2717012Y-1311147D03*
D41*
G01*
X2667025Y-1168400D03*
D42*
G01*
X127000Y-2489200D03*
G01*
X127000Y-2603500D03*
G01*
X127000Y-2717800D03*
G01*
X127000Y-2832100D03*
G01*
X127000Y-3289300D03*
G01*
X127000Y-3175000D03*
G01*
X127000Y-3060700D03*
G01*
X127000Y-2946400D03*
D43*
G01*
X139700Y-2362200D03*
G01*
X139700Y-3505200D03*
D39*
G01*
X1206500Y-3505200D03*
D44*
G01*
X1054100Y-2349500D03*
D45*
G01*
X901700Y-2336800D03*
D46*
G01*
X965200Y-3530600D03*
G36*
X1322882Y-6525356D02*
G01*
X1522882Y-6525356D01*
X1522882Y-6645356D01*
X1322882Y-6645356D01*
G37*
G36*
X636117Y-6525356D02*
G01*
X836117Y-6525356D01*
X836117Y-6645356D01*
X636117Y-6645356D01*
G37*
G36*
X930640Y-6250348D02*
G01*
X970640Y-6250348D01*
X970640Y-6385349D01*
X930640Y-6385349D01*
G37*
G36*
X995641Y-6250348D02*
G01*
X1035641Y-6250348D01*
X1035641Y-6385349D01*
X995641Y-6385349D01*
G37*
G36*
X1060640Y-6250348D02*
G01*
X1100640Y-6250348D01*
X1100640Y-6385349D01*
X1060640Y-6385349D01*
G37*
G36*
X1125641Y-6250348D02*
G01*
X1165641Y-6250348D01*
X1165641Y-6385349D01*
X1125641Y-6385349D01*
G37*
G36*
X1190640Y-6250348D02*
G01*
X1230640Y-6250348D01*
X1230640Y-6385349D01*
X1190640Y-6385349D01*
G37*
G36*
X675639Y-6267851D02*
G01*
X825642Y-6267851D01*
X825642Y-6387851D01*
X675639Y-6387851D01*
G37*
G36*
X1335638Y-6267853D02*
G01*
X1485640Y-6267853D01*
X1485640Y-6387853D01*
X1335638Y-6387853D01*
G37*
G36*
X2529382Y-6512656D02*
G01*
X2729382Y-6512656D01*
X2729382Y-6632656D01*
X2529382Y-6632656D01*
G37*
G36*
X1842617Y-6512656D02*
G01*
X2042617Y-6512656D01*
X2042617Y-6632656D01*
X1842617Y-6632656D01*
G37*
G36*
X2137140Y-6237648D02*
G01*
X2177140Y-6237648D01*
X2177140Y-6372649D01*
X2137140Y-6372649D01*
G37*
G36*
X2202141Y-6237648D02*
G01*
X2242141Y-6237648D01*
X2242141Y-6372649D01*
X2202141Y-6372649D01*
G37*
G36*
X2267140Y-6237648D02*
G01*
X2307140Y-6237648D01*
X2307140Y-6372649D01*
X2267140Y-6372649D01*
G37*
G36*
X2332141Y-6237648D02*
G01*
X2372141Y-6237648D01*
X2372141Y-6372649D01*
X2332141Y-6372649D01*
G37*
G36*
X2397140Y-6237648D02*
G01*
X2437140Y-6237648D01*
X2437140Y-6372649D01*
X2397140Y-6372649D01*
G37*
G36*
X1882139Y-6255151D02*
G01*
X2032142Y-6255151D01*
X2032142Y-6375151D01*
X1882139Y-6375151D01*
G37*
G36*
X2542138Y-6255153D02*
G01*
X2692140Y-6255153D01*
X2692140Y-6375153D01*
X2542138Y-6375153D01*
G37*
D50*
G01*
X1873097Y-5029200D03*
G01*
X2013102Y-5029200D03*
D51*
G01*
X1765300Y-6305397D03*
G01*
X1765300Y-6445402D03*
G01*
X1600200Y-6305397D03*
G01*
X1600200Y-6445402D03*
G36*
X2569999Y-640798D02*
G01*
X2649999Y-640798D01*
X2649999Y-730801D01*
X2569999Y-730801D01*
G37*
G36*
X2430000Y-640798D02*
G01*
X2510000Y-640798D01*
X2510000Y-730801D01*
X2430000Y-730801D01*
G37*
G36*
X576099Y-1021798D02*
G01*
X656099Y-1021798D01*
X656099Y-1111801D01*
X576099Y-1111801D01*
G37*
G36*
X436100Y-1021798D02*
G01*
X516100Y-1021798D01*
X516100Y-1111801D01*
X436100Y-1111801D01*
G37*
G36*
X868199Y-1351998D02*
G01*
X948199Y-1351998D01*
X948199Y-1442001D01*
X868199Y-1442001D01*
G37*
G36*
X728200Y-1351998D02*
G01*
X808200Y-1351998D01*
X808200Y-1442001D01*
X728200Y-1442001D01*
G37*
G36*
X2887499Y-640798D02*
G01*
X2967499Y-640798D01*
X2967499Y-730801D01*
X2887499Y-730801D01*
G37*
G36*
X2747500Y-640798D02*
G01*
X2827500Y-640798D01*
X2827500Y-730801D01*
X2747500Y-730801D01*
G37*
G36*
X3204999Y-640798D02*
G01*
X3284999Y-640798D01*
X3284999Y-730801D01*
X3204999Y-730801D01*
G37*
G36*
X3065000Y-640798D02*
G01*
X3145000Y-640798D01*
X3145000Y-730801D01*
X3065000Y-730801D01*
G37*
G36*
X3192299Y-1415498D02*
G01*
X3272299Y-1415498D01*
X3272299Y-1505501D01*
X3192299Y-1505501D01*
G37*
G36*
X3052300Y-1415498D02*
G01*
X3132300Y-1415498D01*
X3132300Y-1505501D01*
X3052300Y-1505501D01*
G37*
G01*
X1143000Y-5606897D03*
G01*
X1143000Y-5746902D03*
G36*
X2658899Y-856698D02*
G01*
X2738899Y-856698D01*
X2738899Y-946701D01*
X2658899Y-946701D01*
G37*
G36*
X2518900Y-856698D02*
G01*
X2598900Y-856698D01*
X2598900Y-946701D01*
X2518900Y-946701D01*
G37*
M02*
