G04 Layer: TopSolderMaskLayer*
G04 EasyEDA v6.4.32, 2022-03-05 12:23:48*
G04 1b2e3b3a17c3449da9e352887ce741fa,292cea30c40f4109b391fbfe46d023fa,10*
G04 Gerber Generator version 0.2*
G04 Scale: 100 percent, Rotated: No, Reflected: No *
G04 Dimensions in millimeters *
G04 leading zeros omitted , absolute positions ,4 integer and 5 decimal *
%FSLAX45Y45*%
%MOMM*%

%ADD61C,0.3816*%
%ADD62C,0.3800*%
%ADD68R,2.2032X1.8032*%
%ADD69R,4.8031X1.2040*%
%ADD80C,1.6764*%
%ADD81R,1.6764X1.6764*%
%ADD99C,2.2032*%

%LPD*%
D61*
X1691131Y-5966399D02*
G01*
X1691131Y-5914400D01*
X1741119Y-5966399D02*
G01*
X1741119Y-5914400D01*
X1791131Y-5966399D02*
G01*
X1791131Y-5914400D01*
X1841119Y-5966399D02*
G01*
X1841119Y-5914400D01*
X1891131Y-5966399D02*
G01*
X1891131Y-5914400D01*
X1941118Y-5966399D02*
G01*
X1941118Y-5914400D01*
X1990125Y-5865393D02*
G01*
X2042124Y-5865393D01*
X1990125Y-5815406D02*
G01*
X2042124Y-5815406D01*
X1990125Y-5765393D02*
G01*
X2042124Y-5765393D01*
X1990125Y-5715406D02*
G01*
X2042124Y-5715406D01*
X1990125Y-5665393D02*
G01*
X2042124Y-5665393D01*
X1990125Y-5615406D02*
G01*
X2042124Y-5615406D01*
X1941118Y-5566399D02*
G01*
X1941118Y-5514400D01*
X1891131Y-5566399D02*
G01*
X1891131Y-5514400D01*
X1841119Y-5566399D02*
G01*
X1841119Y-5514400D01*
X1791131Y-5566399D02*
G01*
X1791131Y-5514400D01*
X1741119Y-5566399D02*
G01*
X1741119Y-5514400D01*
X1691919Y-5566399D02*
G01*
X1691919Y-5514400D01*
X1590126Y-5615406D02*
G01*
X1642125Y-5615406D01*
X1590126Y-5665393D02*
G01*
X1642125Y-5665393D01*
X1590126Y-5715406D02*
G01*
X1642125Y-5715406D01*
X1590126Y-5765393D02*
G01*
X1642125Y-5765393D01*
X1590126Y-5815406D02*
G01*
X1642125Y-5815406D01*
X1590126Y-5865393D02*
G01*
X1642125Y-5865393D01*
D62*
X2910306Y-1266200D02*
G01*
X2910306Y-1318199D01*
X2960293Y-1266200D02*
G01*
X2960293Y-1318199D01*
X3010306Y-1266200D02*
G01*
X3010306Y-1318199D01*
X3060293Y-1266200D02*
G01*
X3060293Y-1318199D01*
X3110306Y-1266200D02*
G01*
X3110306Y-1318199D01*
X3160293Y-1266200D02*
G01*
X3160293Y-1318199D01*
X3209300Y-1217193D02*
G01*
X3261299Y-1217193D01*
X3209300Y-1167206D02*
G01*
X3261299Y-1167206D01*
X3209300Y-1117193D02*
G01*
X3261299Y-1117193D01*
X3209300Y-1067206D02*
G01*
X3261299Y-1067206D01*
X3209300Y-1017193D02*
G01*
X3261299Y-1017193D01*
X3209300Y-967206D02*
G01*
X3261299Y-967206D01*
X3160293Y-866200D02*
G01*
X3160293Y-918199D01*
X3110306Y-866200D02*
G01*
X3110306Y-918199D01*
X3060293Y-866200D02*
G01*
X3060293Y-918199D01*
X3010306Y-866200D02*
G01*
X3010306Y-918199D01*
X2960293Y-866200D02*
G01*
X2960293Y-918199D01*
X2911093Y-866200D02*
G01*
X2911093Y-918199D01*
X2809300Y-967206D02*
G01*
X2861299Y-967206D01*
X2809300Y-1017193D02*
G01*
X2861299Y-1017193D01*
X2809300Y-1067206D02*
G01*
X2861299Y-1067206D01*
X2809300Y-1117193D02*
G01*
X2861299Y-1117193D01*
X2809300Y-1167206D02*
G01*
X2861299Y-1167206D01*
X2809300Y-1217193D02*
G01*
X2861299Y-1217193D01*
G36*
X2043429Y-4702555D02*
G01*
X2043429Y-4632452D01*
X2153665Y-4632452D01*
X2153665Y-4702555D01*
G37*
G36*
X2043429Y-4892547D02*
G01*
X2043429Y-4822444D01*
X2153665Y-4822444D01*
X2153665Y-4892547D01*
G37*
G36*
X1783334Y-4892547D02*
G01*
X1783334Y-4822444D01*
X1893570Y-4822444D01*
X1893570Y-4892547D01*
G37*
G36*
X1783334Y-4797552D02*
G01*
X1783334Y-4727447D01*
X1893570Y-4727447D01*
X1893570Y-4797552D01*
G37*
G36*
X1783334Y-4702555D02*
G01*
X1783334Y-4632452D01*
X1893570Y-4632452D01*
X1893570Y-4702555D01*
G37*
G36*
X672337Y-940307D02*
G01*
X672337Y-659892D01*
X872489Y-659892D01*
X872489Y-940307D01*
G37*
G36*
X372110Y-940307D02*
G01*
X372110Y-659892D01*
X572262Y-659892D01*
X572262Y-940307D01*
G37*
G36*
X801623Y-6084062D02*
G01*
X801623Y-5903721D01*
X1001776Y-5903721D01*
X1001776Y-6084062D01*
G37*
G36*
X801623Y-5704078D02*
G01*
X801623Y-5523737D01*
X1001776Y-5523737D01*
X1001776Y-5704078D01*
G37*
G36*
X2287524Y-6084062D02*
G01*
X2287524Y-5903721D01*
X2487675Y-5903721D01*
X2487675Y-6084062D01*
G37*
G36*
X2287524Y-5704078D02*
G01*
X2287524Y-5523737D01*
X2487675Y-5523737D01*
X2487675Y-5704078D01*
G37*
G36*
X1487423Y-5106162D02*
G01*
X1487423Y-4925821D01*
X1687576Y-4925821D01*
X1687576Y-5106162D01*
G37*
G36*
X1487423Y-4726178D02*
G01*
X1487423Y-4545837D01*
X1687576Y-4545837D01*
X1687576Y-4726178D01*
G37*
G36*
X648207Y-6083045D02*
G01*
X648207Y-6032754D01*
X708152Y-6032754D01*
X708152Y-6083045D01*
G37*
G36*
X739647Y-6083045D02*
G01*
X739647Y-6032754D01*
X799592Y-6032754D01*
X799592Y-6083045D01*
G37*
G36*
X2007108Y-6184645D02*
G01*
X2007108Y-6134354D01*
X2067052Y-6134354D01*
X2067052Y-6184645D01*
G37*
G36*
X2098547Y-6184645D02*
G01*
X2098547Y-6134354D01*
X2158491Y-6134354D01*
X2158491Y-6184645D01*
G37*
G36*
X1819147Y-6171945D02*
G01*
X1819147Y-6121654D01*
X1879092Y-6121654D01*
X1879092Y-6171945D01*
G37*
G36*
X1727707Y-6171945D02*
G01*
X1727707Y-6121654D01*
X1787652Y-6121654D01*
X1787652Y-6171945D01*
G37*
G36*
X2631947Y-6032245D02*
G01*
X2631947Y-5981954D01*
X2691891Y-5981954D01*
X2691891Y-6032245D01*
G37*
G36*
X2540508Y-6032245D02*
G01*
X2540508Y-5981954D01*
X2600452Y-5981954D01*
X2600452Y-6032245D01*
G37*
G36*
X1600707Y-6108445D02*
G01*
X1600707Y-6058154D01*
X1660652Y-6058154D01*
X1660652Y-6108445D01*
G37*
G36*
X1692147Y-6108445D02*
G01*
X1692147Y-6058154D01*
X1752092Y-6058154D01*
X1752092Y-6108445D01*
G37*
G36*
X2631947Y-6171945D02*
G01*
X2631947Y-6121654D01*
X2691891Y-6121654D01*
X2691891Y-6171945D01*
G37*
G36*
X2540508Y-6171945D02*
G01*
X2540508Y-6121654D01*
X2600452Y-6121654D01*
X2600452Y-6171945D01*
G37*
G36*
X2213609Y-3809237D02*
G01*
X2213609Y-3658870D01*
X2263902Y-3658870D01*
X2263902Y-3809237D01*
G37*
G36*
X2163572Y-3809237D02*
G01*
X2163572Y-3658870D01*
X2213863Y-3658870D01*
X2213863Y-3809237D01*
G37*
G36*
X2113534Y-3809237D02*
G01*
X2113534Y-3658870D01*
X2163825Y-3658870D01*
X2163825Y-3809237D01*
G37*
G36*
X2063495Y-3809237D02*
G01*
X2063495Y-3658870D01*
X2113788Y-3658870D01*
X2113788Y-3809237D01*
G37*
G36*
X2013458Y-3809237D02*
G01*
X2013458Y-3658870D01*
X2063750Y-3658870D01*
X2063750Y-3809237D01*
G37*
G36*
X1963420Y-3809237D02*
G01*
X1963420Y-3658870D01*
X2013965Y-3658870D01*
X2013965Y-3809237D01*
G37*
G36*
X1913636Y-3809237D02*
G01*
X1913636Y-3658870D01*
X1963927Y-3658870D01*
X1963927Y-3809237D01*
G37*
G36*
X1863597Y-3809237D02*
G01*
X1863597Y-3658870D01*
X1913889Y-3658870D01*
X1913889Y-3809237D01*
G37*
G36*
X1813560Y-3809237D02*
G01*
X1813560Y-3658870D01*
X1863852Y-3658870D01*
X1863852Y-3809237D01*
G37*
G36*
X1763521Y-3809237D02*
G01*
X1763521Y-3658870D01*
X1813813Y-3658870D01*
X1813813Y-3809237D01*
G37*
G36*
X1713484Y-3809237D02*
G01*
X1713484Y-3658870D01*
X1763776Y-3658870D01*
X1763776Y-3809237D01*
G37*
G36*
X1663445Y-3809237D02*
G01*
X1663445Y-3658870D01*
X1713737Y-3658870D01*
X1713737Y-3809237D01*
G37*
G36*
X1613407Y-3809237D02*
G01*
X1613407Y-3658870D01*
X1663954Y-3658870D01*
X1663954Y-3809237D01*
G37*
G36*
X1563623Y-3809237D02*
G01*
X1563623Y-3658870D01*
X1613915Y-3658870D01*
X1613915Y-3809237D01*
G37*
G36*
X1513586Y-3809237D02*
G01*
X1513586Y-3658870D01*
X1563878Y-3658870D01*
X1563878Y-3809237D01*
G37*
G36*
X1463547Y-3809237D02*
G01*
X1463547Y-3658870D01*
X1513839Y-3658870D01*
X1513839Y-3809237D01*
G37*
G36*
X1413510Y-3809237D02*
G01*
X1413510Y-3658870D01*
X1463802Y-3658870D01*
X1463802Y-3809237D01*
G37*
G36*
X1363471Y-3809237D02*
G01*
X1363471Y-3658870D01*
X1413763Y-3658870D01*
X1413763Y-3809237D01*
G37*
G36*
X1313434Y-3809237D02*
G01*
X1313434Y-3658870D01*
X1363726Y-3658870D01*
X1363726Y-3809237D01*
G37*
G36*
X1263650Y-3809237D02*
G01*
X1263650Y-3658870D01*
X1313942Y-3658870D01*
X1313942Y-3809237D01*
G37*
G36*
X1213612Y-3809237D02*
G01*
X1213612Y-3658870D01*
X1263904Y-3658870D01*
X1263904Y-3809237D01*
G37*
G36*
X1163573Y-3809237D02*
G01*
X1163573Y-3658870D01*
X1213865Y-3658870D01*
X1213865Y-3809237D01*
G37*
G36*
X1113536Y-3809237D02*
G01*
X1113536Y-3658870D01*
X1163828Y-3658870D01*
X1163828Y-3809237D01*
G37*
G36*
X1063497Y-3809237D02*
G01*
X1063497Y-3658870D01*
X1113789Y-3658870D01*
X1113789Y-3809237D01*
G37*
D68*
G01*
X918895Y-4004310D03*
G01*
X2408885Y-4004310D03*
G36*
X349250Y-4043171D02*
G01*
X349250Y-3957828D01*
X394462Y-3957828D01*
X459994Y-4043171D01*
G37*
G36*
X468629Y-4043171D02*
G01*
X402844Y-3957828D01*
X513842Y-3957828D01*
X513842Y-4043171D01*
G37*
G36*
X349250Y-4144771D02*
G01*
X349250Y-4059428D01*
X394462Y-4059428D01*
X459994Y-4144771D01*
G37*
G36*
X468629Y-4144771D02*
G01*
X402844Y-4059428D01*
X513842Y-4059428D01*
X513842Y-4144771D01*
G37*
D69*
G01*
X739267Y-5013960D03*
G01*
X739267Y-4815839D03*
G36*
X38354Y-5345429D02*
G01*
X38354Y-5165089D01*
X398779Y-5165089D01*
X398779Y-5345429D01*
G37*
G36*
X38354Y-4664710D02*
G01*
X38354Y-4484370D01*
X398779Y-4484370D01*
X398779Y-4664710D01*
G37*
G36*
X2249424Y-3330447D02*
G01*
X2249424Y-3260344D01*
X2366518Y-3260344D01*
X2366518Y-3330447D01*
G37*
G36*
X2249424Y-3140455D02*
G01*
X2249424Y-3070352D01*
X2366518Y-3070352D01*
X2366518Y-3140455D01*
G37*
G36*
X2002281Y-3235452D02*
G01*
X2002281Y-3165347D01*
X2119375Y-3165347D01*
X2119375Y-3235452D01*
G37*
G36*
X1266952Y-5833618D02*
G01*
X1266952Y-5716523D01*
X1337055Y-5716523D01*
X1337055Y-5833618D01*
G37*
G36*
X1456944Y-5833618D02*
G01*
X1456944Y-5716523D01*
X1527047Y-5716523D01*
X1527047Y-5833618D01*
G37*
G36*
X1361947Y-5586476D02*
G01*
X1361947Y-5469381D01*
X1432052Y-5469381D01*
X1432052Y-5586476D01*
G37*
G36*
X1266952Y-6125718D02*
G01*
X1266952Y-6008623D01*
X1337055Y-6008623D01*
X1337055Y-6125718D01*
G37*
G36*
X1456944Y-6125718D02*
G01*
X1456944Y-6008623D01*
X1527047Y-6008623D01*
X1527047Y-6125718D01*
G37*
G36*
X1361947Y-5878576D02*
G01*
X1361947Y-5761481D01*
X1432052Y-5761481D01*
X1432052Y-5878576D01*
G37*
G36*
X2466340Y-1682750D02*
G01*
X2466340Y-1592071D01*
X2562859Y-1592071D01*
X2562859Y-1682750D01*
G37*
G36*
X2466340Y-1532128D02*
G01*
X2466340Y-1441450D01*
X2562859Y-1441450D01*
X2562859Y-1532128D01*
G37*
G36*
X2618740Y-1506728D02*
G01*
X2618740Y-1416050D01*
X2715259Y-1416050D01*
X2715259Y-1506728D01*
G37*
G36*
X2618740Y-1657350D02*
G01*
X2618740Y-1566671D01*
X2715259Y-1566671D01*
X2715259Y-1657350D01*
G37*
G36*
X1677415Y-5880607D02*
G01*
X1677415Y-5600445D01*
X1957577Y-5600445D01*
X1957577Y-5880607D01*
G37*
G36*
X1041400Y-755395D02*
G01*
X1041400Y-705357D01*
X1131315Y-705357D01*
X1131315Y-755395D01*
G37*
G36*
X1041400Y-835405D02*
G01*
X1041400Y-785368D01*
X1131315Y-785368D01*
X1131315Y-835405D01*
G37*
G36*
X1041400Y-915415D02*
G01*
X1041400Y-865378D01*
X1131315Y-865378D01*
X1131315Y-915415D01*
G37*
G36*
X1041400Y-995426D02*
G01*
X1041400Y-945387D01*
X1131315Y-945387D01*
X1131315Y-995426D01*
G37*
G36*
X1041400Y-1075181D02*
G01*
X1041400Y-1025397D01*
X1131315Y-1025397D01*
X1131315Y-1075181D01*
G37*
G36*
X1041400Y-1155192D02*
G01*
X1041400Y-1105407D01*
X1131315Y-1105407D01*
X1131315Y-1155192D01*
G37*
G36*
X1041400Y-1235202D02*
G01*
X1041400Y-1185418D01*
X1131315Y-1185418D01*
X1131315Y-1235202D01*
G37*
G36*
X1041400Y-1315212D02*
G01*
X1041400Y-1265173D01*
X1131315Y-1265173D01*
X1131315Y-1315212D01*
G37*
G36*
X1041400Y-1395221D02*
G01*
X1041400Y-1345184D01*
X1131315Y-1345184D01*
X1131315Y-1395221D01*
G37*
G36*
X1041400Y-1475231D02*
G01*
X1041400Y-1425194D01*
X1131315Y-1425194D01*
X1131315Y-1475231D01*
G37*
G36*
X1041400Y-1555242D02*
G01*
X1041400Y-1505204D01*
X1131315Y-1505204D01*
X1131315Y-1555242D01*
G37*
G36*
X1171447Y-1665223D02*
G01*
X1171447Y-1575307D01*
X1221486Y-1575307D01*
X1221486Y-1665223D01*
G37*
G36*
X1251457Y-1665223D02*
G01*
X1251457Y-1575307D01*
X1301495Y-1575307D01*
X1301495Y-1665223D01*
G37*
G36*
X1331468Y-1665223D02*
G01*
X1331468Y-1575307D01*
X1381505Y-1575307D01*
X1381505Y-1665223D01*
G37*
G36*
X1411478Y-1665223D02*
G01*
X1411478Y-1575307D01*
X1461515Y-1575307D01*
X1461515Y-1665223D01*
G37*
G36*
X1491487Y-1665223D02*
G01*
X1491487Y-1575307D01*
X1541526Y-1575307D01*
X1541526Y-1665223D01*
G37*
G36*
X1571497Y-1665223D02*
G01*
X1571497Y-1575307D01*
X1621281Y-1575307D01*
X1621281Y-1665223D01*
G37*
G36*
X1651507Y-1665223D02*
G01*
X1651507Y-1575307D01*
X1701292Y-1575307D01*
X1701292Y-1665223D01*
G37*
G36*
X1731518Y-1665223D02*
G01*
X1731518Y-1575307D01*
X1781302Y-1575307D01*
X1781302Y-1665223D01*
G37*
G36*
X1811273Y-1665223D02*
G01*
X1811273Y-1575307D01*
X1861312Y-1575307D01*
X1861312Y-1665223D01*
G37*
G36*
X1891284Y-1665223D02*
G01*
X1891284Y-1575307D01*
X1941322Y-1575307D01*
X1941322Y-1665223D01*
G37*
G36*
X1971293Y-1665223D02*
G01*
X1971293Y-1575307D01*
X2021331Y-1575307D01*
X2021331Y-1665223D01*
G37*
G36*
X2051304Y-1665223D02*
G01*
X2051304Y-1575307D01*
X2101341Y-1575307D01*
X2101341Y-1665223D01*
G37*
G36*
X2131313Y-1665223D02*
G01*
X2131313Y-1575307D01*
X2181352Y-1575307D01*
X2181352Y-1665223D01*
G37*
G36*
X2221484Y-1555242D02*
G01*
X2221484Y-1505204D01*
X2311400Y-1505204D01*
X2311400Y-1555242D01*
G37*
G36*
X2221484Y-1475231D02*
G01*
X2221484Y-1425194D01*
X2311400Y-1425194D01*
X2311400Y-1475231D01*
G37*
G36*
X2221484Y-1395221D02*
G01*
X2221484Y-1345184D01*
X2311400Y-1345184D01*
X2311400Y-1395221D01*
G37*
G36*
X2221484Y-1315212D02*
G01*
X2221484Y-1265173D01*
X2311400Y-1265173D01*
X2311400Y-1315212D01*
G37*
G36*
X2221484Y-1235202D02*
G01*
X2221484Y-1185418D01*
X2311400Y-1185418D01*
X2311400Y-1235202D01*
G37*
G36*
X2221484Y-1155192D02*
G01*
X2221484Y-1105407D01*
X2311400Y-1105407D01*
X2311400Y-1155192D01*
G37*
G36*
X2221484Y-1075181D02*
G01*
X2221484Y-1025397D01*
X2311400Y-1025397D01*
X2311400Y-1075181D01*
G37*
G36*
X2221484Y-995426D02*
G01*
X2221484Y-945387D01*
X2311400Y-945387D01*
X2311400Y-995426D01*
G37*
G36*
X2221484Y-915415D02*
G01*
X2221484Y-865378D01*
X2311400Y-865378D01*
X2311400Y-915415D01*
G37*
G36*
X2221484Y-835405D02*
G01*
X2221484Y-785368D01*
X2311400Y-785368D01*
X2311400Y-835405D01*
G37*
G36*
X2221484Y-755395D02*
G01*
X2221484Y-705357D01*
X2311400Y-705357D01*
X2311400Y-755395D01*
G37*
G36*
X2131313Y-685292D02*
G01*
X2131313Y-595376D01*
X2181352Y-595376D01*
X2181352Y-685292D01*
G37*
G36*
X2051304Y-685292D02*
G01*
X2051304Y-595376D01*
X2101341Y-595376D01*
X2101341Y-685292D01*
G37*
G36*
X1971293Y-685292D02*
G01*
X1971293Y-595376D01*
X2021331Y-595376D01*
X2021331Y-685292D01*
G37*
G36*
X1891284Y-685292D02*
G01*
X1891284Y-595376D01*
X1941322Y-595376D01*
X1941322Y-685292D01*
G37*
G36*
X1811273Y-685292D02*
G01*
X1811273Y-595376D01*
X1861312Y-595376D01*
X1861312Y-685292D01*
G37*
G36*
X1731518Y-685292D02*
G01*
X1731518Y-595376D01*
X1781302Y-595376D01*
X1781302Y-685292D01*
G37*
G36*
X1651507Y-685292D02*
G01*
X1651507Y-595376D01*
X1701292Y-595376D01*
X1701292Y-685292D01*
G37*
G36*
X1571497Y-685292D02*
G01*
X1571497Y-595376D01*
X1621281Y-595376D01*
X1621281Y-685292D01*
G37*
G36*
X1491487Y-685292D02*
G01*
X1491487Y-595376D01*
X1541526Y-595376D01*
X1541526Y-685292D01*
G37*
G36*
X1411478Y-685292D02*
G01*
X1411478Y-595376D01*
X1461515Y-595376D01*
X1461515Y-685292D01*
G37*
G36*
X1331468Y-685292D02*
G01*
X1331468Y-595376D01*
X1381505Y-595376D01*
X1381505Y-685292D01*
G37*
G36*
X1251457Y-685292D02*
G01*
X1251457Y-595376D01*
X1301495Y-595376D01*
X1301495Y-685292D01*
G37*
G36*
X1171447Y-685292D02*
G01*
X1171447Y-595376D01*
X1221486Y-595376D01*
X1221486Y-685292D01*
G37*
G36*
X1401318Y-1405381D02*
G01*
X1401318Y-855218D01*
X1951481Y-855218D01*
X1951481Y-1405381D01*
G37*
G36*
X2231390Y-675386D02*
G01*
X2231390Y-595376D01*
X2311400Y-595376D01*
X2311400Y-675386D01*
G37*
G36*
X2231390Y-1665223D02*
G01*
X2231390Y-1585213D01*
X2311400Y-1585213D01*
X2311400Y-1665223D01*
G37*
G36*
X1041400Y-1665223D02*
G01*
X1041400Y-1585213D01*
X1121410Y-1585213D01*
X1121410Y-1665223D01*
G37*
G36*
X1041400Y-675386D02*
G01*
X1041400Y-595376D01*
X1121410Y-595376D01*
X1121410Y-675386D01*
G37*
G36*
X876554Y-5300471D02*
G01*
X876554Y-5215128D01*
X1003045Y-5215128D01*
X1003045Y-5300471D01*
G37*
G36*
X876554Y-5395468D02*
G01*
X876554Y-5310123D01*
X1003045Y-5310123D01*
X1003045Y-5395468D01*
G37*
G36*
X876554Y-5490463D02*
G01*
X876554Y-5405120D01*
X1003045Y-5405120D01*
X1003045Y-5490463D01*
G37*
G36*
X1096518Y-5490463D02*
G01*
X1096518Y-5405120D01*
X1223010Y-5405120D01*
X1223010Y-5490463D01*
G37*
G36*
X1096518Y-5300471D02*
G01*
X1096518Y-5215128D01*
X1223010Y-5215128D01*
X1223010Y-5300471D01*
G37*
D80*
G01*
X2959100Y-2070100D03*
G01*
X3213100Y-2070100D03*
G01*
X2959100Y-2324100D03*
G01*
X3213100Y-2324100D03*
G01*
X2959100Y-2578100D03*
G01*
X3213100Y-2578100D03*
G01*
X2959100Y-2832100D03*
G01*
X3213100Y-2832100D03*
G01*
X2959100Y-3086100D03*
G01*
X3213100Y-3086100D03*
G01*
X2959100Y-3340100D03*
D81*
G01*
X3213100Y-3340100D03*
G36*
X1127252Y-4957318D02*
G01*
X1127252Y-4840223D01*
X1197355Y-4840223D01*
X1197355Y-4957318D01*
G37*
G36*
X1317244Y-4957318D02*
G01*
X1317244Y-4840223D01*
X1387347Y-4840223D01*
X1387347Y-4957318D01*
G37*
G36*
X1222247Y-4710176D02*
G01*
X1222247Y-4593081D01*
X1292352Y-4593081D01*
X1292352Y-4710176D01*
G37*
G36*
X880871Y-1115060D02*
G01*
X880871Y-1018539D01*
X971550Y-1018539D01*
X971550Y-1115060D01*
G37*
G36*
X730250Y-1115060D02*
G01*
X730250Y-1018539D01*
X820928Y-1018539D01*
X820928Y-1115060D01*
G37*
G36*
X53339Y-1163828D02*
G01*
X53339Y-1073150D01*
X149860Y-1073150D01*
X149860Y-1163828D01*
G37*
G36*
X53339Y-1314450D02*
G01*
X53339Y-1223771D01*
X149860Y-1223771D01*
X149860Y-1314450D01*
G37*
G36*
X487679Y-6478270D02*
G01*
X487679Y-6237986D01*
X647954Y-6237986D01*
X647954Y-6478270D01*
G37*
G36*
X487679Y-5598413D02*
G01*
X487679Y-5358129D01*
X647954Y-5358129D01*
X647954Y-5598413D01*
G37*
G36*
X37845Y-5598413D02*
G01*
X37845Y-5358129D01*
X198120Y-5358129D01*
X198120Y-5598413D01*
G37*
G36*
X37845Y-6478270D02*
G01*
X37845Y-6237986D01*
X198120Y-6237986D01*
X198120Y-6478270D01*
G37*
G36*
X3167379Y-6478270D02*
G01*
X3167379Y-6237986D01*
X3327654Y-6237986D01*
X3327654Y-6478270D01*
G37*
G36*
X3167379Y-5598413D02*
G01*
X3167379Y-5358129D01*
X3327654Y-5358129D01*
X3327654Y-5598413D01*
G37*
G36*
X2717545Y-5598413D02*
G01*
X2717545Y-5358129D01*
X2877820Y-5358129D01*
X2877820Y-5598413D01*
G37*
G36*
X2717545Y-6478270D02*
G01*
X2717545Y-6237986D01*
X2877820Y-6237986D01*
X2877820Y-6478270D01*
G37*
G36*
X2896615Y-1232154D02*
G01*
X2896615Y-952245D01*
X3176524Y-952245D01*
X3176524Y-1232154D01*
G37*
G36*
X520445Y-1502918D02*
G01*
X520445Y-1392936D01*
X680720Y-1392936D01*
X680720Y-1502918D01*
G37*
G36*
X520445Y-1832863D02*
G01*
X520445Y-1722881D01*
X680720Y-1722881D01*
X680720Y-1832863D01*
G37*
G36*
X30479Y-1832863D02*
G01*
X30479Y-1722881D01*
X190500Y-1722881D01*
X190500Y-1832863D01*
G37*
G36*
X30479Y-1502918D02*
G01*
X30479Y-1392936D01*
X190500Y-1392936D01*
X190500Y-1502918D01*
G37*
G36*
X2697988Y-1055878D02*
G01*
X2697988Y-995426D01*
X2736088Y-995426D01*
X2736088Y-1055878D01*
G37*
G36*
X2647950Y-1055878D02*
G01*
X2647950Y-995426D01*
X2686050Y-995426D01*
X2686050Y-1055878D01*
G37*
G36*
X2597911Y-1055878D02*
G01*
X2597911Y-995426D01*
X2636011Y-995426D01*
X2636011Y-1055878D01*
G37*
G36*
X2597911Y-1341373D02*
G01*
X2597911Y-1280921D01*
X2636011Y-1280921D01*
X2636011Y-1341373D01*
G37*
G36*
X2647950Y-1341373D02*
G01*
X2647950Y-1280921D01*
X2686050Y-1280921D01*
X2686050Y-1341373D01*
G37*
G36*
X2697988Y-1341373D02*
G01*
X2697988Y-1280921D01*
X2736088Y-1280921D01*
X2736088Y-1341373D01*
G37*
G36*
X2601975Y-1248410D02*
G01*
X2601975Y-1088389D01*
X2732024Y-1088389D01*
X2732024Y-1248410D01*
G37*
G36*
X29463Y-2534412D02*
G01*
X29463Y-2443987D01*
X224536Y-2443987D01*
X224536Y-2534412D01*
G37*
G36*
X29463Y-2648712D02*
G01*
X29463Y-2558287D01*
X224536Y-2558287D01*
X224536Y-2648712D01*
G37*
G36*
X29463Y-2763012D02*
G01*
X29463Y-2672587D01*
X224536Y-2672587D01*
X224536Y-2763012D01*
G37*
G36*
X29463Y-2877312D02*
G01*
X29463Y-2786887D01*
X224536Y-2786887D01*
X224536Y-2877312D01*
G37*
G36*
X29463Y-3334512D02*
G01*
X29463Y-3244087D01*
X224536Y-3244087D01*
X224536Y-3334512D01*
G37*
G36*
X29463Y-3220212D02*
G01*
X29463Y-3129787D01*
X224536Y-3129787D01*
X224536Y-3220212D01*
G37*
G36*
X29463Y-3105912D02*
G01*
X29463Y-3015487D01*
X224536Y-3015487D01*
X224536Y-3105912D01*
G37*
G36*
X29463Y-2991612D02*
G01*
X29463Y-2901187D01*
X224536Y-2901187D01*
X224536Y-2991612D01*
G37*
G36*
X54610Y-2437384D02*
G01*
X54610Y-2287015D01*
X224789Y-2287015D01*
X224789Y-2437384D01*
G37*
G36*
X54610Y-3580384D02*
G01*
X54610Y-3430015D01*
X224789Y-3430015D01*
X224789Y-3580384D01*
G37*
G36*
X1121410Y-3565397D02*
G01*
X1121410Y-3445002D01*
X1291589Y-3445002D01*
X1291589Y-3565397D01*
G37*
G36*
X993902Y-2432050D02*
G01*
X993902Y-2266950D01*
X1114297Y-2266950D01*
X1114297Y-2432050D01*
G37*
G36*
X816610Y-2386837D02*
G01*
X816610Y-2286762D01*
X986789Y-2286762D01*
X986789Y-2386837D01*
G37*
G36*
X884936Y-3580637D02*
G01*
X884936Y-3480562D01*
X1045463Y-3480562D01*
X1045463Y-3580637D01*
G37*
G36*
X1317752Y-6650481D02*
G01*
X1317752Y-6520179D01*
X1528063Y-6520179D01*
X1528063Y-6650481D01*
G37*
G36*
X630936Y-6650481D02*
G01*
X630936Y-6520179D01*
X841247Y-6520179D01*
X841247Y-6650481D01*
G37*
G36*
X925576Y-6390386D02*
G01*
X925576Y-6245352D01*
X975613Y-6245352D01*
X975613Y-6390386D01*
G37*
G36*
X990600Y-6390386D02*
G01*
X990600Y-6245352D01*
X1040637Y-6245352D01*
X1040637Y-6390386D01*
G37*
G36*
X1055623Y-6390386D02*
G01*
X1055623Y-6245352D01*
X1105662Y-6245352D01*
X1105662Y-6390386D01*
G37*
G36*
X1120647Y-6390386D02*
G01*
X1120647Y-6245352D01*
X1170686Y-6245352D01*
X1170686Y-6390386D01*
G37*
G36*
X1185671Y-6390386D02*
G01*
X1185671Y-6245352D01*
X1235710Y-6245352D01*
X1235710Y-6390386D01*
G37*
G36*
X670560Y-6392926D02*
G01*
X670560Y-6262878D01*
X830834Y-6262878D01*
X830834Y-6392926D01*
G37*
G36*
X1330452Y-6392926D02*
G01*
X1330452Y-6262878D01*
X1490726Y-6262878D01*
X1490726Y-6392926D01*
G37*
G36*
X2524252Y-6637781D02*
G01*
X2524252Y-6507479D01*
X2734563Y-6507479D01*
X2734563Y-6637781D01*
G37*
G36*
X1837436Y-6637781D02*
G01*
X1837436Y-6507479D01*
X2047747Y-6507479D01*
X2047747Y-6637781D01*
G37*
G36*
X2132075Y-6377686D02*
G01*
X2132075Y-6232652D01*
X2182113Y-6232652D01*
X2182113Y-6377686D01*
G37*
G36*
X2197100Y-6377686D02*
G01*
X2197100Y-6232652D01*
X2247138Y-6232652D01*
X2247138Y-6377686D01*
G37*
G36*
X2262124Y-6377686D02*
G01*
X2262124Y-6232652D01*
X2312161Y-6232652D01*
X2312161Y-6377686D01*
G37*
G36*
X2327147Y-6377686D02*
G01*
X2327147Y-6232652D01*
X2377186Y-6232652D01*
X2377186Y-6377686D01*
G37*
G36*
X2392172Y-6377686D02*
G01*
X2392172Y-6232652D01*
X2442209Y-6232652D01*
X2442209Y-6377686D01*
G37*
G36*
X1877060Y-6380226D02*
G01*
X1877060Y-6250178D01*
X2037334Y-6250178D01*
X2037334Y-6380226D01*
G37*
G36*
X2536952Y-6380226D02*
G01*
X2536952Y-6250178D01*
X2697225Y-6250178D01*
X2697225Y-6380226D01*
G37*
G36*
X1828037Y-5079237D02*
G01*
X1828037Y-4979162D01*
X1918207Y-4979162D01*
X1918207Y-5079237D01*
G37*
G36*
X1967991Y-5079237D02*
G01*
X1967991Y-4979162D01*
X2058161Y-4979162D01*
X2058161Y-5079237D01*
G37*
G36*
X1715262Y-6350507D02*
G01*
X1715262Y-6260337D01*
X1815337Y-6260337D01*
X1815337Y-6350507D01*
G37*
G36*
X1715262Y-6490462D02*
G01*
X1715262Y-6400292D01*
X1815337Y-6400292D01*
X1815337Y-6490462D01*
G37*
G36*
X1550162Y-6350507D02*
G01*
X1550162Y-6260337D01*
X1650237Y-6260337D01*
X1650237Y-6350507D01*
G37*
G36*
X1550162Y-6490462D02*
G01*
X1550162Y-6400292D01*
X1650237Y-6400292D01*
X1650237Y-6490462D01*
G37*
G36*
X2564891Y-735837D02*
G01*
X2564891Y-635762D01*
X2655061Y-635762D01*
X2655061Y-735837D01*
G37*
G36*
X2424938Y-735837D02*
G01*
X2424938Y-635762D01*
X2515108Y-635762D01*
X2515108Y-735837D01*
G37*
G36*
X570992Y-1116837D02*
G01*
X570992Y-1016762D01*
X661162Y-1016762D01*
X661162Y-1116837D01*
G37*
G36*
X431037Y-1116837D02*
G01*
X431037Y-1016762D01*
X521207Y-1016762D01*
X521207Y-1116837D01*
G37*
G36*
X863092Y-1447037D02*
G01*
X863092Y-1346962D01*
X953262Y-1346962D01*
X953262Y-1447037D01*
G37*
G36*
X723137Y-1447037D02*
G01*
X723137Y-1346962D01*
X813307Y-1346962D01*
X813307Y-1447037D01*
G37*
G36*
X2882391Y-735837D02*
G01*
X2882391Y-635762D01*
X2972561Y-635762D01*
X2972561Y-735837D01*
G37*
G36*
X2742438Y-735837D02*
G01*
X2742438Y-635762D01*
X2832608Y-635762D01*
X2832608Y-735837D01*
G37*
G36*
X3199891Y-735837D02*
G01*
X3199891Y-635762D01*
X3290061Y-635762D01*
X3290061Y-735837D01*
G37*
G36*
X3059938Y-735837D02*
G01*
X3059938Y-635762D01*
X3150108Y-635762D01*
X3150108Y-735837D01*
G37*
G36*
X3187191Y-1510537D02*
G01*
X3187191Y-1410462D01*
X3277361Y-1410462D01*
X3277361Y-1510537D01*
G37*
G36*
X3047238Y-1510537D02*
G01*
X3047238Y-1410462D01*
X3137408Y-1410462D01*
X3137408Y-1510537D01*
G37*
G36*
X1092962Y-5652007D02*
G01*
X1092962Y-5561837D01*
X1193037Y-5561837D01*
X1193037Y-5652007D01*
G37*
G36*
X1092962Y-5791962D02*
G01*
X1092962Y-5701792D01*
X1193037Y-5701792D01*
X1193037Y-5791962D01*
G37*
G36*
X2653791Y-951737D02*
G01*
X2653791Y-851662D01*
X2743961Y-851662D01*
X2743961Y-951737D01*
G37*
G36*
X2513838Y-951737D02*
G01*
X2513838Y-851662D01*
X2604008Y-851662D01*
X2604008Y-951737D01*
G37*
G36*
X2390140Y-3183128D02*
G01*
X2390140Y-3092450D01*
X2486659Y-3092450D01*
X2486659Y-3183128D01*
G37*
G36*
X2390140Y-3333750D02*
G01*
X2390140Y-3243071D01*
X2486659Y-3243071D01*
X2486659Y-3333750D01*
G37*
G36*
X222250Y-6449060D02*
G01*
X222250Y-6352539D01*
X312928Y-6352539D01*
X312928Y-6449060D01*
G37*
G36*
X372871Y-6449060D02*
G01*
X372871Y-6352539D01*
X463550Y-6352539D01*
X463550Y-6449060D01*
G37*
G36*
X2901950Y-6601460D02*
G01*
X2901950Y-6504939D01*
X2992627Y-6504939D01*
X2992627Y-6601460D01*
G37*
G36*
X3052572Y-6601460D02*
G01*
X3052572Y-6504939D01*
X3143250Y-6504939D01*
X3143250Y-6601460D01*
G37*
G36*
X2110740Y-5937250D02*
G01*
X2110740Y-5846571D01*
X2207259Y-5846571D01*
X2207259Y-5937250D01*
G37*
G36*
X2110740Y-5786628D02*
G01*
X2110740Y-5695950D01*
X2207259Y-5695950D01*
X2207259Y-5786628D01*
G37*
G36*
X2774950Y-1902460D02*
G01*
X2774950Y-1805939D01*
X2865627Y-1805939D01*
X2865627Y-1902460D01*
G37*
G36*
X2925572Y-1902460D02*
G01*
X2925572Y-1805939D01*
X3016250Y-1805939D01*
X3016250Y-1902460D01*
G37*
G36*
X1744471Y-5471160D02*
G01*
X1744471Y-5374639D01*
X1835150Y-5374639D01*
X1835150Y-5471160D01*
G37*
G36*
X1593850Y-5471160D02*
G01*
X1593850Y-5374639D01*
X1684528Y-5374639D01*
X1684528Y-5471160D01*
G37*
G36*
X361950Y-6601460D02*
G01*
X361950Y-6504939D01*
X452628Y-6504939D01*
X452628Y-6601460D01*
G37*
G36*
X512571Y-6601460D02*
G01*
X512571Y-6504939D01*
X603250Y-6504939D01*
X603250Y-6601460D01*
G37*
G36*
X868171Y-1648460D02*
G01*
X868171Y-1551939D01*
X958850Y-1551939D01*
X958850Y-1648460D01*
G37*
G36*
X717550Y-1648460D02*
G01*
X717550Y-1551939D01*
X808228Y-1551939D01*
X808228Y-1648460D01*
G37*
G36*
X361950Y-6753860D02*
G01*
X361950Y-6657339D01*
X452628Y-6657339D01*
X452628Y-6753860D01*
G37*
G36*
X512571Y-6753860D02*
G01*
X512571Y-6657339D01*
X603250Y-6657339D01*
X603250Y-6753860D01*
G37*
G36*
X1094739Y-5951728D02*
G01*
X1094739Y-5861050D01*
X1191260Y-5861050D01*
X1191260Y-5951728D01*
G37*
G36*
X1094739Y-6102350D02*
G01*
X1094739Y-6011671D01*
X1191260Y-6011671D01*
X1191260Y-6102350D01*
G37*
G36*
X525271Y-4442460D02*
G01*
X525271Y-4345939D01*
X615950Y-4345939D01*
X615950Y-4442460D01*
G37*
G36*
X374650Y-4442460D02*
G01*
X374650Y-4345939D01*
X465328Y-4345939D01*
X465328Y-4442460D01*
G37*
G36*
X1259839Y-5265928D02*
G01*
X1259839Y-5175250D01*
X1356360Y-5175250D01*
X1356360Y-5265928D01*
G37*
G36*
X1259839Y-5416550D02*
G01*
X1259839Y-5325871D01*
X1356360Y-5325871D01*
X1356360Y-5416550D01*
G37*
G36*
X525271Y-4290060D02*
G01*
X525271Y-4193539D01*
X615950Y-4193539D01*
X615950Y-4290060D01*
G37*
G36*
X374650Y-4290060D02*
G01*
X374650Y-4193539D01*
X465328Y-4193539D01*
X465328Y-4290060D01*
G37*
G36*
X2415540Y-1163828D02*
G01*
X2415540Y-1073150D01*
X2512059Y-1073150D01*
X2512059Y-1163828D01*
G37*
G36*
X2415540Y-1314450D02*
G01*
X2415540Y-1223771D01*
X2512059Y-1223771D01*
X2512059Y-1314450D01*
G37*
G36*
X525271Y-3870960D02*
G01*
X525271Y-3774439D01*
X615950Y-3774439D01*
X615950Y-3870960D01*
G37*
G36*
X374650Y-3870960D02*
G01*
X374650Y-3774439D01*
X465328Y-3774439D01*
X465328Y-3870960D01*
G37*
G36*
X525271Y-3718560D02*
G01*
X525271Y-3622039D01*
X615950Y-3622039D01*
X615950Y-3718560D01*
G37*
G36*
X374650Y-3718560D02*
G01*
X374650Y-3622039D01*
X465328Y-3622039D01*
X465328Y-3718560D01*
G37*
G36*
X374650Y-2258060D02*
G01*
X374650Y-2161539D01*
X465328Y-2161539D01*
X465328Y-2258060D01*
G37*
G36*
X525271Y-2258060D02*
G01*
X525271Y-2161539D01*
X615950Y-2161539D01*
X615950Y-2258060D01*
G37*
G36*
X1123950Y-5128260D02*
G01*
X1123950Y-5031739D01*
X1214628Y-5031739D01*
X1214628Y-5128260D01*
G37*
G36*
X1274571Y-5128260D02*
G01*
X1274571Y-5031739D01*
X1365250Y-5031739D01*
X1365250Y-5128260D01*
G37*
G36*
X374650Y-2092960D02*
G01*
X374650Y-1996439D01*
X465328Y-1996439D01*
X465328Y-2092960D01*
G37*
G36*
X525271Y-2092960D02*
G01*
X525271Y-1996439D01*
X615950Y-1996439D01*
X615950Y-2092960D01*
G37*
D99*
G01*
X673100Y-5105400D03*
G01*
X708660Y-4747260D03*
M02*
