G04 Layer: BottomSilkscreenLayer*
G04 EasyEDA v6.4.32, 2022-03-05 12:23:48*
G04 1b2e3b3a17c3449da9e352887ce741fa,292cea30c40f4109b391fbfe46d023fa,10*
G04 Gerber Generator version 0.2*
G04 Scale: 100 percent, Rotated: No, Reflected: No *
G04 Dimensions in millimeters *
G04 leading zeros omitted , absolute positions ,4 integer and 5 decimal *
%FSLAX45Y45*%
%MOMM*%

%ADD10C,0.2540*%
%ADD59C,0.2032*%

%LPD*%
D59*
X333453Y-1816371D02*
G01*
X315272Y-1798190D01*
X306181Y-1770918D01*
X306181Y-1734553D01*
X315272Y-1707281D01*
X333453Y-1689100D01*
X351637Y-1689100D01*
X369818Y-1698190D01*
X378909Y-1707281D01*
X388000Y-1725462D01*
X406181Y-1780009D01*
X415272Y-1798190D01*
X424362Y-1807281D01*
X442544Y-1816371D01*
X469818Y-1816371D01*
X488000Y-1798190D01*
X497090Y-1770918D01*
X497090Y-1734553D01*
X488000Y-1707281D01*
X469818Y-1689100D01*
X306181Y-1876371D02*
G01*
X497090Y-1921827D01*
X306181Y-1967280D02*
G01*
X497090Y-1921827D01*
X306181Y-1967280D02*
G01*
X497090Y-2012736D01*
X306181Y-2058189D02*
G01*
X497090Y-2012736D01*
X306181Y-2118189D02*
G01*
X497090Y-2118189D01*
X306181Y-2118189D02*
G01*
X306181Y-2236373D01*
X397090Y-2118189D02*
G01*
X397090Y-2190917D01*
X497090Y-2118189D02*
G01*
X497090Y-2236373D01*
X306181Y-2296373D02*
G01*
X497090Y-2296373D01*
X306181Y-2296373D02*
G01*
X306181Y-2414554D01*
X397090Y-2296373D02*
G01*
X397090Y-2369101D01*
X497090Y-2296373D02*
G01*
X497090Y-2414554D01*
X306181Y-2687281D02*
G01*
X497090Y-2614554D01*
X306181Y-2687281D02*
G01*
X497090Y-2760009D01*
X433453Y-2641826D02*
G01*
X433453Y-2732735D01*
X306181Y-2820009D02*
G01*
X497090Y-2820009D01*
X306181Y-2820009D02*
G01*
X497090Y-2947281D01*
X306181Y-2947281D02*
G01*
X497090Y-2947281D01*
X306181Y-3007281D02*
G01*
X497090Y-3007281D01*
X306181Y-3007281D02*
G01*
X497090Y-3134555D01*
X306181Y-3134555D02*
G01*
X497090Y-3134555D01*
X278909Y-3212736D02*
G01*
X333453Y-3212736D01*
X333453Y-3381827D02*
G01*
X315272Y-3363645D01*
X306181Y-3336373D01*
X306181Y-3300008D01*
X315272Y-3272736D01*
X333453Y-3254555D01*
X351637Y-3254555D01*
X369818Y-3263645D01*
X378909Y-3272736D01*
X388000Y-3290917D01*
X406181Y-3345464D01*
X415272Y-3363645D01*
X424362Y-3372736D01*
X442544Y-3381827D01*
X469818Y-3381827D01*
X488000Y-3363645D01*
X497090Y-3336373D01*
X497090Y-3300008D01*
X488000Y-3272736D01*
X469818Y-3254555D01*
X306181Y-3581826D02*
G01*
X497090Y-3581826D01*
X306181Y-3641826D02*
G01*
X497090Y-3641826D01*
X306181Y-3641826D02*
G01*
X497090Y-3769100D01*
X306181Y-3769100D02*
G01*
X497090Y-3769100D01*
X306181Y-3892735D02*
G01*
X497090Y-3892735D01*
X306181Y-3829100D02*
G01*
X306181Y-3956372D01*
X306181Y-4016372D02*
G01*
X497090Y-4016372D01*
X306181Y-4016372D02*
G01*
X306181Y-4134553D01*
X397090Y-4016372D02*
G01*
X397090Y-4089100D01*
X497090Y-4016372D02*
G01*
X497090Y-4134553D01*
X306181Y-4194553D02*
G01*
X497090Y-4194553D01*
X306181Y-4194553D02*
G01*
X306181Y-4276371D01*
X315272Y-4303646D01*
X324363Y-4312737D01*
X342544Y-4321827D01*
X360728Y-4321827D01*
X378909Y-4312737D01*
X388000Y-4303646D01*
X397090Y-4276371D01*
X397090Y-4194553D01*
X397090Y-4258190D02*
G01*
X497090Y-4321827D01*
X306181Y-4381827D02*
G01*
X497090Y-4381827D01*
X306181Y-4381827D02*
G01*
X306181Y-4500008D01*
X397090Y-4381827D02*
G01*
X397090Y-4454555D01*
X306181Y-4632736D02*
G01*
X497090Y-4560008D01*
X306181Y-4632736D02*
G01*
X497090Y-4705464D01*
X433453Y-4587280D02*
G01*
X433453Y-4678189D01*
X351637Y-4901826D02*
G01*
X333453Y-4892735D01*
X315272Y-4874554D01*
X306181Y-4856373D01*
X306181Y-4820008D01*
X315272Y-4801826D01*
X333453Y-4783645D01*
X351637Y-4774554D01*
X378909Y-4765464D01*
X424362Y-4765464D01*
X451637Y-4774554D01*
X469818Y-4783645D01*
X488000Y-4801826D01*
X497090Y-4820008D01*
X497090Y-4856373D01*
X488000Y-4874554D01*
X469818Y-4892735D01*
X451637Y-4901826D01*
X306181Y-4961826D02*
G01*
X497090Y-4961826D01*
X306181Y-4961826D02*
G01*
X306181Y-5080010D01*
X397090Y-4961826D02*
G01*
X397090Y-5034554D01*
X497090Y-4961826D02*
G01*
X497090Y-5080010D01*
X2463800Y-61721D02*
G01*
X2463800Y-255523D01*
X2334513Y-61721D02*
G01*
X2334513Y-255523D01*
X2463800Y-153923D02*
G01*
X2334513Y-153923D01*
X2227325Y-126237D02*
G01*
X2245868Y-135636D01*
X2264409Y-153923D01*
X2273554Y-181610D01*
X2273554Y-200152D01*
X2264409Y-227837D01*
X2245868Y-246379D01*
X2227325Y-255523D01*
X2199640Y-255523D01*
X2181097Y-246379D01*
X2162809Y-227837D01*
X2153411Y-200152D01*
X2153411Y-181610D01*
X2162809Y-153923D01*
X2181097Y-135636D01*
X2199640Y-126237D01*
X2227325Y-126237D01*
X2092452Y-61721D02*
G01*
X2092452Y-255523D01*
X1985263Y-126237D02*
G01*
X2003806Y-135636D01*
X2022347Y-153923D01*
X2031491Y-181610D01*
X2031491Y-200152D01*
X2022347Y-227837D01*
X2003806Y-246379D01*
X1985263Y-255523D01*
X1957577Y-255523D01*
X1939290Y-246379D01*
X1920747Y-227837D01*
X1911350Y-200152D01*
X1911350Y-181610D01*
X1920747Y-153923D01*
X1939290Y-135636D01*
X1957577Y-126237D01*
X1985263Y-126237D01*
X1739645Y-153923D02*
G01*
X1758187Y-135636D01*
X1776729Y-126237D01*
X1804415Y-126237D01*
X1822704Y-135636D01*
X1841245Y-153923D01*
X1850389Y-181610D01*
X1850389Y-200152D01*
X1841245Y-227837D01*
X1822704Y-246379D01*
X1804415Y-255523D01*
X1776729Y-255523D01*
X1758187Y-246379D01*
X1739645Y-227837D01*
X1678686Y-126237D02*
G01*
X1678686Y-218694D01*
X1669542Y-246379D01*
X1651000Y-255523D01*
X1623313Y-255523D01*
X1604771Y-246379D01*
X1577086Y-218694D01*
X1577086Y-126237D02*
G01*
X1577086Y-255523D01*
X1516126Y-61721D02*
G01*
X1516126Y-255523D01*
X1516126Y-153923D02*
G01*
X1497584Y-135636D01*
X1479295Y-126237D01*
X1451610Y-126237D01*
X1433068Y-135636D01*
X1414526Y-153923D01*
X1405381Y-181610D01*
X1405381Y-200152D01*
X1414526Y-227837D01*
X1433068Y-246379D01*
X1451610Y-255523D01*
X1479295Y-255523D01*
X1497584Y-246379D01*
X1516126Y-227837D01*
X1344421Y-181610D02*
G01*
X1233423Y-181610D01*
X1233423Y-163321D01*
X1242821Y-144779D01*
X1251965Y-135636D01*
X1270507Y-126237D01*
X1298194Y-126237D01*
X1316736Y-135636D01*
X1335023Y-153923D01*
X1344421Y-181610D01*
X1344421Y-200152D01*
X1335023Y-227837D01*
X1316736Y-246379D01*
X1298194Y-255523D01*
X1270507Y-255523D01*
X1251965Y-246379D01*
X1233423Y-227837D01*
X1900428Y-340868D02*
G01*
X1900428Y-336295D01*
X1895855Y-327405D01*
X1891284Y-322834D01*
X1882394Y-318262D01*
X1864105Y-318262D01*
X1854962Y-322834D01*
X1850389Y-327405D01*
X1845818Y-336295D01*
X1845818Y-345439D01*
X1850389Y-354584D01*
X1859534Y-368300D01*
X1905000Y-413765D01*
X1841245Y-413765D01*
X1788668Y-318262D02*
G01*
X1802384Y-322834D01*
X1806702Y-331723D01*
X1806702Y-340868D01*
X1802384Y-350012D01*
X1793239Y-354584D01*
X1774952Y-359155D01*
X1761489Y-363728D01*
X1752345Y-372618D01*
X1747773Y-381762D01*
X1747773Y-395478D01*
X1752345Y-404621D01*
X1756918Y-409194D01*
X1770379Y-413765D01*
X1788668Y-413765D01*
X1802384Y-409194D01*
X1806702Y-404621D01*
X1811273Y-395478D01*
X1811273Y-381762D01*
X1806702Y-372618D01*
X1797812Y-363728D01*
X1784095Y-359155D01*
X1765807Y-354584D01*
X1756918Y-350012D01*
X1752345Y-340868D01*
X1752345Y-331723D01*
X1756918Y-322834D01*
X1770379Y-318262D01*
X1788668Y-318262D01*
X1647697Y-318262D02*
G01*
X1647697Y-413765D01*
X1647697Y-318262D02*
G01*
X1588515Y-318262D01*
X1647697Y-363728D02*
G01*
X1611376Y-363728D01*
X1558544Y-377189D02*
G01*
X1504187Y-377189D01*
X1504187Y-368300D01*
X1508760Y-359155D01*
X1513078Y-354584D01*
X1522221Y-350012D01*
X1535937Y-350012D01*
X1545081Y-354584D01*
X1553971Y-363728D01*
X1558544Y-377189D01*
X1558544Y-386334D01*
X1553971Y-400050D01*
X1545081Y-409194D01*
X1535937Y-413765D01*
X1522221Y-413765D01*
X1513078Y-409194D01*
X1504187Y-400050D01*
X1474215Y-318262D02*
G01*
X1474215Y-413765D01*
X1474215Y-363728D02*
G01*
X1465071Y-354584D01*
X1455928Y-350012D01*
X1442212Y-350012D01*
X1433068Y-354584D01*
X1424178Y-363728D01*
X1419605Y-377189D01*
X1419605Y-386334D01*
X1424178Y-400050D01*
X1433068Y-409194D01*
X1442212Y-413765D01*
X1455928Y-413765D01*
X1465071Y-409194D01*
X1474215Y-400050D01*
X1385062Y-390905D02*
G01*
X1389634Y-395478D01*
X1385062Y-400050D01*
X1380489Y-395478D01*
X1385062Y-390905D01*
X1275842Y-340868D02*
G01*
X1275842Y-336295D01*
X1271270Y-327405D01*
X1266697Y-322834D01*
X1257807Y-318262D01*
X1239520Y-318262D01*
X1230376Y-322834D01*
X1225804Y-327405D01*
X1221486Y-336295D01*
X1221486Y-345439D01*
X1225804Y-354584D01*
X1234947Y-368300D01*
X1280413Y-413765D01*
X1216913Y-413765D01*
X1159510Y-318262D02*
G01*
X1173226Y-322834D01*
X1182370Y-336295D01*
X1186942Y-359155D01*
X1186942Y-372618D01*
X1182370Y-395478D01*
X1173226Y-409194D01*
X1159510Y-413765D01*
X1150365Y-413765D01*
X1136904Y-409194D01*
X1127760Y-395478D01*
X1123187Y-372618D01*
X1123187Y-359155D01*
X1127760Y-336295D01*
X1136904Y-322834D01*
X1150365Y-318262D01*
X1159510Y-318262D01*
X1088644Y-340868D02*
G01*
X1088644Y-336295D01*
X1084071Y-327405D01*
X1079500Y-322834D01*
X1070355Y-318262D01*
X1052321Y-318262D01*
X1043178Y-322834D01*
X1038605Y-327405D01*
X1034034Y-336295D01*
X1034034Y-345439D01*
X1038605Y-354584D01*
X1047750Y-368300D01*
X1093215Y-413765D01*
X1029462Y-413765D01*
X994918Y-340868D02*
G01*
X994918Y-336295D01*
X990345Y-327405D01*
X986028Y-322834D01*
X976884Y-318262D01*
X958595Y-318262D01*
X949452Y-322834D01*
X944879Y-327405D01*
X940562Y-336295D01*
X940562Y-345439D01*
X944879Y-354584D01*
X954023Y-368300D01*
X999489Y-413765D01*
X935989Y-413765D01*
X2362200Y-318262D02*
G01*
X2362200Y-413765D01*
X2362200Y-318262D02*
G01*
X2321306Y-318262D01*
X2307590Y-322834D01*
X2303018Y-327405D01*
X2298445Y-336295D01*
X2298445Y-345439D01*
X2303018Y-354584D01*
X2307590Y-359155D01*
X2321306Y-363728D01*
X2362200Y-363728D01*
X2330450Y-363728D02*
G01*
X2298445Y-413765D01*
X2268474Y-377189D02*
G01*
X2214118Y-377189D01*
X2214118Y-368300D01*
X2218690Y-359155D01*
X2223008Y-354584D01*
X2232152Y-350012D01*
X2245868Y-350012D01*
X2255011Y-354584D01*
X2263902Y-363728D01*
X2268474Y-377189D01*
X2268474Y-386334D01*
X2263902Y-400050D01*
X2255011Y-409194D01*
X2245868Y-413765D01*
X2232152Y-413765D01*
X2223008Y-409194D01*
X2214118Y-400050D01*
X2183891Y-350012D02*
G01*
X2156713Y-413765D01*
X2129536Y-350012D02*
G01*
X2156713Y-413765D01*
X2090420Y-318262D02*
G01*
X2040381Y-318262D01*
X2067559Y-354584D01*
X2054097Y-354584D01*
X2044954Y-359155D01*
X2040381Y-363728D01*
X2035809Y-377189D01*
X2035809Y-386334D01*
X2040381Y-400050D01*
X2049525Y-409194D01*
X2062988Y-413765D01*
X2076704Y-413765D01*
X2090420Y-409194D01*
X2094991Y-404621D01*
X2099563Y-395478D01*
X2001265Y-359155D02*
G01*
X2005838Y-363728D01*
X2001265Y-368300D01*
X1996693Y-363728D01*
X2001265Y-359155D01*
X2001265Y-390905D02*
G01*
X2005838Y-395478D01*
X2001265Y-400050D01*
X1996693Y-395478D01*
X2001265Y-390905D01*
X1187450Y-38862D02*
G01*
X1187450Y-134365D01*
X1219200Y-38862D02*
G01*
X1155445Y-38862D01*
X1125473Y-97789D02*
G01*
X1071118Y-97789D01*
X1071118Y-88900D01*
X1075689Y-79755D01*
X1080007Y-75184D01*
X1089152Y-70612D01*
X1102868Y-70612D01*
X1112012Y-75184D01*
X1120902Y-84328D01*
X1125473Y-97789D01*
X1125473Y-106934D01*
X1120902Y-120650D01*
X1112012Y-129794D01*
X1102868Y-134365D01*
X1089152Y-134365D01*
X1080007Y-129794D01*
X1071118Y-120650D01*
X986536Y-70612D02*
G01*
X986536Y-134365D01*
X986536Y-84328D02*
G01*
X995679Y-75184D01*
X1004570Y-70612D01*
X1018286Y-70612D01*
X1027429Y-75184D01*
X1036573Y-84328D01*
X1040892Y-97789D01*
X1040892Y-106934D01*
X1036573Y-120650D01*
X1027429Y-129794D01*
X1018286Y-134365D01*
X1004570Y-134365D01*
X995679Y-129794D01*
X986536Y-120650D01*
X956563Y-70612D02*
G01*
X956563Y-134365D01*
X956563Y-88900D02*
G01*
X942847Y-75184D01*
X933704Y-70612D01*
X919987Y-70612D01*
X911097Y-75184D01*
X906526Y-88900D01*
X906526Y-134365D01*
X906526Y-88900D02*
G01*
X892810Y-75184D01*
X883665Y-70612D01*
X870204Y-70612D01*
X861060Y-75184D01*
X856487Y-88900D01*
X856487Y-134365D01*
X771905Y-38862D02*
G01*
X817371Y-38862D01*
X821944Y-79755D01*
X817371Y-75184D01*
X803655Y-70612D01*
X790194Y-70612D01*
X776478Y-75184D01*
X767334Y-84328D01*
X762762Y-97789D01*
X762762Y-106934D01*
X767334Y-120650D01*
X776478Y-129794D01*
X790194Y-134365D01*
X803655Y-134365D01*
X817371Y-129794D01*
X821944Y-125221D01*
X826515Y-116078D01*
X1093723Y-1536954D02*
G01*
X1084834Y-1527810D01*
X1080262Y-1514094D01*
X1080262Y-1495805D01*
X1084834Y-1482344D01*
X1093723Y-1473200D01*
X1102868Y-1473200D01*
X1112012Y-1477771D01*
X1116584Y-1482344D01*
X1121155Y-1491487D01*
X1130300Y-1518665D01*
X1134618Y-1527810D01*
X1139189Y-1532381D01*
X1148334Y-1536954D01*
X1162050Y-1536954D01*
X1171194Y-1527810D01*
X1175765Y-1514094D01*
X1175765Y-1495805D01*
X1171194Y-1482344D01*
X1162050Y-1473200D01*
X1080262Y-1566926D02*
G01*
X1175765Y-1566926D01*
X1080262Y-1566926D02*
G01*
X1080262Y-1598676D01*
X1084834Y-1612392D01*
X1093723Y-1621281D01*
X1102868Y-1625854D01*
X1116584Y-1630426D01*
X1139189Y-1630426D01*
X1152905Y-1625854D01*
X1162050Y-1621281D01*
X1171194Y-1612392D01*
X1175765Y-1598676D01*
X1175765Y-1566926D01*
X1080262Y-1696720D02*
G01*
X1175765Y-1660397D01*
X1080262Y-1696720D02*
G01*
X1175765Y-1733295D01*
X1143762Y-1674113D02*
G01*
X1143762Y-1719579D01*
X1093723Y-1896871D02*
G01*
X1084834Y-1887728D01*
X1080262Y-1874012D01*
X1080262Y-1855978D01*
X1084834Y-1842262D01*
X1093723Y-1833118D01*
X1102868Y-1833118D01*
X1112012Y-1837689D01*
X1116584Y-1842262D01*
X1121155Y-1851405D01*
X1130300Y-1878584D01*
X1134618Y-1887728D01*
X1139189Y-1892300D01*
X1148334Y-1896871D01*
X1162050Y-1896871D01*
X1171194Y-1887728D01*
X1175765Y-1874012D01*
X1175765Y-1855978D01*
X1171194Y-1842262D01*
X1162050Y-1833118D01*
X1080262Y-1926844D02*
G01*
X1175765Y-1926844D01*
X1080262Y-1926844D02*
G01*
X1080262Y-1958594D01*
X1084834Y-1972310D01*
X1093723Y-1981454D01*
X1102868Y-1986026D01*
X1116584Y-1990597D01*
X1139189Y-1990597D01*
X1152905Y-1986026D01*
X1162050Y-1981454D01*
X1171194Y-1972310D01*
X1175765Y-1958594D01*
X1175765Y-1926844D01*
X1080262Y-2056892D02*
G01*
X1175765Y-2020570D01*
X1080262Y-2056892D02*
G01*
X1175765Y-2093213D01*
X1143762Y-2034031D02*
G01*
X1143762Y-2079497D01*
X1360423Y-1536954D02*
G01*
X1351534Y-1527810D01*
X1346962Y-1514094D01*
X1346962Y-1495805D01*
X1351534Y-1482344D01*
X1360423Y-1473200D01*
X1369568Y-1473200D01*
X1378712Y-1477771D01*
X1383284Y-1482344D01*
X1387855Y-1491487D01*
X1397000Y-1518665D01*
X1401318Y-1527810D01*
X1405889Y-1532381D01*
X1415034Y-1536954D01*
X1428750Y-1536954D01*
X1437894Y-1527810D01*
X1442465Y-1514094D01*
X1442465Y-1495805D01*
X1437894Y-1482344D01*
X1428750Y-1473200D01*
X1369568Y-1634997D02*
G01*
X1360423Y-1630426D01*
X1351534Y-1621281D01*
X1346962Y-1612392D01*
X1346962Y-1594104D01*
X1351534Y-1584960D01*
X1360423Y-1575815D01*
X1369568Y-1571497D01*
X1383284Y-1566926D01*
X1405889Y-1566926D01*
X1419605Y-1571497D01*
X1428750Y-1575815D01*
X1437894Y-1584960D01*
X1442465Y-1594104D01*
X1442465Y-1612392D01*
X1437894Y-1621281D01*
X1428750Y-1630426D01*
X1419605Y-1634997D01*
X1346962Y-1664970D02*
G01*
X1442465Y-1664970D01*
X1442465Y-1664970D02*
G01*
X1442465Y-1719579D01*
X1360423Y-1883155D02*
G01*
X1351534Y-1874012D01*
X1346962Y-1860550D01*
X1346962Y-1842262D01*
X1351534Y-1828545D01*
X1360423Y-1819655D01*
X1369568Y-1819655D01*
X1378712Y-1824228D01*
X1383284Y-1828545D01*
X1387855Y-1837689D01*
X1397000Y-1865121D01*
X1401318Y-1874012D01*
X1405889Y-1878584D01*
X1415034Y-1883155D01*
X1428750Y-1883155D01*
X1437894Y-1874012D01*
X1442465Y-1860550D01*
X1442465Y-1842262D01*
X1437894Y-1828545D01*
X1428750Y-1819655D01*
X1369568Y-1981454D02*
G01*
X1360423Y-1976881D01*
X1351534Y-1967737D01*
X1346962Y-1958594D01*
X1346962Y-1940560D01*
X1351534Y-1931415D01*
X1360423Y-1922271D01*
X1369568Y-1917700D01*
X1383284Y-1913128D01*
X1405889Y-1913128D01*
X1419605Y-1917700D01*
X1428750Y-1922271D01*
X1437894Y-1931415D01*
X1442465Y-1940560D01*
X1442465Y-1958594D01*
X1437894Y-1967737D01*
X1428750Y-1976881D01*
X1419605Y-1981454D01*
X1346962Y-2011426D02*
G01*
X1442465Y-2011426D01*
X1442465Y-2011426D02*
G01*
X1442465Y-2066036D01*
X1588262Y-1482344D02*
G01*
X1588262Y-1532381D01*
X1624584Y-1504950D01*
X1624584Y-1518665D01*
X1629155Y-1527810D01*
X1633728Y-1532381D01*
X1647189Y-1536954D01*
X1656334Y-1536954D01*
X1670050Y-1532381D01*
X1679194Y-1523237D01*
X1683765Y-1509521D01*
X1683765Y-1495805D01*
X1679194Y-1482344D01*
X1674621Y-1477771D01*
X1665478Y-1473200D01*
X1588262Y-1566926D02*
G01*
X1683765Y-1603247D01*
X1588262Y-1639570D02*
G01*
X1683765Y-1603247D01*
X1588262Y-1678686D02*
G01*
X1588262Y-1728723D01*
X1624584Y-1701292D01*
X1624584Y-1715007D01*
X1629155Y-1724152D01*
X1633728Y-1728723D01*
X1647189Y-1733295D01*
X1656334Y-1733295D01*
X1670050Y-1728723D01*
X1679194Y-1719579D01*
X1683765Y-1705863D01*
X1683765Y-1692402D01*
X1679194Y-1678686D01*
X1674621Y-1674113D01*
X1665478Y-1669542D01*
X1588262Y-1878584D02*
G01*
X1651762Y-1833118D01*
X1651762Y-1901444D01*
X1588262Y-1878584D02*
G01*
X1683765Y-1878584D01*
X1588262Y-1931415D02*
G01*
X1683765Y-1967737D01*
X1588262Y-2004060D02*
G01*
X1683765Y-1967737D01*
X1588262Y-2088642D02*
G01*
X1588262Y-2043176D01*
X1629155Y-2038604D01*
X1624584Y-2043176D01*
X1620012Y-2056892D01*
X1620012Y-2070354D01*
X1624584Y-2084070D01*
X1633728Y-2093213D01*
X1647189Y-2097786D01*
X1656334Y-2097786D01*
X1670050Y-2093213D01*
X1679194Y-2084070D01*
X1683765Y-2070354D01*
X1683765Y-2056892D01*
X1679194Y-2043176D01*
X1674621Y-2038604D01*
X1665478Y-2034031D01*
X1852168Y-1541271D02*
G01*
X1843023Y-1536954D01*
X1834134Y-1527810D01*
X1829562Y-1518665D01*
X1829562Y-1500378D01*
X1834134Y-1491487D01*
X1843023Y-1482344D01*
X1852168Y-1477771D01*
X1865884Y-1473200D01*
X1888489Y-1473200D01*
X1902205Y-1477771D01*
X1911350Y-1482344D01*
X1920494Y-1491487D01*
X1925065Y-1500378D01*
X1925065Y-1518665D01*
X1920494Y-1527810D01*
X1911350Y-1536954D01*
X1902205Y-1541271D01*
X1888489Y-1541271D01*
X1888489Y-1518665D02*
G01*
X1888489Y-1541271D01*
X1829562Y-1571497D02*
G01*
X1925065Y-1571497D01*
X1829562Y-1571497D02*
G01*
X1925065Y-1634997D01*
X1829562Y-1634997D02*
G01*
X1925065Y-1634997D01*
X1829562Y-1664970D02*
G01*
X1925065Y-1664970D01*
X1829562Y-1664970D02*
G01*
X1829562Y-1696720D01*
X1834134Y-1710436D01*
X1843023Y-1719579D01*
X1852168Y-1724152D01*
X1865884Y-1728723D01*
X1888489Y-1728723D01*
X1902205Y-1724152D01*
X1911350Y-1719579D01*
X1920494Y-1710436D01*
X1925065Y-1696720D01*
X1925065Y-1664970D01*
X1852168Y-1896871D02*
G01*
X1843023Y-1892300D01*
X1834134Y-1883155D01*
X1829562Y-1874012D01*
X1829562Y-1855978D01*
X1834134Y-1846834D01*
X1843023Y-1837689D01*
X1852168Y-1833118D01*
X1865884Y-1828545D01*
X1888489Y-1828545D01*
X1902205Y-1833118D01*
X1911350Y-1837689D01*
X1920494Y-1846834D01*
X1925065Y-1855978D01*
X1925065Y-1874012D01*
X1920494Y-1883155D01*
X1911350Y-1892300D01*
X1902205Y-1896871D01*
X1888489Y-1896871D01*
X1888489Y-1874012D02*
G01*
X1888489Y-1896871D01*
X1829562Y-1926844D02*
G01*
X1925065Y-1926844D01*
X1829562Y-1926844D02*
G01*
X1925065Y-1990597D01*
X1829562Y-1990597D02*
G01*
X1925065Y-1990597D01*
X1829562Y-2020570D02*
G01*
X1925065Y-2020570D01*
X1829562Y-2020570D02*
G01*
X1829562Y-2052320D01*
X1834134Y-2066036D01*
X1843023Y-2074926D01*
X1852168Y-2079497D01*
X1865884Y-2084070D01*
X1888489Y-2084070D01*
X1902205Y-2079497D01*
X1911350Y-2074926D01*
X1920494Y-2066036D01*
X1925065Y-2052320D01*
X1925065Y-2020570D01*
X1092962Y-635000D02*
G01*
X1188465Y-635000D01*
X1092962Y-635000D02*
G01*
X1188465Y-671321D01*
X1092962Y-707644D02*
G01*
X1188465Y-671321D01*
X1092962Y-707644D02*
G01*
X1188465Y-707644D01*
X1092962Y-737615D02*
G01*
X1188465Y-737615D01*
X1106423Y-831342D02*
G01*
X1097534Y-822197D01*
X1092962Y-808736D01*
X1092962Y-790447D01*
X1097534Y-776731D01*
X1106423Y-767842D01*
X1115568Y-767842D01*
X1124712Y-772160D01*
X1129284Y-776731D01*
X1133855Y-785876D01*
X1143000Y-813307D01*
X1147318Y-822197D01*
X1151889Y-826770D01*
X1161034Y-831342D01*
X1174750Y-831342D01*
X1183894Y-822197D01*
X1188465Y-808736D01*
X1188465Y-790447D01*
X1183894Y-776731D01*
X1174750Y-767842D01*
X1092962Y-888745D02*
G01*
X1097534Y-879602D01*
X1106423Y-870457D01*
X1115568Y-865886D01*
X1129284Y-861313D01*
X1151889Y-861313D01*
X1165605Y-865886D01*
X1174750Y-870457D01*
X1183894Y-879602D01*
X1188465Y-888745D01*
X1188465Y-906779D01*
X1183894Y-915923D01*
X1174750Y-925068D01*
X1165605Y-929639D01*
X1151889Y-934212D01*
X1129284Y-934212D01*
X1115568Y-929639D01*
X1106423Y-925068D01*
X1097534Y-915923D01*
X1092962Y-906779D01*
X1092962Y-888745D01*
X1092962Y-1034034D02*
G01*
X1188465Y-1034034D01*
X1092962Y-1034034D02*
G01*
X1188465Y-1070355D01*
X1092962Y-1106931D02*
G01*
X1188465Y-1070355D01*
X1092962Y-1106931D02*
G01*
X1188465Y-1106931D01*
X1092962Y-1136904D02*
G01*
X1188465Y-1136904D01*
X1106423Y-1230376D02*
G01*
X1097534Y-1221486D01*
X1092962Y-1207770D01*
X1092962Y-1189481D01*
X1097534Y-1176020D01*
X1106423Y-1166876D01*
X1115568Y-1166876D01*
X1124712Y-1171447D01*
X1129284Y-1176020D01*
X1133855Y-1184910D01*
X1143000Y-1212342D01*
X1147318Y-1221486D01*
X1151889Y-1225804D01*
X1161034Y-1230376D01*
X1174750Y-1230376D01*
X1183894Y-1221486D01*
X1188465Y-1207770D01*
X1188465Y-1189481D01*
X1183894Y-1176020D01*
X1174750Y-1166876D01*
X1092962Y-1287779D02*
G01*
X1097534Y-1278636D01*
X1106423Y-1269492D01*
X1115568Y-1264920D01*
X1129284Y-1260347D01*
X1151889Y-1260347D01*
X1165605Y-1264920D01*
X1174750Y-1269492D01*
X1183894Y-1278636D01*
X1188465Y-1287779D01*
X1188465Y-1305813D01*
X1183894Y-1314957D01*
X1174750Y-1324102D01*
X1165605Y-1328673D01*
X1151889Y-1333245D01*
X1129284Y-1333245D01*
X1115568Y-1328673D01*
X1106423Y-1324102D01*
X1097534Y-1314957D01*
X1092962Y-1305813D01*
X1092962Y-1287779D01*
X1356868Y-715771D02*
G01*
X1347723Y-711454D01*
X1338834Y-702310D01*
X1334262Y-693165D01*
X1334262Y-674878D01*
X1338834Y-665987D01*
X1347723Y-656844D01*
X1356868Y-652271D01*
X1370584Y-647700D01*
X1393189Y-647700D01*
X1406905Y-652271D01*
X1416050Y-656844D01*
X1425194Y-665987D01*
X1429765Y-674878D01*
X1429765Y-693165D01*
X1425194Y-702310D01*
X1416050Y-711454D01*
X1406905Y-715771D01*
X1347723Y-809497D02*
G01*
X1338834Y-800354D01*
X1334262Y-786892D01*
X1334262Y-768604D01*
X1338834Y-754887D01*
X1347723Y-745997D01*
X1356868Y-745997D01*
X1366012Y-750315D01*
X1370584Y-754887D01*
X1375155Y-764031D01*
X1384300Y-791210D01*
X1388618Y-800354D01*
X1393189Y-804926D01*
X1402334Y-809497D01*
X1416050Y-809497D01*
X1425194Y-800354D01*
X1429765Y-786892D01*
X1429765Y-768604D01*
X1425194Y-754887D01*
X1416050Y-745997D01*
X1356868Y-1117600D02*
G01*
X1347723Y-1113028D01*
X1338834Y-1104137D01*
X1334262Y-1094994D01*
X1334262Y-1076705D01*
X1338834Y-1067815D01*
X1347723Y-1058671D01*
X1356868Y-1054100D01*
X1370584Y-1049528D01*
X1393189Y-1049528D01*
X1406905Y-1054100D01*
X1416050Y-1058671D01*
X1425194Y-1067815D01*
X1429765Y-1076705D01*
X1429765Y-1094994D01*
X1425194Y-1104137D01*
X1416050Y-1113028D01*
X1406905Y-1117600D01*
X1347723Y-1211326D02*
G01*
X1338834Y-1202181D01*
X1334262Y-1188720D01*
X1334262Y-1170431D01*
X1338834Y-1156715D01*
X1347723Y-1147826D01*
X1356868Y-1147826D01*
X1366012Y-1152144D01*
X1370584Y-1156715D01*
X1375155Y-1165860D01*
X1384300Y-1193037D01*
X1388618Y-1202181D01*
X1393189Y-1206754D01*
X1402334Y-1211326D01*
X1416050Y-1211326D01*
X1425194Y-1202181D01*
X1429765Y-1188720D01*
X1429765Y-1170431D01*
X1425194Y-1156715D01*
X1416050Y-1147826D01*
X1562862Y-644144D02*
G01*
X1562862Y-694181D01*
X1599184Y-666750D01*
X1599184Y-680465D01*
X1603755Y-689610D01*
X1608328Y-694181D01*
X1621789Y-698754D01*
X1630934Y-698754D01*
X1644650Y-694181D01*
X1653794Y-685037D01*
X1658365Y-671321D01*
X1658365Y-657605D01*
X1653794Y-644144D01*
X1649221Y-639571D01*
X1640078Y-635000D01*
X1562862Y-728726D02*
G01*
X1658365Y-765047D01*
X1562862Y-801370D02*
G01*
X1658365Y-765047D01*
X1562862Y-840486D02*
G01*
X1562862Y-890523D01*
X1599184Y-863092D01*
X1599184Y-876807D01*
X1603755Y-885952D01*
X1608328Y-890523D01*
X1621789Y-895095D01*
X1630934Y-895095D01*
X1644650Y-890523D01*
X1653794Y-881379D01*
X1658365Y-867663D01*
X1658365Y-854202D01*
X1653794Y-840486D01*
X1649221Y-835913D01*
X1640078Y-831342D01*
X1562862Y-1040384D02*
G01*
X1626362Y-994918D01*
X1626362Y-1063244D01*
X1562862Y-1040384D02*
G01*
X1658365Y-1040384D01*
X1562862Y-1093215D02*
G01*
X1658365Y-1129537D01*
X1562862Y-1165860D02*
G01*
X1658365Y-1129537D01*
X1562862Y-1250442D02*
G01*
X1562862Y-1204976D01*
X1603755Y-1200404D01*
X1599184Y-1204976D01*
X1594612Y-1218692D01*
X1594612Y-1232154D01*
X1599184Y-1245870D01*
X1608328Y-1255013D01*
X1621789Y-1259586D01*
X1630934Y-1259586D01*
X1644650Y-1255013D01*
X1653794Y-1245870D01*
X1658365Y-1232154D01*
X1658365Y-1218692D01*
X1653794Y-1204976D01*
X1649221Y-1200404D01*
X1640078Y-1195831D01*
X1864868Y-703071D02*
G01*
X1855723Y-698754D01*
X1846834Y-689610D01*
X1842262Y-680465D01*
X1842262Y-662178D01*
X1846834Y-653287D01*
X1855723Y-644144D01*
X1864868Y-639571D01*
X1878584Y-635000D01*
X1901189Y-635000D01*
X1914905Y-639571D01*
X1924050Y-644144D01*
X1933193Y-653287D01*
X1937765Y-662178D01*
X1937765Y-680465D01*
X1933193Y-689610D01*
X1924050Y-698754D01*
X1914905Y-703071D01*
X1901189Y-703071D01*
X1901189Y-680465D02*
G01*
X1901189Y-703071D01*
X1842262Y-733297D02*
G01*
X1937765Y-733297D01*
X1842262Y-733297D02*
G01*
X1937765Y-796797D01*
X1842262Y-796797D02*
G01*
X1937765Y-796797D01*
X1842262Y-826770D02*
G01*
X1937765Y-826770D01*
X1842262Y-826770D02*
G01*
X1842262Y-858520D01*
X1846834Y-872236D01*
X1855723Y-881379D01*
X1864868Y-885952D01*
X1878584Y-890523D01*
X1901189Y-890523D01*
X1914905Y-885952D01*
X1924050Y-881379D01*
X1933193Y-872236D01*
X1937765Y-858520D01*
X1937765Y-826770D01*
X1864868Y-1058671D02*
G01*
X1855723Y-1054100D01*
X1846834Y-1044955D01*
X1842262Y-1035812D01*
X1842262Y-1017778D01*
X1846834Y-1008634D01*
X1855723Y-999489D01*
X1864868Y-994918D01*
X1878584Y-990345D01*
X1901189Y-990345D01*
X1914905Y-994918D01*
X1924050Y-999489D01*
X1933193Y-1008634D01*
X1937765Y-1017778D01*
X1937765Y-1035812D01*
X1933193Y-1044955D01*
X1924050Y-1054100D01*
X1914905Y-1058671D01*
X1901189Y-1058671D01*
X1901189Y-1035812D02*
G01*
X1901189Y-1058671D01*
X1842262Y-1088644D02*
G01*
X1937765Y-1088644D01*
X1842262Y-1088644D02*
G01*
X1937765Y-1152397D01*
X1842262Y-1152397D02*
G01*
X1937765Y-1152397D01*
X1842262Y-1182370D02*
G01*
X1937765Y-1182370D01*
X1842262Y-1182370D02*
G01*
X1842262Y-1214120D01*
X1846834Y-1227836D01*
X1855723Y-1236726D01*
X1864868Y-1241297D01*
X1878584Y-1245870D01*
X1901189Y-1245870D01*
X1914905Y-1241297D01*
X1924050Y-1236726D01*
X1933193Y-1227836D01*
X1937765Y-1214120D01*
X1937765Y-1182370D01*
X2109724Y-686054D02*
G01*
X2100834Y-676910D01*
X2096261Y-663194D01*
X2096261Y-644905D01*
X2100834Y-631444D01*
X2109724Y-622300D01*
X2118868Y-622300D01*
X2128011Y-626871D01*
X2132584Y-631444D01*
X2137156Y-640587D01*
X2146300Y-667765D01*
X2150618Y-676910D01*
X2155190Y-681481D01*
X2164334Y-686054D01*
X2178050Y-686054D01*
X2187193Y-676910D01*
X2191765Y-663194D01*
X2191765Y-644905D01*
X2187193Y-631444D01*
X2178050Y-622300D01*
X2118868Y-784097D02*
G01*
X2109724Y-779526D01*
X2100834Y-770381D01*
X2096261Y-761492D01*
X2096261Y-743204D01*
X2100834Y-734060D01*
X2109724Y-724915D01*
X2118868Y-720597D01*
X2132584Y-716026D01*
X2155190Y-716026D01*
X2168906Y-720597D01*
X2178050Y-724915D01*
X2187193Y-734060D01*
X2191765Y-743204D01*
X2191765Y-761492D01*
X2187193Y-770381D01*
X2178050Y-779526D01*
X2168906Y-784097D01*
X2096261Y-814070D02*
G01*
X2191765Y-814070D01*
X2191765Y-814070D02*
G01*
X2191765Y-868679D01*
X2096261Y-898652D02*
G01*
X2191765Y-898652D01*
X2096261Y-962405D02*
G01*
X2159761Y-898652D01*
X2137156Y-921512D02*
G01*
X2191765Y-962405D01*
X2109724Y-1125981D02*
G01*
X2100834Y-1116837D01*
X2096261Y-1103121D01*
X2096261Y-1085087D01*
X2100834Y-1071371D01*
X2109724Y-1062228D01*
X2118868Y-1062228D01*
X2128011Y-1066800D01*
X2132584Y-1071371D01*
X2137156Y-1080515D01*
X2146300Y-1107694D01*
X2150618Y-1116837D01*
X2155190Y-1121410D01*
X2164334Y-1125981D01*
X2178050Y-1125981D01*
X2187193Y-1116837D01*
X2191765Y-1103121D01*
X2191765Y-1085087D01*
X2187193Y-1071371D01*
X2178050Y-1062228D01*
X2118868Y-1224026D02*
G01*
X2109724Y-1219454D01*
X2100834Y-1210563D01*
X2096261Y-1201420D01*
X2096261Y-1183131D01*
X2100834Y-1174242D01*
X2109724Y-1165097D01*
X2118868Y-1160526D01*
X2132584Y-1155954D01*
X2155190Y-1155954D01*
X2168906Y-1160526D01*
X2178050Y-1165097D01*
X2187193Y-1174242D01*
X2191765Y-1183131D01*
X2191765Y-1201420D01*
X2187193Y-1210563D01*
X2178050Y-1219454D01*
X2168906Y-1224026D01*
X2096261Y-1253997D02*
G01*
X2191765Y-1253997D01*
X2191765Y-1253997D02*
G01*
X2191765Y-1308607D01*
X2096261Y-1338579D02*
G01*
X2191765Y-1338579D01*
X2096261Y-1402334D02*
G01*
X2159761Y-1338579D01*
X2137156Y-1361439D02*
G01*
X2191765Y-1402334D01*
X2362961Y-635000D02*
G01*
X2458465Y-635000D01*
X2362961Y-635000D02*
G01*
X2458465Y-671321D01*
X2362961Y-707644D02*
G01*
X2458465Y-671321D01*
X2362961Y-707644D02*
G01*
X2458465Y-707644D01*
X2362961Y-765047D02*
G01*
X2367534Y-755904D01*
X2376424Y-746760D01*
X2385568Y-742187D01*
X2399284Y-737615D01*
X2421890Y-737615D01*
X2435606Y-742187D01*
X2444750Y-746760D01*
X2453893Y-755904D01*
X2458465Y-765047D01*
X2458465Y-783081D01*
X2453893Y-792226D01*
X2444750Y-801370D01*
X2435606Y-805942D01*
X2421890Y-810513D01*
X2399284Y-810513D01*
X2385568Y-805942D01*
X2376424Y-801370D01*
X2367534Y-792226D01*
X2362961Y-783081D01*
X2362961Y-765047D01*
X2376424Y-903986D02*
G01*
X2367534Y-895095D01*
X2362961Y-881379D01*
X2362961Y-863092D01*
X2367534Y-849629D01*
X2376424Y-840486D01*
X2385568Y-840486D01*
X2394711Y-845057D01*
X2399284Y-849629D01*
X2403856Y-858520D01*
X2413000Y-885952D01*
X2417318Y-895095D01*
X2421890Y-899668D01*
X2431034Y-903986D01*
X2444750Y-903986D01*
X2453893Y-895095D01*
X2458465Y-881379D01*
X2458465Y-863092D01*
X2453893Y-849629D01*
X2444750Y-840486D01*
X2362961Y-934212D02*
G01*
X2458465Y-934212D01*
X2362961Y-1034034D02*
G01*
X2458465Y-1034034D01*
X2362961Y-1034034D02*
G01*
X2458465Y-1070355D01*
X2362961Y-1106931D02*
G01*
X2458465Y-1070355D01*
X2362961Y-1106931D02*
G01*
X2458465Y-1106931D01*
X2362961Y-1164081D02*
G01*
X2367534Y-1154937D01*
X2376424Y-1145794D01*
X2385568Y-1141476D01*
X2399284Y-1136904D01*
X2421890Y-1136904D01*
X2435606Y-1141476D01*
X2444750Y-1145794D01*
X2453893Y-1154937D01*
X2458465Y-1164081D01*
X2458465Y-1182370D01*
X2453893Y-1191260D01*
X2444750Y-1200404D01*
X2435606Y-1204976D01*
X2421890Y-1209547D01*
X2399284Y-1209547D01*
X2385568Y-1204976D01*
X2376424Y-1200404D01*
X2367534Y-1191260D01*
X2362961Y-1182370D01*
X2362961Y-1164081D01*
X2376424Y-1303273D02*
G01*
X2367534Y-1294129D01*
X2362961Y-1280413D01*
X2362961Y-1262379D01*
X2367534Y-1248663D01*
X2376424Y-1239520D01*
X2385568Y-1239520D01*
X2394711Y-1244092D01*
X2399284Y-1248663D01*
X2403856Y-1257807D01*
X2413000Y-1284986D01*
X2417318Y-1294129D01*
X2421890Y-1298702D01*
X2431034Y-1303273D01*
X2444750Y-1303273D01*
X2453893Y-1294129D01*
X2458465Y-1280413D01*
X2458465Y-1262379D01*
X2453893Y-1248663D01*
X2444750Y-1239520D01*
X2362961Y-1333245D02*
G01*
X2458465Y-1333245D01*
X1080262Y-3175000D02*
G01*
X1175765Y-3175000D01*
X1080262Y-3175000D02*
G01*
X1175765Y-3211321D01*
X1080262Y-3247644D02*
G01*
X1175765Y-3211321D01*
X1080262Y-3247644D02*
G01*
X1175765Y-3247644D01*
X1080262Y-3309620D02*
G01*
X1175765Y-3309620D01*
X1080262Y-3277615D02*
G01*
X1080262Y-3341370D01*
X1080262Y-3371342D02*
G01*
X1175765Y-3371342D01*
X1080262Y-3371342D02*
G01*
X1080262Y-3403092D01*
X1084834Y-3416807D01*
X1093723Y-3425952D01*
X1102868Y-3430523D01*
X1116584Y-3435095D01*
X1139189Y-3435095D01*
X1152905Y-3430523D01*
X1162050Y-3425952D01*
X1171194Y-3416807D01*
X1175765Y-3403092D01*
X1175765Y-3371342D01*
X1080262Y-3465068D02*
G01*
X1175765Y-3465068D01*
X1346962Y-3175000D02*
G01*
X1442465Y-3175000D01*
X1346962Y-3175000D02*
G01*
X1442465Y-3211321D01*
X1346962Y-3247644D02*
G01*
X1442465Y-3211321D01*
X1346962Y-3247644D02*
G01*
X1442465Y-3247644D01*
X1346962Y-3309620D02*
G01*
X1442465Y-3309620D01*
X1346962Y-3277615D02*
G01*
X1346962Y-3341370D01*
X1346962Y-3371342D02*
G01*
X1442465Y-3371342D01*
X1346962Y-3371342D02*
G01*
X1346962Y-3403092D01*
X1351534Y-3416807D01*
X1360423Y-3425952D01*
X1369568Y-3430523D01*
X1383284Y-3435095D01*
X1405889Y-3435095D01*
X1419605Y-3430523D01*
X1428750Y-3425952D01*
X1437894Y-3416807D01*
X1442465Y-3403092D01*
X1442465Y-3371342D01*
X1346962Y-3492245D02*
G01*
X1351534Y-3483102D01*
X1360423Y-3474212D01*
X1369568Y-3469639D01*
X1383284Y-3465068D01*
X1405889Y-3465068D01*
X1419605Y-3469639D01*
X1428750Y-3474212D01*
X1437894Y-3483102D01*
X1442465Y-3492245D01*
X1442465Y-3510534D01*
X1437894Y-3519423D01*
X1428750Y-3528568D01*
X1419605Y-3533139D01*
X1405889Y-3537712D01*
X1383284Y-3537712D01*
X1369568Y-3533139D01*
X1360423Y-3528568D01*
X1351534Y-3519423D01*
X1346962Y-3510534D01*
X1346962Y-3492245D01*
X1600962Y-3184144D02*
G01*
X1600962Y-3234181D01*
X1637284Y-3206750D01*
X1637284Y-3220465D01*
X1641855Y-3229610D01*
X1646428Y-3234181D01*
X1659889Y-3238754D01*
X1669034Y-3238754D01*
X1682750Y-3234181D01*
X1691894Y-3225037D01*
X1696465Y-3211321D01*
X1696465Y-3197605D01*
X1691894Y-3184144D01*
X1687321Y-3179571D01*
X1678178Y-3175000D01*
X1600962Y-3268726D02*
G01*
X1696465Y-3305047D01*
X1600962Y-3341370D02*
G01*
X1696465Y-3305047D01*
X1600962Y-3380486D02*
G01*
X1600962Y-3430523D01*
X1637284Y-3403092D01*
X1637284Y-3416807D01*
X1641855Y-3425952D01*
X1646428Y-3430523D01*
X1659889Y-3435095D01*
X1669034Y-3435095D01*
X1682750Y-3430523D01*
X1691894Y-3421379D01*
X1696465Y-3407663D01*
X1696465Y-3394202D01*
X1691894Y-3380486D01*
X1687321Y-3375913D01*
X1678178Y-3371342D01*
X1600962Y-3580384D02*
G01*
X1664462Y-3534918D01*
X1664462Y-3603244D01*
X1600962Y-3580384D02*
G01*
X1696465Y-3580384D01*
X1600962Y-3633215D02*
G01*
X1696465Y-3669537D01*
X1600962Y-3705860D02*
G01*
X1696465Y-3669537D01*
X1600962Y-3790442D02*
G01*
X1600962Y-3744976D01*
X1641855Y-3740404D01*
X1637284Y-3744976D01*
X1632712Y-3758692D01*
X1632712Y-3772154D01*
X1637284Y-3785870D01*
X1646428Y-3795013D01*
X1659889Y-3799586D01*
X1669034Y-3799586D01*
X1682750Y-3795013D01*
X1691894Y-3785870D01*
X1696465Y-3772154D01*
X1696465Y-3758692D01*
X1691894Y-3744976D01*
X1687321Y-3740404D01*
X1678178Y-3735831D01*
X1864868Y-3243071D02*
G01*
X1855723Y-3238754D01*
X1846834Y-3229610D01*
X1842262Y-3220465D01*
X1842262Y-3202178D01*
X1846834Y-3193287D01*
X1855723Y-3184144D01*
X1864868Y-3179571D01*
X1878584Y-3175000D01*
X1901189Y-3175000D01*
X1914905Y-3179571D01*
X1924050Y-3184144D01*
X1933193Y-3193287D01*
X1937765Y-3202178D01*
X1937765Y-3220465D01*
X1933193Y-3229610D01*
X1924050Y-3238754D01*
X1914905Y-3243071D01*
X1901189Y-3243071D01*
X1901189Y-3220465D02*
G01*
X1901189Y-3243071D01*
X1842262Y-3273297D02*
G01*
X1937765Y-3273297D01*
X1842262Y-3273297D02*
G01*
X1937765Y-3336797D01*
X1842262Y-3336797D02*
G01*
X1937765Y-3336797D01*
X1842262Y-3366770D02*
G01*
X1937765Y-3366770D01*
X1842262Y-3366770D02*
G01*
X1842262Y-3398520D01*
X1846834Y-3412236D01*
X1855723Y-3421379D01*
X1864868Y-3425952D01*
X1878584Y-3430523D01*
X1901189Y-3430523D01*
X1914905Y-3425952D01*
X1924050Y-3421379D01*
X1933193Y-3412236D01*
X1937765Y-3398520D01*
X1937765Y-3366770D01*
X1864868Y-3598671D02*
G01*
X1855723Y-3594100D01*
X1846834Y-3584955D01*
X1842262Y-3575812D01*
X1842262Y-3557778D01*
X1846834Y-3548634D01*
X1855723Y-3539489D01*
X1864868Y-3534918D01*
X1878584Y-3530345D01*
X1901189Y-3530345D01*
X1914905Y-3534918D01*
X1924050Y-3539489D01*
X1933193Y-3548634D01*
X1937765Y-3557778D01*
X1937765Y-3575812D01*
X1933193Y-3584955D01*
X1924050Y-3594100D01*
X1914905Y-3598671D01*
X1901189Y-3598671D01*
X1901189Y-3575812D02*
G01*
X1901189Y-3598671D01*
X1842262Y-3628644D02*
G01*
X1937765Y-3628644D01*
X1842262Y-3628644D02*
G01*
X1937765Y-3692397D01*
X1842262Y-3692397D02*
G01*
X1937765Y-3692397D01*
X1842262Y-3722370D02*
G01*
X1937765Y-3722370D01*
X1842262Y-3722370D02*
G01*
X1842262Y-3754120D01*
X1846834Y-3767836D01*
X1855723Y-3776726D01*
X1864868Y-3781297D01*
X1878584Y-3785870D01*
X1901189Y-3785870D01*
X1914905Y-3781297D01*
X1924050Y-3776726D01*
X1933193Y-3767836D01*
X1937765Y-3754120D01*
X1937765Y-3722370D01*
X2096261Y-3162300D02*
G01*
X2191765Y-3162300D01*
X2096261Y-3162300D02*
G01*
X2191765Y-3198621D01*
X2096261Y-3234944D02*
G01*
X2191765Y-3198621D01*
X2096261Y-3234944D02*
G01*
X2191765Y-3234944D01*
X2096261Y-3296920D02*
G01*
X2191765Y-3296920D01*
X2096261Y-3264915D02*
G01*
X2096261Y-3328670D01*
X2118868Y-3426968D02*
G01*
X2109724Y-3422395D01*
X2100834Y-3413252D01*
X2096261Y-3404107D01*
X2096261Y-3385820D01*
X2100834Y-3376929D01*
X2109724Y-3367786D01*
X2118868Y-3363213D01*
X2132584Y-3358642D01*
X2155190Y-3358642D01*
X2168906Y-3363213D01*
X2178050Y-3367786D01*
X2187193Y-3376929D01*
X2191765Y-3385820D01*
X2191765Y-3404107D01*
X2187193Y-3413252D01*
X2178050Y-3422395D01*
X2168906Y-3426968D01*
X2096261Y-3456939D02*
G01*
X2191765Y-3456939D01*
X2096261Y-3520439D02*
G01*
X2159761Y-3456939D01*
X2137156Y-3479545D02*
G01*
X2191765Y-3520439D01*
X2362961Y-3162300D02*
G01*
X2458465Y-3162300D01*
X2362961Y-3162300D02*
G01*
X2458465Y-3198621D01*
X2362961Y-3234944D02*
G01*
X2458465Y-3198621D01*
X2362961Y-3234944D02*
G01*
X2458465Y-3234944D01*
X2362961Y-3296920D02*
G01*
X2458465Y-3296920D01*
X2362961Y-3264915D02*
G01*
X2362961Y-3328670D01*
X2362961Y-3358642D02*
G01*
X2458465Y-3358642D01*
X2362961Y-3358642D02*
G01*
X2458465Y-3394963D01*
X2362961Y-3431286D02*
G01*
X2458465Y-3394963D01*
X2362961Y-3431286D02*
G01*
X2458465Y-3431286D01*
X2376424Y-3525012D02*
G01*
X2367534Y-3515868D01*
X2362961Y-3502405D01*
X2362961Y-3484118D01*
X2367534Y-3470402D01*
X2376424Y-3461512D01*
X2385568Y-3461512D01*
X2394711Y-3465829D01*
X2399284Y-3470402D01*
X2403856Y-3479545D01*
X2413000Y-3506723D01*
X2417318Y-3515868D01*
X2421890Y-3520439D01*
X2431034Y-3525012D01*
X2444750Y-3525012D01*
X2453893Y-3515868D01*
X2458465Y-3502405D01*
X2458465Y-3484118D01*
X2453893Y-3470402D01*
X2444750Y-3461512D01*
X2375661Y-2298700D02*
G01*
X2471165Y-2298700D01*
X2375661Y-2298700D02*
G01*
X2375661Y-2339594D01*
X2380234Y-2353310D01*
X2384806Y-2357881D01*
X2393695Y-2362454D01*
X2402840Y-2362454D01*
X2411984Y-2357881D01*
X2416556Y-2353310D01*
X2421127Y-2339594D01*
X2421127Y-2298700D01*
X2421127Y-2330450D02*
G01*
X2471165Y-2362454D01*
X2375661Y-2392426D02*
G01*
X2471165Y-2455926D01*
X2375661Y-2455926D02*
G01*
X2471165Y-2392426D01*
X2375661Y-2485897D02*
G01*
X2471165Y-2485897D01*
X2375661Y-2485897D02*
G01*
X2375661Y-2517902D01*
X2380234Y-2531363D01*
X2389124Y-2540507D01*
X2398268Y-2545079D01*
X2411984Y-2549652D01*
X2434590Y-2549652D01*
X2448306Y-2545079D01*
X2457450Y-2540507D01*
X2466593Y-2531363D01*
X2471165Y-2517902D01*
X2471165Y-2485897D01*
X2375661Y-2649728D02*
G01*
X2471165Y-2649728D01*
X2375661Y-2649728D02*
G01*
X2375661Y-2690621D01*
X2380234Y-2704084D01*
X2384806Y-2708655D01*
X2393695Y-2713228D01*
X2402840Y-2713228D01*
X2411984Y-2708655D01*
X2416556Y-2704084D01*
X2421127Y-2690621D01*
X2421127Y-2649728D01*
X2421127Y-2681478D02*
G01*
X2471165Y-2713228D01*
X2375661Y-2743200D02*
G01*
X2471165Y-2806954D01*
X2375661Y-2806954D02*
G01*
X2471165Y-2743200D01*
X2375661Y-2836926D02*
G01*
X2471165Y-2836926D01*
X2375661Y-2836926D02*
G01*
X2375661Y-2868676D01*
X2380234Y-2882392D01*
X2389124Y-2891536D01*
X2398268Y-2895854D01*
X2411984Y-2900426D01*
X2434590Y-2900426D01*
X2448306Y-2895854D01*
X2457450Y-2891536D01*
X2466593Y-2882392D01*
X2471165Y-2868676D01*
X2471165Y-2836926D01*
X2108961Y-2330450D02*
G01*
X2204465Y-2330450D01*
X2108961Y-2298700D02*
G01*
X2108961Y-2362454D01*
X2108961Y-2392426D02*
G01*
X2204465Y-2455926D01*
X2108961Y-2455926D02*
G01*
X2204465Y-2392426D01*
X2108961Y-2485897D02*
G01*
X2204465Y-2485897D01*
X2108961Y-2485897D02*
G01*
X2108961Y-2517902D01*
X2113534Y-2531363D01*
X2122424Y-2540507D01*
X2131568Y-2545079D01*
X2145284Y-2549652D01*
X2167890Y-2549652D01*
X2181606Y-2545079D01*
X2190750Y-2540507D01*
X2199893Y-2531363D01*
X2204465Y-2517902D01*
X2204465Y-2485897D01*
X2108961Y-2681478D02*
G01*
X2204465Y-2681478D01*
X2108961Y-2649728D02*
G01*
X2108961Y-2713228D01*
X2108961Y-2743200D02*
G01*
X2204465Y-2806954D01*
X2108961Y-2806954D02*
G01*
X2204465Y-2743200D01*
X2108961Y-2836926D02*
G01*
X2204465Y-2836926D01*
X2108961Y-2836926D02*
G01*
X2108961Y-2868676D01*
X2113534Y-2882392D01*
X2122424Y-2891536D01*
X2131568Y-2895854D01*
X2145284Y-2900426D01*
X2167890Y-2900426D01*
X2181606Y-2895854D01*
X2190750Y-2891536D01*
X2199893Y-2882392D01*
X2204465Y-2868676D01*
X2204465Y-2836926D01*
X1877568Y-2379471D02*
G01*
X1868423Y-2375154D01*
X1859534Y-2366010D01*
X1854962Y-2356865D01*
X1854962Y-2338578D01*
X1859534Y-2329687D01*
X1868423Y-2320544D01*
X1877568Y-2315971D01*
X1891284Y-2311400D01*
X1913889Y-2311400D01*
X1927605Y-2315971D01*
X1936750Y-2320544D01*
X1945893Y-2329687D01*
X1950465Y-2338578D01*
X1950465Y-2356865D01*
X1945893Y-2366010D01*
X1936750Y-2375154D01*
X1927605Y-2379471D01*
X1913889Y-2379471D01*
X1913889Y-2356865D02*
G01*
X1913889Y-2379471D01*
X1854962Y-2409697D02*
G01*
X1950465Y-2409697D01*
X1854962Y-2409697D02*
G01*
X1950465Y-2473197D01*
X1854962Y-2473197D02*
G01*
X1950465Y-2473197D01*
X1854962Y-2503170D02*
G01*
X1950465Y-2503170D01*
X1854962Y-2503170D02*
G01*
X1854962Y-2534920D01*
X1859534Y-2548636D01*
X1868423Y-2557779D01*
X1877568Y-2562352D01*
X1891284Y-2566923D01*
X1913889Y-2566923D01*
X1927605Y-2562352D01*
X1936750Y-2557779D01*
X1945893Y-2548636D01*
X1950465Y-2534920D01*
X1950465Y-2503170D01*
X1877568Y-2735071D02*
G01*
X1868423Y-2730500D01*
X1859534Y-2721355D01*
X1854962Y-2712212D01*
X1854962Y-2694178D01*
X1859534Y-2685034D01*
X1868423Y-2675889D01*
X1877568Y-2671318D01*
X1891284Y-2666745D01*
X1913889Y-2666745D01*
X1927605Y-2671318D01*
X1936750Y-2675889D01*
X1945893Y-2685034D01*
X1950465Y-2694178D01*
X1950465Y-2712212D01*
X1945893Y-2721355D01*
X1936750Y-2730500D01*
X1927605Y-2735071D01*
X1913889Y-2735071D01*
X1913889Y-2712212D02*
G01*
X1913889Y-2735071D01*
X1854962Y-2765044D02*
G01*
X1950465Y-2765044D01*
X1854962Y-2765044D02*
G01*
X1950465Y-2828797D01*
X1854962Y-2828797D02*
G01*
X1950465Y-2828797D01*
X1854962Y-2858770D02*
G01*
X1950465Y-2858770D01*
X1854962Y-2858770D02*
G01*
X1854962Y-2890520D01*
X1859534Y-2904236D01*
X1868423Y-2913126D01*
X1877568Y-2917697D01*
X1891284Y-2922270D01*
X1913889Y-2922270D01*
X1927605Y-2917697D01*
X1936750Y-2913126D01*
X1945893Y-2904236D01*
X1950465Y-2890520D01*
X1950465Y-2858770D01*
X1613662Y-2320544D02*
G01*
X1613662Y-2370581D01*
X1649984Y-2343150D01*
X1649984Y-2356865D01*
X1654555Y-2366010D01*
X1659128Y-2370581D01*
X1672589Y-2375154D01*
X1681734Y-2375154D01*
X1695450Y-2370581D01*
X1704594Y-2361437D01*
X1709165Y-2347721D01*
X1709165Y-2334005D01*
X1704594Y-2320544D01*
X1700021Y-2315971D01*
X1690878Y-2311400D01*
X1613662Y-2405126D02*
G01*
X1709165Y-2441447D01*
X1613662Y-2477770D02*
G01*
X1709165Y-2441447D01*
X1613662Y-2516886D02*
G01*
X1613662Y-2566923D01*
X1649984Y-2539492D01*
X1649984Y-2553207D01*
X1654555Y-2562352D01*
X1659128Y-2566923D01*
X1672589Y-2571495D01*
X1681734Y-2571495D01*
X1695450Y-2566923D01*
X1704594Y-2557779D01*
X1709165Y-2544063D01*
X1709165Y-2530602D01*
X1704594Y-2516886D01*
X1700021Y-2512313D01*
X1690878Y-2507742D01*
X1613662Y-2716784D02*
G01*
X1677162Y-2671318D01*
X1677162Y-2739644D01*
X1613662Y-2716784D02*
G01*
X1709165Y-2716784D01*
X1613662Y-2769615D02*
G01*
X1709165Y-2805937D01*
X1613662Y-2842260D02*
G01*
X1709165Y-2805937D01*
X1613662Y-2926842D02*
G01*
X1613662Y-2881376D01*
X1654555Y-2876804D01*
X1649984Y-2881376D01*
X1645412Y-2895092D01*
X1645412Y-2908554D01*
X1649984Y-2922270D01*
X1659128Y-2931413D01*
X1672589Y-2935986D01*
X1681734Y-2935986D01*
X1695450Y-2931413D01*
X1704594Y-2922270D01*
X1709165Y-2908554D01*
X1709165Y-2895092D01*
X1704594Y-2881376D01*
X1700021Y-2876804D01*
X1690878Y-2872231D01*
X861568Y-4919471D02*
G01*
X852423Y-4915154D01*
X843534Y-4906010D01*
X838962Y-4896865D01*
X838962Y-4878578D01*
X843534Y-4869687D01*
X852423Y-4860544D01*
X861568Y-4855971D01*
X875284Y-4851400D01*
X897889Y-4851400D01*
X911605Y-4855971D01*
X920750Y-4860544D01*
X929894Y-4869687D01*
X934465Y-4878578D01*
X934465Y-4896865D01*
X929894Y-4906010D01*
X920750Y-4915154D01*
X911605Y-4919471D01*
X897889Y-4919471D01*
X897889Y-4896865D02*
G01*
X897889Y-4919471D01*
X838962Y-4949697D02*
G01*
X934465Y-4949697D01*
X838962Y-4949697D02*
G01*
X838962Y-4990592D01*
X843534Y-5004054D01*
X848105Y-5008626D01*
X856995Y-5013197D01*
X870712Y-5013197D01*
X879855Y-5008626D01*
X884428Y-5004054D01*
X889000Y-4990592D01*
X889000Y-4949697D01*
X838962Y-5043170D02*
G01*
X934465Y-5043170D01*
X838962Y-5100573D02*
G01*
X843534Y-5091429D01*
X852423Y-5082286D01*
X861568Y-5077713D01*
X875284Y-5073142D01*
X897889Y-5073142D01*
X911605Y-5077713D01*
X920750Y-5082286D01*
X929894Y-5091429D01*
X934465Y-5100573D01*
X934465Y-5118607D01*
X929894Y-5127752D01*
X920750Y-5136895D01*
X911605Y-5141468D01*
X897889Y-5146039D01*
X875284Y-5146039D01*
X861568Y-5141468D01*
X852423Y-5136895D01*
X843534Y-5127752D01*
X838962Y-5118607D01*
X838962Y-5100573D01*
X865123Y-711454D02*
G01*
X856234Y-702310D01*
X851662Y-688594D01*
X851662Y-670305D01*
X856234Y-656844D01*
X865123Y-647700D01*
X874268Y-647700D01*
X883412Y-652271D01*
X887984Y-656844D01*
X892555Y-665987D01*
X901700Y-693165D01*
X906018Y-702310D01*
X910589Y-706881D01*
X919734Y-711454D01*
X933450Y-711454D01*
X942594Y-702310D01*
X947165Y-688594D01*
X947165Y-670305D01*
X942594Y-656844D01*
X933450Y-647700D01*
X851662Y-741426D02*
G01*
X947165Y-741426D01*
X851662Y-741426D02*
G01*
X851662Y-782320D01*
X856234Y-795781D01*
X860805Y-800354D01*
X869695Y-804926D01*
X883412Y-804926D01*
X892555Y-800354D01*
X897128Y-795781D01*
X901700Y-782320D01*
X901700Y-741426D01*
X851662Y-834897D02*
G01*
X947165Y-834897D01*
X851662Y-892302D02*
G01*
X856234Y-878586D01*
X869695Y-869442D01*
X892555Y-864870D01*
X906018Y-864870D01*
X928878Y-869442D01*
X942594Y-878586D01*
X947165Y-892302D01*
X947165Y-901445D01*
X942594Y-914907D01*
X928878Y-924052D01*
X906018Y-928623D01*
X892555Y-928623D01*
X869695Y-924052D01*
X856234Y-914907D01*
X851662Y-901445D01*
X851662Y-892302D01*
X865123Y-1092200D02*
G01*
X856234Y-1083055D01*
X851662Y-1069594D01*
X851662Y-1051305D01*
X856234Y-1037589D01*
X865123Y-1028700D01*
X874268Y-1028700D01*
X883412Y-1033271D01*
X887984Y-1037589D01*
X892555Y-1046734D01*
X901700Y-1074165D01*
X906018Y-1083055D01*
X910589Y-1087628D01*
X919734Y-1092200D01*
X933450Y-1092200D01*
X942594Y-1083055D01*
X947165Y-1069594D01*
X947165Y-1051305D01*
X942594Y-1037589D01*
X933450Y-1028700D01*
X851662Y-1122171D02*
G01*
X947165Y-1122171D01*
X851662Y-1122171D02*
G01*
X851662Y-1163065D01*
X856234Y-1176781D01*
X860805Y-1181354D01*
X869695Y-1185926D01*
X883412Y-1185926D01*
X892555Y-1181354D01*
X897128Y-1176781D01*
X901700Y-1163065D01*
X901700Y-1122171D01*
X851662Y-1215897D02*
G01*
X947165Y-1215897D01*
X869695Y-1245870D02*
G01*
X865123Y-1255013D01*
X851662Y-1268729D01*
X947165Y-1268729D01*
X851662Y-1485900D02*
G01*
X947165Y-1485900D01*
X874268Y-1520444D02*
G01*
X869695Y-1520444D01*
X860805Y-1525015D01*
X856234Y-1529587D01*
X851662Y-1538731D01*
X851662Y-1556765D01*
X856234Y-1565910D01*
X860805Y-1570481D01*
X869695Y-1575054D01*
X878839Y-1575054D01*
X887984Y-1570481D01*
X901700Y-1561337D01*
X947165Y-1515871D01*
X947165Y-1579626D01*
X874268Y-1677670D02*
G01*
X865123Y-1673097D01*
X856234Y-1664207D01*
X851662Y-1655063D01*
X851662Y-1636776D01*
X856234Y-1627631D01*
X865123Y-1618742D01*
X874268Y-1614170D01*
X887984Y-1609597D01*
X910589Y-1609597D01*
X924305Y-1614170D01*
X933450Y-1618742D01*
X942594Y-1627631D01*
X947165Y-1636776D01*
X947165Y-1655063D01*
X942594Y-1664207D01*
X933450Y-1673097D01*
X924305Y-1677670D01*
X851662Y-1735073D02*
G01*
X856234Y-1721357D01*
X869695Y-1712213D01*
X892555Y-1707642D01*
X906018Y-1707642D01*
X928878Y-1712213D01*
X942594Y-1721357D01*
X947165Y-1735073D01*
X947165Y-1743963D01*
X942594Y-1757679D01*
X928878Y-1766823D01*
X906018Y-1771395D01*
X892555Y-1771395D01*
X869695Y-1766823D01*
X856234Y-1757679D01*
X851662Y-1743963D01*
X851662Y-1735073D01*
X851662Y-1871471D02*
G01*
X947165Y-1871471D01*
X874268Y-1906015D02*
G01*
X869695Y-1906015D01*
X860805Y-1910334D01*
X856234Y-1914905D01*
X851662Y-1924050D01*
X851662Y-1942337D01*
X856234Y-1951228D01*
X860805Y-1955800D01*
X869695Y-1960371D01*
X878839Y-1960371D01*
X887984Y-1955800D01*
X901700Y-1946910D01*
X947165Y-1901444D01*
X947165Y-1964944D01*
X874268Y-2063242D02*
G01*
X865123Y-2058670D01*
X856234Y-2049526D01*
X851662Y-2040381D01*
X851662Y-2022347D01*
X856234Y-2013204D01*
X865123Y-2004060D01*
X874268Y-1999487D01*
X887984Y-1994915D01*
X910589Y-1994915D01*
X924305Y-1999487D01*
X933450Y-2004060D01*
X942594Y-2013204D01*
X947165Y-2022347D01*
X947165Y-2040381D01*
X942594Y-2049526D01*
X933450Y-2058670D01*
X924305Y-2063242D01*
X869695Y-2093213D02*
G01*
X865123Y-2102357D01*
X851662Y-2115820D01*
X947165Y-2115820D01*
X838962Y-5562600D02*
G01*
X934465Y-5562600D01*
X838962Y-5562600D02*
G01*
X838962Y-5594350D01*
X843534Y-5608065D01*
X852423Y-5617210D01*
X861568Y-5621781D01*
X875284Y-5626354D01*
X897889Y-5626354D01*
X911605Y-5621781D01*
X920750Y-5617210D01*
X929894Y-5608065D01*
X934465Y-5594350D01*
X934465Y-5562600D01*
X838962Y-5656326D02*
G01*
X934465Y-5656326D01*
X838962Y-5656326D02*
G01*
X838962Y-5715254D01*
X884428Y-5656326D02*
G01*
X884428Y-5692647D01*
X934465Y-5656326D02*
G01*
X934465Y-5715254D01*
X838962Y-5745226D02*
G01*
X934465Y-5745226D01*
X838962Y-5745226D02*
G01*
X838962Y-5804407D01*
X884428Y-5745226D02*
G01*
X884428Y-5781802D01*
X838962Y-5870702D02*
G01*
X934465Y-5834379D01*
X838962Y-5870702D02*
G01*
X934465Y-5907023D01*
X902462Y-5848095D02*
G01*
X902462Y-5893562D01*
X838962Y-5937250D02*
G01*
X907034Y-5937250D01*
X920750Y-5941568D01*
X929894Y-5950712D01*
X934465Y-5964428D01*
X934465Y-5973571D01*
X929894Y-5987034D01*
X920750Y-5996178D01*
X907034Y-6000750D01*
X838962Y-6000750D01*
X838962Y-6030721D02*
G01*
X934465Y-6030721D01*
X934465Y-6030721D02*
G01*
X934465Y-6085331D01*
X838962Y-6147054D02*
G01*
X934465Y-6147054D01*
X838962Y-6115304D02*
G01*
X838962Y-6179057D01*
X851662Y-2336800D02*
G01*
X919734Y-2336800D01*
X933450Y-2341371D01*
X942594Y-2350515D01*
X947165Y-2363978D01*
X947165Y-2373121D01*
X942594Y-2386837D01*
X933450Y-2395981D01*
X919734Y-2400554D01*
X851662Y-2400554D01*
X851662Y-2466847D02*
G01*
X947165Y-2430526D01*
X851662Y-2466847D02*
G01*
X947165Y-2503170D01*
X915162Y-2443987D02*
G01*
X915162Y-2489454D01*
X851662Y-2533142D02*
G01*
X947165Y-2533142D01*
X851662Y-2533142D02*
G01*
X851662Y-2574036D01*
X856234Y-2587752D01*
X860805Y-2592323D01*
X869695Y-2596895D01*
X878839Y-2596895D01*
X887984Y-2592323D01*
X892555Y-2587752D01*
X897128Y-2574036D01*
X897128Y-2533142D01*
X897128Y-2564892D02*
G01*
X947165Y-2596895D01*
X851662Y-2658618D02*
G01*
X947165Y-2658618D01*
X851662Y-2626868D02*
G01*
X851662Y-2690368D01*
X851662Y-2747771D02*
G01*
X856234Y-2734055D01*
X869695Y-2724912D01*
X892555Y-2720339D01*
X906018Y-2720339D01*
X928878Y-2724912D01*
X942594Y-2734055D01*
X947165Y-2747771D01*
X947165Y-2756915D01*
X942594Y-2770378D01*
X928878Y-2779521D01*
X906018Y-2784094D01*
X892555Y-2784094D01*
X869695Y-2779521D01*
X856234Y-2770378D01*
X851662Y-2756915D01*
X851662Y-2747771D01*
X892555Y-2904997D02*
G01*
X887984Y-2904997D01*
X883412Y-2900426D01*
X883412Y-2895854D01*
X887984Y-2891281D01*
X897128Y-2886710D01*
X919734Y-2877820D01*
X933450Y-2868676D01*
X942594Y-2859531D01*
X947165Y-2850387D01*
X947165Y-2832354D01*
X942594Y-2823210D01*
X938021Y-2818637D01*
X928878Y-2814065D01*
X919734Y-2814065D01*
X910589Y-2818637D01*
X906018Y-2823210D01*
X887984Y-2854960D01*
X883412Y-2859531D01*
X874268Y-2864104D01*
X865123Y-2864104D01*
X856234Y-2859531D01*
X851662Y-2850387D01*
X856234Y-2841244D01*
X865123Y-2836926D01*
X874268Y-2836926D01*
X887984Y-2841244D01*
X901700Y-2850387D01*
X933450Y-2873247D01*
X942594Y-2882137D01*
X947165Y-2891281D01*
X947165Y-2900426D01*
X942594Y-2904997D01*
X938021Y-2904997D01*
X869695Y-2934970D02*
G01*
X865123Y-2944113D01*
X851662Y-2957829D01*
X947165Y-2957829D01*
X851662Y-3309365D02*
G01*
X924305Y-3309365D01*
X938021Y-3304794D01*
X942594Y-3300221D01*
X947165Y-3291078D01*
X947165Y-3282187D01*
X942594Y-3273044D01*
X938021Y-3268471D01*
X924305Y-3263900D01*
X915162Y-3263900D01*
X851662Y-3371087D02*
G01*
X947165Y-3371087D01*
X851662Y-3339337D02*
G01*
X851662Y-3403092D01*
X851662Y-3469386D02*
G01*
X947165Y-3433063D01*
X851662Y-3469386D02*
G01*
X947165Y-3505707D01*
X915162Y-3446526D02*
G01*
X915162Y-3491992D01*
X874268Y-3604005D02*
G01*
X865123Y-3599434D01*
X856234Y-3590289D01*
X851662Y-3581145D01*
X851662Y-3563112D01*
X856234Y-3553968D01*
X865123Y-3544823D01*
X874268Y-3540252D01*
X887984Y-3535679D01*
X910589Y-3535679D01*
X924305Y-3540252D01*
X933450Y-3544823D01*
X942594Y-3553968D01*
X947165Y-3563112D01*
X947165Y-3581145D01*
X942594Y-3590289D01*
X933450Y-3599434D01*
X924305Y-3604005D01*
X910589Y-3604005D01*
X910589Y-3581145D02*
G01*
X910589Y-3604005D01*
X2350261Y-4724400D02*
G01*
X2445765Y-4724400D01*
X2350261Y-4781550D02*
G01*
X2354834Y-4772660D01*
X2363724Y-4763515D01*
X2372868Y-4758944D01*
X2386584Y-4754371D01*
X2409190Y-4754371D01*
X2422906Y-4758944D01*
X2432050Y-4763515D01*
X2441193Y-4772660D01*
X2445765Y-4781550D01*
X2445765Y-4799837D01*
X2441193Y-4808981D01*
X2432050Y-4818126D01*
X2422906Y-4822697D01*
X2409190Y-4827015D01*
X2386584Y-4827015D01*
X2372868Y-4822697D01*
X2363724Y-4818126D01*
X2354834Y-4808981D01*
X2350261Y-4799837D01*
X2350261Y-4781550D01*
X2372868Y-4861560D02*
G01*
X2368295Y-4861560D01*
X2359406Y-4866131D01*
X2354834Y-4870704D01*
X2350261Y-4879847D01*
X2350261Y-4898136D01*
X2354834Y-4907026D01*
X2359406Y-4911597D01*
X2368295Y-4916170D01*
X2377440Y-4916170D01*
X2386584Y-4911597D01*
X2400300Y-4902707D01*
X2445765Y-4857242D01*
X2445765Y-4920742D01*
X2350261Y-4978145D02*
G01*
X2354834Y-4964429D01*
X2368295Y-4955286D01*
X2391156Y-4950713D01*
X2404618Y-4950713D01*
X2427477Y-4955286D01*
X2441193Y-4964429D01*
X2445765Y-4978145D01*
X2445765Y-4987036D01*
X2441193Y-5000752D01*
X2427477Y-5009895D01*
X2404618Y-5014468D01*
X2391156Y-5014468D01*
X2368295Y-5009895D01*
X2354834Y-5000752D01*
X2350261Y-4987036D01*
X2350261Y-4978145D01*
X2350261Y-5114289D02*
G01*
X2445765Y-5114289D01*
X2350261Y-5171694D02*
G01*
X2354834Y-5162550D01*
X2363724Y-5153405D01*
X2372868Y-5148834D01*
X2386584Y-5144515D01*
X2409190Y-5144515D01*
X2422906Y-5148834D01*
X2432050Y-5153405D01*
X2441193Y-5162550D01*
X2445765Y-5171694D01*
X2445765Y-5189728D01*
X2441193Y-5198871D01*
X2432050Y-5208015D01*
X2422906Y-5212587D01*
X2409190Y-5217160D01*
X2386584Y-5217160D01*
X2372868Y-5212587D01*
X2363724Y-5208015D01*
X2354834Y-5198871D01*
X2350261Y-5189728D01*
X2350261Y-5171694D01*
X2350261Y-5292597D02*
G01*
X2413761Y-5247131D01*
X2413761Y-5315204D01*
X2350261Y-5292597D02*
G01*
X2445765Y-5292597D01*
X2083561Y-4724400D02*
G01*
X2179065Y-4724400D01*
X2083561Y-4781550D02*
G01*
X2088134Y-4772660D01*
X2097024Y-4763515D01*
X2106168Y-4758944D01*
X2119884Y-4754371D01*
X2142490Y-4754371D01*
X2156206Y-4758944D01*
X2165350Y-4763515D01*
X2174493Y-4772660D01*
X2179065Y-4781550D01*
X2179065Y-4799837D01*
X2174493Y-4808981D01*
X2165350Y-4818126D01*
X2156206Y-4822697D01*
X2142490Y-4827015D01*
X2119884Y-4827015D01*
X2106168Y-4822697D01*
X2097024Y-4818126D01*
X2088134Y-4808981D01*
X2083561Y-4799837D01*
X2083561Y-4781550D01*
X2106168Y-4861560D02*
G01*
X2101595Y-4861560D01*
X2092706Y-4866131D01*
X2088134Y-4870704D01*
X2083561Y-4879847D01*
X2083561Y-4898136D01*
X2088134Y-4907026D01*
X2092706Y-4911597D01*
X2101595Y-4916170D01*
X2110740Y-4916170D01*
X2119884Y-4911597D01*
X2133600Y-4902707D01*
X2179065Y-4857242D01*
X2179065Y-4920742D01*
X2101595Y-4950713D02*
G01*
X2097024Y-4959857D01*
X2083561Y-4973573D01*
X2179065Y-4973573D01*
X2083561Y-5073395D02*
G01*
X2179065Y-5073395D01*
X2083561Y-5130800D02*
G01*
X2088134Y-5121655D01*
X2097024Y-5112512D01*
X2106168Y-5107939D01*
X2119884Y-5103368D01*
X2142490Y-5103368D01*
X2156206Y-5107939D01*
X2165350Y-5112512D01*
X2174493Y-5121655D01*
X2179065Y-5130800D01*
X2179065Y-5148834D01*
X2174493Y-5157978D01*
X2165350Y-5167121D01*
X2156206Y-5171694D01*
X2142490Y-5176265D01*
X2119884Y-5176265D01*
X2106168Y-5171694D01*
X2097024Y-5167121D01*
X2088134Y-5157978D01*
X2083561Y-5148834D01*
X2083561Y-5130800D01*
X2097024Y-5260847D02*
G01*
X2088134Y-5256276D01*
X2083561Y-5242560D01*
X2083561Y-5233415D01*
X2088134Y-5219954D01*
X2101595Y-5210810D01*
X2124456Y-5206237D01*
X2147061Y-5206237D01*
X2165350Y-5210810D01*
X2174493Y-5219954D01*
X2179065Y-5233415D01*
X2179065Y-5237987D01*
X2174493Y-5251704D01*
X2165350Y-5260847D01*
X2151634Y-5265420D01*
X2147061Y-5265420D01*
X2133600Y-5260847D01*
X2124456Y-5251704D01*
X2119884Y-5237987D01*
X2119884Y-5233415D01*
X2124456Y-5219954D01*
X2133600Y-5210810D01*
X2147061Y-5206237D01*
X1877568Y-4805171D02*
G01*
X1868423Y-4800854D01*
X1859534Y-4791710D01*
X1854962Y-4782565D01*
X1854962Y-4764278D01*
X1859534Y-4755387D01*
X1868423Y-4746244D01*
X1877568Y-4741671D01*
X1891284Y-4737100D01*
X1913889Y-4737100D01*
X1927605Y-4741671D01*
X1936750Y-4746244D01*
X1945893Y-4755387D01*
X1950465Y-4764278D01*
X1950465Y-4782565D01*
X1945893Y-4791710D01*
X1936750Y-4800854D01*
X1927605Y-4805171D01*
X1913889Y-4805171D01*
X1913889Y-4782565D02*
G01*
X1913889Y-4805171D01*
X1854962Y-4835397D02*
G01*
X1950465Y-4835397D01*
X1854962Y-4835397D02*
G01*
X1950465Y-4898897D01*
X1854962Y-4898897D02*
G01*
X1950465Y-4898897D01*
X1854962Y-4928870D02*
G01*
X1950465Y-4928870D01*
X1854962Y-4928870D02*
G01*
X1854962Y-4960620D01*
X1859534Y-4974336D01*
X1868423Y-4983479D01*
X1877568Y-4988052D01*
X1891284Y-4992623D01*
X1913889Y-4992623D01*
X1927605Y-4988052D01*
X1936750Y-4983479D01*
X1945893Y-4974336D01*
X1950465Y-4960620D01*
X1950465Y-4928870D01*
X1877568Y-5160771D02*
G01*
X1868423Y-5156200D01*
X1859534Y-5147055D01*
X1854962Y-5137912D01*
X1854962Y-5119878D01*
X1859534Y-5110734D01*
X1868423Y-5101589D01*
X1877568Y-5097018D01*
X1891284Y-5092445D01*
X1913889Y-5092445D01*
X1927605Y-5097018D01*
X1936750Y-5101589D01*
X1945893Y-5110734D01*
X1950465Y-5119878D01*
X1950465Y-5137912D01*
X1945893Y-5147055D01*
X1936750Y-5156200D01*
X1927605Y-5160771D01*
X1913889Y-5160771D01*
X1913889Y-5137912D02*
G01*
X1913889Y-5160771D01*
X1854962Y-5190744D02*
G01*
X1950465Y-5190744D01*
X1854962Y-5190744D02*
G01*
X1950465Y-5254497D01*
X1854962Y-5254497D02*
G01*
X1950465Y-5254497D01*
X1854962Y-5284470D02*
G01*
X1950465Y-5284470D01*
X1854962Y-5284470D02*
G01*
X1854962Y-5316220D01*
X1859534Y-5329936D01*
X1868423Y-5338826D01*
X1877568Y-5343397D01*
X1891284Y-5347970D01*
X1913889Y-5347970D01*
X1927605Y-5343397D01*
X1936750Y-5338826D01*
X1945893Y-5329936D01*
X1950465Y-5316220D01*
X1950465Y-5284470D01*
X1588262Y-4746244D02*
G01*
X1588262Y-4796281D01*
X1624584Y-4768850D01*
X1624584Y-4782565D01*
X1629155Y-4791710D01*
X1633728Y-4796281D01*
X1647189Y-4800854D01*
X1656334Y-4800854D01*
X1670050Y-4796281D01*
X1679194Y-4787137D01*
X1683765Y-4773421D01*
X1683765Y-4759705D01*
X1679194Y-4746244D01*
X1674621Y-4741671D01*
X1665478Y-4737100D01*
X1588262Y-4830826D02*
G01*
X1683765Y-4867147D01*
X1588262Y-4903470D02*
G01*
X1683765Y-4867147D01*
X1588262Y-4942586D02*
G01*
X1588262Y-4992623D01*
X1624584Y-4965192D01*
X1624584Y-4978907D01*
X1629155Y-4988052D01*
X1633728Y-4992623D01*
X1647189Y-4997195D01*
X1656334Y-4997195D01*
X1670050Y-4992623D01*
X1679194Y-4983479D01*
X1683765Y-4969763D01*
X1683765Y-4956302D01*
X1679194Y-4942586D01*
X1674621Y-4938013D01*
X1665478Y-4933442D01*
X1588262Y-5142484D02*
G01*
X1651762Y-5097018D01*
X1651762Y-5165344D01*
X1588262Y-5142484D02*
G01*
X1683765Y-5142484D01*
X1588262Y-5195315D02*
G01*
X1683765Y-5231637D01*
X1588262Y-5267960D02*
G01*
X1683765Y-5231637D01*
X1588262Y-5352542D02*
G01*
X1588262Y-5307076D01*
X1629155Y-5302504D01*
X1624584Y-5307076D01*
X1620012Y-5320792D01*
X1620012Y-5334254D01*
X1624584Y-5347970D01*
X1633728Y-5357113D01*
X1647189Y-5361686D01*
X1656334Y-5361686D01*
X1670050Y-5357113D01*
X1679194Y-5347970D01*
X1683765Y-5334254D01*
X1683765Y-5320792D01*
X1679194Y-5307076D01*
X1674621Y-5302504D01*
X1665478Y-5297931D01*
X1334262Y-4737100D02*
G01*
X1429765Y-4737100D01*
X1334262Y-4794250D02*
G01*
X1338834Y-4785360D01*
X1347723Y-4776215D01*
X1356868Y-4771644D01*
X1370584Y-4767071D01*
X1393189Y-4767071D01*
X1406905Y-4771644D01*
X1416050Y-4776215D01*
X1425194Y-4785360D01*
X1429765Y-4794250D01*
X1429765Y-4812537D01*
X1425194Y-4821681D01*
X1416050Y-4830826D01*
X1406905Y-4835397D01*
X1393189Y-4839715D01*
X1370584Y-4839715D01*
X1356868Y-4835397D01*
X1347723Y-4830826D01*
X1338834Y-4821681D01*
X1334262Y-4812537D01*
X1334262Y-4794250D01*
X1334262Y-4897120D02*
G01*
X1338834Y-4883404D01*
X1352295Y-4874260D01*
X1375155Y-4869942D01*
X1388618Y-4869942D01*
X1411478Y-4874260D01*
X1425194Y-4883404D01*
X1429765Y-4897120D01*
X1429765Y-4906263D01*
X1425194Y-4919726D01*
X1411478Y-4928870D01*
X1388618Y-4933442D01*
X1375155Y-4933442D01*
X1352295Y-4928870D01*
X1338834Y-4919726D01*
X1334262Y-4906263D01*
X1334262Y-4897120D01*
X1334262Y-5103368D02*
G01*
X1429765Y-5103368D01*
X1334262Y-5160771D02*
G01*
X1338834Y-5151628D01*
X1347723Y-5142484D01*
X1356868Y-5137912D01*
X1370584Y-5133339D01*
X1393189Y-5133339D01*
X1406905Y-5137912D01*
X1416050Y-5142484D01*
X1425194Y-5151628D01*
X1429765Y-5160771D01*
X1429765Y-5178805D01*
X1425194Y-5187950D01*
X1416050Y-5197094D01*
X1406905Y-5201665D01*
X1393189Y-5206237D01*
X1370584Y-5206237D01*
X1356868Y-5201665D01*
X1347723Y-5197094D01*
X1338834Y-5187950D01*
X1334262Y-5178805D01*
X1334262Y-5160771D01*
X1334262Y-5299710D02*
G01*
X1429765Y-5254497D01*
X1334262Y-5236210D02*
G01*
X1334262Y-5299710D01*
X1067562Y-4737100D02*
G01*
X1163065Y-4737100D01*
X1067562Y-4794250D02*
G01*
X1072134Y-4785360D01*
X1081023Y-4776215D01*
X1090168Y-4771644D01*
X1103884Y-4767071D01*
X1126489Y-4767071D01*
X1140205Y-4771644D01*
X1149350Y-4776215D01*
X1158494Y-4785360D01*
X1163065Y-4794250D01*
X1163065Y-4812537D01*
X1158494Y-4821681D01*
X1149350Y-4830826D01*
X1140205Y-4835397D01*
X1126489Y-4839715D01*
X1103884Y-4839715D01*
X1090168Y-4835397D01*
X1081023Y-4830826D01*
X1072134Y-4821681D01*
X1067562Y-4812537D01*
X1067562Y-4794250D01*
X1099312Y-4928870D02*
G01*
X1113028Y-4924297D01*
X1121918Y-4915407D01*
X1126489Y-4901692D01*
X1126489Y-4897120D01*
X1121918Y-4883404D01*
X1113028Y-4874260D01*
X1099312Y-4869942D01*
X1094739Y-4869942D01*
X1081023Y-4874260D01*
X1072134Y-4883404D01*
X1067562Y-4897120D01*
X1067562Y-4901692D01*
X1072134Y-4915407D01*
X1081023Y-4924297D01*
X1099312Y-4928870D01*
X1121918Y-4928870D01*
X1144778Y-4924297D01*
X1158494Y-4915407D01*
X1163065Y-4901692D01*
X1163065Y-4892547D01*
X1158494Y-4878831D01*
X1149350Y-4874260D01*
X1067562Y-5098795D02*
G01*
X1163065Y-5098795D01*
X1067562Y-5156200D02*
G01*
X1072134Y-5147055D01*
X1081023Y-5137912D01*
X1090168Y-5133339D01*
X1103884Y-5129021D01*
X1126489Y-5129021D01*
X1140205Y-5133339D01*
X1149350Y-5137912D01*
X1158494Y-5147055D01*
X1163065Y-5156200D01*
X1163065Y-5174487D01*
X1158494Y-5183378D01*
X1149350Y-5192521D01*
X1140205Y-5197094D01*
X1126489Y-5201665D01*
X1103884Y-5201665D01*
X1090168Y-5197094D01*
X1081023Y-5192521D01*
X1072134Y-5183378D01*
X1067562Y-5174487D01*
X1067562Y-5156200D01*
X1067562Y-5286247D02*
G01*
X1067562Y-5240781D01*
X1108455Y-5236210D01*
X1103884Y-5240781D01*
X1099312Y-5254497D01*
X1099312Y-5267960D01*
X1103884Y-5281676D01*
X1113028Y-5290820D01*
X1126489Y-5295392D01*
X1135634Y-5295392D01*
X1149350Y-5290820D01*
X1158494Y-5281676D01*
X1163065Y-5267960D01*
X1163065Y-5254497D01*
X1158494Y-5240781D01*
X1153921Y-5236210D01*
X1144778Y-5231637D01*
X2362961Y-5473700D02*
G01*
X2458465Y-5473700D01*
X2362961Y-5473700D02*
G01*
X2362961Y-5514594D01*
X2367534Y-5528310D01*
X2372106Y-5532881D01*
X2380995Y-5537454D01*
X2390140Y-5537454D01*
X2399284Y-5532881D01*
X2403856Y-5528310D01*
X2408427Y-5514594D01*
X2408427Y-5473700D01*
X2408427Y-5505450D02*
G01*
X2458465Y-5537454D01*
X2362961Y-5567426D02*
G01*
X2458465Y-5630926D01*
X2362961Y-5630926D02*
G01*
X2458465Y-5567426D01*
X2362961Y-5660897D02*
G01*
X2458465Y-5660897D01*
X2362961Y-5660897D02*
G01*
X2362961Y-5692902D01*
X2367534Y-5706363D01*
X2376424Y-5715507D01*
X2385568Y-5720079D01*
X2399284Y-5724652D01*
X2421890Y-5724652D01*
X2435606Y-5720079D01*
X2444750Y-5715507D01*
X2453893Y-5706363D01*
X2458465Y-5692902D01*
X2458465Y-5660897D01*
X2362961Y-5824728D02*
G01*
X2458465Y-5824728D01*
X2362961Y-5824728D02*
G01*
X2458465Y-5861050D01*
X2362961Y-5897371D02*
G01*
X2458465Y-5861050D01*
X2362961Y-5897371D02*
G01*
X2458465Y-5897371D01*
X2362961Y-5954521D02*
G01*
X2367534Y-5945631D01*
X2376424Y-5936487D01*
X2385568Y-5931915D01*
X2399284Y-5927344D01*
X2421890Y-5927344D01*
X2435606Y-5931915D01*
X2444750Y-5936487D01*
X2453893Y-5945631D01*
X2458465Y-5954521D01*
X2458465Y-5972810D01*
X2453893Y-5981954D01*
X2444750Y-5991097D01*
X2435606Y-5995415D01*
X2421890Y-5999987D01*
X2399284Y-5999987D01*
X2385568Y-5995415D01*
X2376424Y-5991097D01*
X2367534Y-5981954D01*
X2362961Y-5972810D01*
X2362961Y-5954521D01*
X2376424Y-6093713D02*
G01*
X2367534Y-6084570D01*
X2362961Y-6070854D01*
X2362961Y-6052820D01*
X2367534Y-6039104D01*
X2376424Y-6029960D01*
X2385568Y-6029960D01*
X2394711Y-6034531D01*
X2399284Y-6039104D01*
X2403856Y-6048247D01*
X2413000Y-6075426D01*
X2417318Y-6084570D01*
X2421890Y-6089142D01*
X2431034Y-6093713D01*
X2444750Y-6093713D01*
X2453893Y-6084570D01*
X2458465Y-6070854D01*
X2458465Y-6052820D01*
X2453893Y-6039104D01*
X2444750Y-6029960D01*
X2362961Y-6123686D02*
G01*
X2458465Y-6123686D01*
X2108961Y-5518150D02*
G01*
X2204465Y-5518150D01*
X2108961Y-5486400D02*
G01*
X2108961Y-5550154D01*
X2108961Y-5580126D02*
G01*
X2204465Y-5643626D01*
X2108961Y-5643626D02*
G01*
X2204465Y-5580126D01*
X2108961Y-5673597D02*
G01*
X2204465Y-5673597D01*
X2108961Y-5673597D02*
G01*
X2108961Y-5705602D01*
X2113534Y-5719063D01*
X2122424Y-5728207D01*
X2131568Y-5732779D01*
X2145284Y-5737352D01*
X2167890Y-5737352D01*
X2181606Y-5732779D01*
X2190750Y-5728207D01*
X2199893Y-5719063D01*
X2204465Y-5705602D01*
X2204465Y-5673597D01*
X2122424Y-5900928D02*
G01*
X2113534Y-5891784D01*
X2108961Y-5878321D01*
X2108961Y-5860034D01*
X2113534Y-5846318D01*
X2122424Y-5837428D01*
X2131568Y-5837428D01*
X2140711Y-5841745D01*
X2145284Y-5846318D01*
X2149856Y-5855462D01*
X2159000Y-5882639D01*
X2163318Y-5891784D01*
X2167890Y-5896355D01*
X2177034Y-5900928D01*
X2190750Y-5900928D01*
X2199893Y-5891784D01*
X2204465Y-5878321D01*
X2204465Y-5860034D01*
X2199893Y-5846318D01*
X2190750Y-5837428D01*
X2131568Y-5999226D02*
G01*
X2122424Y-5994654D01*
X2113534Y-5985510D01*
X2108961Y-5976365D01*
X2108961Y-5958331D01*
X2113534Y-5949187D01*
X2122424Y-5940044D01*
X2131568Y-5935471D01*
X2145284Y-5930900D01*
X2167890Y-5930900D01*
X2181606Y-5935471D01*
X2190750Y-5940044D01*
X2199893Y-5949187D01*
X2204465Y-5958331D01*
X2204465Y-5976365D01*
X2199893Y-5985510D01*
X2190750Y-5994654D01*
X2181606Y-5999226D01*
X2108961Y-6029197D02*
G01*
X2204465Y-6029197D01*
X2204465Y-6029197D02*
G01*
X2204465Y-6083554D01*
X2108961Y-6113779D02*
G01*
X2204465Y-6113779D01*
X2108961Y-6177279D02*
G01*
X2172461Y-6113779D01*
X2149856Y-6136386D02*
G01*
X2204465Y-6177279D01*
X1877568Y-5554471D02*
G01*
X1868423Y-5550154D01*
X1859534Y-5541010D01*
X1854962Y-5531865D01*
X1854962Y-5513578D01*
X1859534Y-5504687D01*
X1868423Y-5495544D01*
X1877568Y-5490971D01*
X1891284Y-5486400D01*
X1913889Y-5486400D01*
X1927605Y-5490971D01*
X1936750Y-5495544D01*
X1945893Y-5504687D01*
X1950465Y-5513578D01*
X1950465Y-5531865D01*
X1945893Y-5541010D01*
X1936750Y-5550154D01*
X1927605Y-5554471D01*
X1913889Y-5554471D01*
X1913889Y-5531865D02*
G01*
X1913889Y-5554471D01*
X1854962Y-5584697D02*
G01*
X1950465Y-5584697D01*
X1854962Y-5584697D02*
G01*
X1950465Y-5648197D01*
X1854962Y-5648197D02*
G01*
X1950465Y-5648197D01*
X1854962Y-5678170D02*
G01*
X1950465Y-5678170D01*
X1854962Y-5678170D02*
G01*
X1854962Y-5709920D01*
X1859534Y-5723636D01*
X1868423Y-5732779D01*
X1877568Y-5737352D01*
X1891284Y-5741923D01*
X1913889Y-5741923D01*
X1927605Y-5737352D01*
X1936750Y-5732779D01*
X1945893Y-5723636D01*
X1950465Y-5709920D01*
X1950465Y-5678170D01*
X1877568Y-5910071D02*
G01*
X1868423Y-5905500D01*
X1859534Y-5896355D01*
X1854962Y-5887212D01*
X1854962Y-5869178D01*
X1859534Y-5860034D01*
X1868423Y-5850889D01*
X1877568Y-5846318D01*
X1891284Y-5841745D01*
X1913889Y-5841745D01*
X1927605Y-5846318D01*
X1936750Y-5850889D01*
X1945893Y-5860034D01*
X1950465Y-5869178D01*
X1950465Y-5887212D01*
X1945893Y-5896355D01*
X1936750Y-5905500D01*
X1927605Y-5910071D01*
X1913889Y-5910071D01*
X1913889Y-5887212D02*
G01*
X1913889Y-5910071D01*
X1854962Y-5940044D02*
G01*
X1950465Y-5940044D01*
X1854962Y-5940044D02*
G01*
X1950465Y-6003797D01*
X1854962Y-6003797D02*
G01*
X1950465Y-6003797D01*
X1854962Y-6033770D02*
G01*
X1950465Y-6033770D01*
X1854962Y-6033770D02*
G01*
X1854962Y-6065520D01*
X1859534Y-6079236D01*
X1868423Y-6088126D01*
X1877568Y-6092697D01*
X1891284Y-6097270D01*
X1913889Y-6097270D01*
X1927605Y-6092697D01*
X1936750Y-6088126D01*
X1945893Y-6079236D01*
X1950465Y-6065520D01*
X1950465Y-6033770D01*
X1575562Y-5495544D02*
G01*
X1575562Y-5545581D01*
X1611884Y-5518150D01*
X1611884Y-5531865D01*
X1616455Y-5541010D01*
X1621028Y-5545581D01*
X1634489Y-5550154D01*
X1643634Y-5550154D01*
X1657350Y-5545581D01*
X1666494Y-5536437D01*
X1671065Y-5522721D01*
X1671065Y-5509005D01*
X1666494Y-5495544D01*
X1661921Y-5490971D01*
X1652778Y-5486400D01*
X1575562Y-5580126D02*
G01*
X1671065Y-5616447D01*
X1575562Y-5652770D02*
G01*
X1671065Y-5616447D01*
X1575562Y-5691886D02*
G01*
X1575562Y-5741923D01*
X1611884Y-5714492D01*
X1611884Y-5728207D01*
X1616455Y-5737352D01*
X1621028Y-5741923D01*
X1634489Y-5746495D01*
X1643634Y-5746495D01*
X1657350Y-5741923D01*
X1666494Y-5732779D01*
X1671065Y-5719063D01*
X1671065Y-5705602D01*
X1666494Y-5691886D01*
X1661921Y-5687313D01*
X1652778Y-5682742D01*
X1575562Y-5891784D02*
G01*
X1639062Y-5846318D01*
X1639062Y-5914644D01*
X1575562Y-5891784D02*
G01*
X1671065Y-5891784D01*
X1575562Y-5944615D02*
G01*
X1671065Y-5980937D01*
X1575562Y-6017260D02*
G01*
X1671065Y-5980937D01*
X1575562Y-6101842D02*
G01*
X1575562Y-6056376D01*
X1616455Y-6051804D01*
X1611884Y-6056376D01*
X1607312Y-6070092D01*
X1607312Y-6083554D01*
X1611884Y-6097270D01*
X1621028Y-6106413D01*
X1634489Y-6110986D01*
X1643634Y-6110986D01*
X1657350Y-6106413D01*
X1666494Y-6097270D01*
X1671065Y-6083554D01*
X1671065Y-6070092D01*
X1666494Y-6056376D01*
X1661921Y-6051804D01*
X1652778Y-6047231D01*
X1321562Y-5486400D02*
G01*
X1417065Y-5486400D01*
X1417065Y-5486400D02*
G01*
X1417065Y-5541010D01*
X1344168Y-5639054D02*
G01*
X1335023Y-5634481D01*
X1326134Y-5625592D01*
X1321562Y-5616447D01*
X1321562Y-5598160D01*
X1326134Y-5589015D01*
X1335023Y-5580126D01*
X1344168Y-5575554D01*
X1357884Y-5570981D01*
X1380489Y-5570981D01*
X1394205Y-5575554D01*
X1403350Y-5580126D01*
X1412494Y-5589015D01*
X1417065Y-5598160D01*
X1417065Y-5616447D01*
X1412494Y-5625592D01*
X1403350Y-5634481D01*
X1394205Y-5639054D01*
X1321562Y-5669026D02*
G01*
X1417065Y-5669026D01*
X1321562Y-5669026D02*
G01*
X1321562Y-5701029D01*
X1326134Y-5714492D01*
X1335023Y-5723636D01*
X1344168Y-5728207D01*
X1357884Y-5732779D01*
X1380489Y-5732779D01*
X1394205Y-5728207D01*
X1403350Y-5723636D01*
X1412494Y-5714492D01*
X1417065Y-5701029D01*
X1417065Y-5669026D01*
X1448815Y-5762752D02*
G01*
X1448815Y-5844539D01*
X1321562Y-5874512D02*
G01*
X1417065Y-5874512D01*
X1321562Y-5874512D02*
G01*
X1321562Y-5915405D01*
X1326134Y-5929121D01*
X1330705Y-5933694D01*
X1339595Y-5938265D01*
X1348739Y-5938265D01*
X1357884Y-5933694D01*
X1362455Y-5929121D01*
X1367028Y-5915405D01*
X1367028Y-5874512D02*
G01*
X1367028Y-5915405D01*
X1371600Y-5929121D01*
X1375918Y-5933694D01*
X1385062Y-5938265D01*
X1398778Y-5938265D01*
X1407921Y-5933694D01*
X1412494Y-5929121D01*
X1417065Y-5915405D01*
X1417065Y-5874512D01*
X1321562Y-5968237D02*
G01*
X1417065Y-5968237D01*
X1417065Y-5968237D02*
G01*
X1417065Y-6022847D01*
X1321562Y-6122670D02*
G01*
X1417065Y-6122670D01*
X1417065Y-6122670D02*
G01*
X1417065Y-6177279D01*
X1344168Y-6275578D02*
G01*
X1335023Y-6271005D01*
X1326134Y-6261862D01*
X1321562Y-6252718D01*
X1321562Y-6234684D01*
X1326134Y-6225539D01*
X1335023Y-6216395D01*
X1344168Y-6211823D01*
X1357884Y-6207252D01*
X1380489Y-6207252D01*
X1394205Y-6211823D01*
X1403350Y-6216395D01*
X1412494Y-6225539D01*
X1417065Y-6234684D01*
X1417065Y-6252718D01*
X1412494Y-6261862D01*
X1403350Y-6271005D01*
X1394205Y-6275578D01*
X1321562Y-6305550D02*
G01*
X1417065Y-6305550D01*
X1321562Y-6305550D02*
G01*
X1321562Y-6337300D01*
X1326134Y-6351015D01*
X1335023Y-6360160D01*
X1344168Y-6364478D01*
X1357884Y-6369050D01*
X1380489Y-6369050D01*
X1394205Y-6364478D01*
X1403350Y-6360160D01*
X1412494Y-6351015D01*
X1417065Y-6337300D01*
X1417065Y-6305550D01*
X1448815Y-6399021D02*
G01*
X1448815Y-6481063D01*
X1344168Y-6579108D02*
G01*
X1335023Y-6574536D01*
X1326134Y-6565392D01*
X1321562Y-6556502D01*
X1321562Y-6538213D01*
X1326134Y-6529070D01*
X1335023Y-6519926D01*
X1344168Y-6515607D01*
X1357884Y-6511036D01*
X1380489Y-6511036D01*
X1394205Y-6515607D01*
X1403350Y-6519926D01*
X1412494Y-6529070D01*
X1417065Y-6538213D01*
X1417065Y-6556502D01*
X1412494Y-6565392D01*
X1403350Y-6574536D01*
X1394205Y-6579108D01*
X1335023Y-6672834D02*
G01*
X1326134Y-6663689D01*
X1321562Y-6649973D01*
X1321562Y-6631939D01*
X1326134Y-6618223D01*
X1335023Y-6609079D01*
X1344168Y-6609079D01*
X1353312Y-6613652D01*
X1357884Y-6618223D01*
X1362455Y-6627368D01*
X1371600Y-6654545D01*
X1375918Y-6663689D01*
X1380489Y-6668262D01*
X1389634Y-6672834D01*
X1403350Y-6672834D01*
X1412494Y-6663689D01*
X1417065Y-6649973D01*
X1417065Y-6631939D01*
X1412494Y-6618223D01*
X1403350Y-6609079D01*
X1067562Y-5499100D02*
G01*
X1163065Y-5499100D01*
X1067562Y-5499100D02*
G01*
X1067562Y-5539994D01*
X1072134Y-5553710D01*
X1076705Y-5558281D01*
X1085595Y-5562854D01*
X1094739Y-5562854D01*
X1103884Y-5558281D01*
X1108455Y-5553710D01*
X1113028Y-5539994D01*
X1113028Y-5499100D02*
G01*
X1113028Y-5539994D01*
X1117600Y-5553710D01*
X1121918Y-5558281D01*
X1131062Y-5562854D01*
X1144778Y-5562854D01*
X1153921Y-5558281D01*
X1158494Y-5553710D01*
X1163065Y-5539994D01*
X1163065Y-5499100D01*
X1067562Y-5620004D02*
G01*
X1072134Y-5610860D01*
X1081023Y-5601715D01*
X1090168Y-5597397D01*
X1103884Y-5592826D01*
X1126489Y-5592826D01*
X1140205Y-5597397D01*
X1149350Y-5601715D01*
X1158494Y-5610860D01*
X1163065Y-5620004D01*
X1163065Y-5638292D01*
X1158494Y-5647181D01*
X1149350Y-5656326D01*
X1140205Y-5660897D01*
X1126489Y-5665470D01*
X1103884Y-5665470D01*
X1090168Y-5660897D01*
X1081023Y-5656326D01*
X1072134Y-5647181D01*
X1067562Y-5638292D01*
X1067562Y-5620004D01*
X1067562Y-5722620D02*
G01*
X1072134Y-5713729D01*
X1081023Y-5704586D01*
X1090168Y-5700013D01*
X1103884Y-5695442D01*
X1126489Y-5695442D01*
X1140205Y-5700013D01*
X1149350Y-5704586D01*
X1158494Y-5713729D01*
X1163065Y-5722620D01*
X1163065Y-5740907D01*
X1158494Y-5750052D01*
X1149350Y-5759195D01*
X1140205Y-5763768D01*
X1126489Y-5768086D01*
X1103884Y-5768086D01*
X1090168Y-5763768D01*
X1081023Y-5759195D01*
X1072134Y-5750052D01*
X1067562Y-5740907D01*
X1067562Y-5722620D01*
X1067562Y-5830062D02*
G01*
X1163065Y-5830062D01*
X1067562Y-5798312D02*
G01*
X1067562Y-5861812D01*
X1067562Y-5961887D02*
G01*
X1163065Y-5961887D01*
X1067562Y-5961887D02*
G01*
X1163065Y-5998210D01*
X1067562Y-6034531D02*
G01*
X1163065Y-5998210D01*
X1067562Y-6034531D02*
G01*
X1163065Y-6034531D01*
X1067562Y-6064504D02*
G01*
X1163065Y-6064504D01*
X1081023Y-6158229D02*
G01*
X1072134Y-6149086D01*
X1067562Y-6135370D01*
X1067562Y-6117336D01*
X1072134Y-6103620D01*
X1081023Y-6094476D01*
X1090168Y-6094476D01*
X1099312Y-6099047D01*
X1103884Y-6103620D01*
X1108455Y-6112763D01*
X1117600Y-6139942D01*
X1121918Y-6149086D01*
X1126489Y-6153657D01*
X1135634Y-6158229D01*
X1149350Y-6158229D01*
X1158494Y-6149086D01*
X1163065Y-6135370D01*
X1163065Y-6117336D01*
X1158494Y-6103620D01*
X1149350Y-6094476D01*
X1067562Y-6215379D02*
G01*
X1072134Y-6206489D01*
X1081023Y-6197345D01*
X1090168Y-6192773D01*
X1103884Y-6188202D01*
X1126489Y-6188202D01*
X1140205Y-6192773D01*
X1149350Y-6197345D01*
X1158494Y-6206489D01*
X1163065Y-6215379D01*
X1163065Y-6233668D01*
X1158494Y-6242812D01*
X1149350Y-6251702D01*
X1140205Y-6256273D01*
X1126489Y-6260845D01*
X1103884Y-6260845D01*
X1090168Y-6256273D01*
X1081023Y-6251702D01*
X1072134Y-6242812D01*
X1067562Y-6233668D01*
X1067562Y-6215379D01*
X852423Y-4165854D02*
G01*
X843534Y-4156710D01*
X838962Y-4142994D01*
X838962Y-4124705D01*
X843534Y-4111244D01*
X852423Y-4102100D01*
X861568Y-4102100D01*
X870712Y-4106671D01*
X875284Y-4111244D01*
X879855Y-4120387D01*
X889000Y-4147565D01*
X893318Y-4156710D01*
X897889Y-4161281D01*
X907034Y-4165854D01*
X920750Y-4165854D01*
X929894Y-4156710D01*
X934465Y-4142994D01*
X934465Y-4124705D01*
X929894Y-4111244D01*
X920750Y-4102100D01*
X838962Y-4195826D02*
G01*
X934465Y-4218431D01*
X838962Y-4241292D02*
G01*
X934465Y-4218431D01*
X838962Y-4241292D02*
G01*
X934465Y-4263897D01*
X838962Y-4286757D02*
G01*
X934465Y-4263897D01*
X838962Y-4316729D02*
G01*
X934465Y-4316729D01*
X838962Y-4316729D02*
G01*
X838962Y-4348479D01*
X843534Y-4362195D01*
X852423Y-4371086D01*
X861568Y-4375657D01*
X875284Y-4380229D01*
X897889Y-4380229D01*
X911605Y-4375657D01*
X920750Y-4371086D01*
X929894Y-4362195D01*
X934465Y-4348479D01*
X934465Y-4316729D01*
X2350261Y-4191000D02*
G01*
X2445765Y-4191000D01*
X2350261Y-4191000D02*
G01*
X2350261Y-4231894D01*
X2354834Y-4245610D01*
X2359406Y-4250181D01*
X2368295Y-4254754D01*
X2377440Y-4254754D01*
X2386584Y-4250181D01*
X2391156Y-4245610D01*
X2395727Y-4231894D01*
X2395727Y-4191000D01*
X2395727Y-4222750D02*
G01*
X2445765Y-4254754D01*
X2350261Y-4284726D02*
G01*
X2445765Y-4284726D01*
X2350261Y-4284726D02*
G01*
X2350261Y-4343654D01*
X2395727Y-4284726D02*
G01*
X2395727Y-4321047D01*
X2445765Y-4284726D02*
G01*
X2445765Y-4343654D01*
X2363724Y-4437379D02*
G01*
X2354834Y-4428236D01*
X2350261Y-4414520D01*
X2350261Y-4396486D01*
X2354834Y-4382770D01*
X2363724Y-4373626D01*
X2372868Y-4373626D01*
X2382011Y-4378197D01*
X2386584Y-4382770D01*
X2391156Y-4391913D01*
X2400300Y-4419092D01*
X2404618Y-4428236D01*
X2409190Y-4432807D01*
X2418334Y-4437379D01*
X2432050Y-4437379D01*
X2441193Y-4428236D01*
X2445765Y-4414520D01*
X2445765Y-4396486D01*
X2441193Y-4382770D01*
X2432050Y-4373626D01*
X2350261Y-4467352D02*
G01*
X2445765Y-4467352D01*
X2350261Y-4467352D02*
G01*
X2350261Y-4526534D01*
X2395727Y-4467352D02*
G01*
X2395727Y-4503673D01*
X2445765Y-4467352D02*
G01*
X2445765Y-4526534D01*
X2350261Y-4588255D02*
G01*
X2445765Y-4588255D01*
X2350261Y-4556505D02*
G01*
X2350261Y-4620005D01*
X2109724Y-4254754D02*
G01*
X2100834Y-4245610D01*
X2096261Y-4231894D01*
X2096261Y-4213605D01*
X2100834Y-4200144D01*
X2109724Y-4191000D01*
X2118868Y-4191000D01*
X2128011Y-4195571D01*
X2132584Y-4200144D01*
X2137156Y-4209287D01*
X2146300Y-4236465D01*
X2150618Y-4245610D01*
X2155190Y-4250181D01*
X2164334Y-4254754D01*
X2178050Y-4254754D01*
X2187193Y-4245610D01*
X2191765Y-4231894D01*
X2191765Y-4213605D01*
X2187193Y-4200144D01*
X2178050Y-4191000D01*
X2096261Y-4284726D02*
G01*
X2191765Y-4307331D01*
X2096261Y-4330192D02*
G01*
X2191765Y-4307331D01*
X2096261Y-4330192D02*
G01*
X2191765Y-4352797D01*
X2096261Y-4375657D02*
G01*
X2191765Y-4352797D01*
X2096261Y-4432807D02*
G01*
X2100834Y-4423663D01*
X2109724Y-4414520D01*
X2118868Y-4410202D01*
X2132584Y-4405629D01*
X2155190Y-4405629D01*
X2168906Y-4410202D01*
X2178050Y-4414520D01*
X2187193Y-4423663D01*
X2191765Y-4432807D01*
X2191765Y-4451095D01*
X2187193Y-4459986D01*
X2178050Y-4469129D01*
X2168906Y-4473702D01*
X2155190Y-4478273D01*
X2132584Y-4478273D01*
X2118868Y-4473702D01*
X2109724Y-4469129D01*
X2100834Y-4459986D01*
X2096261Y-4451095D01*
X2096261Y-4432807D01*
X1864868Y-3941571D02*
G01*
X1855723Y-3937254D01*
X1846834Y-3928110D01*
X1842262Y-3918965D01*
X1842262Y-3900678D01*
X1846834Y-3891787D01*
X1855723Y-3882644D01*
X1864868Y-3878071D01*
X1878584Y-3873500D01*
X1901189Y-3873500D01*
X1914905Y-3878071D01*
X1924050Y-3882644D01*
X1933193Y-3891787D01*
X1937765Y-3900678D01*
X1937765Y-3918965D01*
X1933193Y-3928110D01*
X1924050Y-3937254D01*
X1914905Y-3941571D01*
X1901189Y-3941571D01*
X1901189Y-3918965D02*
G01*
X1901189Y-3941571D01*
X1842262Y-3971797D02*
G01*
X1937765Y-3971797D01*
X1842262Y-3971797D02*
G01*
X1937765Y-4035297D01*
X1842262Y-4035297D02*
G01*
X1937765Y-4035297D01*
X1842262Y-4065270D02*
G01*
X1937765Y-4065270D01*
X1842262Y-4065270D02*
G01*
X1842262Y-4097020D01*
X1846834Y-4110736D01*
X1855723Y-4119879D01*
X1864868Y-4124452D01*
X1878584Y-4129023D01*
X1901189Y-4129023D01*
X1914905Y-4124452D01*
X1924050Y-4119879D01*
X1933193Y-4110736D01*
X1937765Y-4097020D01*
X1937765Y-4065270D01*
X1864868Y-4297171D02*
G01*
X1855723Y-4292600D01*
X1846834Y-4283455D01*
X1842262Y-4274312D01*
X1842262Y-4256278D01*
X1846834Y-4247134D01*
X1855723Y-4237989D01*
X1864868Y-4233418D01*
X1878584Y-4228845D01*
X1901189Y-4228845D01*
X1914905Y-4233418D01*
X1924050Y-4237989D01*
X1933193Y-4247134D01*
X1937765Y-4256278D01*
X1937765Y-4274312D01*
X1933193Y-4283455D01*
X1924050Y-4292600D01*
X1914905Y-4297171D01*
X1901189Y-4297171D01*
X1901189Y-4274312D02*
G01*
X1901189Y-4297171D01*
X1842262Y-4327144D02*
G01*
X1937765Y-4327144D01*
X1842262Y-4327144D02*
G01*
X1937765Y-4390897D01*
X1842262Y-4390897D02*
G01*
X1937765Y-4390897D01*
X1842262Y-4420870D02*
G01*
X1937765Y-4420870D01*
X1842262Y-4420870D02*
G01*
X1842262Y-4452620D01*
X1846834Y-4466336D01*
X1855723Y-4475226D01*
X1864868Y-4479797D01*
X1878584Y-4484370D01*
X1901189Y-4484370D01*
X1914905Y-4479797D01*
X1924050Y-4475226D01*
X1933193Y-4466336D01*
X1937765Y-4452620D01*
X1937765Y-4420870D01*
X1600962Y-3882644D02*
G01*
X1600962Y-3932681D01*
X1637284Y-3905250D01*
X1637284Y-3918965D01*
X1641855Y-3928110D01*
X1646428Y-3932681D01*
X1659889Y-3937254D01*
X1669034Y-3937254D01*
X1682750Y-3932681D01*
X1691894Y-3923537D01*
X1696465Y-3909821D01*
X1696465Y-3896105D01*
X1691894Y-3882644D01*
X1687321Y-3878071D01*
X1678178Y-3873500D01*
X1600962Y-3967226D02*
G01*
X1696465Y-4003547D01*
X1600962Y-4039870D02*
G01*
X1696465Y-4003547D01*
X1600962Y-4078986D02*
G01*
X1600962Y-4129023D01*
X1637284Y-4101592D01*
X1637284Y-4115307D01*
X1641855Y-4124452D01*
X1646428Y-4129023D01*
X1659889Y-4133595D01*
X1669034Y-4133595D01*
X1682750Y-4129023D01*
X1691894Y-4119879D01*
X1696465Y-4106163D01*
X1696465Y-4092702D01*
X1691894Y-4078986D01*
X1687321Y-4074413D01*
X1678178Y-4069842D01*
X1600962Y-4278884D02*
G01*
X1664462Y-4233418D01*
X1664462Y-4301744D01*
X1600962Y-4278884D02*
G01*
X1696465Y-4278884D01*
X1600962Y-4331715D02*
G01*
X1696465Y-4368037D01*
X1600962Y-4404360D02*
G01*
X1696465Y-4368037D01*
X1600962Y-4488942D02*
G01*
X1600962Y-4443476D01*
X1641855Y-4438904D01*
X1637284Y-4443476D01*
X1632712Y-4457192D01*
X1632712Y-4470654D01*
X1637284Y-4484370D01*
X1646428Y-4493513D01*
X1659889Y-4498086D01*
X1669034Y-4498086D01*
X1682750Y-4493513D01*
X1691894Y-4484370D01*
X1696465Y-4470654D01*
X1696465Y-4457192D01*
X1691894Y-4443476D01*
X1687321Y-4438904D01*
X1678178Y-4434331D01*
X1347723Y-4254754D02*
G01*
X1338834Y-4245610D01*
X1334262Y-4231894D01*
X1334262Y-4213605D01*
X1338834Y-4200144D01*
X1347723Y-4191000D01*
X1356868Y-4191000D01*
X1366012Y-4195571D01*
X1370584Y-4200144D01*
X1375155Y-4209287D01*
X1384300Y-4236465D01*
X1388618Y-4245610D01*
X1393189Y-4250181D01*
X1402334Y-4254754D01*
X1416050Y-4254754D01*
X1425194Y-4245610D01*
X1429765Y-4231894D01*
X1429765Y-4213605D01*
X1425194Y-4200144D01*
X1416050Y-4191000D01*
X1334262Y-4284726D02*
G01*
X1429765Y-4307331D01*
X1334262Y-4330192D02*
G01*
X1429765Y-4307331D01*
X1334262Y-4330192D02*
G01*
X1429765Y-4352797D01*
X1334262Y-4375657D02*
G01*
X1429765Y-4352797D01*
X1356868Y-4473702D02*
G01*
X1347723Y-4469129D01*
X1338834Y-4459986D01*
X1334262Y-4451095D01*
X1334262Y-4432807D01*
X1338834Y-4423663D01*
X1347723Y-4414520D01*
X1356868Y-4410202D01*
X1370584Y-4405629D01*
X1393189Y-4405629D01*
X1406905Y-4410202D01*
X1416050Y-4414520D01*
X1425194Y-4423663D01*
X1429765Y-4432807D01*
X1429765Y-4451095D01*
X1425194Y-4459986D01*
X1416050Y-4469129D01*
X1406905Y-4473702D01*
X1334262Y-4503673D02*
G01*
X1429765Y-4503673D01*
X1429765Y-4503673D02*
G01*
X1429765Y-4558284D01*
X1334262Y-4588255D02*
G01*
X1429765Y-4588255D01*
X1334262Y-4652010D02*
G01*
X1397762Y-4588255D01*
X1375155Y-4611115D02*
G01*
X1429765Y-4652010D01*
X1093723Y-4242054D02*
G01*
X1084834Y-4232910D01*
X1080262Y-4219194D01*
X1080262Y-4200905D01*
X1084834Y-4187444D01*
X1093723Y-4178300D01*
X1102868Y-4178300D01*
X1112012Y-4182871D01*
X1116584Y-4187444D01*
X1121155Y-4196587D01*
X1130300Y-4223765D01*
X1134618Y-4232910D01*
X1139189Y-4237481D01*
X1148334Y-4242054D01*
X1162050Y-4242054D01*
X1171194Y-4232910D01*
X1175765Y-4219194D01*
X1175765Y-4200905D01*
X1171194Y-4187444D01*
X1162050Y-4178300D01*
X1080262Y-4272026D02*
G01*
X1175765Y-4294631D01*
X1080262Y-4317492D02*
G01*
X1175765Y-4294631D01*
X1080262Y-4317492D02*
G01*
X1175765Y-4340097D01*
X1080262Y-4362957D02*
G01*
X1175765Y-4340097D01*
X1080262Y-4392929D02*
G01*
X1175765Y-4392929D01*
X1080262Y-4392929D02*
G01*
X1080262Y-4424679D01*
X1084834Y-4438395D01*
X1093723Y-4447286D01*
X1102868Y-4451857D01*
X1116584Y-4456429D01*
X1139189Y-4456429D01*
X1152905Y-4451857D01*
X1162050Y-4447286D01*
X1171194Y-4438395D01*
X1175765Y-4424679D01*
X1175765Y-4392929D01*
X1080262Y-4486402D02*
G01*
X1175765Y-4486402D01*
X1080262Y-4543805D02*
G01*
X1084834Y-4534662D01*
X1093723Y-4525518D01*
X1102868Y-4520945D01*
X1116584Y-4516373D01*
X1139189Y-4516373D01*
X1152905Y-4520945D01*
X1162050Y-4525518D01*
X1171194Y-4534662D01*
X1175765Y-4543805D01*
X1175765Y-4561839D01*
X1171194Y-4570984D01*
X1162050Y-4580128D01*
X1152905Y-4584700D01*
X1139189Y-4589271D01*
X1116584Y-4589271D01*
X1102868Y-4584700D01*
X1093723Y-4580128D01*
X1084834Y-4570984D01*
X1080262Y-4561839D01*
X1080262Y-4543805D01*
D10*
X2438400Y-4000500D02*
G01*
X2095500Y-4000500D01*
X1435100Y-4000500D02*
G01*
X1092200Y-4000500D01*
X1435100Y-3670300D02*
G01*
X1092200Y-3670300D01*
X2438400Y-3670300D02*
G01*
X2095500Y-3670300D01*
X2413000Y-1574800D02*
G01*
X2413000Y-2019300D01*
X2159000Y-1574800D02*
G01*
X2159000Y-2019300D01*
X1409700Y-2413000D02*
G01*
X1409700Y-2857500D01*
X1181100Y-2413000D02*
G01*
X1181100Y-2857500D01*
M02*
