G04 Layer: TopSolderMaskLayer*
G04 EasyEDA v6.4.25, 2021-12-07T19:09:17+01:00*
G04 af510f2a62b747d9ba719f6df8b66caf,db93e8822c7348a7aec6f6efa12e507d,10*
G04 Gerber Generator version 0.2*
G04 Scale: 100 percent, Rotated: No, Reflected: No *
G04 Dimensions in millimeters *
G04 leading zeros omitted , absolute positions ,4 integer and 5 decimal *
%FSLAX45Y45*%
%MOMM*%

%ADD54C,0.3816*%
%ADD68R,0.7816X0.3516*%

%LPD*%
D54*
X967826Y-243331D02*
G01*
X1019825Y-243331D01*
X967826Y-293319D02*
G01*
X1019825Y-293319D01*
X967826Y-343331D02*
G01*
X1019825Y-343331D01*
X967826Y-393319D02*
G01*
X1019825Y-393319D01*
X967826Y-443331D02*
G01*
X1019825Y-443331D01*
X967826Y-493318D02*
G01*
X1019825Y-493318D01*
X1068831Y-542325D02*
G01*
X1068831Y-594324D01*
X1118819Y-542325D02*
G01*
X1118819Y-594324D01*
X1168831Y-542325D02*
G01*
X1168831Y-594324D01*
X1218819Y-542325D02*
G01*
X1218819Y-594324D01*
X1268831Y-542325D02*
G01*
X1268831Y-594324D01*
X1318818Y-542325D02*
G01*
X1318818Y-594324D01*
X1367825Y-493318D02*
G01*
X1419824Y-493318D01*
X1367825Y-443331D02*
G01*
X1419824Y-443331D01*
X1367825Y-393319D02*
G01*
X1419824Y-393319D01*
X1367825Y-343331D02*
G01*
X1419824Y-343331D01*
X1367825Y-293319D02*
G01*
X1419824Y-293319D01*
X1367825Y-244119D02*
G01*
X1419824Y-244119D01*
X1318818Y-142326D02*
G01*
X1318818Y-194325D01*
X1268831Y-142326D02*
G01*
X1268831Y-194325D01*
X1218819Y-142326D02*
G01*
X1218819Y-194325D01*
X1168831Y-142326D02*
G01*
X1168831Y-194325D01*
X1118819Y-142326D02*
G01*
X1118819Y-194325D01*
X1068831Y-142326D02*
G01*
X1068831Y-194325D01*
G36*
X1040892Y-1204721D02*
G01*
X1040892Y-1030478D01*
X1231137Y-1030478D01*
X1231137Y-1204721D01*
G37*
G36*
X1139444Y-1292097D02*
G01*
X1139444Y-1242060D01*
X1171447Y-1242060D01*
X1171447Y-1292097D01*
G37*
G36*
X1100581Y-1292097D02*
G01*
X1100581Y-1242060D01*
X1132586Y-1242060D01*
X1132586Y-1292097D01*
G37*
G36*
X1178560Y-1292097D02*
G01*
X1178560Y-1242060D01*
X1210563Y-1242060D01*
X1210563Y-1292097D01*
G37*
G36*
X1217421Y-1292097D02*
G01*
X1217421Y-1242060D01*
X1249426Y-1242060D01*
X1249426Y-1292097D01*
G37*
G36*
X1061465Y-1292097D02*
G01*
X1061465Y-1242060D01*
X1093470Y-1242060D01*
X1093470Y-1292097D01*
G37*
G36*
X1022604Y-1292097D02*
G01*
X1022604Y-1242060D01*
X1054607Y-1242060D01*
X1054607Y-1292097D01*
G37*
G36*
X960120Y-1231137D02*
G01*
X960120Y-1199134D01*
X1010157Y-1199134D01*
X1010157Y-1231137D01*
G37*
G36*
X960120Y-1192021D02*
G01*
X960120Y-1160018D01*
X1010157Y-1160018D01*
X1010157Y-1192021D01*
G37*
G36*
X960120Y-1036065D02*
G01*
X960120Y-1004062D01*
X1010157Y-1004062D01*
X1010157Y-1036065D01*
G37*
G36*
X960120Y-1075181D02*
G01*
X960120Y-1043178D01*
X1010157Y-1043178D01*
X1010157Y-1075181D01*
G37*
G36*
X960120Y-1153160D02*
G01*
X960120Y-1121155D01*
X1010157Y-1121155D01*
X1010157Y-1153160D01*
G37*
G36*
X960120Y-1114044D02*
G01*
X960120Y-1082039D01*
X1010157Y-1082039D01*
X1010157Y-1114044D01*
G37*
G36*
X1259078Y-1231137D02*
G01*
X1259078Y-1199134D01*
X1309115Y-1199134D01*
X1309115Y-1231137D01*
G37*
G36*
X1259078Y-1192021D02*
G01*
X1259078Y-1160018D01*
X1309115Y-1160018D01*
X1309115Y-1192021D01*
G37*
G36*
X1259078Y-1036065D02*
G01*
X1259078Y-1004062D01*
X1309115Y-1004062D01*
X1309115Y-1036065D01*
G37*
G36*
X1259078Y-1075181D02*
G01*
X1259078Y-1043178D01*
X1309115Y-1043178D01*
X1309115Y-1075181D01*
G37*
G36*
X1259078Y-1153160D02*
G01*
X1259078Y-1121155D01*
X1309115Y-1121155D01*
X1309115Y-1153160D01*
G37*
G36*
X1259078Y-1114044D02*
G01*
X1259078Y-1082039D01*
X1309115Y-1082039D01*
X1309115Y-1114044D01*
G37*
G36*
X1022604Y-993139D02*
G01*
X1022604Y-943102D01*
X1054607Y-943102D01*
X1054607Y-993139D01*
G37*
G36*
X1061465Y-993139D02*
G01*
X1061465Y-943102D01*
X1093470Y-943102D01*
X1093470Y-993139D01*
G37*
G36*
X1217421Y-993139D02*
G01*
X1217421Y-943102D01*
X1249426Y-943102D01*
X1249426Y-993139D01*
G37*
G36*
X1178560Y-993139D02*
G01*
X1178560Y-943102D01*
X1210563Y-943102D01*
X1210563Y-993139D01*
G37*
G36*
X1100581Y-993139D02*
G01*
X1100581Y-943102D01*
X1132586Y-943102D01*
X1132586Y-993139D01*
G37*
G36*
X1139444Y-993139D02*
G01*
X1139444Y-943102D01*
X1171447Y-943102D01*
X1171447Y-993139D01*
G37*
G36*
X755395Y-1003807D02*
G01*
X755395Y-937005D01*
X819404Y-937005D01*
X819404Y-1003807D01*
G37*
G36*
X755395Y-917194D02*
G01*
X755395Y-850392D01*
X819404Y-850392D01*
X819404Y-917194D01*
G37*
G36*
X844295Y-1120394D02*
G01*
X844295Y-1031239D01*
X908304Y-1031239D01*
X908304Y-1120394D01*
G37*
G36*
X844295Y-1229360D02*
G01*
X844295Y-1140205D01*
X908304Y-1140205D01*
X908304Y-1229360D01*
G37*
G36*
X1000505Y-857504D02*
G01*
X1000505Y-793495D01*
X1089660Y-793495D01*
X1089660Y-857504D01*
G37*
G36*
X891539Y-857504D02*
G01*
X891539Y-793495D01*
X980694Y-793495D01*
X980694Y-857504D01*
G37*
G36*
X657605Y-2229104D02*
G01*
X657605Y-2165095D01*
X746760Y-2165095D01*
X746760Y-2229104D01*
G37*
G36*
X548639Y-2229104D02*
G01*
X548639Y-2165095D01*
X637794Y-2165095D01*
X637794Y-2229104D01*
G37*
G36*
X1568195Y-104394D02*
G01*
X1568195Y-37592D01*
X1632204Y-37592D01*
X1632204Y-104394D01*
G37*
G36*
X1568195Y-191007D02*
G01*
X1568195Y-124205D01*
X1632204Y-124205D01*
X1632204Y-191007D01*
G37*
G36*
X1453895Y-191007D02*
G01*
X1453895Y-124205D01*
X1517904Y-124205D01*
X1517904Y-191007D01*
G37*
G36*
X1453895Y-104394D02*
G01*
X1453895Y-37592D01*
X1517904Y-37592D01*
X1517904Y-104394D01*
G37*
G36*
X606805Y-641604D02*
G01*
X606805Y-577595D01*
X695960Y-577595D01*
X695960Y-641604D01*
G37*
G36*
X497839Y-641604D02*
G01*
X497839Y-577595D01*
X586994Y-577595D01*
X586994Y-641604D01*
G37*
G36*
X1787905Y-108204D02*
G01*
X1787905Y-44195D01*
X1854707Y-44195D01*
X1854707Y-108204D01*
G37*
G36*
X1701292Y-108204D02*
G01*
X1701292Y-44195D01*
X1768094Y-44195D01*
X1768094Y-108204D01*
G37*
G36*
X185928Y-599694D02*
G01*
X185928Y-488950D01*
X271271Y-488950D01*
X271271Y-534162D01*
G37*
G36*
X185928Y-653542D02*
G01*
X185928Y-608329D01*
X271271Y-542544D01*
X271271Y-653542D01*
G37*
G36*
X647192Y-527304D02*
G01*
X647192Y-463295D01*
X713994Y-463295D01*
X713994Y-527304D01*
G37*
G36*
X733805Y-527304D02*
G01*
X733805Y-463295D01*
X800607Y-463295D01*
X800607Y-527304D01*
G37*
G36*
X2049779Y-930147D02*
G01*
X2049779Y-719836D01*
X2180081Y-719836D01*
X2180081Y-930147D01*
G37*
G36*
X2049779Y-1616963D02*
G01*
X2049779Y-1406652D01*
X2180081Y-1406652D01*
X2180081Y-1616963D01*
G37*
G36*
X1774952Y-1322323D02*
G01*
X1774952Y-1272286D01*
X1919986Y-1272286D01*
X1919986Y-1322323D01*
G37*
G36*
X1774952Y-1257300D02*
G01*
X1774952Y-1207262D01*
X1919986Y-1207262D01*
X1919986Y-1257300D01*
G37*
G36*
X1774952Y-1192276D02*
G01*
X1774952Y-1142237D01*
X1919986Y-1142237D01*
X1919986Y-1192276D01*
G37*
G36*
X1774952Y-1127252D02*
G01*
X1774952Y-1077213D01*
X1919986Y-1077213D01*
X1919986Y-1127252D01*
G37*
G36*
X1774952Y-1062228D02*
G01*
X1774952Y-1012189D01*
X1919986Y-1012189D01*
X1919986Y-1062228D01*
G37*
G36*
X1792478Y-1577339D02*
G01*
X1792478Y-1417065D01*
X1922526Y-1417065D01*
X1922526Y-1577339D01*
G37*
G36*
X1792478Y-917447D02*
G01*
X1792478Y-757173D01*
X1922526Y-757173D01*
X1922526Y-917447D01*
G37*
G36*
X1800605Y-2254504D02*
G01*
X1800605Y-2190495D01*
X1889760Y-2190495D01*
X1889760Y-2254504D01*
G37*
G36*
X1691639Y-2254504D02*
G01*
X1691639Y-2190495D01*
X1780794Y-2190495D01*
X1780794Y-2254504D01*
G37*
G36*
X1936495Y-2123694D02*
G01*
X1936495Y-2034539D01*
X2000504Y-2034539D01*
X2000504Y-2123694D01*
G37*
G36*
X1936495Y-2232660D02*
G01*
X1936495Y-2143505D01*
X2000504Y-2143505D01*
X2000504Y-2232660D01*
G37*
G36*
X1742439Y-1670304D02*
G01*
X1742439Y-1606295D01*
X1831594Y-1606295D01*
X1831594Y-1670304D01*
G37*
G36*
X1851405Y-1670304D02*
G01*
X1851405Y-1606295D01*
X1940559Y-1606295D01*
X1940559Y-1670304D01*
G37*
G36*
X1691639Y-2140204D02*
G01*
X1691639Y-2076195D01*
X1780794Y-2076195D01*
X1780794Y-2140204D01*
G37*
G36*
X1800605Y-2140204D02*
G01*
X1800605Y-2076195D01*
X1889760Y-2076195D01*
X1889760Y-2140204D01*
G37*
G36*
X708405Y-1962404D02*
G01*
X708405Y-1898395D01*
X797560Y-1898395D01*
X797560Y-1962404D01*
G37*
G36*
X599439Y-1962404D02*
G01*
X599439Y-1898395D01*
X688594Y-1898395D01*
X688594Y-1962404D01*
G37*
G36*
X1183639Y-844804D02*
G01*
X1183639Y-780795D01*
X1272794Y-780795D01*
X1272794Y-844804D01*
G37*
G36*
X1292605Y-844804D02*
G01*
X1292605Y-780795D01*
X1381760Y-780795D01*
X1381760Y-844804D01*
G37*
G36*
X478028Y-2242312D02*
G01*
X478028Y-2162047D01*
X563371Y-2162047D01*
X563371Y-2242312D01*
G37*
G36*
X478028Y-2157476D02*
G01*
X478028Y-2077212D01*
X563371Y-2077212D01*
X563371Y-2157476D01*
G37*
G36*
X732028Y-2242312D02*
G01*
X732028Y-2162047D01*
X817371Y-2162047D01*
X817371Y-2242312D01*
G37*
G36*
X732028Y-2157476D02*
G01*
X732028Y-2077212D01*
X817371Y-2077212D01*
X817371Y-2157476D01*
G37*
G36*
X1838705Y-209804D02*
G01*
X1838705Y-145795D01*
X1927860Y-145795D01*
X1927860Y-209804D01*
G37*
G36*
X1729739Y-209804D02*
G01*
X1729739Y-145795D01*
X1818894Y-145795D01*
X1818894Y-209804D01*
G37*
G36*
X856995Y-548894D02*
G01*
X856995Y-482092D01*
X921004Y-482092D01*
X921004Y-548894D01*
G37*
G36*
X856995Y-635507D02*
G01*
X856995Y-568705D01*
X921004Y-568705D01*
X921004Y-635507D01*
G37*
G36*
X977392Y-743204D02*
G01*
X977392Y-679195D01*
X1044194Y-679195D01*
X1044194Y-743204D01*
G37*
G36*
X1064005Y-743204D02*
G01*
X1064005Y-679195D01*
X1130807Y-679195D01*
X1130807Y-743204D01*
G37*
G36*
X425195Y-318007D02*
G01*
X425195Y-251205D01*
X489204Y-251205D01*
X489204Y-318007D01*
G37*
G36*
X425195Y-231394D02*
G01*
X425195Y-164592D01*
X489204Y-164592D01*
X489204Y-231394D01*
G37*
G36*
X1548892Y-1124204D02*
G01*
X1548892Y-1060195D01*
X1615694Y-1060195D01*
X1615694Y-1124204D01*
G37*
G36*
X1635505Y-1124204D02*
G01*
X1635505Y-1060195D01*
X1702307Y-1060195D01*
X1702307Y-1124204D01*
G37*
G36*
X1510792Y-1238504D02*
G01*
X1510792Y-1174495D01*
X1577594Y-1174495D01*
X1577594Y-1238504D01*
G37*
G36*
X1597405Y-1238504D02*
G01*
X1597405Y-1174495D01*
X1664207Y-1174495D01*
X1664207Y-1238504D01*
G37*
G36*
X467105Y-108204D02*
G01*
X467105Y-44195D01*
X533907Y-44195D01*
X533907Y-108204D01*
G37*
G36*
X380492Y-108204D02*
G01*
X380492Y-44195D01*
X447294Y-44195D01*
X447294Y-108204D01*
G37*
G36*
X1898395Y-635507D02*
G01*
X1898395Y-568705D01*
X1962404Y-568705D01*
X1962404Y-635507D01*
G37*
G36*
X1898395Y-548894D02*
G01*
X1898395Y-482092D01*
X1962404Y-482092D01*
X1962404Y-548894D01*
G37*
G36*
X1784095Y-635507D02*
G01*
X1784095Y-568705D01*
X1848104Y-568705D01*
X1848104Y-635507D01*
G37*
G36*
X1784095Y-548894D02*
G01*
X1784095Y-482092D01*
X1848104Y-482092D01*
X1848104Y-548894D01*
G37*
G36*
X1669795Y-635507D02*
G01*
X1669795Y-568705D01*
X1733804Y-568705D01*
X1733804Y-635507D01*
G37*
G36*
X1669795Y-548894D02*
G01*
X1669795Y-482092D01*
X1733804Y-482092D01*
X1733804Y-548894D01*
G37*
G36*
X1555495Y-635507D02*
G01*
X1555495Y-568705D01*
X1619504Y-568705D01*
X1619504Y-635507D01*
G37*
G36*
X1555495Y-548894D02*
G01*
X1555495Y-482092D01*
X1619504Y-482092D01*
X1619504Y-548894D01*
G37*
G36*
X1656334Y-1996947D02*
G01*
X1656334Y-1926844D01*
X1766570Y-1926844D01*
X1766570Y-1996947D01*
G37*
G36*
X1656334Y-1806955D02*
G01*
X1656334Y-1736852D01*
X1766570Y-1736852D01*
X1766570Y-1806955D01*
G37*
G36*
X1916429Y-1806955D02*
G01*
X1916429Y-1736852D01*
X2026665Y-1736852D01*
X2026665Y-1806955D01*
G37*
G36*
X1916429Y-1901952D02*
G01*
X1916429Y-1831847D01*
X2026665Y-1831847D01*
X2026665Y-1901952D01*
G37*
G36*
X1916429Y-1996947D02*
G01*
X1916429Y-1926844D01*
X2026665Y-1926844D01*
X2026665Y-1996947D01*
G37*
G36*
X1053845Y-509778D02*
G01*
X1053845Y-229615D01*
X1334007Y-229615D01*
X1334007Y-509778D01*
G37*
G36*
X938784Y-2134615D02*
G01*
X938784Y-1624584D01*
X1448815Y-1624584D01*
X1448815Y-2134615D01*
G37*
G36*
X818134Y-2172207D02*
G01*
X818134Y-2136902D01*
X896365Y-2136902D01*
X896365Y-2172207D01*
G37*
G36*
X818134Y-2122170D02*
G01*
X818134Y-2087118D01*
X896365Y-2087118D01*
X896365Y-2122170D01*
G37*
G36*
X818134Y-2072131D02*
G01*
X818134Y-2037079D01*
X896365Y-2037079D01*
X896365Y-2072131D01*
G37*
G36*
X818134Y-2022094D02*
G01*
X818134Y-1987042D01*
X896365Y-1987042D01*
X896365Y-2022094D01*
G37*
G36*
X818134Y-1972055D02*
G01*
X818134Y-1937004D01*
X896365Y-1937004D01*
X896365Y-1972055D01*
G37*
G36*
X818134Y-1922271D02*
G01*
X818134Y-1886965D01*
X896365Y-1886965D01*
X896365Y-1922271D01*
G37*
G36*
X818134Y-1872234D02*
G01*
X818134Y-1836928D01*
X896365Y-1836928D01*
X896365Y-1872234D01*
G37*
G36*
X818134Y-1822195D02*
G01*
X818134Y-1786889D01*
X896365Y-1786889D01*
X896365Y-1822195D01*
G37*
G36*
X818134Y-1772157D02*
G01*
X818134Y-1737105D01*
X896365Y-1737105D01*
X896365Y-1772157D01*
G37*
G36*
X818134Y-1722120D02*
G01*
X818134Y-1687068D01*
X896365Y-1687068D01*
X896365Y-1722120D01*
G37*
G36*
X818134Y-1672081D02*
G01*
X818134Y-1637029D01*
X896365Y-1637029D01*
X896365Y-1672081D01*
G37*
G36*
X818134Y-1622044D02*
G01*
X818134Y-1586992D01*
X896365Y-1586992D01*
X896365Y-1622044D01*
G37*
G36*
X901192Y-1582165D02*
G01*
X901192Y-1503934D01*
X936497Y-1503934D01*
X936497Y-1582165D01*
G37*
G36*
X951229Y-1582165D02*
G01*
X951229Y-1503934D01*
X986281Y-1503934D01*
X986281Y-1582165D01*
G37*
G36*
X1001268Y-1582165D02*
G01*
X1001268Y-1503934D01*
X1036320Y-1503934D01*
X1036320Y-1582165D01*
G37*
G36*
X1051305Y-1582165D02*
G01*
X1051305Y-1503934D01*
X1086357Y-1503934D01*
X1086357Y-1582165D01*
G37*
G36*
X1101089Y-1582165D02*
G01*
X1101089Y-1503934D01*
X1136395Y-1503934D01*
X1136395Y-1582165D01*
G37*
G36*
X1151128Y-1582165D02*
G01*
X1151128Y-1503934D01*
X1186434Y-1503934D01*
X1186434Y-1582165D01*
G37*
G36*
X1201165Y-1582165D02*
G01*
X1201165Y-1503934D01*
X1236471Y-1503934D01*
X1236471Y-1582165D01*
G37*
G36*
X1251204Y-1582165D02*
G01*
X1251204Y-1503934D01*
X1286510Y-1503934D01*
X1286510Y-1582165D01*
G37*
G36*
X1301242Y-1582165D02*
G01*
X1301242Y-1503934D01*
X1336294Y-1503934D01*
X1336294Y-1582165D01*
G37*
G36*
X1351279Y-1582165D02*
G01*
X1351279Y-1503934D01*
X1386331Y-1503934D01*
X1386331Y-1582165D01*
G37*
G36*
X1401318Y-1582165D02*
G01*
X1401318Y-1503934D01*
X1436370Y-1503934D01*
X1436370Y-1582165D01*
G37*
G36*
X1451102Y-1582165D02*
G01*
X1451102Y-1503934D01*
X1486407Y-1503934D01*
X1486407Y-1582165D01*
G37*
D68*
G01*
X1530299Y-1604594D03*
G01*
X1530299Y-1654606D03*
G36*
X1491234Y-1722120D02*
G01*
X1491234Y-1687068D01*
X1569465Y-1687068D01*
X1569465Y-1722120D01*
G37*
G36*
X1491234Y-1772157D02*
G01*
X1491234Y-1737105D01*
X1569465Y-1737105D01*
X1569465Y-1772157D01*
G37*
G36*
X1491234Y-1822195D02*
G01*
X1491234Y-1786889D01*
X1569465Y-1786889D01*
X1569465Y-1822195D01*
G37*
G36*
X1491234Y-1872234D02*
G01*
X1491234Y-1836928D01*
X1569465Y-1836928D01*
X1569465Y-1872234D01*
G37*
G36*
X1491234Y-1922271D02*
G01*
X1491234Y-1886965D01*
X1569465Y-1886965D01*
X1569465Y-1922271D01*
G37*
G01*
X1530299Y-1954606D03*
G36*
X1491234Y-2022094D02*
G01*
X1491234Y-1987042D01*
X1569465Y-1987042D01*
X1569465Y-2022094D01*
G37*
G36*
X1491234Y-2072131D02*
G01*
X1491234Y-2037079D01*
X1569465Y-2037079D01*
X1569465Y-2072131D01*
G37*
G36*
X1491234Y-2122170D02*
G01*
X1491234Y-2087118D01*
X1569465Y-2087118D01*
X1569465Y-2122170D01*
G37*
G36*
X1491234Y-2172207D02*
G01*
X1491234Y-2136902D01*
X1569465Y-2136902D01*
X1569465Y-2172207D01*
G37*
G36*
X1451102Y-2255265D02*
G01*
X1451102Y-2177034D01*
X1486407Y-2177034D01*
X1486407Y-2255265D01*
G37*
G36*
X1401318Y-2255265D02*
G01*
X1401318Y-2177034D01*
X1436370Y-2177034D01*
X1436370Y-2255265D01*
G37*
G36*
X1351279Y-2255265D02*
G01*
X1351279Y-2177034D01*
X1386331Y-2177034D01*
X1386331Y-2255265D01*
G37*
G36*
X1301242Y-2255265D02*
G01*
X1301242Y-2177034D01*
X1336294Y-2177034D01*
X1336294Y-2255265D01*
G37*
G36*
X1251204Y-2255265D02*
G01*
X1251204Y-2177034D01*
X1286510Y-2177034D01*
X1286510Y-2255265D01*
G37*
G36*
X1201165Y-2255265D02*
G01*
X1201165Y-2177034D01*
X1236471Y-2177034D01*
X1236471Y-2255265D01*
G37*
G36*
X1151128Y-2255265D02*
G01*
X1151128Y-2177034D01*
X1186434Y-2177034D01*
X1186434Y-2255265D01*
G37*
G36*
X1101089Y-2255265D02*
G01*
X1101089Y-2177034D01*
X1136395Y-2177034D01*
X1136395Y-2255265D01*
G37*
G36*
X1051305Y-2255265D02*
G01*
X1051305Y-2177034D01*
X1086357Y-2177034D01*
X1086357Y-2255265D01*
G37*
G36*
X1001268Y-2255265D02*
G01*
X1001268Y-2177034D01*
X1036320Y-2177034D01*
X1036320Y-2255265D01*
G37*
G36*
X951229Y-2255265D02*
G01*
X951229Y-2177034D01*
X986281Y-2177034D01*
X986281Y-2255265D01*
G37*
G36*
X901192Y-2255265D02*
G01*
X901192Y-2177034D01*
X936497Y-2177034D01*
X936497Y-2255265D01*
G37*
G36*
X1877821Y-399287D02*
G01*
X1877821Y-361187D01*
X1938274Y-361187D01*
X1938274Y-399287D01*
G37*
G36*
X1877821Y-349250D02*
G01*
X1877821Y-311150D01*
X1938274Y-311150D01*
X1938274Y-349250D01*
G37*
G36*
X1877821Y-299212D02*
G01*
X1877821Y-261112D01*
X1938274Y-261112D01*
X1938274Y-299212D01*
G37*
G36*
X1592326Y-299212D02*
G01*
X1592326Y-261112D01*
X1652778Y-261112D01*
X1652778Y-299212D01*
G37*
G36*
X1592326Y-349250D02*
G01*
X1592326Y-311150D01*
X1652778Y-311150D01*
X1652778Y-349250D01*
G37*
G36*
X1592326Y-399287D02*
G01*
X1592326Y-361187D01*
X1652778Y-361187D01*
X1652778Y-399287D01*
G37*
G36*
X1685289Y-395223D02*
G01*
X1685289Y-265176D01*
X1845310Y-265176D01*
X1845310Y-395223D01*
G37*
G36*
X-566420Y-1388363D02*
G01*
X-566420Y-1278381D01*
X-406145Y-1278381D01*
X-406145Y-1388363D01*
G37*
G36*
X-566420Y-1058418D02*
G01*
X-566420Y-948436D01*
X-406145Y-948436D01*
X-406145Y-1058418D01*
G37*
G36*
X-76200Y-1058418D02*
G01*
X-76200Y-948436D01*
X83820Y-948436D01*
X83820Y-1058418D01*
G37*
G36*
X-76200Y-1388363D02*
G01*
X-76200Y-1278381D01*
X83820Y-1278381D01*
X83820Y-1388363D01*
G37*
G36*
X356615Y-2251455D02*
G01*
X356615Y-2066544D01*
X466852Y-2066544D01*
X466852Y-2251455D01*
G37*
G36*
X41147Y-2251455D02*
G01*
X41147Y-2066544D01*
X151384Y-2066544D01*
X151384Y-2251455D01*
G37*
G36*
X1651254Y-1559052D02*
G01*
X1651254Y-1468628D01*
X1701545Y-1468628D01*
X1701545Y-1559052D01*
G37*
G36*
X1716278Y-1559052D02*
G01*
X1716278Y-1468628D01*
X1766570Y-1468628D01*
X1766570Y-1559052D01*
G37*
G36*
X1717294Y-1376171D02*
G01*
X1717294Y-1285747D01*
X1767586Y-1285747D01*
X1767586Y-1376171D01*
G37*
G36*
X1652270Y-1376171D02*
G01*
X1652270Y-1285747D01*
X1702562Y-1285747D01*
X1702562Y-1376171D01*
G37*
G36*
X1587245Y-1376171D02*
G01*
X1587245Y-1285747D01*
X1637537Y-1285747D01*
X1637537Y-1376171D01*
G37*
G36*
X1586229Y-1559052D02*
G01*
X1586229Y-1468628D01*
X1636521Y-1468628D01*
X1636521Y-1559052D01*
G37*
G36*
X121157Y-1363471D02*
G01*
X121157Y-1323339D01*
X256031Y-1323339D01*
X256031Y-1363471D01*
G37*
G36*
X121157Y-1313434D02*
G01*
X121157Y-1273302D01*
X256031Y-1273302D01*
X256031Y-1313434D01*
G37*
G36*
X121157Y-1263395D02*
G01*
X121157Y-1223518D01*
X256031Y-1223518D01*
X256031Y-1263395D01*
G37*
G36*
X121157Y-1213357D02*
G01*
X121157Y-1173479D01*
X256031Y-1173479D01*
X256031Y-1213357D01*
G37*
G36*
X121157Y-1163320D02*
G01*
X121157Y-1123442D01*
X256031Y-1123442D01*
X256031Y-1163320D01*
G37*
G36*
X121157Y-1113281D02*
G01*
X121157Y-1073404D01*
X256031Y-1073404D01*
X256031Y-1113281D01*
G37*
G36*
X121157Y-1063497D02*
G01*
X121157Y-1023365D01*
X256031Y-1023365D01*
X256031Y-1063497D01*
G37*
G36*
X121157Y-1013460D02*
G01*
X121157Y-973328D01*
X256031Y-973328D01*
X256031Y-1013460D01*
G37*
G36*
X265937Y-1602486D02*
G01*
X265937Y-1392428D01*
X576071Y-1392428D01*
X576071Y-1602486D01*
G37*
G36*
X265937Y-944371D02*
G01*
X265937Y-734313D01*
X576071Y-734313D01*
X576071Y-944371D01*
G37*
G36*
X758444Y-188976D02*
G01*
X758444Y-71881D01*
X828547Y-71881D01*
X828547Y-188976D01*
G37*
G36*
X568452Y-188976D02*
G01*
X568452Y-71881D01*
X638555Y-71881D01*
X638555Y-188976D01*
G37*
G36*
X663447Y-436118D02*
G01*
X663447Y-319023D01*
X733552Y-319023D01*
X733552Y-436118D01*
G37*
G36*
X275844Y-176276D02*
G01*
X275844Y-59181D01*
X345947Y-59181D01*
X345947Y-176276D01*
G37*
G36*
X85852Y-176276D02*
G01*
X85852Y-59181D01*
X155955Y-59181D01*
X155955Y-176276D01*
G37*
G36*
X180847Y-423418D02*
G01*
X180847Y-306323D01*
X250952Y-306323D01*
X250952Y-423418D01*
G37*
M02*
