G04 Layer: TopPasteMaskLayer*
G04 EasyEDA v6.4.25, 2021-12-07T19:09:17+01:00*
G04 af510f2a62b747d9ba719f6df8b66caf,db93e8822c7348a7aec6f6efa12e507d,10*
G04 Gerber Generator version 0.2*
G04 Scale: 100 percent, Rotated: No, Reflected: No *
G04 Dimensions in millimeters *
G04 leading zeros omitted , absolute positions ,4 integer and 5 decimal *
%FSLAX45Y45*%
%MOMM*%

%ADD18C,0.2800*%
%ADD20R,0.2200X0.4000*%
%ADD26R,1.2000X2.0000*%
%ADD27R,1.3500X0.4000*%
%ADD28R,1.2000X1.5000*%
%ADD29R,0.6500X0.5999*%
%ADD32R,5.0000X5.0000*%
%ADD33R,0.6800X0.2500*%
%ADD34R,0.2500X0.6800*%
%ADD35R,0.5050X0.2800*%
%ADD36R,1.5000X1.2000*%
%ADD38R,1.0000X1.7500*%
%ADD40R,1.2500X0.3000*%
%ADD41R,3.0000X2.0000*%
%ADD42R,0.6000X1.0700*%

%LPD*%
G36*
X764387Y-940612D02*
G01*
X760374Y-944575D01*
X760374Y-994664D01*
X764387Y-998677D01*
X810412Y-998677D01*
X814425Y-994664D01*
X814425Y-944575D01*
X810412Y-940612D01*
G37*
G36*
X764387Y-855522D02*
G01*
X760374Y-859536D01*
X760374Y-909624D01*
X764387Y-913587D01*
X810412Y-913587D01*
X814425Y-909624D01*
X814425Y-859536D01*
X810412Y-855522D01*
G37*
G36*
X853795Y-1148283D02*
G01*
X848817Y-1155293D01*
X848817Y-1203299D01*
X853795Y-1208278D01*
X898804Y-1208278D01*
X903782Y-1203299D01*
X903782Y-1155293D01*
X898804Y-1148283D01*
G37*
G36*
X853795Y-1052322D02*
G01*
X848817Y-1057300D01*
X848817Y-1105306D01*
X853795Y-1112316D01*
X898804Y-1112316D01*
X903782Y-1105306D01*
X903782Y-1057300D01*
X898804Y-1052322D01*
G37*
G36*
X917600Y-798017D02*
G01*
X912621Y-802995D01*
X912621Y-848004D01*
X917600Y-852982D01*
X965606Y-852982D01*
X972616Y-848004D01*
X972616Y-802995D01*
X965606Y-798017D01*
G37*
G36*
X1015593Y-798017D02*
G01*
X1008583Y-802995D01*
X1008583Y-848004D01*
X1015593Y-852982D01*
X1063599Y-852982D01*
X1068578Y-848004D01*
X1068578Y-802995D01*
X1063599Y-798017D01*
G37*
G36*
X688086Y-2170074D02*
G01*
X661212Y-2188464D01*
X661212Y-2205736D01*
X688086Y-2224125D01*
X737717Y-2224125D01*
X741730Y-2220112D01*
X741730Y-2174087D01*
X737717Y-2170074D01*
G37*
G36*
X557682Y-2170074D02*
G01*
X553669Y-2174087D01*
X553669Y-2220112D01*
X557682Y-2224125D01*
X607314Y-2224125D01*
X634187Y-2205736D01*
X634187Y-2188464D01*
X607314Y-2170074D01*
G37*
G36*
X1577187Y-42722D02*
G01*
X1573174Y-46736D01*
X1573174Y-96824D01*
X1577187Y-100787D01*
X1623212Y-100787D01*
X1627225Y-96824D01*
X1627225Y-46736D01*
X1623212Y-42722D01*
G37*
G36*
X1577187Y-127812D02*
G01*
X1573174Y-131775D01*
X1573174Y-181864D01*
X1577187Y-185877D01*
X1623212Y-185877D01*
X1627225Y-181864D01*
X1627225Y-131775D01*
X1623212Y-127812D01*
G37*
G36*
X1462887Y-127812D02*
G01*
X1458874Y-131775D01*
X1458874Y-181864D01*
X1462887Y-185877D01*
X1508912Y-185877D01*
X1512925Y-181864D01*
X1512925Y-131775D01*
X1508912Y-127812D01*
G37*
G36*
X1462887Y-42722D02*
G01*
X1458874Y-46736D01*
X1458874Y-96824D01*
X1462887Y-100787D01*
X1508912Y-100787D01*
X1512925Y-96824D01*
X1512925Y-46736D01*
X1508912Y-42722D01*
G37*
G36*
X523900Y-582117D02*
G01*
X518922Y-587095D01*
X518922Y-632104D01*
X523900Y-637082D01*
X571906Y-637082D01*
X578916Y-632104D01*
X578916Y-587095D01*
X571906Y-582117D01*
G37*
G36*
X621893Y-582117D02*
G01*
X614883Y-587095D01*
X614883Y-632104D01*
X621893Y-637082D01*
X669899Y-637082D01*
X674878Y-632104D01*
X674878Y-587095D01*
X669899Y-582117D01*
G37*
G36*
X1795475Y-49174D02*
G01*
X1791512Y-53187D01*
X1791512Y-99212D01*
X1795475Y-103225D01*
X1845564Y-103225D01*
X1849577Y-99212D01*
X1849577Y-53187D01*
X1845564Y-49174D01*
G37*
G36*
X1710436Y-49174D02*
G01*
X1706422Y-53187D01*
X1706422Y-99212D01*
X1710436Y-103225D01*
X1760524Y-103225D01*
X1764487Y-99212D01*
X1764487Y-53187D01*
X1760524Y-49174D01*
G37*
G36*
X656336Y-468274D02*
G01*
X652322Y-472287D01*
X652322Y-518312D01*
X656336Y-522325D01*
X706424Y-522325D01*
X710387Y-518312D01*
X710387Y-472287D01*
X706424Y-468274D01*
G37*
G36*
X741375Y-468274D02*
G01*
X737412Y-472287D01*
X737412Y-518312D01*
X741375Y-522325D01*
X791464Y-522325D01*
X795477Y-518312D01*
X795477Y-472287D01*
X791464Y-468274D01*
G37*
G36*
X1717700Y-2195017D02*
G01*
X1712722Y-2199995D01*
X1712722Y-2245004D01*
X1717700Y-2249982D01*
X1765706Y-2249982D01*
X1772716Y-2245004D01*
X1772716Y-2199995D01*
X1765706Y-2195017D01*
G37*
G36*
X1815693Y-2195017D02*
G01*
X1808683Y-2199995D01*
X1808683Y-2245004D01*
X1815693Y-2249982D01*
X1863699Y-2249982D01*
X1868678Y-2245004D01*
X1868678Y-2199995D01*
X1863699Y-2195017D01*
G37*
G36*
X1945995Y-2151583D02*
G01*
X1941017Y-2158593D01*
X1941017Y-2206599D01*
X1945995Y-2211578D01*
X1991004Y-2211578D01*
X1995982Y-2206599D01*
X1995982Y-2158593D01*
X1991004Y-2151583D01*
G37*
G36*
X1945995Y-2055622D02*
G01*
X1941017Y-2060600D01*
X1941017Y-2108606D01*
X1945995Y-2115616D01*
X1991004Y-2115616D01*
X1995982Y-2108606D01*
X1995982Y-2060600D01*
X1991004Y-2055622D01*
G37*
G36*
X1866493Y-1610817D02*
G01*
X1859483Y-1615795D01*
X1859483Y-1660804D01*
X1866493Y-1665782D01*
X1914499Y-1665782D01*
X1919478Y-1660804D01*
X1919478Y-1615795D01*
X1914499Y-1610817D01*
G37*
G36*
X1768500Y-1610817D02*
G01*
X1763522Y-1615795D01*
X1763522Y-1660804D01*
X1768500Y-1665782D01*
X1816506Y-1665782D01*
X1823516Y-1660804D01*
X1823516Y-1615795D01*
X1816506Y-1610817D01*
G37*
G36*
X1815693Y-2080717D02*
G01*
X1808683Y-2085695D01*
X1808683Y-2130704D01*
X1815693Y-2135682D01*
X1863699Y-2135682D01*
X1868678Y-2130704D01*
X1868678Y-2085695D01*
X1863699Y-2080717D01*
G37*
G36*
X1717700Y-2080717D02*
G01*
X1712722Y-2085695D01*
X1712722Y-2130704D01*
X1717700Y-2135682D01*
X1765706Y-2135682D01*
X1772716Y-2130704D01*
X1772716Y-2085695D01*
X1765706Y-2080717D01*
G37*
G36*
X625500Y-1902917D02*
G01*
X620522Y-1907895D01*
X620522Y-1952904D01*
X625500Y-1957882D01*
X673506Y-1957882D01*
X680516Y-1952904D01*
X680516Y-1907895D01*
X673506Y-1902917D01*
G37*
G36*
X723493Y-1902917D02*
G01*
X716483Y-1907895D01*
X716483Y-1952904D01*
X723493Y-1957882D01*
X771499Y-1957882D01*
X776478Y-1952904D01*
X776478Y-1907895D01*
X771499Y-1902917D01*
G37*
G36*
X1307693Y-785317D02*
G01*
X1300683Y-790295D01*
X1300683Y-835304D01*
X1307693Y-840282D01*
X1355699Y-840282D01*
X1360678Y-835304D01*
X1360678Y-790295D01*
X1355699Y-785317D01*
G37*
G36*
X1209700Y-785317D02*
G01*
X1204722Y-790295D01*
X1204722Y-835304D01*
X1209700Y-840282D01*
X1257706Y-840282D01*
X1264716Y-835304D01*
X1264716Y-790295D01*
X1257706Y-785317D01*
G37*
G36*
X1755800Y-150317D02*
G01*
X1750822Y-155295D01*
X1750822Y-200304D01*
X1755800Y-205282D01*
X1803806Y-205282D01*
X1810816Y-200304D01*
X1810816Y-155295D01*
X1803806Y-150317D01*
G37*
G36*
X1853793Y-150317D02*
G01*
X1846783Y-155295D01*
X1846783Y-200304D01*
X1853793Y-205282D01*
X1901799Y-205282D01*
X1906778Y-200304D01*
X1906778Y-155295D01*
X1901799Y-150317D01*
G37*
G36*
X865987Y-487222D02*
G01*
X861974Y-491235D01*
X861974Y-541324D01*
X865987Y-545287D01*
X912012Y-545287D01*
X916025Y-541324D01*
X916025Y-491235D01*
X912012Y-487222D01*
G37*
G36*
X865987Y-572312D02*
G01*
X861974Y-576275D01*
X861974Y-626364D01*
X865987Y-630377D01*
X912012Y-630377D01*
X916025Y-626364D01*
X916025Y-576275D01*
X912012Y-572312D01*
G37*
G36*
X986536Y-684174D02*
G01*
X982522Y-688187D01*
X982522Y-734212D01*
X986536Y-738225D01*
X1036624Y-738225D01*
X1040587Y-734212D01*
X1040587Y-688187D01*
X1036624Y-684174D01*
G37*
G36*
X1071575Y-684174D02*
G01*
X1067612Y-688187D01*
X1067612Y-734212D01*
X1071575Y-738225D01*
X1121664Y-738225D01*
X1125677Y-734212D01*
X1125677Y-688187D01*
X1121664Y-684174D01*
G37*
G36*
X434187Y-254812D02*
G01*
X430174Y-258775D01*
X430174Y-308864D01*
X434187Y-312877D01*
X480212Y-312877D01*
X484225Y-308864D01*
X484225Y-258775D01*
X480212Y-254812D01*
G37*
G36*
X434187Y-169722D02*
G01*
X430174Y-173736D01*
X430174Y-223824D01*
X434187Y-227787D01*
X480212Y-227787D01*
X484225Y-223824D01*
X484225Y-173736D01*
X480212Y-169722D01*
G37*
G36*
X1558036Y-1065174D02*
G01*
X1554022Y-1069187D01*
X1554022Y-1115212D01*
X1558036Y-1119225D01*
X1608124Y-1119225D01*
X1612087Y-1115212D01*
X1612087Y-1069187D01*
X1608124Y-1065174D01*
G37*
G36*
X1643075Y-1065174D02*
G01*
X1639112Y-1069187D01*
X1639112Y-1115212D01*
X1643075Y-1119225D01*
X1693164Y-1119225D01*
X1697177Y-1115212D01*
X1697177Y-1069187D01*
X1693164Y-1065174D01*
G37*
G36*
X1519936Y-1179474D02*
G01*
X1515922Y-1183487D01*
X1515922Y-1229512D01*
X1519936Y-1233525D01*
X1570024Y-1233525D01*
X1573987Y-1229512D01*
X1573987Y-1183487D01*
X1570024Y-1179474D01*
G37*
G36*
X1604975Y-1179474D02*
G01*
X1601012Y-1183487D01*
X1601012Y-1229512D01*
X1604975Y-1233525D01*
X1655064Y-1233525D01*
X1659077Y-1229512D01*
X1659077Y-1183487D01*
X1655064Y-1179474D01*
G37*
G36*
X474675Y-49174D02*
G01*
X470712Y-53187D01*
X470712Y-99212D01*
X474675Y-103225D01*
X524764Y-103225D01*
X528777Y-99212D01*
X528777Y-53187D01*
X524764Y-49174D01*
G37*
G36*
X389636Y-49174D02*
G01*
X385622Y-53187D01*
X385622Y-99212D01*
X389636Y-103225D01*
X439724Y-103225D01*
X443687Y-99212D01*
X443687Y-53187D01*
X439724Y-49174D01*
G37*
G36*
X1907387Y-572312D02*
G01*
X1903374Y-576275D01*
X1903374Y-626364D01*
X1907387Y-630377D01*
X1953412Y-630377D01*
X1957425Y-626364D01*
X1957425Y-576275D01*
X1953412Y-572312D01*
G37*
G36*
X1907387Y-487222D02*
G01*
X1903374Y-491235D01*
X1903374Y-541324D01*
X1907387Y-545287D01*
X1953412Y-545287D01*
X1957425Y-541324D01*
X1957425Y-491235D01*
X1953412Y-487222D01*
G37*
G36*
X1793087Y-572312D02*
G01*
X1789074Y-576275D01*
X1789074Y-626364D01*
X1793087Y-630377D01*
X1839112Y-630377D01*
X1843125Y-626364D01*
X1843125Y-576275D01*
X1839112Y-572312D01*
G37*
G36*
X1793087Y-487222D02*
G01*
X1789074Y-491235D01*
X1789074Y-541324D01*
X1793087Y-545287D01*
X1839112Y-545287D01*
X1843125Y-541324D01*
X1843125Y-491235D01*
X1839112Y-487222D01*
G37*
G36*
X1678787Y-572312D02*
G01*
X1674774Y-576275D01*
X1674774Y-626364D01*
X1678787Y-630377D01*
X1724812Y-630377D01*
X1728825Y-626364D01*
X1728825Y-576275D01*
X1724812Y-572312D01*
G37*
G36*
X1678787Y-487222D02*
G01*
X1674774Y-491235D01*
X1674774Y-541324D01*
X1678787Y-545287D01*
X1724812Y-545287D01*
X1728825Y-541324D01*
X1728825Y-491235D01*
X1724812Y-487222D01*
G37*
G36*
X1564487Y-572312D02*
G01*
X1560474Y-576275D01*
X1560474Y-626364D01*
X1564487Y-630377D01*
X1610512Y-630377D01*
X1614525Y-626364D01*
X1614525Y-576275D01*
X1610512Y-572312D01*
G37*
G36*
X1564487Y-487222D02*
G01*
X1560474Y-491235D01*
X1560474Y-541324D01*
X1564487Y-545287D01*
X1610512Y-545287D01*
X1614525Y-541324D01*
X1614525Y-491235D01*
X1610512Y-487222D01*
G37*
D18*
X967826Y-243331D02*
G01*
X1019825Y-243331D01*
X967826Y-293319D02*
G01*
X1019825Y-293319D01*
X967826Y-343331D02*
G01*
X1019825Y-343331D01*
X967826Y-393319D02*
G01*
X1019825Y-393319D01*
X967826Y-443331D02*
G01*
X1019825Y-443331D01*
X967826Y-493318D02*
G01*
X1019825Y-493318D01*
X1068831Y-542325D02*
G01*
X1068831Y-594324D01*
X1118819Y-542325D02*
G01*
X1118819Y-594324D01*
X1168831Y-542325D02*
G01*
X1168831Y-594324D01*
X1218819Y-542325D02*
G01*
X1218819Y-594324D01*
X1268831Y-542325D02*
G01*
X1268831Y-594324D01*
X1318818Y-542325D02*
G01*
X1318818Y-594324D01*
X1367825Y-493318D02*
G01*
X1419824Y-493318D01*
X1367825Y-443331D02*
G01*
X1419824Y-443331D01*
X1367825Y-393319D02*
G01*
X1419824Y-393319D01*
X1367825Y-343331D02*
G01*
X1419824Y-343331D01*
X1367825Y-293319D02*
G01*
X1419824Y-293319D01*
X1367825Y-244119D02*
G01*
X1419824Y-244119D01*
X1318818Y-142326D02*
G01*
X1318818Y-194325D01*
X1268831Y-142326D02*
G01*
X1268831Y-194325D01*
X1218819Y-142326D02*
G01*
X1218819Y-194325D01*
X1168831Y-142326D02*
G01*
X1168831Y-194325D01*
X1118819Y-142326D02*
G01*
X1118819Y-194325D01*
X1068831Y-142326D02*
G01*
X1068831Y-194325D01*
G36*
X1050998Y-1040594D02*
G01*
X1221000Y-1040594D01*
X1221000Y-1194595D01*
X1050998Y-1194595D01*
G37*
D20*
G01*
X1155496Y-1267104D03*
G01*
X1116507Y-1267104D03*
G01*
X1194485Y-1267104D03*
G01*
X1233500Y-1267104D03*
G01*
X1077493Y-1267104D03*
G01*
X1038504Y-1267104D03*
G36*
X965200Y-1204094D02*
G01*
X1005199Y-1204094D01*
X1005199Y-1226096D01*
X965200Y-1226096D01*
G37*
G36*
X965200Y-1165092D02*
G01*
X1005199Y-1165092D01*
X1005199Y-1187094D01*
X965200Y-1187094D01*
G37*
G36*
X965200Y-1009096D02*
G01*
X1005199Y-1009096D01*
X1005199Y-1031097D01*
X965200Y-1031097D01*
G37*
G36*
X965200Y-1048095D02*
G01*
X1005199Y-1048095D01*
X1005199Y-1070096D01*
X965200Y-1070096D01*
G37*
G36*
X965200Y-1126093D02*
G01*
X1005199Y-1126093D01*
X1005199Y-1148095D01*
X965200Y-1148095D01*
G37*
G36*
X965200Y-1087094D02*
G01*
X1005199Y-1087094D01*
X1005199Y-1109096D01*
X965200Y-1109096D01*
G37*
G36*
X1264198Y-1204094D02*
G01*
X1304198Y-1204094D01*
X1304198Y-1226096D01*
X1264198Y-1226096D01*
G37*
G36*
X1264198Y-1165092D02*
G01*
X1304198Y-1165092D01*
X1304198Y-1187094D01*
X1264198Y-1187094D01*
G37*
G36*
X1264198Y-1009096D02*
G01*
X1304198Y-1009096D01*
X1304198Y-1031097D01*
X1264198Y-1031097D01*
G37*
G36*
X1264198Y-1048095D02*
G01*
X1304198Y-1048095D01*
X1304198Y-1070096D01*
X1264198Y-1070096D01*
G37*
G36*
X1264198Y-1126093D02*
G01*
X1304198Y-1126093D01*
X1304198Y-1148095D01*
X1264198Y-1148095D01*
G37*
G36*
X1264198Y-1087094D02*
G01*
X1304198Y-1087094D01*
X1304198Y-1109096D01*
X1264198Y-1109096D01*
G37*
G01*
X1038504Y-968095D03*
G01*
X1077493Y-968095D03*
G01*
X1233500Y-968095D03*
G01*
X1194485Y-968095D03*
G01*
X1116507Y-968095D03*
G01*
X1155496Y-968095D03*
G36*
X261112Y-499110D02*
G01*
X261112Y-529081D01*
X196087Y-579081D01*
X196087Y-499110D01*
G37*
G36*
X196087Y-643381D02*
G01*
X196087Y-613410D01*
X261112Y-563283D01*
X261112Y-643381D01*
G37*
D26*
G01*
X2114956Y-825017D03*
G01*
X2114956Y-1511782D03*
D27*
G01*
X1847443Y-1297254D03*
G01*
X1847443Y-1232255D03*
G01*
X1847443Y-1167256D03*
G01*
X1847443Y-1102258D03*
G01*
X1847443Y-1037259D03*
D28*
G01*
X1857451Y-1497253D03*
G01*
X1857451Y-837260D03*
D29*
G01*
X520700Y-2202179D03*
G01*
X520700Y-2117344D03*
G01*
X774700Y-2202179D03*
G01*
X774700Y-2117344D03*
G36*
X1661490Y-1931896D02*
G01*
X1761489Y-1931896D01*
X1761489Y-1991895D01*
X1661490Y-1991895D01*
G37*
G36*
X1661490Y-1741904D02*
G01*
X1761489Y-1741904D01*
X1761489Y-1801903D01*
X1661490Y-1801903D01*
G37*
G36*
X1921510Y-1741904D02*
G01*
X2021509Y-1741904D01*
X2021509Y-1801903D01*
X1921510Y-1801903D01*
G37*
G36*
X1921510Y-1836900D02*
G01*
X2021509Y-1836900D01*
X2021509Y-1896899D01*
X1921510Y-1896899D01*
G37*
G36*
X1921510Y-1931896D02*
G01*
X2021509Y-1931896D01*
X2021509Y-1991895D01*
X1921510Y-1991895D01*
G37*
G36*
X1058798Y-234569D02*
G01*
X1328801Y-234569D01*
X1328801Y-504570D01*
X1058798Y-504570D01*
G37*
D32*
G01*
X1193800Y-1879600D03*
D33*
G01*
X857300Y-2154605D03*
G01*
X857300Y-2104593D03*
G01*
X857300Y-2054605D03*
G01*
X857300Y-2004593D03*
G01*
X857300Y-1954606D03*
G01*
X857300Y-1904593D03*
G01*
X857300Y-1854606D03*
G01*
X857300Y-1804593D03*
G01*
X857300Y-1754606D03*
G01*
X857300Y-1704594D03*
G01*
X857300Y-1654606D03*
G01*
X857300Y-1604594D03*
D34*
G01*
X918794Y-1543100D03*
G01*
X968806Y-1543100D03*
G01*
X1018794Y-1543100D03*
G01*
X1068806Y-1543100D03*
G01*
X1118793Y-1543100D03*
G01*
X1168806Y-1543100D03*
G01*
X1218793Y-1543100D03*
G01*
X1268806Y-1543100D03*
G01*
X1318793Y-1543100D03*
G01*
X1368805Y-1543100D03*
G01*
X1418793Y-1543100D03*
G01*
X1468805Y-1543100D03*
D33*
G01*
X1530299Y-1604594D03*
G01*
X1530299Y-1654606D03*
G01*
X1530299Y-1704594D03*
G01*
X1530299Y-1754606D03*
G01*
X1530299Y-1804593D03*
G01*
X1530299Y-1854606D03*
G01*
X1530299Y-1904593D03*
G01*
X1530299Y-1954606D03*
G01*
X1530299Y-2004593D03*
G01*
X1530299Y-2054605D03*
G01*
X1530299Y-2104593D03*
G01*
X1530299Y-2154605D03*
G36*
X1456301Y-2182098D02*
G01*
X1481302Y-2182098D01*
X1481302Y-2250099D01*
X1456301Y-2250099D01*
G37*
G36*
X1406288Y-2182098D02*
G01*
X1431289Y-2182098D01*
X1431289Y-2250099D01*
X1406288Y-2250099D01*
G37*
G36*
X1356301Y-2182098D02*
G01*
X1381302Y-2182098D01*
X1381302Y-2250099D01*
X1356301Y-2250099D01*
G37*
G36*
X1306288Y-2182098D02*
G01*
X1331290Y-2182098D01*
X1331290Y-2250099D01*
X1306288Y-2250099D01*
G37*
G36*
X1256301Y-2182098D02*
G01*
X1281303Y-2182098D01*
X1281303Y-2250099D01*
X1256301Y-2250099D01*
G37*
G36*
X1206289Y-2182098D02*
G01*
X1231290Y-2182098D01*
X1231290Y-2250099D01*
X1206289Y-2250099D01*
G37*
G36*
X1156301Y-2182098D02*
G01*
X1181303Y-2182098D01*
X1181303Y-2250099D01*
X1156301Y-2250099D01*
G37*
G36*
X1106289Y-2182098D02*
G01*
X1131290Y-2182098D01*
X1131290Y-2250099D01*
X1106289Y-2250099D01*
G37*
G36*
X1056302Y-2182098D02*
G01*
X1081303Y-2182098D01*
X1081303Y-2250099D01*
X1056302Y-2250099D01*
G37*
G36*
X1006289Y-2182098D02*
G01*
X1031290Y-2182098D01*
X1031290Y-2250099D01*
X1006289Y-2250099D01*
G37*
G36*
X956302Y-2182098D02*
G01*
X981303Y-2182098D01*
X981303Y-2250099D01*
X956302Y-2250099D01*
G37*
G36*
X906289Y-2182098D02*
G01*
X931290Y-2182098D01*
X931290Y-2250099D01*
X906289Y-2250099D01*
G37*
D35*
G01*
X1908047Y-380212D03*
G01*
X1908047Y-330225D03*
G01*
X1908047Y-280212D03*
G01*
X1622552Y-280212D03*
G01*
X1622552Y-330225D03*
G01*
X1622552Y-380212D03*
D36*
G01*
X1765300Y-330225D03*
G36*
X-411248Y-1383306D02*
G01*
X-561362Y-1383306D01*
X-561362Y-1283484D01*
X-411248Y-1283484D01*
G37*
G36*
X-411248Y-1053304D02*
G01*
X-561362Y-1053304D01*
X-561362Y-953482D01*
X-411248Y-953482D01*
G37*
G36*
X78625Y-1053304D02*
G01*
X-71234Y-1053304D01*
X-71234Y-953482D01*
X78625Y-953482D01*
G37*
G36*
X78625Y-1383306D02*
G01*
X-71234Y-1383306D01*
X-71234Y-1283484D01*
X78625Y-1283484D01*
G37*
D38*
G01*
X411810Y-2159000D03*
G01*
X96189Y-2159000D03*
G36*
X1661413Y-1478787D02*
G01*
X1691386Y-1478787D01*
X1691386Y-1548892D01*
X1661413Y-1548892D01*
G37*
G36*
X1726437Y-1478787D02*
G01*
X1756410Y-1478787D01*
X1756410Y-1548892D01*
X1726437Y-1548892D01*
G37*
G36*
X1727454Y-1295907D02*
G01*
X1757426Y-1295907D01*
X1757426Y-1366012D01*
X1727454Y-1366012D01*
G37*
G36*
X1662429Y-1295907D02*
G01*
X1692402Y-1295907D01*
X1692402Y-1366012D01*
X1662429Y-1366012D01*
G37*
G36*
X1597405Y-1295907D02*
G01*
X1627378Y-1295907D01*
X1627378Y-1366012D01*
X1597405Y-1366012D01*
G37*
G36*
X1596389Y-1478787D02*
G01*
X1626362Y-1478787D01*
X1626362Y-1548892D01*
X1596389Y-1548892D01*
G37*
D40*
G01*
X188544Y-1343405D03*
G01*
X188544Y-1293393D03*
G01*
X188544Y-1243406D03*
G01*
X188544Y-1193393D03*
G01*
X188544Y-1143406D03*
G01*
X188544Y-1093393D03*
G01*
X188544Y-1043406D03*
G01*
X188544Y-993394D03*
D41*
G01*
X421030Y-1497406D03*
G01*
X421030Y-839393D03*
D42*
G01*
X793495Y-130505D03*
G01*
X603504Y-130505D03*
G01*
X698500Y-377494D03*
G01*
X310895Y-117805D03*
G01*
X120904Y-117805D03*
G01*
X215900Y-364794D03*
M02*
