M48
METRIC,LZ,000.000
;FILE_FORMAT=3:3
;TYPE=PLATED
;Layer: Drill PTH
;EasyEDA v6.4.25, 2021-12-07T19:09:17+01:00
;af510f2a62b747d9ba719f6df8b66caf,db93e8822c7348a7aec6f6efa12e507d,10
;Gerber Generator version 0.2
;Holesize 1 = 0.305 mm
T01C0.305
%
G05
G90
T01
X004953Y-005842
X012827Y-000889
X017018Y-020193
X019304Y-006858
X018542Y-007112
X017399Y-009144
X015875Y-008763
X016510Y-020955
X016256Y-021717
X018796Y-017145
X017272Y-018542
X016764Y-016510
X007747Y-016891
X006350Y-018542
X017272Y-011176
X017272Y-012446
X015494Y-003683
X014859Y-004191
X009144Y-003429
X009144Y-004191
X016383Y-002667
X016129Y-004064
X009906Y-001397
X006985Y-002794
X006731Y-007620
X017653Y-003302
X012954Y-002794
X013081Y-012954
X011938Y-013335
X013589Y-007747
X019812Y-018669
X021209Y-014097
X018575Y-014973
X018923Y-022225
X021209Y-009398
X016764Y-009906
X014224Y-006477
X016129Y-005080
X017780Y-016637
X014478Y-012700
X008509Y-022225
X006477Y-020955
X006440Y-020029
X005207Y-009906
X010414Y-006477
X009779Y-020193
X017907Y-007620
X021844Y-011938
X003683Y-010668
X000000Y-011557
X011430Y-014351
X001143Y-007747
X015748Y-022352
X-001270Y-009779
X005207Y-012065
X004699Y-012700
X004064Y-013081
X002159Y-013970
X014351Y-017399
X005461Y-017794
X009144Y-006985
X004211Y-008394
X-002933Y-010934
X005715Y-011430
X007747Y-016129
X009144Y-010287
X008001Y-015367
X008509Y-014732
X010160Y-014605
X010414Y-016383
X004191Y-014859
X013462Y-018034
X014351Y-021209
X010160Y-017653
X000508Y-015748
X012954Y-014351
X001397Y-014732
X011811Y-007239
X011811Y-007874
X017399Y-020701
X012065Y-018288
X004318Y-010668
X012065Y-004826
X014986Y-002540
X002159Y-000889
X001016Y-002921
X016256Y-001651
X013970Y-000635
X010033Y-005207
X011557Y-008763
X009180Y-012303
X008636Y-009017
X007747Y-011684
M30
