G04 Layer: BottomSolderMaskLayer*
G04 EasyEDA v6.4.25, 2021-12-07T19:09:17+01:00*
G04 af510f2a62b747d9ba719f6df8b66caf,db93e8822c7348a7aec6f6efa12e507d,10*
G04 Gerber Generator version 0.2*
G04 Scale: 100 percent, Rotated: No, Reflected: No *
G04 Dimensions in millimeters *
G04 leading zeros omitted , absolute positions ,4 integer and 5 decimal *
%FSLAX45Y45*%
%MOMM*%

%ADD10C,0.0001*%

%LPD*%
G36*
X1180337Y-2159507D02*
G01*
X1180337Y-1879092D01*
X1380489Y-1879092D01*
X1380489Y-2159507D01*
G37*
G36*
X880110Y-2159507D02*
G01*
X880110Y-1879092D01*
X1080262Y-1879092D01*
X1080262Y-2159507D01*
G37*
G36*
X1489963Y-807212D02*
G01*
X1489963Y-716787D01*
X1685036Y-716787D01*
X1685036Y-807212D01*
G37*
G36*
X1489963Y-921512D02*
G01*
X1489963Y-831087D01*
X1685036Y-831087D01*
X1685036Y-921512D01*
G37*
G36*
X1489963Y-1035812D02*
G01*
X1489963Y-945387D01*
X1685036Y-945387D01*
X1685036Y-1035812D01*
G37*
G36*
X1489963Y-1150112D02*
G01*
X1489963Y-1059687D01*
X1685036Y-1059687D01*
X1685036Y-1150112D01*
G37*
G36*
X1489963Y-1607312D02*
G01*
X1489963Y-1516887D01*
X1685036Y-1516887D01*
X1685036Y-1607312D01*
G37*
G36*
X1489963Y-1493012D02*
G01*
X1489963Y-1402587D01*
X1685036Y-1402587D01*
X1685036Y-1493012D01*
G37*
G36*
X1489963Y-1378712D02*
G01*
X1489963Y-1288287D01*
X1685036Y-1288287D01*
X1685036Y-1378712D01*
G37*
G36*
X1489963Y-1264412D02*
G01*
X1489963Y-1173987D01*
X1685036Y-1173987D01*
X1685036Y-1264412D01*
G37*
G36*
X1489710Y-710184D02*
G01*
X1489710Y-559815D01*
X1659889Y-559815D01*
X1659889Y-710184D01*
G37*
G36*
X1489710Y-1853184D02*
G01*
X1489710Y-1702815D01*
X1659889Y-1702815D01*
X1659889Y-1853184D01*
G37*
G36*
X422910Y-1838197D02*
G01*
X422910Y-1717802D01*
X593089Y-1717802D01*
X593089Y-1838197D01*
G37*
G36*
X600202Y-704850D02*
G01*
X600202Y-539750D01*
X720597Y-539750D01*
X720597Y-704850D01*
G37*
G36*
X727710Y-659637D02*
G01*
X727710Y-559562D01*
X897889Y-559562D01*
X897889Y-659637D01*
G37*
G36*
X669036Y-1853437D02*
G01*
X669036Y-1753362D01*
X829563Y-1753362D01*
X829563Y-1853437D01*
G37*
M02*
