G04 Layer: BottomLayer*
G04 EasyEDA v6.4.25, 2021-12-07T19:09:17+01:00*
G04 af510f2a62b747d9ba719f6df8b66caf,db93e8822c7348a7aec6f6efa12e507d,10*
G04 Gerber Generator version 0.2*
G04 Scale: 100 percent, Rotated: No, Reflected: No *
G04 Dimensions in millimeters *
G04 leading zeros omitted , absolute positions ,4 integer and 5 decimal *
%FSLAX45Y45*%
%MOMM*%

%ADD10C,0.2540*%
%ADD11C,0.1270*%
%ADD12C,0.5080*%
%ADD13C,0.3810*%
%ADD14C,0.3048*%
%ADD15C,0.1778*%
%ADD19C,0.6096*%

%LPD*%
G36*
X1620418Y-350723D02*
G01*
X1612900Y-350062D01*
X1610309Y-350266D01*
X1606245Y-349808D01*
X1602689Y-347726D01*
X1600200Y-344474D01*
X1598218Y-340106D01*
X1592580Y-332079D01*
X1585620Y-325120D01*
X1577594Y-319481D01*
X1568653Y-315366D01*
X1559204Y-312826D01*
X1549196Y-311912D01*
X1545285Y-310794D01*
X1538732Y-307289D01*
X1531518Y-305104D01*
X1523492Y-304292D01*
X1244092Y-304292D01*
X1240028Y-303479D01*
X1236675Y-301091D01*
X1234541Y-297586D01*
X1233932Y-293522D01*
X1234998Y-289509D01*
X1238605Y-285445D01*
X1402537Y-121564D01*
X1404620Y-119938D01*
X1407109Y-118922D01*
X1416253Y-116433D01*
X1425194Y-112318D01*
X1433220Y-106680D01*
X1440180Y-99720D01*
X1445818Y-91694D01*
X1449933Y-82753D01*
X1452473Y-73304D01*
X1453337Y-63500D01*
X1452473Y-53695D01*
X1449933Y-44246D01*
X1448155Y-40386D01*
X1447190Y-36423D01*
X1447850Y-32410D01*
X1450035Y-29006D01*
X1453388Y-26720D01*
X1457350Y-25908D01*
X1853336Y-25908D01*
X1870811Y-26822D01*
X1886813Y-29209D01*
X1902460Y-33172D01*
X1917649Y-38658D01*
X1932178Y-45618D01*
X1946046Y-53949D01*
X1958949Y-63601D01*
X1970887Y-74523D01*
X1981707Y-86512D01*
X1991309Y-99517D01*
X1999538Y-113385D01*
X2006396Y-128016D01*
X2011781Y-143205D01*
X2015693Y-158902D01*
X2017979Y-174853D01*
X2018741Y-190246D01*
X2018131Y-194259D01*
X2015998Y-197713D01*
X2012696Y-200050D01*
X2008784Y-200914D01*
X2004771Y-200152D01*
X2001418Y-197916D01*
X1935530Y-132130D01*
X1928622Y-126898D01*
X1921205Y-123240D01*
X1913229Y-120954D01*
X1904542Y-120142D01*
X1662480Y-120142D01*
X1659432Y-119684D01*
X1656638Y-118313D01*
X1653793Y-116281D01*
X1644853Y-112166D01*
X1635404Y-109626D01*
X1625600Y-108762D01*
X1615795Y-109626D01*
X1606346Y-112166D01*
X1597406Y-116281D01*
X1589379Y-121920D01*
X1582420Y-128879D01*
X1576781Y-136906D01*
X1572666Y-145846D01*
X1570126Y-155295D01*
X1569262Y-165100D01*
X1570126Y-174904D01*
X1572666Y-184353D01*
X1576781Y-193294D01*
X1582420Y-201320D01*
X1589379Y-208279D01*
X1595932Y-212852D01*
X1598879Y-216103D01*
X1600200Y-220268D01*
X1599641Y-224637D01*
X1597253Y-228346D01*
X1595120Y-230479D01*
X1589481Y-238506D01*
X1585366Y-247446D01*
X1582826Y-256895D01*
X1581962Y-266700D01*
X1582826Y-276504D01*
X1585366Y-285953D01*
X1589481Y-294894D01*
X1595120Y-302920D01*
X1602079Y-309880D01*
X1610106Y-315518D01*
X1619046Y-319633D01*
X1623923Y-320954D01*
X1627835Y-322986D01*
X1630476Y-326491D01*
X1631442Y-330758D01*
X1631442Y-340563D01*
X1630578Y-344678D01*
X1628139Y-348081D01*
X1624533Y-350215D01*
G37*

%LPD*%
G36*
X1116838Y-728116D02*
G01*
X1112418Y-727913D01*
X1108506Y-725881D01*
X1105865Y-722376D01*
X1104900Y-718108D01*
X1104900Y-699516D01*
X1103884Y-698500D01*
X1096518Y-698500D01*
X1092606Y-697738D01*
X1089355Y-695502D01*
X1087120Y-692251D01*
X1086358Y-688340D01*
X1086358Y-684580D01*
X1086815Y-681532D01*
X1088186Y-678738D01*
X1090218Y-675894D01*
X1094333Y-666953D01*
X1096873Y-657504D01*
X1097737Y-647700D01*
X1096873Y-637895D01*
X1094333Y-628446D01*
X1090218Y-619506D01*
X1088186Y-616661D01*
X1086815Y-613867D01*
X1086358Y-610819D01*
X1086307Y-557072D01*
X1085138Y-548538D01*
X1082497Y-540664D01*
X1078433Y-533400D01*
X1072845Y-526694D01*
X1061364Y-515162D01*
X1059738Y-513080D01*
X1058722Y-510590D01*
X1056233Y-501446D01*
X1052118Y-492506D01*
X1046480Y-484479D01*
X1039520Y-477520D01*
X1037590Y-476199D01*
X1034694Y-473100D01*
X1033322Y-469036D01*
X1033729Y-464820D01*
X1035862Y-461111D01*
X1039266Y-458622D01*
X1043432Y-457708D01*
X1389837Y-457708D01*
X1393748Y-458470D01*
X1397050Y-460705D01*
X1399235Y-463956D01*
X1399997Y-467868D01*
X1399235Y-471779D01*
X1397050Y-475030D01*
X1260246Y-611835D01*
X1255674Y-617474D01*
X1252626Y-623468D01*
X1250848Y-630072D01*
X1250442Y-635406D01*
X1250442Y-693928D01*
X1249680Y-697788D01*
X1247546Y-701040D01*
X1244346Y-703275D01*
X1240536Y-704088D01*
X1236675Y-703427D01*
X1233373Y-701395D01*
X1231087Y-698246D01*
X1229918Y-695706D01*
X1224280Y-687679D01*
X1217320Y-680720D01*
X1209294Y-675081D01*
X1200353Y-670966D01*
X1190904Y-668426D01*
X1181100Y-667562D01*
X1171295Y-668426D01*
X1161846Y-670966D01*
X1152906Y-675081D01*
X1144879Y-680720D01*
X1137920Y-687679D01*
X1132281Y-695706D01*
X1128166Y-704646D01*
X1125626Y-714095D01*
X1125169Y-718972D01*
X1123848Y-723188D01*
X1120902Y-726440D01*
G37*

%LPD*%
G36*
X1547571Y-1043990D02*
G01*
X1543659Y-1043228D01*
X1540357Y-1040993D01*
X1538173Y-1037742D01*
X1537411Y-1033830D01*
X1537411Y-1014425D01*
X1502918Y-1014425D01*
X1499006Y-1013663D01*
X1495755Y-1011478D01*
X1493520Y-1008176D01*
X1492758Y-1004265D01*
X1492758Y-976934D01*
X1493520Y-973023D01*
X1495755Y-969721D01*
X1499006Y-967536D01*
X1502918Y-966774D01*
X1537411Y-966774D01*
X1537411Y-947369D01*
X1538173Y-943457D01*
X1540357Y-940206D01*
X1543659Y-937971D01*
X1547571Y-937209D01*
X1627428Y-937209D01*
X1631340Y-937971D01*
X1634642Y-940206D01*
X1636826Y-943457D01*
X1637588Y-947369D01*
X1637588Y-966774D01*
X1691132Y-966774D01*
X1695043Y-967536D01*
X1698294Y-969721D01*
X1700530Y-973023D01*
X1701292Y-976934D01*
X1701292Y-995781D01*
X1700530Y-999693D01*
X1698294Y-1002995D01*
X1689811Y-1011478D01*
X1686509Y-1013663D01*
X1682648Y-1014425D01*
X1637588Y-1014425D01*
X1637588Y-1033830D01*
X1636826Y-1037742D01*
X1634642Y-1040993D01*
X1631340Y-1043228D01*
X1627428Y-1043990D01*
G37*

%LPD*%
G36*
X1350518Y-1177747D02*
G01*
X1346606Y-1176985D01*
X1343355Y-1174800D01*
X1341120Y-1171498D01*
X1340358Y-1167587D01*
X1340358Y-663346D01*
X1341120Y-659434D01*
X1343355Y-656132D01*
X1349502Y-649986D01*
X1352651Y-647852D01*
X1356410Y-647039D01*
X1360170Y-647649D01*
X1363421Y-649579D01*
X1365758Y-652627D01*
X1369466Y-666953D01*
X1373581Y-675894D01*
X1379220Y-683920D01*
X1386179Y-690880D01*
X1394206Y-696518D01*
X1403146Y-700633D01*
X1412595Y-703173D01*
X1422400Y-704037D01*
X1432204Y-703173D01*
X1441653Y-700633D01*
X1450594Y-696518D01*
X1457909Y-691388D01*
X1461770Y-689711D01*
X1465935Y-689762D01*
X1469745Y-691489D01*
X1472539Y-694639D01*
X1473809Y-698601D01*
X1474622Y-705764D01*
X1476248Y-710438D01*
X1476806Y-713790D01*
X1476248Y-717143D01*
X1474825Y-721258D01*
X1474114Y-727557D01*
X1474114Y-796442D01*
X1474825Y-802741D01*
X1476705Y-808228D01*
X1480210Y-813765D01*
X1481582Y-817270D01*
X1481582Y-821029D01*
X1480210Y-824534D01*
X1476705Y-830071D01*
X1474825Y-835558D01*
X1474114Y-841857D01*
X1474114Y-863701D01*
X1473301Y-867562D01*
X1471117Y-870864D01*
X1438046Y-903935D01*
X1433474Y-909574D01*
X1430426Y-915568D01*
X1428648Y-922172D01*
X1428242Y-927506D01*
X1428242Y-1100023D01*
X1427480Y-1103934D01*
X1425244Y-1107236D01*
X1357680Y-1174800D01*
X1354429Y-1176985D01*
G37*

%LPD*%
G36*
X1790395Y-1236370D02*
G01*
X1786280Y-1235252D01*
X1783029Y-1232611D01*
X1781098Y-1228852D01*
X1780133Y-1225346D01*
X1776018Y-1216406D01*
X1770380Y-1208379D01*
X1768805Y-1206804D01*
X1766570Y-1203502D01*
X1765807Y-1199591D01*
X1765807Y-1162608D01*
X1766570Y-1158697D01*
X1768805Y-1155395D01*
X1770380Y-1153820D01*
X1776018Y-1145794D01*
X1780133Y-1136853D01*
X1782673Y-1127404D01*
X1783537Y-1117600D01*
X1782673Y-1107795D01*
X1780133Y-1098346D01*
X1776018Y-1089406D01*
X1770380Y-1081379D01*
X1763420Y-1074420D01*
X1757273Y-1070102D01*
X1754276Y-1066850D01*
X1752955Y-1062685D01*
X1753514Y-1058316D01*
X1755902Y-1054608D01*
X1766824Y-1043635D01*
X1771954Y-1037437D01*
X1775510Y-1030732D01*
X1777695Y-1023518D01*
X1778507Y-1015492D01*
X1778507Y-959408D01*
X1779270Y-955497D01*
X1781505Y-952195D01*
X1783080Y-950620D01*
X1788718Y-942594D01*
X1792833Y-933653D01*
X1795373Y-924204D01*
X1796237Y-914400D01*
X1795373Y-904595D01*
X1792833Y-895146D01*
X1788718Y-886206D01*
X1783080Y-878179D01*
X1776120Y-871219D01*
X1768093Y-865581D01*
X1759153Y-861466D01*
X1749704Y-858926D01*
X1739900Y-858062D01*
X1730095Y-858926D01*
X1720646Y-861466D01*
X1715363Y-863904D01*
X1711401Y-864869D01*
X1707438Y-864158D01*
X1704035Y-862025D01*
X1701698Y-858672D01*
X1700885Y-854710D01*
X1700885Y-841857D01*
X1700174Y-835558D01*
X1698294Y-830071D01*
X1694789Y-824534D01*
X1693418Y-821029D01*
X1693418Y-817270D01*
X1694789Y-813765D01*
X1698294Y-808228D01*
X1700174Y-802741D01*
X1700885Y-796442D01*
X1700885Y-727557D01*
X1700174Y-721258D01*
X1698294Y-715772D01*
X1695196Y-710895D01*
X1691132Y-706780D01*
X1686204Y-703732D01*
X1682496Y-702411D01*
X1678939Y-700278D01*
X1676552Y-696874D01*
X1675688Y-692810D01*
X1675688Y-673862D01*
X1618640Y-673862D01*
X1618640Y-690930D01*
X1617878Y-694842D01*
X1615694Y-698093D01*
X1612392Y-700328D01*
X1608480Y-701090D01*
X1541119Y-701090D01*
X1537208Y-700328D01*
X1533906Y-698093D01*
X1531721Y-694842D01*
X1530959Y-690930D01*
X1530959Y-673862D01*
X1486763Y-673862D01*
X1483106Y-673150D01*
X1479956Y-671220D01*
X1477721Y-668324D01*
X1476654Y-664768D01*
X1476959Y-661060D01*
X1477873Y-657504D01*
X1478788Y-647496D01*
X1479905Y-643585D01*
X1483410Y-637032D01*
X1485595Y-629818D01*
X1486408Y-621792D01*
X1486408Y-606298D01*
X1487170Y-602437D01*
X1489405Y-599135D01*
X1492656Y-596900D01*
X1496568Y-596138D01*
X1530959Y-596138D01*
X1530959Y-582168D01*
X1531721Y-578256D01*
X1533906Y-575005D01*
X1537208Y-572770D01*
X1541119Y-572008D01*
X1586992Y-572008D01*
X1595018Y-571195D01*
X1602232Y-569010D01*
X1603705Y-568248D01*
X1607667Y-567080D01*
X1611833Y-567588D01*
X1615389Y-569772D01*
X1617776Y-573125D01*
X1618640Y-577189D01*
X1618640Y-596138D01*
X1675688Y-596138D01*
X1675688Y-570585D01*
X1674977Y-564235D01*
X1673098Y-558800D01*
X1669999Y-553872D01*
X1662633Y-546963D01*
X1661007Y-543712D01*
X1660601Y-540054D01*
X1661515Y-536549D01*
X1665833Y-527253D01*
X1668373Y-517804D01*
X1669237Y-508000D01*
X1668373Y-498195D01*
X1665833Y-488746D01*
X1664563Y-486003D01*
X1663649Y-481990D01*
X1664360Y-477926D01*
X1666595Y-474522D01*
X1686153Y-454964D01*
X1690725Y-449326D01*
X1693773Y-443331D01*
X1695551Y-436727D01*
X1695957Y-431393D01*
X1695957Y-292506D01*
X1695551Y-287172D01*
X1693925Y-281228D01*
X1693621Y-277622D01*
X1694637Y-266700D01*
X1693773Y-256895D01*
X1691233Y-247446D01*
X1687118Y-238506D01*
X1681480Y-230479D01*
X1678381Y-227380D01*
X1676196Y-224129D01*
X1675434Y-220217D01*
X1676196Y-216306D01*
X1678381Y-213055D01*
X1681683Y-210820D01*
X1685594Y-210058D01*
X1882190Y-210058D01*
X1886051Y-210820D01*
X1889353Y-213055D01*
X1945944Y-269646D01*
X1948180Y-272948D01*
X1948942Y-276809D01*
X1948942Y-619963D01*
X1948078Y-624078D01*
X1945639Y-627481D01*
X1942033Y-629615D01*
X1937918Y-630123D01*
X1930400Y-629462D01*
X1920595Y-630326D01*
X1911146Y-632866D01*
X1902206Y-636981D01*
X1894179Y-642620D01*
X1887220Y-649579D01*
X1884019Y-654151D01*
X1881022Y-656996D01*
X1877161Y-658368D01*
X1873097Y-658164D01*
X1864004Y-655726D01*
X1854200Y-654862D01*
X1844395Y-655726D01*
X1834946Y-658266D01*
X1826006Y-662381D01*
X1817979Y-668020D01*
X1811020Y-674979D01*
X1805381Y-683006D01*
X1801266Y-691946D01*
X1798726Y-701395D01*
X1797862Y-711200D01*
X1798726Y-721004D01*
X1801266Y-730453D01*
X1805381Y-739394D01*
X1811020Y-747420D01*
X1817979Y-754380D01*
X1826006Y-760018D01*
X1834946Y-764133D01*
X1844395Y-766673D01*
X1852422Y-767384D01*
X1855825Y-768299D01*
X1858721Y-770331D01*
X1926894Y-838504D01*
X1929130Y-841806D01*
X1929892Y-845718D01*
X1929892Y-904443D01*
X1929231Y-908050D01*
X1927301Y-911199D01*
X1924354Y-913485D01*
X1920798Y-914501D01*
X1917090Y-914247D01*
X1909622Y-912215D01*
X1899970Y-911402D01*
X1890268Y-912215D01*
X1880819Y-914755D01*
X1872030Y-918870D01*
X1864055Y-924458D01*
X1857146Y-931367D01*
X1851558Y-939342D01*
X1847443Y-948131D01*
X1844903Y-957580D01*
X1844090Y-967282D01*
X1844903Y-976934D01*
X1847443Y-986383D01*
X1851558Y-995171D01*
X1857146Y-1003147D01*
X1864055Y-1010056D01*
X1872030Y-1015644D01*
X1880819Y-1019759D01*
X1890268Y-1022299D01*
X1899970Y-1023112D01*
X1909622Y-1022299D01*
X1917090Y-1020267D01*
X1920798Y-1020013D01*
X1924354Y-1021029D01*
X1927301Y-1023315D01*
X1929231Y-1026464D01*
X1929892Y-1030071D01*
X1929892Y-1097381D01*
X1929130Y-1101293D01*
X1926894Y-1104595D01*
X1798116Y-1233424D01*
X1794560Y-1235710D01*
G37*

%LPD*%
G36*
X845718Y-1320292D02*
G01*
X841806Y-1319530D01*
X838504Y-1317294D01*
X688797Y-1167587D01*
X686562Y-1164285D01*
X685800Y-1160373D01*
X685800Y-1128268D01*
X686562Y-1124356D01*
X688797Y-1121105D01*
X692048Y-1118870D01*
X695960Y-1118108D01*
X876096Y-1118108D01*
X880770Y-1117904D01*
X885190Y-1117295D01*
X889355Y-1116380D01*
X893826Y-1116431D01*
X897890Y-1118412D01*
X900684Y-1121918D01*
X901700Y-1126337D01*
X901700Y-1310132D01*
X900937Y-1314043D01*
X898702Y-1317294D01*
X895451Y-1319530D01*
X891540Y-1320292D01*
G37*

%LPD*%
G36*
X1131468Y-1363827D02*
G01*
X1127099Y-1363268D01*
X1123391Y-1360881D01*
X1107897Y-1345387D01*
X1105662Y-1342085D01*
X1104900Y-1338173D01*
X1104900Y-876858D01*
X1105662Y-872998D01*
X1107897Y-869696D01*
X1135888Y-841705D01*
X1139190Y-839469D01*
X1143050Y-838708D01*
X1156055Y-838708D01*
X1160322Y-839673D01*
X1161846Y-840333D01*
X1171295Y-842873D01*
X1181100Y-843737D01*
X1190904Y-842873D01*
X1200353Y-840333D01*
X1209294Y-836218D01*
X1217320Y-830580D01*
X1224280Y-823620D01*
X1229918Y-815594D01*
X1231087Y-813053D01*
X1233373Y-809904D01*
X1236675Y-807872D01*
X1240536Y-807212D01*
X1244346Y-808024D01*
X1247546Y-810260D01*
X1249680Y-813511D01*
X1250442Y-817372D01*
X1250442Y-1138123D01*
X1249680Y-1142034D01*
X1247444Y-1145336D01*
X1171346Y-1221435D01*
X1166774Y-1227074D01*
X1163726Y-1233068D01*
X1161948Y-1239672D01*
X1161542Y-1245006D01*
X1161542Y-1282293D01*
X1160780Y-1286205D01*
X1158544Y-1289507D01*
X1150620Y-1297330D01*
X1144981Y-1305306D01*
X1140866Y-1314246D01*
X1138326Y-1323695D01*
X1137462Y-1333500D01*
X1138326Y-1343304D01*
X1140409Y-1351076D01*
X1140612Y-1355496D01*
X1138885Y-1359560D01*
X1135684Y-1362506D01*
G37*

%LPD*%
G36*
X36068Y-1612900D02*
G01*
X32156Y-1612138D01*
X28854Y-1609902D01*
X26670Y-1606550D01*
X25908Y-1602638D01*
X26009Y-1590903D01*
X25704Y-1586433D01*
X24180Y-1575663D01*
X23215Y-1571244D01*
X20066Y-1560830D01*
X18440Y-1556664D01*
X13766Y-1546860D01*
X11531Y-1542948D01*
X5384Y-1533956D01*
X2590Y-1530400D01*
X-4826Y-1522476D01*
X-8128Y-1519428D01*
X-16662Y-1512671D01*
X-20370Y-1510131D01*
X-29819Y-1504746D01*
X-33934Y-1502867D01*
X-44043Y-1498955D01*
X-48412Y-1497685D01*
X-59029Y-1495399D01*
X-63296Y-1494790D01*
X-76504Y-1493977D01*
X-548132Y-1493977D01*
X-552043Y-1493215D01*
X-555294Y-1490980D01*
X-557530Y-1487678D01*
X-558292Y-1483817D01*
X-558292Y-874268D01*
X-557530Y-870356D01*
X-555294Y-867105D01*
X-552043Y-864869D01*
X-548132Y-864108D01*
X-76860Y-864108D01*
X-68427Y-862990D01*
X-62433Y-862482D01*
X-57962Y-861720D01*
X-47040Y-859028D01*
X-42722Y-857605D01*
X-32359Y-853287D01*
X-28295Y-851255D01*
X-18694Y-845362D01*
X-14985Y-842721D01*
X-6400Y-835456D01*
X-3149Y-832256D01*
X4216Y-823772D01*
X6908Y-820115D01*
X12903Y-810615D01*
X15036Y-806551D01*
X19507Y-796239D01*
X20980Y-791972D01*
X23774Y-781100D01*
X24587Y-776579D01*
X25908Y-762254D01*
X25908Y-191363D01*
X26822Y-173888D01*
X29209Y-157886D01*
X33172Y-142240D01*
X38658Y-127050D01*
X45618Y-112522D01*
X53949Y-98653D01*
X63601Y-85750D01*
X74523Y-73812D01*
X86512Y-62991D01*
X99517Y-53390D01*
X113385Y-45161D01*
X128016Y-38303D01*
X143205Y-32918D01*
X158902Y-29006D01*
X174853Y-26720D01*
X191363Y-25908D01*
X1242568Y-25908D01*
X1246733Y-26822D01*
X1250137Y-29311D01*
X1252270Y-33020D01*
X1252677Y-37236D01*
X1251305Y-41300D01*
X1248410Y-44399D01*
X1246479Y-45720D01*
X1244142Y-48056D01*
X1241298Y-50088D01*
X1237081Y-51104D01*
X1229868Y-53289D01*
X1223162Y-56845D01*
X1216964Y-61976D01*
X1117295Y-161594D01*
X1113993Y-163830D01*
X1110081Y-164592D01*
X1055268Y-164592D01*
X1051661Y-163931D01*
X1048512Y-162001D01*
X1046226Y-159054D01*
X1045159Y-155498D01*
X1045464Y-151790D01*
X1046073Y-149504D01*
X1046937Y-139700D01*
X1046073Y-129895D01*
X1043533Y-120446D01*
X1039418Y-111506D01*
X1033780Y-103479D01*
X1026820Y-96520D01*
X1018794Y-90881D01*
X1009853Y-86766D01*
X1000404Y-84226D01*
X990600Y-83362D01*
X980795Y-84226D01*
X971346Y-86766D01*
X962406Y-90881D01*
X954379Y-96520D01*
X952804Y-98094D01*
X949502Y-100330D01*
X945591Y-101092D01*
X826008Y-101092D01*
X817981Y-101904D01*
X810768Y-104089D01*
X804062Y-107645D01*
X797864Y-112776D01*
X687882Y-222707D01*
X685749Y-224332D01*
X683310Y-225348D01*
X679246Y-226466D01*
X670306Y-230581D01*
X662279Y-236220D01*
X655320Y-243179D01*
X649681Y-251206D01*
X645566Y-260146D01*
X643026Y-269595D01*
X642162Y-279400D01*
X643026Y-289204D01*
X645566Y-298653D01*
X649681Y-307594D01*
X655320Y-315620D01*
X662279Y-322580D01*
X670306Y-328218D01*
X679246Y-332333D01*
X688695Y-334873D01*
X698500Y-335737D01*
X708304Y-334873D01*
X717753Y-332333D01*
X726694Y-328218D01*
X734720Y-322580D01*
X741680Y-315620D01*
X743000Y-313690D01*
X746099Y-310794D01*
X750163Y-309422D01*
X754380Y-309829D01*
X758088Y-311962D01*
X760577Y-315366D01*
X761492Y-319532D01*
X761492Y-469392D01*
X762304Y-477418D01*
X764489Y-484632D01*
X768045Y-491337D01*
X773176Y-497535D01*
X835964Y-560324D01*
X842162Y-565454D01*
X853186Y-571296D01*
X855726Y-574751D01*
X856640Y-578916D01*
X856640Y-583234D01*
X918159Y-583234D01*
X922019Y-584047D01*
X925321Y-586232D01*
X936294Y-597204D01*
X938530Y-600506D01*
X939292Y-604418D01*
X939292Y-688340D01*
X938530Y-692251D01*
X936294Y-695502D01*
X933043Y-697738D01*
X929132Y-698500D01*
X902716Y-698500D01*
X901700Y-699516D01*
X901700Y-713232D01*
X900937Y-717143D01*
X898702Y-720394D01*
X895451Y-722630D01*
X891540Y-723392D01*
X741172Y-723392D01*
X736955Y-722477D01*
X733501Y-719937D01*
X731418Y-716178D01*
X731062Y-711860D01*
X732536Y-707847D01*
X733704Y-706018D01*
X735584Y-700532D01*
X736295Y-694232D01*
X736295Y-685647D01*
X737057Y-681786D01*
X739292Y-678484D01*
X742594Y-676300D01*
X746455Y-675487D01*
X768959Y-675487D01*
X768959Y-635965D01*
X756615Y-635965D01*
X756615Y-654761D01*
X755853Y-658622D01*
X753668Y-661924D01*
X750366Y-664108D01*
X746455Y-664921D01*
X691743Y-664921D01*
X691743Y-696214D01*
X690880Y-700278D01*
X688441Y-703681D01*
X684834Y-705815D01*
X680720Y-706323D01*
X673100Y-705662D01*
X663295Y-706526D01*
X653846Y-709066D01*
X644906Y-713181D01*
X640842Y-714806D01*
X636473Y-714603D01*
X632612Y-712520D01*
X629970Y-709066D01*
X629056Y-704799D01*
X629056Y-664921D01*
X584504Y-664921D01*
X584504Y-694232D01*
X585216Y-700532D01*
X587095Y-706018D01*
X590194Y-710895D01*
X594309Y-715010D01*
X599186Y-718108D01*
X604672Y-719988D01*
X610971Y-720699D01*
X614476Y-720699D01*
X618439Y-721512D01*
X621792Y-723798D01*
X623976Y-727252D01*
X624636Y-731215D01*
X623671Y-735177D01*
X620166Y-742746D01*
X617626Y-752195D01*
X616762Y-762000D01*
X617626Y-771804D01*
X620166Y-781253D01*
X624281Y-790194D01*
X629920Y-798220D01*
X636879Y-805180D01*
X644906Y-810818D01*
X653846Y-814933D01*
X663295Y-817473D01*
X673100Y-818337D01*
X680872Y-817676D01*
X684936Y-818134D01*
X688492Y-820216D01*
X690981Y-823518D01*
X691896Y-827481D01*
X691184Y-831545D01*
X688949Y-834999D01*
X581253Y-942644D01*
X577951Y-944880D01*
X574090Y-945642D01*
X557580Y-945642D01*
X554532Y-945184D01*
X551738Y-943813D01*
X548894Y-941781D01*
X539953Y-937666D01*
X530504Y-935126D01*
X520700Y-934262D01*
X510895Y-935126D01*
X501446Y-937666D01*
X492506Y-941781D01*
X484479Y-947419D01*
X477520Y-954379D01*
X471881Y-962406D01*
X467766Y-971346D01*
X465226Y-980795D01*
X464362Y-990600D01*
X465226Y-1000404D01*
X465683Y-1002233D01*
X465988Y-1006043D01*
X464820Y-1009700D01*
X462432Y-1012647D01*
X459079Y-1014526D01*
X455320Y-1015034D01*
X441604Y-1011326D01*
X431800Y-1010462D01*
X421995Y-1011326D01*
X412546Y-1013866D01*
X411022Y-1014526D01*
X406755Y-1015492D01*
X393344Y-1015492D01*
X389077Y-1014526D01*
X387553Y-1013866D01*
X378104Y-1011326D01*
X368300Y-1010462D01*
X358495Y-1011326D01*
X349046Y-1013866D01*
X340106Y-1017981D01*
X337261Y-1020013D01*
X334467Y-1021384D01*
X331419Y-1021842D01*
X86309Y-1021943D01*
X82296Y-1021334D01*
X78892Y-1019200D01*
X76555Y-1015898D01*
X75692Y-1011936D01*
X76454Y-1007973D01*
X78689Y-1004620D01*
X141224Y-942035D01*
X146354Y-935837D01*
X149910Y-929132D01*
X152095Y-921918D01*
X152908Y-913892D01*
X152908Y-819708D01*
X153670Y-815797D01*
X155905Y-812495D01*
X157480Y-810920D01*
X163118Y-802894D01*
X167233Y-793953D01*
X169773Y-784504D01*
X170637Y-774700D01*
X169773Y-764895D01*
X167233Y-755446D01*
X163118Y-746506D01*
X157480Y-738479D01*
X150520Y-731520D01*
X142494Y-725881D01*
X133553Y-721766D01*
X124104Y-719226D01*
X114300Y-718362D01*
X104495Y-719226D01*
X95046Y-721766D01*
X86106Y-725881D01*
X78079Y-731520D01*
X71120Y-738479D01*
X65481Y-746506D01*
X61366Y-755446D01*
X58826Y-764895D01*
X57962Y-774700D01*
X58826Y-784504D01*
X61366Y-793953D01*
X65481Y-802894D01*
X71120Y-810920D01*
X72694Y-812495D01*
X74930Y-815797D01*
X75692Y-819708D01*
X75692Y-894181D01*
X74930Y-898093D01*
X72694Y-901395D01*
X-77419Y-1051509D01*
X-80670Y-1053693D01*
X-84582Y-1054455D01*
X-88493Y-1053693D01*
X-91744Y-1051509D01*
X-93980Y-1048207D01*
X-94742Y-1044295D01*
X-94742Y-1029106D01*
X-93980Y-1025194D01*
X-91744Y-1021892D01*
X-83820Y-1014069D01*
X-78181Y-1006094D01*
X-74066Y-997153D01*
X-71526Y-987704D01*
X-70662Y-977900D01*
X-71526Y-968095D01*
X-74066Y-958646D01*
X-78181Y-949706D01*
X-83820Y-941679D01*
X-90779Y-934719D01*
X-98806Y-929081D01*
X-107746Y-924966D01*
X-117195Y-922426D01*
X-127000Y-921562D01*
X-136804Y-922426D01*
X-146253Y-924966D01*
X-155194Y-929081D01*
X-163220Y-934719D01*
X-170180Y-941679D01*
X-175818Y-949706D01*
X-179933Y-958646D01*
X-182473Y-968095D01*
X-183337Y-977900D01*
X-182473Y-987704D01*
X-179933Y-997153D01*
X-175818Y-1006094D01*
X-170180Y-1014069D01*
X-162255Y-1021892D01*
X-160020Y-1025194D01*
X-159258Y-1029106D01*
X-159258Y-1307592D01*
X-158496Y-1314805D01*
X-156413Y-1321206D01*
X-153009Y-1327150D01*
X-149504Y-1331214D01*
X114858Y-1595577D01*
X117043Y-1598828D01*
X117805Y-1602740D01*
X117043Y-1606651D01*
X114858Y-1609902D01*
X111556Y-1612138D01*
X107645Y-1612900D01*
G37*

%LPC*%
G36*
X856640Y-675487D02*
G01*
X887221Y-675487D01*
X893571Y-674776D01*
X899007Y-672896D01*
X903935Y-669798D01*
X907999Y-665734D01*
X911098Y-660806D01*
X912977Y-655370D01*
X913688Y-649020D01*
X913688Y-635965D01*
X856640Y-635965D01*
G37*
G36*
X754176Y-583234D02*
G01*
X768959Y-583234D01*
X768959Y-543712D01*
X742492Y-543712D01*
X739140Y-543102D01*
X736193Y-541477D01*
X733907Y-538937D01*
X730605Y-533704D01*
X726490Y-529590D01*
X721614Y-526491D01*
X716127Y-524611D01*
X709828Y-523900D01*
X691743Y-523900D01*
X691743Y-579678D01*
X746455Y-579678D01*
X750722Y-580644D01*
G37*
G36*
X584504Y-579678D02*
G01*
X629056Y-579678D01*
X629056Y-523900D01*
X610971Y-523900D01*
X604672Y-524611D01*
X599186Y-526491D01*
X594309Y-529590D01*
X590194Y-533704D01*
X587095Y-538581D01*
X585216Y-544068D01*
X584504Y-550367D01*
G37*

%LPD*%
G36*
X1731568Y-1625600D02*
G01*
X1727403Y-1624279D01*
X1724152Y-1621332D01*
X1719580Y-1614779D01*
X1712620Y-1607820D01*
X1705254Y-1602689D01*
X1702917Y-1600403D01*
X1701444Y-1597558D01*
X1700885Y-1594358D01*
X1700885Y-1527657D01*
X1700174Y-1521358D01*
X1698294Y-1515872D01*
X1694789Y-1510334D01*
X1693418Y-1506829D01*
X1693418Y-1503070D01*
X1694789Y-1499565D01*
X1697989Y-1494485D01*
X1700428Y-1491792D01*
X1703679Y-1490167D01*
X1707286Y-1489760D01*
X1710791Y-1490624D01*
X1713788Y-1492707D01*
X1823466Y-1602384D01*
X1825802Y-1605991D01*
X1826412Y-1610207D01*
X1825294Y-1614322D01*
X1822551Y-1617624D01*
X1818690Y-1619453D01*
X1814423Y-1619554D01*
X1810461Y-1617929D01*
X1806193Y-1614881D01*
X1797253Y-1610766D01*
X1787804Y-1608226D01*
X1778000Y-1607362D01*
X1768195Y-1608226D01*
X1758746Y-1610766D01*
X1749806Y-1614881D01*
X1741779Y-1620520D01*
X1739646Y-1622653D01*
X1735937Y-1625041D01*
G37*

%LPD*%
G36*
X1837436Y-1643888D02*
G01*
X1833575Y-1643227D01*
X1830273Y-1641195D01*
X1827987Y-1638046D01*
X1826818Y-1635506D01*
X1823770Y-1631238D01*
X1822145Y-1627276D01*
X1822246Y-1623009D01*
X1824075Y-1619148D01*
X1827377Y-1616405D01*
X1831492Y-1615287D01*
X1835708Y-1615897D01*
X1839315Y-1618234D01*
X1844344Y-1623263D01*
X1846580Y-1626565D01*
X1847342Y-1630476D01*
X1847342Y-1633728D01*
X1846580Y-1637588D01*
X1844446Y-1640839D01*
X1841246Y-1643075D01*
G37*

%LPD*%
G36*
X831951Y-1656842D02*
G01*
X827989Y-1656029D01*
X824636Y-1653692D01*
X822452Y-1650288D01*
X821842Y-1646275D01*
X822807Y-1642313D01*
X827684Y-1632153D01*
X830173Y-1622704D01*
X831037Y-1612900D01*
X830173Y-1603095D01*
X827735Y-1594002D01*
X827532Y-1589938D01*
X828903Y-1586077D01*
X831748Y-1583080D01*
X836320Y-1579880D01*
X843280Y-1572920D01*
X848918Y-1564894D01*
X853033Y-1555953D01*
X855573Y-1546504D01*
X856437Y-1536750D01*
X857605Y-1532839D01*
X860247Y-1529689D01*
X863955Y-1527810D01*
X870153Y-1526133D01*
X879094Y-1522018D01*
X885698Y-1517345D01*
X889762Y-1515668D01*
X894181Y-1515872D01*
X898093Y-1517904D01*
X900734Y-1521358D01*
X901700Y-1525676D01*
X901700Y-1573784D01*
X902716Y-1574800D01*
X1103884Y-1574800D01*
X1104900Y-1573784D01*
X1104900Y-1495196D01*
X1105712Y-1491234D01*
X1107998Y-1487932D01*
X1111402Y-1485747D01*
X1115415Y-1485087D01*
X1119378Y-1486001D01*
X1123746Y-1488033D01*
X1133195Y-1490573D01*
X1143000Y-1491437D01*
X1150518Y-1490776D01*
X1154633Y-1491284D01*
X1158240Y-1493418D01*
X1160678Y-1496822D01*
X1161542Y-1500936D01*
X1161542Y-1582623D01*
X1160780Y-1586534D01*
X1158544Y-1589836D01*
X1094536Y-1653844D01*
X1091234Y-1656080D01*
X1087323Y-1656842D01*
G37*

%LPD*%
G36*
X709676Y-1687982D02*
G01*
X705510Y-1687322D01*
X701954Y-1685036D01*
X683564Y-1666646D01*
X677926Y-1662074D01*
X671931Y-1659026D01*
X665327Y-1657248D01*
X659993Y-1656842D01*
X474776Y-1656842D01*
X470865Y-1656080D01*
X467563Y-1653844D01*
X378764Y-1565046D01*
X373126Y-1560474D01*
X367131Y-1557426D01*
X360527Y-1555648D01*
X355193Y-1555242D01*
X208076Y-1555242D01*
X204165Y-1554480D01*
X200863Y-1552244D01*
X177647Y-1529029D01*
X175412Y-1525727D01*
X174650Y-1521815D01*
X175412Y-1517954D01*
X177647Y-1514652D01*
X182880Y-1509420D01*
X188518Y-1501394D01*
X192633Y-1492453D01*
X195173Y-1483004D01*
X196037Y-1473200D01*
X195224Y-1463497D01*
X195783Y-1459128D01*
X198120Y-1455420D01*
X201828Y-1453083D01*
X206197Y-1452524D01*
X215900Y-1453337D01*
X225704Y-1452473D01*
X235153Y-1449933D01*
X244094Y-1445818D01*
X252120Y-1440180D01*
X253695Y-1438605D01*
X256997Y-1436370D01*
X260908Y-1435608D01*
X538581Y-1435608D01*
X542493Y-1436370D01*
X545795Y-1438605D01*
X715568Y-1608378D01*
X717600Y-1611274D01*
X718515Y-1614678D01*
X719226Y-1622704D01*
X721766Y-1632153D01*
X725881Y-1641093D01*
X728776Y-1645157D01*
X730402Y-1648968D01*
X730402Y-1653032D01*
X728776Y-1656842D01*
X725881Y-1660906D01*
X721766Y-1669796D01*
X718972Y-1680413D01*
X717042Y-1684223D01*
X713790Y-1686864D01*
G37*

%LPD*%
G36*
X965352Y-1783842D02*
G01*
X961339Y-1783029D01*
X957986Y-1780692D01*
X955802Y-1777187D01*
X955192Y-1773174D01*
X956259Y-1769211D01*
X958748Y-1765960D01*
X962914Y-1762404D01*
X975563Y-1749755D01*
X978865Y-1747520D01*
X982776Y-1746757D01*
X1065987Y-1746757D01*
X1069898Y-1747520D01*
X1073200Y-1749755D01*
X1075385Y-1753006D01*
X1076147Y-1756918D01*
X1075385Y-1760829D01*
X1073200Y-1764080D01*
X1056436Y-1780844D01*
X1053134Y-1783080D01*
X1049223Y-1783842D01*
G37*

%LPD*%
G36*
X718108Y-1834642D02*
G01*
X714705Y-1834032D01*
X711708Y-1832356D01*
X709422Y-1829765D01*
X691692Y-1829765D01*
X688492Y-1829257D01*
X685647Y-1827733D01*
X683361Y-1825396D01*
X678180Y-1817979D01*
X671220Y-1811020D01*
X663194Y-1805381D01*
X654253Y-1801266D01*
X644804Y-1798726D01*
X635000Y-1797862D01*
X625195Y-1798726D01*
X615746Y-1801266D01*
X606806Y-1805381D01*
X603808Y-1807514D01*
X601014Y-1808886D01*
X597966Y-1809343D01*
X551840Y-1809343D01*
X551840Y-1817573D01*
X551027Y-1821586D01*
X548640Y-1824939D01*
X545134Y-1827123D01*
X541070Y-1827682D01*
X535889Y-1826006D01*
X533146Y-1823974D01*
X467004Y-1755139D01*
X464870Y-1751888D01*
X464159Y-1748129D01*
X464159Y-1731518D01*
X464921Y-1727606D01*
X467106Y-1724355D01*
X470408Y-1722120D01*
X474319Y-1721357D01*
X541680Y-1721357D01*
X545592Y-1722120D01*
X548894Y-1724355D01*
X551078Y-1727606D01*
X551840Y-1731518D01*
X551840Y-1746656D01*
X608888Y-1746656D01*
X608888Y-1731518D01*
X609701Y-1727606D01*
X611886Y-1724355D01*
X615188Y-1722120D01*
X619048Y-1721357D01*
X642823Y-1721357D01*
X646734Y-1722120D01*
X650036Y-1724355D01*
X658825Y-1733143D01*
X661009Y-1736394D01*
X661822Y-1740154D01*
X661162Y-1743964D01*
X656031Y-1752193D01*
X654100Y-1757629D01*
X653389Y-1763979D01*
X653389Y-1777034D01*
X709422Y-1777034D01*
X711708Y-1774443D01*
X714705Y-1772767D01*
X718108Y-1772157D01*
X780491Y-1772157D01*
X783894Y-1772767D01*
X786892Y-1774443D01*
X789178Y-1777034D01*
X846683Y-1777034D01*
X848969Y-1774443D01*
X851966Y-1772767D01*
X855370Y-1772157D01*
X863447Y-1772157D01*
X867460Y-1772970D01*
X870813Y-1775307D01*
X872998Y-1778812D01*
X873607Y-1782825D01*
X872540Y-1786788D01*
X870051Y-1790039D01*
X865886Y-1793595D01*
X832713Y-1826768D01*
X829411Y-1828952D01*
X825500Y-1829765D01*
X789178Y-1829765D01*
X786892Y-1832356D01*
X783894Y-1834032D01*
X780491Y-1834642D01*
G37*

%LPD*%
G36*
X1541119Y-1834642D02*
G01*
X1537208Y-1833880D01*
X1533906Y-1831644D01*
X1531721Y-1828393D01*
X1530959Y-1824482D01*
X1530959Y-1816862D01*
X1485696Y-1816862D01*
X1481785Y-1816100D01*
X1478483Y-1813864D01*
X1419555Y-1754936D01*
X1417320Y-1751634D01*
X1416558Y-1747723D01*
X1416558Y-1719376D01*
X1417320Y-1715465D01*
X1419555Y-1712163D01*
X1495653Y-1636064D01*
X1500225Y-1630426D01*
X1501190Y-1628546D01*
X1503426Y-1625600D01*
X1506575Y-1623669D01*
X1510233Y-1623009D01*
X1612544Y-1623009D01*
X1616202Y-1623669D01*
X1619351Y-1625600D01*
X1621586Y-1628546D01*
X1622653Y-1632102D01*
X1622348Y-1635810D01*
X1620926Y-1641195D01*
X1620062Y-1651000D01*
X1620926Y-1660804D01*
X1623466Y-1670253D01*
X1624533Y-1672640D01*
X1625498Y-1676755D01*
X1624685Y-1680921D01*
X1622247Y-1684375D01*
X1618640Y-1686560D01*
X1618640Y-1739138D01*
X1675688Y-1739138D01*
X1675688Y-1716735D01*
X1676400Y-1713026D01*
X1678381Y-1709877D01*
X1681378Y-1707591D01*
X1695653Y-1703933D01*
X1704593Y-1699818D01*
X1712620Y-1694180D01*
X1714754Y-1692046D01*
X1718462Y-1689658D01*
X1722831Y-1689100D01*
X1726996Y-1690420D01*
X1730248Y-1693367D01*
X1734820Y-1699920D01*
X1741779Y-1706880D01*
X1747774Y-1711045D01*
X1750060Y-1713331D01*
X1751584Y-1716176D01*
X1752092Y-1719376D01*
X1752092Y-1789531D01*
X1751431Y-1793138D01*
X1749501Y-1796288D01*
X1746554Y-1798574D01*
X1742998Y-1799640D01*
X1739290Y-1799336D01*
X1737004Y-1798726D01*
X1727200Y-1797862D01*
X1717395Y-1798726D01*
X1707946Y-1801266D01*
X1699006Y-1805381D01*
X1690979Y-1811020D01*
X1688134Y-1813864D01*
X1684832Y-1816100D01*
X1680972Y-1816862D01*
X1618640Y-1816862D01*
X1618640Y-1824482D01*
X1617878Y-1828393D01*
X1615694Y-1831644D01*
X1612392Y-1833880D01*
X1608480Y-1834642D01*
G37*

%LPC*%
G36*
X1473911Y-1739138D02*
G01*
X1530959Y-1739138D01*
X1530959Y-1687068D01*
X1500378Y-1687068D01*
X1494028Y-1687779D01*
X1488592Y-1689709D01*
X1483664Y-1692808D01*
X1479600Y-1696872D01*
X1476502Y-1701800D01*
X1474622Y-1707235D01*
X1473911Y-1713585D01*
G37*

%LPD*%
G36*
X1198118Y-1863394D02*
G01*
X1194206Y-1862632D01*
X1190955Y-1860397D01*
X1188720Y-1857095D01*
X1187958Y-1853234D01*
X1187958Y-1820976D01*
X1188720Y-1817065D01*
X1190955Y-1813763D01*
X1218133Y-1786585D01*
X1221384Y-1784400D01*
X1225296Y-1783638D01*
X1229207Y-1784400D01*
X1232458Y-1786585D01*
X1234694Y-1789887D01*
X1235456Y-1793798D01*
X1235456Y-1853234D01*
X1234694Y-1857095D01*
X1232458Y-1860397D01*
X1229207Y-1862632D01*
X1225296Y-1863394D01*
G37*

%LPD*%
G36*
X1406499Y-1967992D02*
G01*
X1402588Y-1967230D01*
X1399286Y-1964994D01*
X1397101Y-1961743D01*
X1396339Y-1957832D01*
X1396339Y-1889861D01*
X1395628Y-1883562D01*
X1393698Y-1878075D01*
X1390599Y-1873199D01*
X1386535Y-1869084D01*
X1381607Y-1866036D01*
X1376172Y-1864106D01*
X1369822Y-1863394D01*
X1335532Y-1863394D01*
X1331620Y-1862632D01*
X1328369Y-1860397D01*
X1326134Y-1857095D01*
X1325372Y-1853234D01*
X1325372Y-1764995D01*
X1326134Y-1761134D01*
X1328369Y-1757832D01*
X1334719Y-1751482D01*
X1337970Y-1749298D01*
X1341882Y-1748485D01*
X1345793Y-1749298D01*
X1349044Y-1751482D01*
X1351280Y-1754784D01*
X1352042Y-1758645D01*
X1352042Y-1764792D01*
X1352804Y-1772005D01*
X1354886Y-1778406D01*
X1358290Y-1784350D01*
X1361795Y-1788414D01*
X1462735Y-1889353D01*
X1468374Y-1893925D01*
X1474368Y-1896973D01*
X1480972Y-1898751D01*
X1486306Y-1899157D01*
X1690319Y-1899157D01*
X1693367Y-1899615D01*
X1696161Y-1900986D01*
X1699006Y-1903018D01*
X1707946Y-1907133D01*
X1717395Y-1909673D01*
X1727200Y-1910537D01*
X1730908Y-1910232D01*
X1734972Y-1910689D01*
X1738528Y-1912772D01*
X1741017Y-1916074D01*
X1741932Y-1920036D01*
X1741220Y-1924100D01*
X1738985Y-1927555D01*
X1706321Y-1960168D01*
X1703425Y-1962200D01*
X1700022Y-1963115D01*
X1691995Y-1963826D01*
X1682546Y-1966366D01*
X1681022Y-1967026D01*
X1676755Y-1967992D01*
G37*

%LPD*%
G36*
X1406499Y-2152142D02*
G01*
X1402588Y-2151380D01*
X1399286Y-2149144D01*
X1397101Y-2145893D01*
X1396339Y-2141982D01*
X1396339Y-2080768D01*
X1397101Y-2076856D01*
X1399286Y-2073605D01*
X1402588Y-2071370D01*
X1406499Y-2070607D01*
X1516837Y-2070607D01*
X1520748Y-2071370D01*
X1524050Y-2073605D01*
X1526235Y-2076856D01*
X1526997Y-2080768D01*
X1526235Y-2084679D01*
X1524050Y-2087930D01*
X1462836Y-2149144D01*
X1459534Y-2151380D01*
X1455623Y-2152142D01*
G37*

%LPD*%
G36*
X835660Y-2222500D02*
G01*
X831748Y-2221738D01*
X828497Y-2219502D01*
X826262Y-2216251D01*
X825500Y-2212340D01*
X825500Y-2109216D01*
X824484Y-2108200D01*
X657860Y-2108200D01*
X653948Y-2107438D01*
X650697Y-2105202D01*
X648462Y-2101951D01*
X647700Y-2098040D01*
X647700Y-1947418D01*
X648462Y-1943506D01*
X650697Y-1940255D01*
X653948Y-1938020D01*
X657860Y-1937257D01*
X837692Y-1937257D01*
X844905Y-1936496D01*
X851001Y-1934514D01*
X854760Y-1934057D01*
X858469Y-1934972D01*
X861517Y-1937207D01*
X863549Y-1940458D01*
X864260Y-1944166D01*
X864260Y-1947925D01*
X928827Y-1947925D01*
X928827Y-1883918D01*
X929589Y-1880006D01*
X931824Y-1876755D01*
X935126Y-1874520D01*
X938987Y-1873757D01*
X1021384Y-1873757D01*
X1025245Y-1874520D01*
X1028547Y-1876755D01*
X1030782Y-1880006D01*
X1031544Y-1883918D01*
X1031544Y-1947925D01*
X1049782Y-1947925D01*
X1053693Y-1948738D01*
X1056944Y-1950923D01*
X1059180Y-1954225D01*
X1059942Y-1958086D01*
X1059942Y-2080514D01*
X1059180Y-2084374D01*
X1056944Y-2087676D01*
X1053693Y-2089861D01*
X1049782Y-2090674D01*
X1031544Y-2090674D01*
X1031544Y-2150618D01*
X1030630Y-2154834D01*
X1028039Y-2158288D01*
X1024280Y-2160371D01*
X1019962Y-2160676D01*
X1014984Y-2159000D01*
X940816Y-2159000D01*
X936396Y-2158796D01*
X932484Y-2156815D01*
X929792Y-2153310D01*
X928827Y-2148992D01*
X928827Y-2090674D01*
X864260Y-2090674D01*
X864260Y-2148738D01*
X864971Y-2155037D01*
X866902Y-2160524D01*
X870000Y-2165400D01*
X874064Y-2169515D01*
X878992Y-2172563D01*
X884428Y-2174494D01*
X890778Y-2175205D01*
X929640Y-2175205D01*
X933551Y-2175967D01*
X936802Y-2178202D01*
X939037Y-2181504D01*
X939800Y-2185365D01*
X939800Y-2212340D01*
X939037Y-2216251D01*
X936802Y-2219502D01*
X933551Y-2221738D01*
X929640Y-2222500D01*
G37*

%LPD*%
G36*
X1026160Y-2323592D02*
G01*
X1022248Y-2322830D01*
X1018997Y-2320594D01*
X1016762Y-2317343D01*
X1016000Y-2313432D01*
X1016000Y-2185365D01*
X1016762Y-2181504D01*
X1018997Y-2178202D01*
X1022248Y-2175967D01*
X1026160Y-2175205D01*
X1049883Y-2175205D01*
X1053541Y-2175865D01*
X1056690Y-2177796D01*
X1058926Y-2180742D01*
X1059992Y-2184298D01*
X1060704Y-2191105D01*
X1062786Y-2197506D01*
X1066190Y-2203450D01*
X1069695Y-2207514D01*
X1132535Y-2270353D01*
X1138174Y-2274925D01*
X1144168Y-2277973D01*
X1150772Y-2279751D01*
X1156106Y-2280158D01*
X1537919Y-2280158D01*
X1540967Y-2280615D01*
X1543761Y-2281986D01*
X1546606Y-2284018D01*
X1555546Y-2288133D01*
X1564995Y-2290673D01*
X1574800Y-2291537D01*
X1584604Y-2290673D01*
X1594053Y-2288133D01*
X1602994Y-2284018D01*
X1611020Y-2278380D01*
X1617980Y-2271420D01*
X1623618Y-2263394D01*
X1627733Y-2254453D01*
X1630273Y-2245004D01*
X1631137Y-2235250D01*
X1632305Y-2231339D01*
X1634947Y-2228189D01*
X1638655Y-2226310D01*
X1644853Y-2224633D01*
X1653793Y-2220518D01*
X1661820Y-2214880D01*
X1668780Y-2207920D01*
X1674418Y-2199894D01*
X1678533Y-2190953D01*
X1681073Y-2181504D01*
X1681937Y-2171700D01*
X1681073Y-2161895D01*
X1678635Y-2152802D01*
X1678432Y-2148738D01*
X1679803Y-2144877D01*
X1682648Y-2141880D01*
X1687220Y-2138680D01*
X1694180Y-2131720D01*
X1700326Y-2122881D01*
X1702816Y-2120392D01*
X1706016Y-2118868D01*
X1709572Y-2118563D01*
X1712975Y-2119477D01*
X1720646Y-2123033D01*
X1730095Y-2125573D01*
X1739900Y-2126437D01*
X1749704Y-2125573D01*
X1759153Y-2123033D01*
X1768093Y-2118918D01*
X1776120Y-2113280D01*
X1783080Y-2106320D01*
X1788718Y-2098294D01*
X1792833Y-2089353D01*
X1795373Y-2079904D01*
X1796237Y-2070100D01*
X1795373Y-2060295D01*
X1792833Y-2050846D01*
X1788718Y-2041906D01*
X1783080Y-2033879D01*
X1776120Y-2026920D01*
X1769973Y-2022602D01*
X1766976Y-2019350D01*
X1765655Y-2015185D01*
X1766214Y-2010816D01*
X1768602Y-2007107D01*
X1817624Y-1958035D01*
X1822754Y-1951837D01*
X1826310Y-1945132D01*
X1828495Y-1937918D01*
X1829307Y-1929892D01*
X1829307Y-1767332D01*
X1830273Y-1763014D01*
X1832914Y-1759559D01*
X1836826Y-1757527D01*
X1841246Y-1757324D01*
X1845310Y-1759000D01*
X1851406Y-1763318D01*
X1860346Y-1767433D01*
X1869795Y-1769973D01*
X1879600Y-1770837D01*
X1889404Y-1769973D01*
X1898853Y-1767433D01*
X1907793Y-1763318D01*
X1915820Y-1757680D01*
X1922780Y-1750720D01*
X1928418Y-1742693D01*
X1932533Y-1733753D01*
X1935073Y-1724304D01*
X1935937Y-1714500D01*
X1935073Y-1704695D01*
X1932533Y-1695246D01*
X1928418Y-1686306D01*
X1922780Y-1678330D01*
X1914855Y-1670507D01*
X1912620Y-1667205D01*
X1911857Y-1663293D01*
X1911857Y-1613408D01*
X1911096Y-1606194D01*
X1909013Y-1599793D01*
X1905609Y-1593850D01*
X1902104Y-1589786D01*
X1765452Y-1453134D01*
X1763217Y-1449832D01*
X1762455Y-1445920D01*
X1763217Y-1442059D01*
X1765452Y-1438757D01*
X1828749Y-1375460D01*
X1832305Y-1373174D01*
X1836470Y-1372514D01*
X1840534Y-1373581D01*
X1843836Y-1376222D01*
X1845767Y-1380032D01*
X1847443Y-1386382D01*
X1851558Y-1395171D01*
X1857146Y-1403146D01*
X1864055Y-1410055D01*
X1872030Y-1415643D01*
X1880819Y-1419758D01*
X1890268Y-1422298D01*
X1899970Y-1423111D01*
X1909622Y-1422298D01*
X1919071Y-1419758D01*
X1927860Y-1415643D01*
X1935835Y-1410055D01*
X1942744Y-1403146D01*
X1948332Y-1395171D01*
X1952447Y-1386382D01*
X1954987Y-1376934D01*
X1955800Y-1367282D01*
X1954987Y-1357579D01*
X1952447Y-1348130D01*
X1948332Y-1339342D01*
X1942744Y-1331366D01*
X1935835Y-1324457D01*
X1927860Y-1318869D01*
X1919071Y-1314754D01*
X1912721Y-1313078D01*
X1908911Y-1311148D01*
X1906270Y-1307846D01*
X1905203Y-1303782D01*
X1905863Y-1299616D01*
X1908149Y-1296060D01*
X2046224Y-1157935D01*
X2051354Y-1151737D01*
X2054910Y-1145032D01*
X2057095Y-1137818D01*
X2057907Y-1129792D01*
X2057907Y-799795D01*
X2058670Y-795934D01*
X2060905Y-792632D01*
X2064156Y-790448D01*
X2068068Y-789635D01*
X2071979Y-790448D01*
X2075230Y-792632D01*
X2136444Y-853846D01*
X2138680Y-857148D01*
X2139442Y-861009D01*
X2139442Y-1156919D01*
X2138984Y-1159967D01*
X2137613Y-1162761D01*
X2135581Y-1165606D01*
X2131466Y-1174546D01*
X2128926Y-1183995D01*
X2128062Y-1193800D01*
X2128926Y-1203604D01*
X2131466Y-1213053D01*
X2135581Y-1221994D01*
X2141220Y-1230020D01*
X2148179Y-1236980D01*
X2156206Y-1242618D01*
X2165146Y-1246733D01*
X2174595Y-1249273D01*
X2184400Y-1250137D01*
X2194204Y-1249273D01*
X2203653Y-1246733D01*
X2212594Y-1242618D01*
X2218690Y-1238300D01*
X2222754Y-1236624D01*
X2227173Y-1236827D01*
X2231085Y-1238859D01*
X2233726Y-1242314D01*
X2234692Y-1246632D01*
X2234692Y-1653032D01*
X2233930Y-1656943D01*
X2231694Y-1660194D01*
X2228443Y-1662430D01*
X2224532Y-1663192D01*
X2122017Y-1663192D01*
X2107996Y-1664157D01*
X2103424Y-1664868D01*
X2092350Y-1667510D01*
X2087930Y-1668932D01*
X2077364Y-1673250D01*
X2073198Y-1675333D01*
X2063496Y-1681276D01*
X2059686Y-1684020D01*
X2050999Y-1691386D01*
X2047697Y-1694688D01*
X2040280Y-1703324D01*
X2037537Y-1707083D01*
X2031542Y-1716786D01*
X2029409Y-1720900D01*
X2025040Y-1731416D01*
X2023567Y-1735836D01*
X2020874Y-1746910D01*
X2020112Y-1751533D01*
X2018792Y-1765909D01*
X2018792Y-2158136D01*
X2017877Y-2175611D01*
X2015489Y-2191613D01*
X2011527Y-2207260D01*
X2006041Y-2222449D01*
X1999081Y-2236978D01*
X1990750Y-2250846D01*
X1981098Y-2263749D01*
X1970176Y-2275687D01*
X1958187Y-2286508D01*
X1945182Y-2296109D01*
X1931314Y-2304338D01*
X1916684Y-2311196D01*
X1901494Y-2316581D01*
X1885797Y-2320493D01*
X1869846Y-2322779D01*
X1853336Y-2323592D01*
G37*

%LPD*%
D11*
X917983Y-1230299D02*
G01*
X836599Y-1230299D01*
X774700Y-1168400D01*
D10*
X863600Y-901700D02*
G01*
X863600Y-1003300D01*
X876300Y-1016000D01*
X901700Y-1016000D01*
X914400Y-1028700D01*
D11*
X1308100Y-1295400D02*
G01*
X1346200Y-1333500D01*
X1346200Y-1536700D01*
X1066800Y-1816100D01*
X889000Y-1816100D01*
X838200Y-1866900D01*
X647700Y-1866900D01*
X635000Y-1854200D01*
D13*
X-293370Y-1093470D02*
G01*
X-293370Y-1230629D01*
X-76200Y-1447800D01*
X-50800Y-1447800D01*
X50800Y-1549400D01*
X50800Y-1574800D01*
X977900Y-2019300D02*
G01*
X850900Y-2146300D01*
X850900Y-2222500D01*
D10*
X774700Y-1612900D02*
G01*
X558800Y-1397000D01*
X215900Y-1397000D01*
X520700Y-1206500D02*
G01*
X596900Y-1206500D01*
X800100Y-1409700D01*
X965200Y-1409700D01*
X1016000Y-1460500D01*
X571500Y-1143000D02*
G01*
X609600Y-1143000D01*
X825500Y-1358900D01*
X1066800Y-1358900D01*
X1143000Y-1435100D01*
X800100Y-1536700D02*
G01*
X774700Y-1536700D01*
X584200Y-1346200D01*
X444500Y-1346200D01*
X406400Y-1308100D01*
X469900Y-1270000D02*
G01*
X508000Y-1308100D01*
X622300Y-1308100D01*
X787400Y-1473200D01*
X850900Y-1473200D01*
X114300Y-774700D02*
G01*
X114300Y-914400D01*
X-63500Y-1092200D01*
X-63500Y-1193800D01*
X-38100Y-1219200D01*
X63500Y-1219200D01*
X139700Y-1143000D01*
X571500Y-1143000D01*
D12*
X431800Y-1066800D02*
G01*
X368300Y-1066800D01*
D10*
X673100Y-762000D02*
G01*
X939800Y-762000D01*
X977900Y-723900D01*
X977900Y-584200D01*
X927100Y-533400D01*
X863600Y-533400D01*
X800100Y-469900D01*
X800100Y-241300D01*
X838200Y-203200D01*
X1130300Y-203200D01*
X1244600Y-88900D01*
X1282700Y-88900D01*
D13*
X368300Y-1066800D02*
G01*
X88900Y-1066800D01*
X0Y-1155700D01*
D12*
X1181100Y-723900D02*
G01*
X1181100Y-787400D01*
X1739900Y-2070100D02*
G01*
X1701800Y-2032000D01*
X1701800Y-2019300D01*
D10*
X1778000Y-1663700D02*
G01*
X1790700Y-1676400D01*
X1790700Y-1930400D01*
X1701800Y-2019300D01*
D12*
X1701800Y-2019300D02*
G01*
X1280411Y-2019300D01*
D13*
X1447800Y-1270000D02*
G01*
X1435100Y-1282700D01*
X1435100Y-1587500D01*
X1280413Y-1742186D01*
X1280413Y-2019300D01*
D11*
X1295400Y-1435100D02*
G01*
X1295400Y-1549400D01*
X1130300Y-1714500D01*
X965200Y-1714500D01*
X939800Y-1739900D01*
X711200Y-1739900D01*
X660400Y-1689100D01*
X457200Y-1689100D01*
X355600Y-1587500D01*
X190500Y-1587500D01*
X139700Y-1536700D01*
X139700Y-1473200D01*
X1193800Y-1333500D02*
G01*
X1193800Y-1600200D01*
X1104900Y-1689100D01*
X774700Y-1689100D01*
D13*
X546100Y-1779447D02*
G01*
X725347Y-1779447D01*
X749300Y-1803400D01*
D11*
X1587500Y-1104900D02*
G01*
X1524000Y-1104900D01*
X1397000Y-1231900D01*
X1397000Y-1562100D01*
X1155700Y-1803400D01*
X1155700Y-2171700D01*
X1168400Y-2184400D01*
X1473200Y-2184400D01*
X1562100Y-2095500D01*
X1651000Y-2095500D01*
X1587500Y-1333500D02*
G01*
X1536700Y-1333500D01*
X1473200Y-1397000D01*
X1473200Y-1612900D01*
X1384300Y-1701800D01*
X1384300Y-1765300D01*
X1485900Y-1866900D01*
X1714500Y-1866900D01*
X1727200Y-1854200D01*
D10*
X1485900Y-419100D02*
G01*
X914400Y-419100D01*
X1549400Y-368300D02*
G01*
X1524000Y-342900D01*
X914400Y-342900D01*
X1765300Y-330212D02*
G01*
X1765300Y-444500D01*
X1574800Y-635000D01*
X1676400Y-990600D02*
G01*
X1587500Y-990600D01*
X1358900Y-774700D02*
G01*
X1384300Y-774700D01*
X1524000Y-635000D01*
X1574800Y-635000D01*
X1854200Y-711200D02*
G01*
X1968500Y-825500D01*
X1968500Y-1117600D01*
X1752600Y-1333500D01*
X1587500Y-1333500D01*
X1930400Y-685800D02*
G01*
X2019300Y-774700D01*
X2019300Y-1130300D01*
X1701800Y-1447800D01*
X1587500Y-1447800D01*
X1422400Y-647700D02*
G01*
X1447800Y-622300D01*
X1447800Y-558800D01*
X1473200Y-533400D01*
X1587500Y-533400D01*
X1612900Y-508000D01*
X2120900Y-1409700D02*
G01*
X2033346Y-1497253D01*
X1857448Y-1497253D01*
X1857448Y-1497253D02*
G01*
X1857448Y-1527248D01*
X1981200Y-1651000D01*
X1981200Y-1866900D01*
D14*
X1587500Y-1219200D02*
G01*
X1498600Y-1219200D01*
X1447800Y-1270000D01*
D10*
X2120900Y-1409700D02*
G01*
X2120900Y-939800D01*
D13*
X643991Y-2002891D02*
G01*
X660400Y-2019300D01*
X977900Y-2019300D01*
D10*
X1790700Y-762000D02*
G01*
X1663700Y-635000D01*
X1574800Y-635000D01*
X1739900Y-914400D02*
G01*
X1739900Y-1016000D01*
X1651000Y-1104900D01*
X1587500Y-1104900D01*
X1727200Y-1117600D02*
G01*
X1727200Y-1244600D01*
D15*
X1435100Y-1739900D02*
G01*
X1473200Y-1778000D01*
X1574800Y-1778000D01*
D10*
X1981200Y-1866900D02*
G01*
X1981200Y-2133600D01*
X1892300Y-2222500D01*
D11*
X1587500Y-1447800D02*
G01*
X1714500Y-1447800D01*
X1879600Y-1612900D01*
X1879600Y-1714500D01*
X1574800Y-1778000D02*
G01*
X1663700Y-1778000D01*
X1727200Y-1714500D01*
X1727200Y-1638300D01*
X1752600Y-1612900D01*
X1803400Y-1612900D01*
X1828800Y-1638300D01*
X1828800Y-1803400D01*
X1892300Y-1866900D01*
X1981200Y-1866900D01*
D10*
X990600Y-139700D02*
G01*
X825500Y-139700D01*
X698500Y-266700D01*
X698500Y-279400D01*
X660400Y-622300D02*
G01*
X622300Y-584200D01*
X495300Y-584200D01*
X812800Y-609600D02*
G01*
X825500Y-609600D01*
X914400Y-698500D01*
X838200Y-622300D01*
X660400Y-622300D01*
X914400Y-698500D02*
G01*
X901700Y-698500D01*
X812800Y-609600D01*
X495300Y-584200D02*
G01*
X421043Y-658456D01*
X421043Y-839406D01*
X495300Y-584200D02*
G01*
X177800Y-584200D01*
X50800Y-711200D01*
X50800Y-800100D01*
X-25400Y-876300D01*
X-165100Y-876300D01*
X-293329Y-1004529D01*
X-293329Y-1093409D01*
D11*
X1574800Y-2235200D02*
G01*
X1562100Y-2247900D01*
X1155700Y-2247900D01*
X1092200Y-2184400D01*
X1092200Y-1879600D01*
X1054100Y-1841500D01*
X901700Y-1841500D01*
X838200Y-1905000D01*
X571500Y-1905000D01*
X520700Y-1854200D01*
X419100Y-1854200D01*
X406400Y-1841500D01*
X406400Y-1689100D01*
X342900Y-1625600D01*
X190500Y-1625600D01*
X-127000Y-1308100D01*
X-127000Y-977900D01*
X1587500Y-876300D02*
G01*
X1511300Y-876300D01*
X1460500Y-927100D01*
X1460500Y-1117600D01*
X1371600Y-1206500D01*
X1371600Y-1549400D01*
X1130300Y-1790700D01*
X1130300Y-2184400D01*
X1155700Y-2209800D01*
X1498600Y-2209800D01*
X1536700Y-2171700D01*
X1625600Y-2171700D01*
D13*
X1892300Y-2222500D02*
G01*
X1816100Y-2298700D01*
X1117600Y-2298700D01*
X1053845Y-2235200D01*
X1053845Y-2121154D01*
X977900Y-2044954D01*
X977900Y-2019300D01*
X1003300Y-520700D02*
G01*
X965200Y-482600D01*
X876300Y-482600D01*
X850900Y-457200D01*
X850900Y-304800D01*
X901700Y-254000D01*
X1206500Y-254000D01*
X1397000Y-63500D01*
X1041400Y-647700D02*
G01*
X1041400Y-558800D01*
X1003300Y-520700D01*
X1625600Y-165100D02*
G01*
X1905000Y-165100D01*
X1993900Y-254000D01*
X1993900Y-647700D01*
X2184400Y-838200D01*
X2184400Y-1193800D01*
D11*
X1638300Y-266700D02*
G01*
X1663700Y-292100D01*
X1663700Y-431800D01*
X1638300Y-457200D01*
X1574800Y-457200D01*
X1536700Y-495300D01*
X1458572Y-495300D01*
X1308100Y-645772D01*
X1308100Y-1295400D01*
D13*
X520700Y-990600D02*
G01*
X596900Y-990600D01*
X762000Y-825500D01*
X977900Y-825500D01*
X1041400Y-762000D01*
X1041400Y-647700D01*
D11*
X1765300Y-330225D02*
G01*
X1765300Y-292100D01*
X1689100Y-215900D01*
X1562100Y-215900D01*
X1524000Y-177800D01*
X1397000Y-177800D01*
X1295400Y-279400D01*
D12*
X914400Y-1028700D02*
G01*
X876300Y-1066800D01*
X431800Y-1066800D01*
X1181100Y-787400D02*
G01*
X1117600Y-787400D01*
X914400Y-990600D01*
X914400Y-1028700D01*
D11*
X1155700Y-876300D02*
G01*
X1155700Y-1054938D01*
X980546Y-1230088D01*
X917991Y-1230299D01*
X1612900Y-406400D02*
G01*
X1587500Y-406400D01*
X1524000Y-469900D01*
X1447800Y-469900D01*
X1282700Y-635000D01*
X1282700Y-1155700D01*
X1193800Y-1244600D01*
X1193800Y-1333500D01*
D10*
X1206500Y-482600D02*
G01*
X1206500Y-635000D01*
X1244600Y-673100D01*
X1244600Y-838200D01*
X1206500Y-876300D01*
X1155700Y-876300D01*
G36*
X1370406Y-1889302D02*
G01*
X1190421Y-1889302D01*
X1190421Y-2149297D01*
X1370406Y-2149297D01*
G37*
G36*
X1070178Y-1889302D02*
G01*
X890193Y-1889302D01*
X890193Y-2149297D01*
X1070178Y-2149297D01*
G37*
G36*
X1499999Y-726998D02*
G01*
X1499999Y-797001D01*
X1675000Y-797001D01*
X1675000Y-726998D01*
G37*
G36*
X1499999Y-841298D02*
G01*
X1499999Y-911301D01*
X1675000Y-911301D01*
X1675000Y-841298D01*
G37*
G36*
X1499999Y-955598D02*
G01*
X1499999Y-1025601D01*
X1675000Y-1025601D01*
X1675000Y-955598D01*
G37*
G36*
X1499999Y-1069898D02*
G01*
X1499999Y-1139901D01*
X1675000Y-1139901D01*
X1675000Y-1069898D01*
G37*
G36*
X1499999Y-1527098D02*
G01*
X1499999Y-1597101D01*
X1675000Y-1597101D01*
X1675000Y-1527098D01*
G37*
G36*
X1499999Y-1412798D02*
G01*
X1499999Y-1482801D01*
X1675000Y-1482801D01*
X1675000Y-1412798D01*
G37*
G36*
X1499999Y-1298498D02*
G01*
X1499999Y-1368501D01*
X1675000Y-1368501D01*
X1675000Y-1298498D01*
G37*
G36*
X1499999Y-1184198D02*
G01*
X1499999Y-1254201D01*
X1675000Y-1254201D01*
X1675000Y-1184198D01*
G37*
G36*
X1499798Y-569998D02*
G01*
X1499798Y-700001D01*
X1649801Y-700001D01*
X1649801Y-569998D01*
G37*
G36*
X1499798Y-1712998D02*
G01*
X1499798Y-1843001D01*
X1649801Y-1843001D01*
X1649801Y-1712998D01*
G37*
G36*
X432998Y-1728000D02*
G01*
X432998Y-1827999D01*
X583001Y-1827999D01*
X583001Y-1728000D01*
G37*
G36*
X610400Y-549800D02*
G01*
X610400Y-694799D01*
X710399Y-694799D01*
X710399Y-549800D01*
G37*
G36*
X737798Y-569600D02*
G01*
X737798Y-649599D01*
X887801Y-649599D01*
X887801Y-569600D01*
G37*
G36*
X679300Y-1763400D02*
G01*
X679300Y-1843399D01*
X819299Y-1843399D01*
X819299Y-1763400D01*
G37*
D19*
G01*
X495300Y-584200D03*
G01*
X1282700Y-88900D03*
G01*
X1701800Y-2019300D03*
G01*
X1930400Y-685800D03*
G01*
X1854200Y-711200D03*
G01*
X1739900Y-914400D03*
G01*
X1587500Y-876300D03*
G01*
X1651000Y-2095500D03*
G01*
X1625600Y-2171700D03*
G01*
X1879600Y-1714500D03*
G01*
X1727200Y-1854200D03*
G01*
X1676400Y-1651000D03*
G01*
X774700Y-1689100D03*
G01*
X635000Y-1854200D03*
G01*
X1727200Y-1117600D03*
G01*
X1727200Y-1244600D03*
G01*
X1549400Y-368300D03*
G01*
X1485900Y-419100D03*
G01*
X914400Y-342900D03*
G01*
X914400Y-419100D03*
G01*
X1638300Y-266700D03*
G01*
X1612900Y-406400D03*
G01*
X990600Y-139700D03*
G01*
X698500Y-279400D03*
G01*
X673100Y-762000D03*
G01*
X1765300Y-330225D03*
G01*
X1295400Y-279400D03*
G01*
X1308100Y-1295400D03*
G01*
X1193800Y-1333500D03*
G01*
X1358900Y-774700D03*
G01*
X1981200Y-1866900D03*
G01*
X2120900Y-1409700D03*
G01*
X1857451Y-1497253D03*
G01*
X1892300Y-2222500D03*
G01*
X2120900Y-939800D03*
G01*
X1676400Y-990600D03*
G01*
X1422400Y-647700D03*
G01*
X1612900Y-508000D03*
G01*
X1778000Y-1663700D03*
G01*
X1447800Y-1270000D03*
G01*
X850900Y-2222500D03*
G01*
X647700Y-2095500D03*
G01*
X643991Y-2002891D03*
G01*
X520700Y-990600D03*
G01*
X1041400Y-647700D03*
G01*
X977900Y-2019300D03*
G01*
X1790700Y-762000D03*
G01*
X2184400Y-1193800D03*
G01*
X368300Y-1066800D03*
G01*
X0Y-1155700D03*
G01*
X1143000Y-1435100D03*
G01*
X114300Y-774700D03*
G01*
X1574800Y-2235200D03*
G01*
X-127000Y-977900D03*
G01*
X520700Y-1206500D03*
G01*
X469900Y-1270000D03*
G01*
X406400Y-1308100D03*
G01*
X215900Y-1397000D03*
G01*
X1435100Y-1739900D03*
G01*
X546100Y-1779447D03*
G01*
X914400Y-698500D03*
G01*
X421055Y-839419D03*
G01*
X-293319Y-1093419D03*
G01*
X571500Y-1143000D03*
G01*
X774700Y-1612900D03*
G01*
X914400Y-1028700D03*
G01*
X800100Y-1536700D03*
G01*
X850900Y-1473200D03*
G01*
X1016000Y-1460500D03*
G01*
X1041400Y-1638300D03*
G01*
X419100Y-1485900D03*
G01*
X1346200Y-1803400D03*
G01*
X1435100Y-2120900D03*
G01*
X1016000Y-1765300D03*
G01*
X50800Y-1574800D03*
G01*
X1295400Y-1435100D03*
G01*
X139700Y-1473200D03*
G01*
X1181100Y-723900D03*
G01*
X1181100Y-787400D03*
G01*
X1739900Y-2070100D03*
G01*
X1206500Y-1828800D03*
G01*
X431800Y-1066800D03*
G01*
X1206500Y-482600D03*
G01*
X1498600Y-254000D03*
G01*
X215900Y-88900D03*
G01*
X101600Y-292100D03*
G01*
X1625600Y-165100D03*
G01*
X1397000Y-63500D03*
G01*
X1003300Y-520700D03*
G01*
X1155700Y-876300D03*
G01*
X917981Y-1230299D03*
G01*
X863600Y-901700D03*
G01*
X774700Y-1168400D03*
M02*
